<?xml version="1.0" encoding="UTF-8" standalone="no"?>
<!DOCTYPE svg PUBLIC "-//W3C//DTD SVG 1.1//EN"
 "http://www.w3.org/Graphics/SVG/1.1/DTD/svg11.dtd">
<!-- Generated by graphviz version 2.26.3 (20100126.1600)
 -->
<!-- Title: scalaz 7.2.0 diagram Pages: 1 -->
<svg width="552pt" height="434pt"
 viewBox="0.00 0.00 552.00 434.00" xmlns="http://www.w3.org/2000/svg" xmlns:xlink="http://www.w3.org/1999/xlink">
<g id="graph1" class="graph" transform="scale(1 1) rotate(0) translate(4 430)">
<title>scalaz 7.2.0 diagram</title>
<polygon fill="white" stroke="white" points="-4,5 -4,-430 549,-430 549,5 -4,5"/>
<!-- scalaz.Applicative -->
<g id="node1" class="node"><title>scalaz.Applicative</title>
<a xlink:href="https://github.com/scalaz/scalaz/tree/v7.2.0/core/src/main/scala/scalaz/Applicative.scala" xlink:title="scalaz.Applicative" target="_blank">
<polygon fill="#799f5a" stroke="black" points="195,-198.5 195,-227.5 263,-227.5 263,-198.5 195,-198.5"/>
<text text-anchor="middle" x="229" y="-210.5" font-family="Times Roman,serif" font-size="10.00">Applicative</text>
</a>
</g>
<!-- scalaz.Apply -->
<g id="node3" class="node"><title>scalaz.Apply</title>
<a xlink:href="https://github.com/scalaz/scalaz/tree/v7.2.0/core/src/main/scala/scalaz/Apply.scala" xlink:title="scalaz.Apply" target="_blank">
<polygon fill="#799f5a" stroke="black" points="200.5,-132.5 200.5,-161.5 243.5,-161.5 243.5,-132.5 200.5,-132.5"/>
<text text-anchor="middle" x="222" y="-144.5" font-family="Times Roman,serif" font-size="10.00">Apply</text>
</a>
</g>
<!-- scalaz.Applicative&#45;&gt;scalaz.Apply -->
<g id="edge8" class="edge"><title>scalaz.Applicative&#45;&gt;scalaz.Apply</title>
<path fill="none" stroke="black" d="M227.446,-198.352C226.613,-190.491 225.563,-180.593 224.608,-171.589"/>
<polygon fill="black" stroke="black" points="228.084,-171.182 223.549,-161.607 221.123,-171.92 228.084,-171.182"/>
</g>
<!-- scalaz.ApplicativePlus -->
<g id="node2" class="node"><title>scalaz.ApplicativePlus</title>
<a xlink:href="https://github.com/scalaz/scalaz/tree/v7.2.0/core/src/main/scala/scalaz/ApplicativePlus.scala" xlink:title="scalaz.ApplicativePlus" target="_blank">
<polygon fill="#799f5a" stroke="black" points="270,-264.5 270,-293.5 358,-293.5 358,-264.5 270,-264.5"/>
<text text-anchor="middle" x="314" y="-276.5" font-family="Times Roman,serif" font-size="10.00">ApplicativePlus</text>
</a>
</g>
<!-- scalaz.ApplicativePlus&#45;&gt;scalaz.Applicative -->
<g id="edge16" class="edge"><title>scalaz.ApplicativePlus&#45;&gt;scalaz.Applicative</title>
<path fill="none" stroke="black" d="M295.136,-264.352C283.581,-255.38 268.608,-243.755 255.832,-233.834"/>
<polygon fill="black" stroke="black" points="257.857,-230.975 247.812,-227.607 253.564,-236.504 257.857,-230.975"/>
</g>
<!-- scalaz.PlusEmpty -->
<g id="node26" class="node"><title>scalaz.PlusEmpty</title>
<a xlink:href="https://github.com/scalaz/scalaz/tree/v7.2.0/core/src/main/scala/scalaz/PlusEmpty.scala" xlink:title="scalaz.PlusEmpty" target="_blank">
<polygon fill="#799f5a" stroke="black" points="280.5,-198.5 280.5,-227.5 347.5,-227.5 347.5,-198.5 280.5,-198.5"/>
<text text-anchor="middle" x="314" y="-210.5" font-family="Times Roman,serif" font-size="10.00">PlusEmpty</text>
</a>
</g>
<!-- scalaz.ApplicativePlus&#45;&gt;scalaz.PlusEmpty -->
<g id="edge18" class="edge"><title>scalaz.ApplicativePlus&#45;&gt;scalaz.PlusEmpty</title>
<path fill="none" stroke="black" d="M314,-264.352C314,-256.577 314,-246.808 314,-237.883"/>
<polygon fill="black" stroke="black" points="317.5,-237.607 314,-227.607 310.5,-237.607 317.5,-237.607"/>
</g>
<!-- scalaz.Functor -->
<g id="node14" class="node"><title>scalaz.Functor</title>
<a xlink:href="https://github.com/scalaz/scalaz/tree/v7.2.0/core/src/main/scala/scalaz/Functor.scala" xlink:title="scalaz.Functor" target="_blank">
<polygon fill="#799f5a" stroke="black" points="196,-66.5 196,-95.5 248,-95.5 248,-66.5 196,-66.5"/>
<text text-anchor="middle" x="222" y="-78.5" font-family="Times Roman,serif" font-size="10.00">Functor</text>
</a>
</g>
<!-- scalaz.Apply&#45;&gt;scalaz.Functor -->
<g id="edge10" class="edge"><title>scalaz.Apply&#45;&gt;scalaz.Functor</title>
<path fill="none" stroke="black" d="M222,-132.352C222,-124.577 222,-114.808 222,-105.883"/>
<polygon fill="black" stroke="black" points="225.5,-105.607 222,-95.6066 218.5,-105.607 225.5,-105.607"/>
</g>
<!-- scalaz.Bind -->
<g id="node4" class="node"><title>scalaz.Bind</title>
<a xlink:href="https://github.com/scalaz/scalaz/tree/v7.2.0/core/src/main/scala/scalaz/Bind.scala" xlink:title="scalaz.Bind" target="_blank">
<polygon fill="#799f5a" stroke="black" points="139,-198.5 139,-227.5 177,-227.5 177,-198.5 139,-198.5"/>
<text text-anchor="middle" x="158" y="-210.5" font-family="Times Roman,serif" font-size="10.00">Bind</text>
</a>
</g>
<!-- scalaz.Bind&#45;&gt;scalaz.Apply -->
<g id="edge14" class="edge"><title>scalaz.Bind&#45;&gt;scalaz.Apply</title>
<path fill="none" stroke="black" d="M172.204,-198.352C180.572,-189.722 191.322,-178.637 200.691,-168.975"/>
<polygon fill="black" stroke="black" points="203.387,-171.222 207.836,-161.607 198.362,-166.349 203.387,-171.222"/>
</g>
<!-- scalaz.BindRec -->
<g id="node5" class="node"><title>scalaz.BindRec</title>
<a xlink:href="https://github.com/scalaz/scalaz/tree/v7.2.0/core/src/main/scala/scalaz/BindRec.scala" xlink:title="scalaz.BindRec" target="_blank">
<polygon fill="#799f5a" stroke="black" points="131,-264.5 131,-293.5 185,-293.5 185,-264.5 131,-264.5"/>
<text text-anchor="middle" x="158" y="-276.5" font-family="Times Roman,serif" font-size="10.00">BindRec</text>
</a>
</g>
<!-- scalaz.BindRec&#45;&gt;scalaz.Bind -->
<g id="edge60" class="edge"><title>scalaz.BindRec&#45;&gt;scalaz.Bind</title>
<path fill="none" stroke="black" d="M158,-264.352C158,-256.577 158,-246.808 158,-237.883"/>
<polygon fill="black" stroke="black" points="161.5,-237.607 158,-227.607 154.5,-237.607 161.5,-237.607"/>
</g>
<!-- scalaz.Cobind -->
<g id="node6" class="node"><title>scalaz.Cobind</title>
<a xlink:href="https://github.com/scalaz/scalaz/tree/v7.2.0/core/src/main/scala/scalaz/Cobind.scala" xlink:title="scalaz.Cobind" target="_blank">
<polygon fill="#799f5a" stroke="black" points="133,-132.5 133,-161.5 183,-161.5 183,-132.5 133,-132.5"/>
<text text-anchor="middle" x="158" y="-144.5" font-family="Times Roman,serif" font-size="10.00">Cobind</text>
</a>
</g>
<!-- scalaz.Cobind&#45;&gt;scalaz.Functor -->
<g id="edge20" class="edge"><title>scalaz.Cobind&#45;&gt;scalaz.Functor</title>
<path fill="none" stroke="black" d="M172.204,-132.352C180.572,-123.722 191.322,-112.637 200.691,-102.975"/>
<polygon fill="black" stroke="black" points="203.387,-105.222 207.836,-95.6066 198.362,-100.349 203.387,-105.222"/>
</g>
<!-- scalaz.Comonad -->
<g id="node7" class="node"><title>scalaz.Comonad</title>
<a xlink:href="https://github.com/scalaz/scalaz/tree/v7.2.0/core/src/main/scala/scalaz/Comonad.scala" xlink:title="scalaz.Comonad" target="_blank">
<polygon fill="#799f5a" stroke="black" points="48.5,-198.5 48.5,-227.5 111.5,-227.5 111.5,-198.5 48.5,-198.5"/>
<text text-anchor="middle" x="80" y="-210.5" font-family="Times Roman,serif" font-size="10.00">Comonad</text>
</a>
</g>
<!-- scalaz.Comonad&#45;&gt;scalaz.Cobind -->
<g id="edge22" class="edge"><title>scalaz.Comonad&#45;&gt;scalaz.Cobind</title>
<path fill="none" stroke="black" d="M97.3107,-198.352C107.813,-189.466 121.392,-177.976 133.042,-168.118"/>
<polygon fill="black" stroke="black" points="135.365,-170.738 140.738,-161.607 130.843,-165.394 135.365,-170.738"/>
</g>
<!-- scalaz.ComonadStore -->
<g id="node8" class="node"><title>scalaz.ComonadStore</title>
<a xlink:href="https://github.com/scalaz/scalaz/tree/v7.2.0/core/src/main/scala/scalaz/ComonadStore.scala" xlink:title="scalaz.ComonadStore" target="_blank">
<polygon fill="#799f5a" stroke="black" points="24.5,-264.5 24.5,-293.5 113.5,-293.5 113.5,-264.5 24.5,-264.5"/>
<text text-anchor="middle" x="69" y="-276.5" font-family="Times Roman,serif" font-size="10.00">ComonadStore</text>
</a>
</g>
<!-- scalaz.ComonadStore&#45;&gt;scalaz.Comonad -->
<g id="edge40" class="edge"><title>scalaz.ComonadStore&#45;&gt;scalaz.Comonad</title>
<path fill="none" stroke="black" d="M71.4413,-264.352C72.7515,-256.491 74.4012,-246.593 75.9018,-237.589"/>
<polygon fill="black" stroke="black" points="79.3739,-238.046 77.5656,-227.607 72.4691,-236.895 79.3739,-238.046"/>
</g>
<!-- scalaz.Contravariant -->
<g id="node9" class="node"><title>scalaz.Contravariant</title>
<a xlink:href="https://github.com/scalaz/scalaz/tree/v7.2.0/core/src/main/scala/scalaz/Contravariant.scala" xlink:title="scalaz.Contravariant" target="_blank">
<polygon fill="#799f5a" stroke="black" points="420,-66.5 420,-95.5 502,-95.5 502,-66.5 420,-66.5"/>
<text text-anchor="middle" x="461" y="-78.5" font-family="Times Roman,serif" font-size="10.00">Contravariant</text>
</a>
</g>
<!-- scalaz.InvariantFunctor -->
<g id="node15" class="node"><title>scalaz.InvariantFunctor</title>
<a xlink:href="https://github.com/scalaz/scalaz/tree/v7.2.0/core/src/main/scala/scalaz/InvariantFunctor.scala" xlink:title="scalaz.InvariantFunctor" target="_blank">
<polygon fill="#799f5a" stroke="black" points="294.5,-0.5 294.5,-29.5 387.5,-29.5 387.5,-0.5 294.5,-0.5"/>
<text text-anchor="middle" x="341" y="-12.5" font-family="Times Roman,serif" font-size="10.00">InvariantFunctor</text>
</a>
</g>
<!-- scalaz.Contravariant&#45;&gt;scalaz.InvariantFunctor -->
<g id="edge32" class="edge"><title>scalaz.Contravariant&#45;&gt;scalaz.InvariantFunctor</title>
<path fill="none" stroke="black" d="M434.368,-66.3525C417.279,-56.9532 394.893,-44.6414 376.326,-34.4292"/>
<polygon fill="black" stroke="black" points="378.006,-31.3591 367.557,-29.6066 374.633,-37.4926 378.006,-31.3591"/>
</g>
<!-- scalaz.Divide -->
<g id="node10" class="node"><title>scalaz.Divide</title>
<a xlink:href="https://github.com/scalaz/scalaz/tree/v7.2.0/core/src/main/scala/scalaz/Divide.scala" xlink:title="scalaz.Divide" target="_blank">
<polygon fill="#799f5a" stroke="black" points="469,-132.5 469,-161.5 515,-161.5 515,-132.5 469,-132.5"/>
<text text-anchor="middle" x="492" y="-144.5" font-family="Times Roman,serif" font-size="10.00">Divide</text>
</a>
</g>
<!-- scalaz.Divide&#45;&gt;scalaz.Contravariant -->
<g id="edge34" class="edge"><title>scalaz.Divide&#45;&gt;scalaz.Contravariant</title>
<path fill="none" stroke="black" d="M485.12,-132.352C481.307,-124.235 476.474,-113.945 472.137,-104.711"/>
<polygon fill="black" stroke="black" points="475.28,-103.17 467.861,-95.6066 468.944,-106.146 475.28,-103.17"/>
</g>
<!-- scalaz.Divisible -->
<g id="node11" class="node"><title>scalaz.Divisible</title>
<a xlink:href="https://github.com/scalaz/scalaz/tree/v7.2.0/core/src/main/scala/scalaz/Divisible.scala" xlink:title="scalaz.Divisible" target="_blank">
<polygon fill="#799f5a" stroke="black" points="464,-198.5 464,-227.5 520,-227.5 520,-198.5 464,-198.5"/>
<text text-anchor="middle" x="492" y="-210.5" font-family="Times Roman,serif" font-size="10.00">Divisible</text>
</a>
</g>
<!-- scalaz.Divisible&#45;&gt;scalaz.Divide -->
<g id="edge58" class="edge"><title>scalaz.Divisible&#45;&gt;scalaz.Divide</title>
<path fill="none" stroke="black" d="M492,-198.352C492,-190.577 492,-180.808 492,-171.883"/>
<polygon fill="black" stroke="black" points="495.5,-171.607 492,-161.607 488.5,-171.607 495.5,-171.607"/>
</g>
<!-- scalaz.Foldable -->
<g id="node12" class="node"><title>scalaz.Foldable</title>
<a xlink:href="https://github.com/scalaz/scalaz/tree/v7.2.0/core/src/main/scala/scalaz/Foldable.scala" xlink:title="scalaz.Foldable" target="_blank">
<polygon fill="#799f5a" stroke="black" points="315,-66.5 315,-95.5 371,-95.5 371,-66.5 315,-66.5"/>
<text text-anchor="middle" x="343" y="-78.5" font-family="Times Roman,serif" font-size="10.00">Foldable</text>
</a>
</g>
<!-- scalaz.Foldable1 -->
<g id="node13" class="node"><title>scalaz.Foldable1</title>
<a xlink:href="https://github.com/scalaz/scalaz/tree/v7.2.0/core/src/main/scala/scalaz/Foldable1.scala" xlink:title="scalaz.Foldable1" target="_blank">
<polygon fill="#799f5a" stroke="black" points="389,-132.5 389,-161.5 451,-161.5 451,-132.5 389,-132.5"/>
<text text-anchor="middle" x="420" y="-144.5" font-family="Times Roman,serif" font-size="10.00">Foldable1</text>
</a>
</g>
<!-- scalaz.Foldable1&#45;&gt;scalaz.Foldable -->
<g id="edge28" class="edge"><title>scalaz.Foldable1&#45;&gt;scalaz.Foldable</title>
<path fill="none" stroke="black" d="M402.911,-132.352C392.544,-123.466 379.138,-111.976 367.638,-102.118"/>
<polygon fill="black" stroke="black" points="369.911,-99.4571 360.041,-95.6066 365.356,-104.772 369.911,-99.4571"/>
</g>
<!-- scalaz.Functor&#45;&gt;scalaz.InvariantFunctor -->
<g id="edge6" class="edge"><title>scalaz.Functor&#45;&gt;scalaz.InvariantFunctor</title>
<path fill="none" stroke="black" d="M248.115,-66.516C264.971,-57.1672 287.113,-44.8869 305.55,-34.6612"/>
<polygon fill="black" stroke="black" points="307.487,-37.5893 314.535,-29.6783 304.092,-31.4677 307.487,-37.5893"/>
</g>
<!-- scalaz.IsEmpty -->
<g id="node16" class="node"><title>scalaz.IsEmpty</title>
<a xlink:href="https://github.com/scalaz/scalaz/tree/v7.2.0/core/src/main/scala/scalaz/IsEmpty.scala" xlink:title="scalaz.IsEmpty" target="_blank">
<polygon fill="#799f5a" stroke="black" points="375.5,-264.5 375.5,-293.5 430.5,-293.5 430.5,-264.5 375.5,-264.5"/>
<text text-anchor="middle" x="403" y="-276.5" font-family="Times Roman,serif" font-size="10.00">IsEmpty</text>
</a>
</g>
<!-- scalaz.IsEmpty&#45;&gt;scalaz.PlusEmpty -->
<g id="edge46" class="edge"><title>scalaz.IsEmpty&#45;&gt;scalaz.PlusEmpty</title>
<path fill="none" stroke="black" d="M383.248,-264.352C371.149,-255.38 355.472,-243.755 342.095,-233.834"/>
<polygon fill="black" stroke="black" points="343.814,-230.752 333.697,-227.607 339.644,-236.375 343.814,-230.752"/>
</g>
<!-- scalaz.Monad -->
<g id="node17" class="node"><title>scalaz.Monad</title>
<a xlink:href="https://github.com/scalaz/scalaz/tree/v7.2.0/core/src/main/scala/scalaz/Monad.scala" xlink:title="scalaz.Monad" target="_blank">
<polygon fill="#799f5a" stroke="black" points="202.5,-264.5 202.5,-293.5 251.5,-293.5 251.5,-264.5 202.5,-264.5"/>
<text text-anchor="middle" x="227" y="-276.5" font-family="Times Roman,serif" font-size="10.00">Monad</text>
</a>
</g>
<!-- scalaz.Monad&#45;&gt;scalaz.Applicative -->
<g id="edge2" class="edge"><title>scalaz.Monad&#45;&gt;scalaz.Applicative</title>
<path fill="none" stroke="black" d="M227.444,-264.352C227.679,-256.577 227.976,-246.808 228.246,-237.883"/>
<polygon fill="black" stroke="black" points="231.753,-237.708 228.557,-227.607 224.756,-237.496 231.753,-237.708"/>
</g>
<!-- scalaz.Monad&#45;&gt;scalaz.Bind -->
<g id="edge4" class="edge"><title>scalaz.Monad&#45;&gt;scalaz.Bind</title>
<path fill="none" stroke="black" d="M211.687,-264.352C202.575,-255.637 190.845,-244.417 180.675,-234.689"/>
<polygon fill="black" stroke="black" points="182.916,-231.99 173.271,-227.607 178.078,-237.048 182.916,-231.99"/>
</g>
<!-- scalaz.MonadError -->
<g id="node18" class="node"><title>scalaz.MonadError</title>
<a xlink:href="https://github.com/scalaz/scalaz/tree/v7.2.0/core/src/main/scala/scalaz/MonadError.scala" xlink:title="scalaz.MonadError" target="_blank">
<polygon fill="#799f5a" stroke="black" points="0,-330.5 0,-359.5 72,-359.5 72,-330.5 0,-330.5"/>
<text text-anchor="middle" x="36" y="-342.5" font-family="Times Roman,serif" font-size="10.00">MonadError</text>
</a>
</g>
<!-- scalaz.MonadError&#45;&gt;scalaz.Monad -->
<g id="edge52" class="edge"><title>scalaz.MonadError&#45;&gt;scalaz.Monad</title>
<path fill="none" stroke="black" d="M72.3356,-332.842C75.2655,-331.876 78.1813,-330.919 81,-330 128.276,-314.591 143.142,-313.071 192.911,-294.212"/>
<polygon fill="black" stroke="black" points="194.186,-297.472 202.267,-290.621 191.677,-290.937 194.186,-297.472"/>
</g>
<!-- scalaz.MonadListen -->
<g id="node19" class="node"><title>scalaz.MonadListen</title>
<a xlink:href="https://github.com/scalaz/scalaz/tree/v7.2.0/core/src/main/scala/scalaz/MonadListen.scala" xlink:title="scalaz.MonadListen" target="_blank">
<polygon fill="#799f5a" stroke="black" points="274.5,-396.5 274.5,-425.5 351.5,-425.5 351.5,-396.5 274.5,-396.5"/>
<text text-anchor="middle" x="313" y="-408.5" font-family="Times Roman,serif" font-size="10.00">MonadListen</text>
</a>
</g>
<!-- scalaz.MonadTell -->
<g id="node23" class="node"><title>scalaz.MonadTell</title>
<a xlink:href="https://github.com/scalaz/scalaz/tree/v7.2.0/core/src/main/scala/scalaz/MonadTell.scala" xlink:title="scalaz.MonadTell" target="_blank">
<polygon fill="#799f5a" stroke="black" points="281.5,-330.5 281.5,-359.5 344.5,-359.5 344.5,-330.5 281.5,-330.5"/>
<text text-anchor="middle" x="313" y="-342.5" font-family="Times Roman,serif" font-size="10.00">MonadTell</text>
</a>
</g>
<!-- scalaz.MonadListen&#45;&gt;scalaz.MonadTell -->
<g id="edge54" class="edge"><title>scalaz.MonadListen&#45;&gt;scalaz.MonadTell</title>
<path fill="none" stroke="black" d="M313,-396.352C313,-388.577 313,-378.808 313,-369.883"/>
<polygon fill="black" stroke="black" points="316.5,-369.607 313,-359.607 309.5,-369.607 316.5,-369.607"/>
</g>
<!-- scalaz.MonadPlus -->
<g id="node20" class="node"><title>scalaz.MonadPlus</title>
<a xlink:href="https://github.com/scalaz/scalaz/tree/v7.2.0/core/src/main/scala/scalaz/MonadPlus.scala" xlink:title="scalaz.MonadPlus" target="_blank">
<polygon fill="#799f5a" stroke="black" points="476,-330.5 476,-359.5 544,-359.5 544,-330.5 476,-330.5"/>
<text text-anchor="middle" x="510" y="-342.5" font-family="Times Roman,serif" font-size="10.00">MonadPlus</text>
</a>
</g>
<!-- scalaz.MonadPlus&#45;&gt;scalaz.ApplicativePlus -->
<g id="edge38" class="edge"><title>scalaz.MonadPlus&#45;&gt;scalaz.ApplicativePlus</title>
<path fill="none" stroke="black" d="M475.747,-333.003C472.79,-331.982 469.844,-330.97 467,-330 434.144,-318.794 397.225,-306.48 367.886,-296.759"/>
<polygon fill="black" stroke="black" points="368.837,-293.387 358.244,-293.568 366.637,-300.033 368.837,-293.387"/>
</g>
<!-- scalaz.MonadPlus&#45;&gt;scalaz.Monad -->
<g id="edge36" class="edge"><title>scalaz.MonadPlus&#45;&gt;scalaz.Monad</title>
<path fill="none" stroke="black" d="M475.887,-332.538C472.9,-331.618 469.908,-330.756 467,-330 380.121,-307.416 351.874,-320.019 261.457,-293.64"/>
<polygon fill="black" stroke="black" points="262.203,-290.21 251.619,-290.689 260.192,-296.915 262.203,-290.21"/>
</g>
<!-- scalaz.MonadReader -->
<g id="node21" class="node"><title>scalaz.MonadReader</title>
<a xlink:href="https://github.com/scalaz/scalaz/tree/v7.2.0/core/src/main/scala/scalaz/MonadReader.scala" xlink:title="scalaz.MonadReader" target="_blank">
<polygon fill="#799f5a" stroke="black" points="90,-330.5 90,-359.5 172,-359.5 172,-330.5 90,-330.5"/>
<text text-anchor="middle" x="131" y="-342.5" font-family="Times Roman,serif" font-size="10.00">MonadReader</text>
</a>
</g>
<!-- scalaz.MonadReader&#45;&gt;scalaz.Monad -->
<g id="edge48" class="edge"><title>scalaz.MonadReader&#45;&gt;scalaz.Monad</title>
<path fill="none" stroke="black" d="M152.306,-330.352C165.48,-321.295 182.588,-309.533 197.107,-299.551"/>
<polygon fill="black" stroke="black" points="199.496,-302.156 205.754,-293.607 195.531,-296.388 199.496,-302.156"/>
</g>
<!-- scalaz.MonadState -->
<g id="node22" class="node"><title>scalaz.MonadState</title>
<a xlink:href="https://github.com/scalaz/scalaz/tree/v7.2.0/core/src/main/scala/scalaz/MonadState.scala" xlink:title="scalaz.MonadState" target="_blank">
<polygon fill="#799f5a" stroke="black" points="189.5,-330.5 189.5,-359.5 264.5,-359.5 264.5,-330.5 189.5,-330.5"/>
<text text-anchor="middle" x="227" y="-342.5" font-family="Times Roman,serif" font-size="10.00">MonadState</text>
</a>
</g>
<!-- scalaz.MonadState&#45;&gt;scalaz.Monad -->
<g id="edge50" class="edge"><title>scalaz.MonadState&#45;&gt;scalaz.Monad</title>
<path fill="none" stroke="black" d="M227,-330.352C227,-322.577 227,-312.808 227,-303.883"/>
<polygon fill="black" stroke="black" points="230.5,-303.607 227,-293.607 223.5,-303.607 230.5,-303.607"/>
</g>
<!-- scalaz.MonadTell&#45;&gt;scalaz.Monad -->
<g id="edge30" class="edge"><title>scalaz.MonadTell&#45;&gt;scalaz.Monad</title>
<path fill="none" stroke="black" d="M293.914,-330.352C282.223,-321.38 267.074,-309.755 254.148,-299.834"/>
<polygon fill="black" stroke="black" points="256.097,-296.918 246.033,-293.607 251.835,-302.471 256.097,-296.918"/>
</g>
<!-- scalaz.Nondeterminism -->
<g id="node24" class="node"><title>scalaz.Nondeterminism</title>
<a xlink:href="https://github.com/scalaz/scalaz/tree/v7.2.0/core/src/main/scala/scalaz/Nondeterminism.scala" xlink:title="scalaz.Nondeterminism" target="_blank">
<polygon fill="#799f5a" stroke="black" points="361.5,-330.5 361.5,-359.5 458.5,-359.5 458.5,-330.5 361.5,-330.5"/>
<text text-anchor="middle" x="410" y="-342.5" font-family="Times Roman,serif" font-size="10.00">Nondeterminism</text>
</a>
</g>
<!-- scalaz.Nondeterminism&#45;&gt;scalaz.Monad -->
<g id="edge56" class="edge"><title>scalaz.Nondeterminism&#45;&gt;scalaz.Monad</title>
<path fill="none" stroke="black" d="M364.315,-330.488C336.785,-321.488 300.893,-309.306 261.138,-293.887"/>
<polygon fill="black" stroke="black" points="262.367,-290.61 251.779,-290.225 259.816,-297.129 262.367,-290.61"/>
</g>
<!-- scalaz.Plus -->
<g id="node25" class="node"><title>scalaz.Plus</title>
<a xlink:href="https://github.com/scalaz/scalaz/tree/v7.2.0/core/src/main/scala/scalaz/Plus.scala" xlink:title="scalaz.Plus" target="_blank">
<polygon fill="#799f5a" stroke="black" points="261,-132.5 261,-161.5 297,-161.5 297,-132.5 261,-132.5"/>
<text text-anchor="middle" x="279" y="-144.5" font-family="Times Roman,serif" font-size="10.00">Plus</text>
</a>
</g>
<!-- scalaz.PlusEmpty&#45;&gt;scalaz.Plus -->
<g id="edge12" class="edge"><title>scalaz.PlusEmpty&#45;&gt;scalaz.Plus</title>
<path fill="none" stroke="black" d="M306.232,-198.352C301.928,-190.235 296.471,-179.945 291.574,-170.711"/>
<polygon fill="black" stroke="black" points="294.523,-168.801 286.746,-161.607 288.339,-172.081 294.523,-168.801"/>
</g>
<!-- scalaz.Traverse -->
<g id="node27" class="node"><title>scalaz.Traverse</title>
<a xlink:href="https://github.com/scalaz/scalaz/tree/v7.2.0/core/src/main/scala/scalaz/Traverse.scala" xlink:title="scalaz.Traverse" target="_blank">
<polygon fill="#799f5a" stroke="black" points="315,-132.5 315,-161.5 371,-161.5 371,-132.5 315,-132.5"/>
<text text-anchor="middle" x="343" y="-144.5" font-family="Times Roman,serif" font-size="10.00">Traverse</text>
</a>
</g>
<!-- scalaz.Traverse&#45;&gt;scalaz.Foldable -->
<g id="edge26" class="edge"><title>scalaz.Traverse&#45;&gt;scalaz.Foldable</title>
<path fill="none" stroke="black" d="M343,-132.352C343,-124.577 343,-114.808 343,-105.883"/>
<polygon fill="black" stroke="black" points="346.5,-105.607 343,-95.6066 339.5,-105.607 346.5,-105.607"/>
</g>
<!-- scalaz.Traverse&#45;&gt;scalaz.Functor -->
<g id="edge24" class="edge"><title>scalaz.Traverse&#45;&gt;scalaz.Functor</title>
<path fill="none" stroke="black" d="M316.146,-132.352C298.795,-122.888 276.029,-110.47 257.231,-100.217"/>
<polygon fill="black" stroke="black" points="258.817,-97.0954 248.362,-95.3795 255.465,-103.241 258.817,-97.0954"/>
</g>
<!-- scalaz.Traverse1 -->
<g id="node28" class="node"><title>scalaz.Traverse1</title>
<a xlink:href="https://github.com/scalaz/scalaz/tree/v7.2.0/core/src/main/scala/scalaz/Traverse1.scala" xlink:title="scalaz.Traverse1" target="_blank">
<polygon fill="#799f5a" stroke="black" points="378,-198.5 378,-227.5 440,-227.5 440,-198.5 378,-198.5"/>
<text text-anchor="middle" x="409" y="-210.5" font-family="Times Roman,serif" font-size="10.00">Traverse1</text>
</a>
</g>
<!-- scalaz.Traverse1&#45;&gt;scalaz.Foldable1 -->
<g id="edge44" class="edge"><title>scalaz.Traverse1&#45;&gt;scalaz.Foldable1</title>
<path fill="none" stroke="black" d="M411.441,-198.352C412.751,-190.491 414.401,-180.593 415.902,-171.589"/>
<polygon fill="black" stroke="black" points="419.374,-172.046 417.566,-161.607 412.469,-170.895 419.374,-172.046"/>
</g>
<!-- scalaz.Traverse1&#45;&gt;scalaz.Traverse -->
<g id="edge42" class="edge"><title>scalaz.Traverse1&#45;&gt;scalaz.Traverse</title>
<path fill="none" stroke="black" d="M394.352,-198.352C385.637,-189.637 374.417,-178.417 364.689,-168.689"/>
<polygon fill="black" stroke="black" points="367.153,-166.203 357.607,-161.607 362.203,-171.153 367.153,-166.203"/>
</g>
</g>
</svg>

