<?xml version="1.0" encoding="UTF-8" standalone="no"?>
<!DOCTYPE svg PUBLIC "-//W3C//DTD SVG 1.1//EN"
 "http://www.w3.org/Graphics/SVG/1.1/DTD/svg11.dtd">
<!-- Generated by graphviz version 2.26.3 (20100126.1600)
 -->
<!-- Title: scalaz 7.2.0 diagram Pages: 1 -->
<svg width="552pt" height="434pt"
 viewBox="0.00 0.00 552.00 434.00" xmlns="http://www.w3.org/2000/svg" xmlns:xlink="http://www.w3.org/1999/xlink">
<g id="graph1" class="graph" transform="scale(1 1) rotate(0) translate(4 430)">
<title>scalaz 7.2.0 diagram</title>
<polygon fill="white" stroke="white" points="-4,5 -4,-430 549,-430 549,5 -4,5"/>
<!-- scalaz.Align -->
<g id="node1" class="node"><title>scalaz.Align</title>
<a xlink:href="https://github.com/scalaz/scalaz/tree/v7.2.0/core/src/main/scala/scalaz/Align.scala" xlink:title="scalaz.Align" target="_blank">
<polygon fill="#799f5a" stroke="black" points="91,-132.5 91,-161.5 131,-161.5 131,-132.5 91,-132.5"/>
<text text-anchor="middle" x="111" y="-144.5" font-family="Times Roman,serif" font-size="10.00">Align</text>
</a>
</g>
<!-- scalaz.Functor -->
<g id="node15" class="node"><title>scalaz.Functor</title>
<a xlink:href="https://github.com/scalaz/scalaz/tree/v7.2.0/core/src/main/scala/scalaz/Functor.scala" xlink:title="scalaz.Functor" target="_blank">
<polygon fill="#799f5a" stroke="black" points="198,-66.5 198,-95.5 250,-95.5 250,-66.5 198,-66.5"/>
<text text-anchor="middle" x="224" y="-78.5" font-family="Times Roman,serif" font-size="10.00">Functor</text>
</a>
</g>
<!-- scalaz.Align&#45;&gt;scalaz.Functor -->
<g id="edge62" class="edge"><title>scalaz.Align&#45;&gt;scalaz.Functor</title>
<path fill="none" stroke="black" d="M131.202,-135.201C147.533,-125.662 170.881,-112.025 190.071,-100.817"/>
<polygon fill="black" stroke="black" points="191.962,-103.766 198.832,-95.7001 188.431,-97.7213 191.962,-103.766"/>
</g>
<!-- scalaz.Applicative -->
<g id="node2" class="node"><title>scalaz.Applicative</title>
<a xlink:href="https://github.com/scalaz/scalaz/tree/v7.2.0/core/src/main/scala/scalaz/Applicative.scala" xlink:title="scalaz.Applicative" target="_blank">
<polygon fill="#799f5a" stroke="black" points="181,-198.5 181,-227.5 249,-227.5 249,-198.5 181,-198.5"/>
<text text-anchor="middle" x="215" y="-210.5" font-family="Times Roman,serif" font-size="10.00">Applicative</text>
</a>
</g>
<!-- scalaz.Apply -->
<g id="node4" class="node"><title>scalaz.Apply</title>
<a xlink:href="https://github.com/scalaz/scalaz/tree/v7.2.0/core/src/main/scala/scalaz/Apply.scala" xlink:title="scalaz.Apply" target="_blank">
<polygon fill="#799f5a" stroke="black" points="202.5,-132.5 202.5,-161.5 245.5,-161.5 245.5,-132.5 202.5,-132.5"/>
<text text-anchor="middle" x="224" y="-144.5" font-family="Times Roman,serif" font-size="10.00">Apply</text>
</a>
</g>
<!-- scalaz.Applicative&#45;&gt;scalaz.Apply -->
<g id="edge10" class="edge"><title>scalaz.Applicative&#45;&gt;scalaz.Apply</title>
<path fill="none" stroke="black" d="M216.997,-198.352C218.069,-190.491 219.419,-180.593 220.647,-171.589"/>
<polygon fill="black" stroke="black" points="224.125,-171.988 222.008,-161.607 217.189,-171.042 224.125,-171.988"/>
</g>
<!-- scalaz.ApplicativePlus -->
<g id="node3" class="node"><title>scalaz.ApplicativePlus</title>
<a xlink:href="https://github.com/scalaz/scalaz/tree/v7.2.0/core/src/main/scala/scalaz/ApplicativePlus.scala" xlink:title="scalaz.ApplicativePlus" target="_blank">
<polygon fill="#799f5a" stroke="black" points="87,-264.5 87,-293.5 175,-293.5 175,-264.5 87,-264.5"/>
<text text-anchor="middle" x="131" y="-276.5" font-family="Times Roman,serif" font-size="10.00">ApplicativePlus</text>
</a>
</g>
<!-- scalaz.ApplicativePlus&#45;&gt;scalaz.Applicative -->
<g id="edge4" class="edge"><title>scalaz.ApplicativePlus&#45;&gt;scalaz.Applicative</title>
<path fill="none" stroke="black" d="M149.642,-264.352C161.061,-255.38 175.858,-243.755 188.484,-233.834"/>
<polygon fill="black" stroke="black" points="190.709,-236.537 196.41,-227.607 186.384,-231.033 190.709,-236.537"/>
</g>
<!-- scalaz.PlusEmpty -->
<g id="node27" class="node"><title>scalaz.PlusEmpty</title>
<a xlink:href="https://github.com/scalaz/scalaz/tree/v7.2.0/core/src/main/scala/scalaz/PlusEmpty.scala" xlink:title="scalaz.PlusEmpty" target="_blank">
<polygon fill="#799f5a" stroke="black" points="96.5,-198.5 96.5,-227.5 163.5,-227.5 163.5,-198.5 96.5,-198.5"/>
<text text-anchor="middle" x="130" y="-210.5" font-family="Times Roman,serif" font-size="10.00">PlusEmpty</text>
</a>
</g>
<!-- scalaz.ApplicativePlus&#45;&gt;scalaz.PlusEmpty -->
<g id="edge6" class="edge"><title>scalaz.ApplicativePlus&#45;&gt;scalaz.PlusEmpty</title>
<path fill="none" stroke="black" d="M130.778,-264.352C130.66,-256.577 130.512,-246.808 130.377,-237.883"/>
<polygon fill="black" stroke="black" points="133.873,-237.552 130.221,-227.607 126.873,-237.659 133.873,-237.552"/>
</g>
<!-- scalaz.Apply&#45;&gt;scalaz.Functor -->
<g id="edge8" class="edge"><title>scalaz.Apply&#45;&gt;scalaz.Functor</title>
<path fill="none" stroke="black" d="M224,-132.352C224,-124.577 224,-114.808 224,-105.883"/>
<polygon fill="black" stroke="black" points="227.5,-105.607 224,-95.6066 220.5,-105.607 227.5,-105.607"/>
</g>
<!-- scalaz.Bind -->
<g id="node5" class="node"><title>scalaz.Bind</title>
<a xlink:href="https://github.com/scalaz/scalaz/tree/v7.2.0/core/src/main/scala/scalaz/Bind.scala" xlink:title="scalaz.Bind" target="_blank">
<polygon fill="#799f5a" stroke="black" points="267,-198.5 267,-227.5 305,-227.5 305,-198.5 267,-198.5"/>
<text text-anchor="middle" x="286" y="-210.5" font-family="Times Roman,serif" font-size="10.00">Bind</text>
</a>
</g>
<!-- scalaz.Bind&#45;&gt;scalaz.Apply -->
<g id="edge2" class="edge"><title>scalaz.Bind&#45;&gt;scalaz.Apply</title>
<path fill="none" stroke="black" d="M272.24,-198.352C264.133,-189.722 253.719,-178.637 244.643,-168.975"/>
<polygon fill="black" stroke="black" points="247.119,-166.499 237.721,-161.607 242.017,-171.291 247.119,-166.499"/>
</g>
<!-- scalaz.BindRec -->
<g id="node6" class="node"><title>scalaz.BindRec</title>
<a xlink:href="https://github.com/scalaz/scalaz/tree/v7.2.0/core/src/main/scala/scalaz/BindRec.scala" xlink:title="scalaz.BindRec" target="_blank">
<polygon fill="#799f5a" stroke="black" points="259,-264.5 259,-293.5 313,-293.5 313,-264.5 259,-264.5"/>
<text text-anchor="middle" x="286" y="-276.5" font-family="Times Roman,serif" font-size="10.00">BindRec</text>
</a>
</g>
<!-- scalaz.BindRec&#45;&gt;scalaz.Bind -->
<g id="edge60" class="edge"><title>scalaz.BindRec&#45;&gt;scalaz.Bind</title>
<path fill="none" stroke="black" d="M286,-264.352C286,-256.577 286,-246.808 286,-237.883"/>
<polygon fill="black" stroke="black" points="289.5,-237.607 286,-227.607 282.5,-237.607 289.5,-237.607"/>
</g>
<!-- scalaz.Cobind -->
<g id="node7" class="node"><title>scalaz.Cobind</title>
<a xlink:href="https://github.com/scalaz/scalaz/tree/v7.2.0/core/src/main/scala/scalaz/Cobind.scala" xlink:title="scalaz.Cobind" target="_blank">
<polygon fill="#799f5a" stroke="black" points="263,-132.5 263,-161.5 313,-161.5 313,-132.5 263,-132.5"/>
<text text-anchor="middle" x="288" y="-144.5" font-family="Times Roman,serif" font-size="10.00">Cobind</text>
</a>
</g>
<!-- scalaz.Cobind&#45;&gt;scalaz.Functor -->
<g id="edge22" class="edge"><title>scalaz.Cobind&#45;&gt;scalaz.Functor</title>
<path fill="none" stroke="black" d="M273.796,-132.352C265.428,-123.722 254.678,-112.637 245.309,-102.975"/>
<polygon fill="black" stroke="black" points="247.638,-100.349 238.164,-95.6066 242.613,-105.222 247.638,-100.349"/>
</g>
<!-- scalaz.Comonad -->
<g id="node8" class="node"><title>scalaz.Comonad</title>
<a xlink:href="https://github.com/scalaz/scalaz/tree/v7.2.0/core/src/main/scala/scalaz/Comonad.scala" xlink:title="scalaz.Comonad" target="_blank">
<polygon fill="#799f5a" stroke="black" points="323.5,-198.5 323.5,-227.5 386.5,-227.5 386.5,-198.5 323.5,-198.5"/>
<text text-anchor="middle" x="355" y="-210.5" font-family="Times Roman,serif" font-size="10.00">Comonad</text>
</a>
</g>
<!-- scalaz.Comonad&#45;&gt;scalaz.Cobind -->
<g id="edge20" class="edge"><title>scalaz.Comonad&#45;&gt;scalaz.Cobind</title>
<path fill="none" stroke="black" d="M340.131,-198.352C331.283,-189.637 319.893,-178.417 310.017,-168.689"/>
<polygon fill="black" stroke="black" points="312.408,-166.131 302.828,-161.607 307.496,-171.118 312.408,-166.131"/>
</g>
<!-- scalaz.ComonadStore -->
<g id="node9" class="node"><title>scalaz.ComonadStore</title>
<a xlink:href="https://github.com/scalaz/scalaz/tree/v7.2.0/core/src/main/scala/scalaz/ComonadStore.scala" xlink:title="scalaz.ComonadStore" target="_blank">
<polygon fill="#799f5a" stroke="black" points="330.5,-264.5 330.5,-293.5 419.5,-293.5 419.5,-264.5 330.5,-264.5"/>
<text text-anchor="middle" x="375" y="-276.5" font-family="Times Roman,serif" font-size="10.00">ComonadStore</text>
</a>
</g>
<!-- scalaz.ComonadStore&#45;&gt;scalaz.Comonad -->
<g id="edge40" class="edge"><title>scalaz.ComonadStore&#45;&gt;scalaz.Comonad</title>
<path fill="none" stroke="black" d="M370.561,-264.352C368.153,-256.406 365.114,-246.377 362.362,-237.296"/>
<polygon fill="black" stroke="black" points="365.676,-236.162 359.426,-227.607 358.977,-238.192 365.676,-236.162"/>
</g>
<!-- scalaz.Contravariant -->
<g id="node10" class="node"><title>scalaz.Contravariant</title>
<a xlink:href="https://github.com/scalaz/scalaz/tree/v7.2.0/core/src/main/scala/scalaz/Contravariant.scala" xlink:title="scalaz.Contravariant" target="_blank">
<polygon fill="#799f5a" stroke="black" points="54,-66.5 54,-95.5 136,-95.5 136,-66.5 54,-66.5"/>
<text text-anchor="middle" x="95" y="-78.5" font-family="Times Roman,serif" font-size="10.00">Contravariant</text>
</a>
</g>
<!-- scalaz.InvariantFunctor -->
<g id="node16" class="node"><title>scalaz.InvariantFunctor</title>
<a xlink:href="https://github.com/scalaz/scalaz/tree/v7.2.0/core/src/main/scala/scalaz/InvariantFunctor.scala" xlink:title="scalaz.InvariantFunctor" target="_blank">
<polygon fill="#799f5a" stroke="black" points="112.5,-0.5 112.5,-29.5 205.5,-29.5 205.5,-0.5 112.5,-0.5"/>
<text text-anchor="middle" x="159" y="-12.5" font-family="Times Roman,serif" font-size="10.00">InvariantFunctor</text>
</a>
</g>
<!-- scalaz.Contravariant&#45;&gt;scalaz.InvariantFunctor -->
<g id="edge32" class="edge"><title>scalaz.Contravariant&#45;&gt;scalaz.InvariantFunctor</title>
<path fill="none" stroke="black" d="M109.204,-66.3525C117.572,-57.7222 128.322,-46.6365 137.691,-36.9753"/>
<polygon fill="black" stroke="black" points="140.387,-39.2221 144.836,-29.6066 135.362,-34.3491 140.387,-39.2221"/>
</g>
<!-- scalaz.Divide -->
<g id="node11" class="node"><title>scalaz.Divide</title>
<a xlink:href="https://github.com/scalaz/scalaz/tree/v7.2.0/core/src/main/scala/scalaz/Divide.scala" xlink:title="scalaz.Divide" target="_blank">
<polygon fill="#799f5a" stroke="black" points="27,-132.5 27,-161.5 73,-161.5 73,-132.5 27,-132.5"/>
<text text-anchor="middle" x="50" y="-144.5" font-family="Times Roman,serif" font-size="10.00">Divide</text>
</a>
</g>
<!-- scalaz.Divide&#45;&gt;scalaz.Contravariant -->
<g id="edge34" class="edge"><title>scalaz.Divide&#45;&gt;scalaz.Contravariant</title>
<path fill="none" stroke="black" d="M59.987,-132.352C65.6382,-124.064 72.8336,-113.511 79.2298,-104.13"/>
<polygon fill="black" stroke="black" points="82.2993,-105.841 85.041,-95.6066 76.5157,-101.897 82.2993,-105.841"/>
</g>
<!-- scalaz.Divisible -->
<g id="node12" class="node"><title>scalaz.Divisible</title>
<a xlink:href="https://github.com/scalaz/scalaz/tree/v7.2.0/core/src/main/scala/scalaz/Divisible.scala" xlink:title="scalaz.Divisible" target="_blank">
<polygon fill="#799f5a" stroke="black" points="22,-198.5 22,-227.5 78,-227.5 78,-198.5 22,-198.5"/>
<text text-anchor="middle" x="50" y="-210.5" font-family="Times Roman,serif" font-size="10.00">Divisible</text>
</a>
</g>
<!-- scalaz.Divisible&#45;&gt;scalaz.Divide -->
<g id="edge58" class="edge"><title>scalaz.Divisible&#45;&gt;scalaz.Divide</title>
<path fill="none" stroke="black" d="M50,-198.352C50,-190.577 50,-180.808 50,-171.883"/>
<polygon fill="black" stroke="black" points="53.5001,-171.607 50,-161.607 46.5001,-171.607 53.5001,-171.607"/>
</g>
<!-- scalaz.Foldable -->
<g id="node13" class="node"><title>scalaz.Foldable</title>
<a xlink:href="https://github.com/scalaz/scalaz/tree/v7.2.0/core/src/main/scala/scalaz/Foldable.scala" xlink:title="scalaz.Foldable" target="_blank">
<polygon fill="#799f5a" stroke="black" points="369,-66.5 369,-95.5 425,-95.5 425,-66.5 369,-66.5"/>
<text text-anchor="middle" x="397" y="-78.5" font-family="Times Roman,serif" font-size="10.00">Foldable</text>
</a>
</g>
<!-- scalaz.Foldable1 -->
<g id="node14" class="node"><title>scalaz.Foldable1</title>
<a xlink:href="https://github.com/scalaz/scalaz/tree/v7.2.0/core/src/main/scala/scalaz/Foldable1.scala" xlink:title="scalaz.Foldable1" target="_blank">
<polygon fill="#799f5a" stroke="black" points="405,-132.5 405,-161.5 467,-161.5 467,-132.5 405,-132.5"/>
<text text-anchor="middle" x="436" y="-144.5" font-family="Times Roman,serif" font-size="10.00">Foldable1</text>
</a>
</g>
<!-- scalaz.Foldable1&#45;&gt;scalaz.Foldable -->
<g id="edge24" class="edge"><title>scalaz.Foldable1&#45;&gt;scalaz.Foldable</title>
<path fill="none" stroke="black" d="M427.345,-132.352C422.497,-124.149 416.339,-113.728 410.839,-104.42"/>
<polygon fill="black" stroke="black" points="413.732,-102.435 405.631,-95.6066 407.705,-105.996 413.732,-102.435"/>
</g>
<!-- scalaz.Functor&#45;&gt;scalaz.InvariantFunctor -->
<g id="edge14" class="edge"><title>scalaz.Functor&#45;&gt;scalaz.InvariantFunctor</title>
<path fill="none" stroke="black" d="M209.574,-66.3525C201.075,-57.7222 190.157,-46.6365 180.642,-36.9753"/>
<polygon fill="black" stroke="black" points="182.896,-34.2755 173.385,-29.6066 177.908,-39.1874 182.896,-34.2755"/>
</g>
<!-- scalaz.IsEmpty -->
<g id="node17" class="node"><title>scalaz.IsEmpty</title>
<a xlink:href="https://github.com/scalaz/scalaz/tree/v7.2.0/core/src/main/scala/scalaz/IsEmpty.scala" xlink:title="scalaz.IsEmpty" target="_blank">
<polygon fill="#799f5a" stroke="black" points="14.5,-264.5 14.5,-293.5 69.5,-293.5 69.5,-264.5 14.5,-264.5"/>
<text text-anchor="middle" x="42" y="-276.5" font-family="Times Roman,serif" font-size="10.00">IsEmpty</text>
</a>
</g>
<!-- scalaz.IsEmpty&#45;&gt;scalaz.PlusEmpty -->
<g id="edge46" class="edge"><title>scalaz.IsEmpty&#45;&gt;scalaz.PlusEmpty</title>
<path fill="none" stroke="black" d="M61.5301,-264.352C73.4928,-255.38 88.9938,-243.755 102.221,-233.834"/>
<polygon fill="black" stroke="black" points="104.625,-236.407 110.525,-227.607 100.425,-230.807 104.625,-236.407"/>
</g>
<!-- scalaz.Monad -->
<g id="node18" class="node"><title>scalaz.Monad</title>
<a xlink:href="https://github.com/scalaz/scalaz/tree/v7.2.0/core/src/main/scala/scalaz/Monad.scala" xlink:title="scalaz.Monad" target="_blank">
<polygon fill="#799f5a" stroke="black" points="192.5,-264.5 192.5,-293.5 241.5,-293.5 241.5,-264.5 192.5,-264.5"/>
<text text-anchor="middle" x="217" y="-276.5" font-family="Times Roman,serif" font-size="10.00">Monad</text>
</a>
</g>
<!-- scalaz.Monad&#45;&gt;scalaz.Applicative -->
<g id="edge16" class="edge"><title>scalaz.Monad&#45;&gt;scalaz.Applicative</title>
<path fill="none" stroke="black" d="M216.556,-264.352C216.321,-256.577 216.024,-246.808 215.754,-237.883"/>
<polygon fill="black" stroke="black" points="219.244,-237.496 215.443,-227.607 212.247,-237.708 219.244,-237.496"/>
</g>
<!-- scalaz.Monad&#45;&gt;scalaz.Bind -->
<g id="edge18" class="edge"><title>scalaz.Monad&#45;&gt;scalaz.Bind</title>
<path fill="none" stroke="black" d="M232.313,-264.352C241.425,-255.637 253.155,-244.417 263.325,-234.689"/>
<polygon fill="black" stroke="black" points="265.922,-237.048 270.729,-227.607 261.084,-231.99 265.922,-237.048"/>
</g>
<!-- scalaz.MonadError -->
<g id="node19" class="node"><title>scalaz.MonadError</title>
<a xlink:href="https://github.com/scalaz/scalaz/tree/v7.2.0/core/src/main/scala/scalaz/MonadError.scala" xlink:title="scalaz.MonadError" target="_blank">
<polygon fill="#799f5a" stroke="black" points="86,-330.5 86,-359.5 158,-359.5 158,-330.5 86,-330.5"/>
<text text-anchor="middle" x="122" y="-342.5" font-family="Times Roman,serif" font-size="10.00">MonadError</text>
</a>
</g>
<!-- scalaz.MonadError&#45;&gt;scalaz.Monad -->
<g id="edge52" class="edge"><title>scalaz.MonadError&#45;&gt;scalaz.Monad</title>
<path fill="none" stroke="black" d="M143.084,-330.352C156.121,-321.295 173.051,-309.533 187.419,-299.551"/>
<polygon fill="black" stroke="black" points="189.76,-302.187 195.975,-293.607 185.766,-296.438 189.76,-302.187"/>
</g>
<!-- scalaz.MonadListen -->
<g id="node20" class="node"><title>scalaz.MonadListen</title>
<a xlink:href="https://github.com/scalaz/scalaz/tree/v7.2.0/core/src/main/scala/scalaz/MonadListen.scala" xlink:title="scalaz.MonadListen" target="_blank">
<polygon fill="#799f5a" stroke="black" points="360.5,-396.5 360.5,-425.5 437.5,-425.5 437.5,-396.5 360.5,-396.5"/>
<text text-anchor="middle" x="399" y="-408.5" font-family="Times Roman,serif" font-size="10.00">MonadListen</text>
</a>
</g>
<!-- scalaz.MonadTell -->
<g id="node24" class="node"><title>scalaz.MonadTell</title>
<a xlink:href="https://github.com/scalaz/scalaz/tree/v7.2.0/core/src/main/scala/scalaz/MonadTell.scala" xlink:title="scalaz.MonadTell" target="_blank">
<polygon fill="#799f5a" stroke="black" points="367.5,-330.5 367.5,-359.5 430.5,-359.5 430.5,-330.5 367.5,-330.5"/>
<text text-anchor="middle" x="399" y="-342.5" font-family="Times Roman,serif" font-size="10.00">MonadTell</text>
</a>
</g>
<!-- scalaz.MonadListen&#45;&gt;scalaz.MonadTell -->
<g id="edge54" class="edge"><title>scalaz.MonadListen&#45;&gt;scalaz.MonadTell</title>
<path fill="none" stroke="black" d="M399,-396.352C399,-388.577 399,-378.808 399,-369.883"/>
<polygon fill="black" stroke="black" points="402.5,-369.607 399,-359.607 395.5,-369.607 402.5,-369.607"/>
</g>
<!-- scalaz.MonadPlus -->
<g id="node21" class="node"><title>scalaz.MonadPlus</title>
<a xlink:href="https://github.com/scalaz/scalaz/tree/v7.2.0/core/src/main/scala/scalaz/MonadPlus.scala" xlink:title="scalaz.MonadPlus" target="_blank">
<polygon fill="#799f5a" stroke="black" points="0,-330.5 0,-359.5 68,-359.5 68,-330.5 0,-330.5"/>
<text text-anchor="middle" x="34" y="-342.5" font-family="Times Roman,serif" font-size="10.00">MonadPlus</text>
</a>
</g>
<!-- scalaz.MonadPlus&#45;&gt;scalaz.ApplicativePlus -->
<g id="edge38" class="edge"><title>scalaz.MonadPlus&#45;&gt;scalaz.ApplicativePlus</title>
<path fill="none" stroke="black" d="M55.5274,-330.352C68.9648,-321.21 86.4524,-309.311 101.21,-299.269"/>
<polygon fill="black" stroke="black" points="103.234,-302.126 109.533,-293.607 99.2961,-296.338 103.234,-302.126"/>
</g>
<!-- scalaz.MonadPlus&#45;&gt;scalaz.Monad -->
<g id="edge36" class="edge"><title>scalaz.MonadPlus&#45;&gt;scalaz.Monad</title>
<path fill="none" stroke="black" d="M68.2557,-333.012C71.2118,-331.989 74.1578,-330.974 77,-330 121.592,-314.721 135.639,-312.621 182.719,-294.325"/>
<polygon fill="black" stroke="black" points="184.224,-297.494 192.25,-290.577 181.663,-290.979 184.224,-297.494"/>
</g>
<!-- scalaz.MonadReader -->
<g id="node22" class="node"><title>scalaz.MonadReader</title>
<a xlink:href="https://github.com/scalaz/scalaz/tree/v7.2.0/core/src/main/scala/scalaz/MonadReader.scala" xlink:title="scalaz.MonadReader" target="_blank">
<polygon fill="#799f5a" stroke="black" points="176,-330.5 176,-359.5 258,-359.5 258,-330.5 176,-330.5"/>
<text text-anchor="middle" x="217" y="-342.5" font-family="Times Roman,serif" font-size="10.00">MonadReader</text>
</a>
</g>
<!-- scalaz.MonadReader&#45;&gt;scalaz.Monad -->
<g id="edge48" class="edge"><title>scalaz.MonadReader&#45;&gt;scalaz.Monad</title>
<path fill="none" stroke="black" d="M217,-330.352C217,-322.577 217,-312.808 217,-303.883"/>
<polygon fill="black" stroke="black" points="220.5,-303.607 217,-293.607 213.5,-303.607 220.5,-303.607"/>
</g>
<!-- scalaz.MonadState -->
<g id="node23" class="node"><title>scalaz.MonadState</title>
<a xlink:href="https://github.com/scalaz/scalaz/tree/v7.2.0/core/src/main/scala/scalaz/MonadState.scala" xlink:title="scalaz.MonadState" target="_blank">
<polygon fill="#799f5a" stroke="black" points="275.5,-330.5 275.5,-359.5 350.5,-359.5 350.5,-330.5 275.5,-330.5"/>
<text text-anchor="middle" x="313" y="-342.5" font-family="Times Roman,serif" font-size="10.00">MonadState</text>
</a>
</g>
<!-- scalaz.MonadState&#45;&gt;scalaz.Monad -->
<g id="edge50" class="edge"><title>scalaz.MonadState&#45;&gt;scalaz.Monad</title>
<path fill="none" stroke="black" d="M291.694,-330.352C278.52,-321.295 261.412,-309.533 246.893,-299.551"/>
<polygon fill="black" stroke="black" points="248.469,-296.388 238.246,-293.607 244.504,-302.156 248.469,-296.388"/>
</g>
<!-- scalaz.MonadTell&#45;&gt;scalaz.Monad -->
<g id="edge30" class="edge"><title>scalaz.MonadTell&#45;&gt;scalaz.Monad</title>
<path fill="none" stroke="black" d="M367.165,-332.932C364.408,-331.926 361.658,-330.937 359,-330 313.703,-314.034 299.2,-312.693 251.126,-294.244"/>
<polygon fill="black" stroke="black" points="252.332,-290.958 241.744,-290.593 249.794,-297.481 252.332,-290.958"/>
</g>
<!-- scalaz.Nondeterminism -->
<g id="node25" class="node"><title>scalaz.Nondeterminism</title>
<a xlink:href="https://github.com/scalaz/scalaz/tree/v7.2.0/core/src/main/scala/scalaz/Nondeterminism.scala" xlink:title="scalaz.Nondeterminism" target="_blank">
<polygon fill="#799f5a" stroke="black" points="447.5,-330.5 447.5,-359.5 544.5,-359.5 544.5,-330.5 447.5,-330.5"/>
<text text-anchor="middle" x="496" y="-342.5" font-family="Times Roman,serif" font-size="10.00">Nondeterminism</text>
</a>
</g>
<!-- scalaz.Nondeterminism&#45;&gt;scalaz.Monad -->
<g id="edge56" class="edge"><title>scalaz.Nondeterminism&#45;&gt;scalaz.Monad</title>
<path fill="none" stroke="black" d="M447.237,-331.931C444.455,-331.259 441.695,-330.61 439,-330 358.698,-311.809 333.372,-319.263 251.358,-294.02"/>
<polygon fill="black" stroke="black" points="252.206,-290.618 241.616,-290.953 250.103,-297.295 252.206,-290.618"/>
</g>
<!-- scalaz.Plus -->
<g id="node26" class="node"><title>scalaz.Plus</title>
<a xlink:href="https://github.com/scalaz/scalaz/tree/v7.2.0/core/src/main/scala/scalaz/Plus.scala" xlink:title="scalaz.Plus" target="_blank">
<polygon fill="#799f5a" stroke="black" points="149,-132.5 149,-161.5 185,-161.5 185,-132.5 149,-132.5"/>
<text text-anchor="middle" x="167" y="-144.5" font-family="Times Roman,serif" font-size="10.00">Plus</text>
</a>
</g>
<!-- scalaz.PlusEmpty&#45;&gt;scalaz.Plus -->
<g id="edge12" class="edge"><title>scalaz.PlusEmpty&#45;&gt;scalaz.Plus</title>
<path fill="none" stroke="black" d="M138.211,-198.352C142.81,-190.149 148.652,-179.728 153.871,-170.42"/>
<polygon fill="black" stroke="black" points="156.974,-172.041 158.811,-161.607 150.868,-168.618 156.974,-172.041"/>
</g>
<!-- scalaz.Traverse -->
<g id="node28" class="node"><title>scalaz.Traverse</title>
<a xlink:href="https://github.com/scalaz/scalaz/tree/v7.2.0/core/src/main/scala/scalaz/Traverse.scala" xlink:title="scalaz.Traverse" target="_blank">
<polygon fill="#799f5a" stroke="black" points="331,-132.5 331,-161.5 387,-161.5 387,-132.5 331,-132.5"/>
<text text-anchor="middle" x="359" y="-144.5" font-family="Times Roman,serif" font-size="10.00">Traverse</text>
</a>
</g>
<!-- scalaz.Traverse&#45;&gt;scalaz.Foldable -->
<g id="edge28" class="edge"><title>scalaz.Traverse&#45;&gt;scalaz.Foldable</title>
<path fill="none" stroke="black" d="M367.433,-132.352C372.156,-124.149 378.157,-113.728 383.516,-104.42"/>
<polygon fill="black" stroke="black" points="386.634,-106.019 388.59,-95.6066 380.567,-102.526 386.634,-106.019"/>
</g>
<!-- scalaz.Traverse&#45;&gt;scalaz.Functor -->
<g id="edge26" class="edge"><title>scalaz.Traverse&#45;&gt;scalaz.Functor</title>
<path fill="none" stroke="black" d="M330.7,-133.164C309.998,-123.043 281.768,-109.242 259.546,-98.3779"/>
<polygon fill="black" stroke="black" points="260.95,-95.1686 250.429,-93.9208 257.876,-101.457 260.95,-95.1686"/>
</g>
<!-- scalaz.Traverse1 -->
<g id="node29" class="node"><title>scalaz.Traverse1</title>
<a xlink:href="https://github.com/scalaz/scalaz/tree/v7.2.0/core/src/main/scala/scalaz/Traverse1.scala" xlink:title="scalaz.Traverse1" target="_blank">
<polygon fill="#799f5a" stroke="black" points="404,-198.5 404,-227.5 466,-227.5 466,-198.5 404,-198.5"/>
<text text-anchor="middle" x="435" y="-210.5" font-family="Times Roman,serif" font-size="10.00">Traverse1</text>
</a>
</g>
<!-- scalaz.Traverse1&#45;&gt;scalaz.Foldable1 -->
<g id="edge44" class="edge"><title>scalaz.Traverse1&#45;&gt;scalaz.Foldable1</title>
<path fill="none" stroke="black" d="M435.222,-198.352C435.34,-190.577 435.488,-180.808 435.623,-171.883"/>
<polygon fill="black" stroke="black" points="439.127,-171.659 435.779,-161.607 432.127,-171.552 439.127,-171.659"/>
</g>
<!-- scalaz.Traverse1&#45;&gt;scalaz.Traverse -->
<g id="edge42" class="edge"><title>scalaz.Traverse1&#45;&gt;scalaz.Traverse</title>
<path fill="none" stroke="black" d="M418.133,-198.352C407.999,-189.551 394.923,-178.197 383.646,-168.403"/>
<polygon fill="black" stroke="black" points="385.665,-165.521 375.82,-161.607 381.075,-170.806 385.665,-165.521"/>
</g>
</g>
</svg>

