<?xml version="1.0" encoding="UTF-8" standalone="no"?>
<!DOCTYPE svg PUBLIC "-//W3C//DTD SVG 1.1//EN"
 "http://www.w3.org/Graphics/SVG/1.1/DTD/svg11.dtd">
<!-- Generated by graphviz version 2.26.3 (20100126.1600)
 -->
<!-- Title: scalaz 7.2.13 diagram Pages: 1 -->
<svg width="683pt" height="170pt"
 viewBox="0.00 0.00 683.00 170.00" xmlns="http://www.w3.org/2000/svg" xmlns:xlink="http://www.w3.org/1999/xlink">
<g id="graph1" class="graph" transform="scale(1 1) rotate(0) translate(4 166)">
<title>scalaz 7.2.13 diagram</title>
<polygon fill="white" stroke="white" points="-4,5 -4,-166 680,-166 680,5 -4,5"/>
<!-- scalaz.Arrow -->
<g id="node1" class="node"><title>scalaz.Arrow</title>
<a xlink:href="https://github.com/scalaz/scalaz/tree/v7.2.13/core/src/main/scala/scalaz/Arrow.scala" xlink:title="scalaz.Arrow" target="_blank">
<polygon fill="#799f5a" stroke="black" points="125,-132.5 125,-161.5 169,-161.5 169,-132.5 125,-132.5"/>
<text text-anchor="middle" x="147" y="-144.5" font-family="Times Roman,serif" font-size="10.00">Arrow</text>
</a>
</g>
<!-- scalaz.ArrowParent -->
<g id="node2" class="node"><title>scalaz.ArrowParent</title>
<a xlink:href="https://github.com/scalaz/scalaz/tree/v7.2.13/core/src/main/scala/scalaz/ArrowParent.scala" xlink:title="scalaz.ArrowParent" target="_blank">
<polygon fill="#799f5a" stroke="black" points="78,-66.5 78,-95.5 152,-95.5 152,-66.5 78,-66.5"/>
<text text-anchor="middle" x="115" y="-78.5" font-family="Times Roman,serif" font-size="10.00">ArrowParent</text>
</a>
</g>
<!-- scalaz.Arrow&#45;&gt;scalaz.ArrowParent -->
<g id="edge30" class="edge"><title>scalaz.Arrow&#45;&gt;scalaz.ArrowParent</title>
<path fill="none" stroke="black" d="M139.898,-132.352C135.962,-124.235 130.973,-113.945 126.496,-104.711"/>
<polygon fill="black" stroke="black" points="129.594,-103.078 122.082,-95.6066 123.295,-106.132 129.594,-103.078"/>
</g>
<!-- scalaz.Category -->
<g id="node9" class="node"><title>scalaz.Category</title>
<a xlink:href="https://github.com/scalaz/scalaz/tree/v7.2.13/core/src/main/scala/scalaz/Category.scala" xlink:title="scalaz.Category" target="_blank">
<polygon fill="#799f5a" stroke="black" points="0,-66.5 0,-95.5 60,-95.5 60,-66.5 0,-66.5"/>
<text text-anchor="middle" x="30" y="-78.5" font-family="Times Roman,serif" font-size="10.00">Category</text>
</a>
</g>
<!-- scalaz.Arrow&#45;&gt;scalaz.Category -->
<g id="edge28" class="edge"><title>scalaz.Arrow&#45;&gt;scalaz.Category</title>
<path fill="none" stroke="black" d="M124.993,-134.586C108.078,-125.044 84.3858,-111.679 64.8943,-100.684"/>
<polygon fill="black" stroke="black" points="66.4228,-97.5277 55.9933,-95.6629 62.9835,-103.625 66.4228,-97.5277"/>
</g>
<!-- scalaz.Split -->
<g id="node19" class="node"><title>scalaz.Split</title>
<a xlink:href="https://github.com/scalaz/scalaz/tree/v7.2.13/core/src/main/scala/scalaz/Split.scala" xlink:title="scalaz.Split" target="_blank">
<polygon fill="#799f5a" stroke="black" points="170,-66.5 170,-95.5 208,-95.5 208,-66.5 170,-66.5"/>
<text text-anchor="middle" x="189" y="-78.5" font-family="Times Roman,serif" font-size="10.00">Split</text>
</a>
</g>
<!-- scalaz.Arrow&#45;&gt;scalaz.Split -->
<g id="edge24" class="edge"><title>scalaz.Arrow&#45;&gt;scalaz.Split</title>
<path fill="none" stroke="black" d="M156.321,-132.352C161.596,-124.064 168.311,-113.511 174.281,-104.13"/>
<polygon fill="black" stroke="black" points="177.289,-105.922 179.705,-95.6066 171.383,-102.164 177.289,-105.922"/>
</g>
<!-- scalaz.Strong -->
<g id="node20" class="node"><title>scalaz.Strong</title>
<a xlink:href="https://github.com/scalaz/scalaz/tree/v7.2.13/core/src/main/scala/scalaz/Strong.scala" xlink:title="scalaz.Strong" target="_blank">
<polygon fill="#799f5a" stroke="black" points="225.5,-66.5 225.5,-95.5 274.5,-95.5 274.5,-66.5 225.5,-66.5"/>
<text text-anchor="middle" x="250" y="-78.5" font-family="Times Roman,serif" font-size="10.00">Strong</text>
</a>
</g>
<!-- scalaz.Arrow&#45;&gt;scalaz.Strong -->
<g id="edge26" class="edge"><title>scalaz.Arrow&#45;&gt;scalaz.Strong</title>
<path fill="none" stroke="black" d="M169.096,-132.841C183.56,-123.573 202.677,-111.324 218.696,-101.059"/>
<polygon fill="black" stroke="black" points="220.696,-103.934 227.228,-95.5919 216.92,-98.0402 220.696,-103.934"/>
</g>
<!-- scalaz.Associative -->
<g id="node3" class="node"><title>scalaz.Associative</title>
<a xlink:href="https://github.com/scalaz/scalaz/tree/v7.2.13/core/src/main/scala/scalaz/Associative.scala" xlink:title="scalaz.Associative" target="_blank">
<polygon fill="#799f5a" stroke="black" points="218.5,-132.5 218.5,-161.5 289.5,-161.5 289.5,-132.5 218.5,-132.5"/>
<text text-anchor="middle" x="254" y="-144.5" font-family="Times Roman,serif" font-size="10.00">Associative</text>
</a>
</g>
<!-- scalaz.Band -->
<g id="node4" class="node"><title>scalaz.Band</title>
<a xlink:href="https://github.com/scalaz/scalaz/tree/v7.2.13/core/src/main/scala/scalaz/Band.scala" xlink:title="scalaz.Band" target="_blank">
<polygon fill="#799f5a" stroke="black" points="347.5,-132.5 347.5,-161.5 388.5,-161.5 388.5,-132.5 347.5,-132.5"/>
<text text-anchor="middle" x="368" y="-144.5" font-family="Times Roman,serif" font-size="10.00">Band</text>
</a>
</g>
<!-- scalaz.Semigroup -->
<g id="node18" class="node"><title>scalaz.Semigroup</title>
<a xlink:href="https://github.com/scalaz/scalaz/tree/v7.2.13/core/src/main/scala/scalaz/Semigroup.scala" xlink:title="scalaz.Semigroup" target="_blank">
<polygon fill="#799f5a" stroke="black" points="373.5,-66.5 373.5,-95.5 442.5,-95.5 442.5,-66.5 373.5,-66.5"/>
<text text-anchor="middle" x="408" y="-78.5" font-family="Times Roman,serif" font-size="10.00">Semigroup</text>
</a>
</g>
<!-- scalaz.Band&#45;&gt;scalaz.Semigroup -->
<g id="edge12" class="edge"><title>scalaz.Band&#45;&gt;scalaz.Semigroup</title>
<path fill="none" stroke="black" d="M376.877,-132.352C381.849,-124.149 388.165,-113.728 393.806,-104.42"/>
<polygon fill="black" stroke="black" points="396.958,-105.973 399.148,-95.6066 390.971,-102.345 396.958,-105.973"/>
</g>
<!-- scalaz.Bifoldable -->
<g id="node5" class="node"><title>scalaz.Bifoldable</title>
<a xlink:href="https://github.com/scalaz/scalaz/tree/v7.2.13/core/src/main/scala/scalaz/Bifoldable.scala" xlink:title="scalaz.Bifoldable" target="_blank">
<polygon fill="#799f5a" stroke="black" points="459.5,-66.5 459.5,-95.5 522.5,-95.5 522.5,-66.5 459.5,-66.5"/>
<text text-anchor="middle" x="491" y="-78.5" font-family="Times Roman,serif" font-size="10.00">Bifoldable</text>
</a>
</g>
<!-- scalaz.Bifunctor -->
<g id="node6" class="node"><title>scalaz.Bifunctor</title>
<a xlink:href="https://github.com/scalaz/scalaz/tree/v7.2.13/core/src/main/scala/scalaz/Bifunctor.scala" xlink:title="scalaz.Bifunctor" target="_blank">
<polygon fill="#799f5a" stroke="black" points="539.5,-66.5 539.5,-95.5 598.5,-95.5 598.5,-66.5 539.5,-66.5"/>
<text text-anchor="middle" x="569" y="-78.5" font-family="Times Roman,serif" font-size="10.00">Bifunctor</text>
</a>
</g>
<!-- scalaz.BifunctorParent -->
<g id="node7" class="node"><title>scalaz.BifunctorParent</title>
<a xlink:href="https://github.com/scalaz/scalaz/tree/v7.2.13/core/src/main/scala/scalaz/BifunctorParent.scala" xlink:title="scalaz.BifunctorParent" target="_blank">
<polygon fill="#799f5a" stroke="black" points="524,-0.5 524,-29.5 614,-29.5 614,-0.5 524,-0.5"/>
<text text-anchor="middle" x="569" y="-12.5" font-family="Times Roman,serif" font-size="10.00">BifunctorParent</text>
</a>
</g>
<!-- scalaz.Bifunctor&#45;&gt;scalaz.BifunctorParent -->
<g id="edge4" class="edge"><title>scalaz.Bifunctor&#45;&gt;scalaz.BifunctorParent</title>
<path fill="none" stroke="black" d="M569,-66.3525C569,-58.5767 569,-48.8077 569,-39.8831"/>
<polygon fill="black" stroke="black" points="572.5,-39.6066 569,-29.6066 565.5,-39.6066 572.5,-39.6066"/>
</g>
<!-- scalaz.Bitraverse -->
<g id="node8" class="node"><title>scalaz.Bitraverse</title>
<a xlink:href="https://github.com/scalaz/scalaz/tree/v7.2.13/core/src/main/scala/scalaz/Bitraverse.scala" xlink:title="scalaz.Bitraverse" target="_blank">
<polygon fill="#799f5a" stroke="black" points="497.5,-132.5 497.5,-161.5 562.5,-161.5 562.5,-132.5 497.5,-132.5"/>
<text text-anchor="middle" x="530" y="-144.5" font-family="Times Roman,serif" font-size="10.00">Bitraverse</text>
</a>
</g>
<!-- scalaz.Bitraverse&#45;&gt;scalaz.Bifoldable -->
<g id="edge20" class="edge"><title>scalaz.Bitraverse&#45;&gt;scalaz.Bifoldable</title>
<path fill="none" stroke="black" d="M521.345,-132.352C516.497,-124.149 510.339,-113.728 504.839,-104.42"/>
<polygon fill="black" stroke="black" points="507.732,-102.435 499.631,-95.6066 501.705,-105.996 507.732,-102.435"/>
</g>
<!-- scalaz.Bitraverse&#45;&gt;scalaz.Bifunctor -->
<g id="edge18" class="edge"><title>scalaz.Bitraverse&#45;&gt;scalaz.Bifunctor</title>
<path fill="none" stroke="black" d="M538.655,-132.352C543.503,-124.149 549.661,-113.728 555.161,-104.42"/>
<polygon fill="black" stroke="black" points="558.295,-105.996 560.369,-95.6066 552.268,-102.435 558.295,-105.996"/>
</g>
<!-- scalaz.Compose -->
<g id="node11" class="node"><title>scalaz.Compose</title>
<a xlink:href="https://github.com/scalaz/scalaz/tree/v7.2.13/core/src/main/scala/scalaz/Compose.scala" xlink:title="scalaz.Compose" target="_blank">
<polygon fill="#799f5a" stroke="black" points="68,-0.5 68,-29.5 130,-29.5 130,-0.5 68,-0.5"/>
<text text-anchor="middle" x="99" y="-12.5" font-family="Times Roman,serif" font-size="10.00">Compose</text>
</a>
</g>
<!-- scalaz.Category&#45;&gt;scalaz.Compose -->
<g id="edge6" class="edge"><title>scalaz.Category&#45;&gt;scalaz.Compose</title>
<path fill="none" stroke="black" d="M45.3133,-66.3525C54.4252,-57.6368 66.1552,-46.4168 76.3254,-36.6887"/>
<polygon fill="black" stroke="black" points="78.9223,-39.0481 83.7295,-29.6066 74.0837,-33.9896 78.9223,-39.0481"/>
</g>
<!-- scalaz.Choice -->
<g id="node10" class="node"><title>scalaz.Choice</title>
<a xlink:href="https://github.com/scalaz/scalaz/tree/v7.2.13/core/src/main/scala/scalaz/Choice.scala" xlink:title="scalaz.Choice" target="_blank">
<polygon fill="#799f5a" stroke="black" points="5.5,-132.5 5.5,-161.5 54.5,-161.5 54.5,-132.5 5.5,-132.5"/>
<text text-anchor="middle" x="30" y="-144.5" font-family="Times Roman,serif" font-size="10.00">Choice</text>
</a>
</g>
<!-- scalaz.Choice&#45;&gt;scalaz.Category -->
<g id="edge22" class="edge"><title>scalaz.Choice&#45;&gt;scalaz.Category</title>
<path fill="none" stroke="black" d="M30,-132.352C30,-124.577 30,-114.808 30,-105.883"/>
<polygon fill="black" stroke="black" points="33.5001,-105.607 30,-95.6066 26.5001,-105.607 33.5001,-105.607"/>
</g>
<!-- scalaz.Enum -->
<g id="node12" class="node"><title>scalaz.Enum</title>
<a xlink:href="https://github.com/scalaz/scalaz/tree/v7.2.13/core/src/main/scala/scalaz/Enum.scala" xlink:title="scalaz.Enum" target="_blank">
<polygon fill="#799f5a" stroke="black" points="631,-132.5 631,-161.5 675,-161.5 675,-132.5 631,-132.5"/>
<text text-anchor="middle" x="653" y="-144.5" font-family="Times Roman,serif" font-size="10.00">Enum</text>
</a>
</g>
<!-- scalaz.Order -->
<g id="node15" class="node"><title>scalaz.Order</title>
<a xlink:href="https://github.com/scalaz/scalaz/tree/v7.2.13/core/src/main/scala/scalaz/Order.scala" xlink:title="scalaz.Order" target="_blank">
<polygon fill="#799f5a" stroke="black" points="631,-66.5 631,-95.5 675,-95.5 675,-66.5 631,-66.5"/>
<text text-anchor="middle" x="653" y="-78.5" font-family="Times Roman,serif" font-size="10.00">Order</text>
</a>
</g>
<!-- scalaz.Enum&#45;&gt;scalaz.Order -->
<g id="edge16" class="edge"><title>scalaz.Enum&#45;&gt;scalaz.Order</title>
<path fill="none" stroke="black" d="M653,-132.352C653,-124.577 653,-114.808 653,-105.883"/>
<polygon fill="black" stroke="black" points="656.5,-105.607 653,-95.6066 649.5,-105.607 656.5,-105.607"/>
</g>
<!-- scalaz.Equal -->
<g id="node13" class="node"><title>scalaz.Equal</title>
<a xlink:href="https://github.com/scalaz/scalaz/tree/v7.2.13/core/src/main/scala/scalaz/Equal.scala" xlink:title="scalaz.Equal" target="_blank">
<polygon fill="#799f5a" stroke="black" points="631.5,-0.5 631.5,-29.5 674.5,-29.5 674.5,-0.5 631.5,-0.5"/>
<text text-anchor="middle" x="653" y="-12.5" font-family="Times Roman,serif" font-size="10.00">Equal</text>
</a>
</g>
<!-- scalaz.Monoid -->
<g id="node14" class="node"><title>scalaz.Monoid</title>
<a xlink:href="https://github.com/scalaz/scalaz/tree/v7.2.13/core/src/main/scala/scalaz/Monoid.scala" xlink:title="scalaz.Monoid" target="_blank">
<polygon fill="#799f5a" stroke="black" points="405.5,-132.5 405.5,-161.5 456.5,-161.5 456.5,-132.5 405.5,-132.5"/>
<text text-anchor="middle" x="431" y="-144.5" font-family="Times Roman,serif" font-size="10.00">Monoid</text>
</a>
</g>
<!-- scalaz.Monoid&#45;&gt;scalaz.Semigroup -->
<g id="edge14" class="edge"><title>scalaz.Monoid&#45;&gt;scalaz.Semigroup</title>
<path fill="none" stroke="black" d="M425.896,-132.352C423.126,-124.406 419.631,-114.377 416.467,-105.296"/>
<polygon fill="black" stroke="black" points="419.686,-103.898 413.09,-95.6066 413.076,-106.201 419.686,-103.898"/>
</g>
<!-- scalaz.Order&#45;&gt;scalaz.Equal -->
<g id="edge2" class="edge"><title>scalaz.Order&#45;&gt;scalaz.Equal</title>
<path fill="none" stroke="black" d="M653,-66.3525C653,-58.5767 653,-48.8077 653,-39.8831"/>
<polygon fill="black" stroke="black" points="656.5,-39.6066 653,-29.6066 649.5,-39.6066 656.5,-39.6066"/>
</g>
<!-- scalaz.ProChoice -->
<g id="node16" class="node"><title>scalaz.ProChoice</title>
<a xlink:href="https://github.com/scalaz/scalaz/tree/v7.2.13/core/src/main/scala/scalaz/ProChoice.scala" xlink:title="scalaz.ProChoice" target="_blank">
<polygon fill="#799f5a" stroke="black" points="291.5,-66.5 291.5,-95.5 356.5,-95.5 356.5,-66.5 291.5,-66.5"/>
<text text-anchor="middle" x="324" y="-78.5" font-family="Times Roman,serif" font-size="10.00">ProChoice</text>
</a>
</g>
<!-- scalaz.Profunctor -->
<g id="node17" class="node"><title>scalaz.Profunctor</title>
<a xlink:href="https://github.com/scalaz/scalaz/tree/v7.2.13/core/src/main/scala/scalaz/Profunctor.scala" xlink:title="scalaz.Profunctor" target="_blank">
<polygon fill="#799f5a" stroke="black" points="254,-0.5 254,-29.5 320,-29.5 320,-0.5 254,-0.5"/>
<text text-anchor="middle" x="287" y="-12.5" font-family="Times Roman,serif" font-size="10.00">Profunctor</text>
</a>
</g>
<!-- scalaz.ProChoice&#45;&gt;scalaz.Profunctor -->
<g id="edge32" class="edge"><title>scalaz.ProChoice&#45;&gt;scalaz.Profunctor</title>
<path fill="none" stroke="black" d="M315.789,-66.3525C311.19,-58.1495 305.348,-47.7281 300.129,-38.4201"/>
<polygon fill="black" stroke="black" points="303.132,-36.6179 295.189,-29.6066 297.026,-40.0409 303.132,-36.6179"/>
</g>
<!-- scalaz.Split&#45;&gt;scalaz.Compose -->
<g id="edge10" class="edge"><title>scalaz.Split&#45;&gt;scalaz.Compose</title>
<path fill="none" stroke="black" d="M169.913,-67.0031C157.521,-57.9158 141.153,-45.912 127.264,-35.7271"/>
<polygon fill="black" stroke="black" points="129.129,-32.7542 118.995,-29.6629 124.989,-38.399 129.129,-32.7542"/>
</g>
<!-- scalaz.Strong&#45;&gt;scalaz.Profunctor -->
<g id="edge8" class="edge"><title>scalaz.Strong&#45;&gt;scalaz.Profunctor</title>
<path fill="none" stroke="black" d="M258.211,-66.3525C262.81,-58.1495 268.652,-47.7281 273.871,-38.4201"/>
<polygon fill="black" stroke="black" points="276.974,-40.0409 278.811,-29.6066 270.868,-36.6179 276.974,-40.0409"/>
</g>
</g>
</svg>

