<?xml version="1.0" encoding="UTF-8" standalone="no"?>
<!DOCTYPE svg PUBLIC "-//W3C//DTD SVG 1.1//EN"
 "http://www.w3.org/Graphics/SVG/1.1/DTD/svg11.dtd">
<!-- Generated by graphviz version 2.43.0 (0)
 -->
<!-- Title: scalaz 7.3.7 diagram Pages: 1 -->
<svg width="760pt" height="434pt"
 viewBox="0.00 0.00 759.50 434.00" xmlns="http://www.w3.org/2000/svg" xmlns:xlink="http://www.w3.org/1999/xlink">
<g id="graph0" class="graph" transform="scale(1 1) rotate(0) translate(4 430)">
<title>scalaz 7.3.7 diagram</title>
<polygon fill="white" stroke="transparent" points="-4,4 -4,-430 755.5,-430 755.5,4 -4,4"/>
<!-- scalaz.Align -->
<g id="node1" class="node">
<title>scalaz.Align</title>
<g id="a_node1"><a xlink:href="https://github.com/scalaz/scalaz/tree/v7.3.7/core/src/main/scala/scalaz/Align.scala" xlink:title="scalaz.Align" target="_blank">
<polygon fill="#799f5a" stroke="black" points="253,-132.5 253,-161.5 297,-161.5 297,-132.5 253,-132.5"/>
<text text-anchor="middle" x="275" y="-144.5" font-family="Times,serif" font-size="10.00">Align</text>
</a>
</g>
</g>
<!-- scalaz.Functor -->
<g id="node17" class="node">
<title>scalaz.Functor</title>
<g id="a_node17"><a xlink:href="https://github.com/scalaz/scalaz/tree/v7.3.7/core/src/main/scala/scalaz/Functor.scala" xlink:title="scalaz.Functor" target="_blank">
<polygon fill="#799f5a" stroke="black" points="373,-66.5 373,-95.5 429,-95.5 429,-66.5 373,-66.5"/>
<text text-anchor="middle" x="401" y="-78.5" font-family="Times,serif" font-size="10.00">Functor</text>
</a>
</g>
</g>
<!-- scalaz.Align&#45;&gt;scalaz.Functor -->
<g id="edge36" class="edge">
<title>scalaz.Align&#45;&gt;scalaz.Functor</title>
<path fill="none" stroke="black" d="M297.24,-134.71C316.03,-125.16 343.3,-111.31 365.17,-100.2"/>
<polygon fill="black" stroke="black" points="366.84,-103.28 374.17,-95.63 363.67,-97.03 366.84,-103.28"/>
</g>
<!-- scalaz.Applicative -->
<g id="node2" class="node">
<title>scalaz.Applicative</title>
<g id="a_node2"><a xlink:href="https://github.com/scalaz/scalaz/tree/v7.3.7/core/src/main/scala/scalaz/Applicative.scala" xlink:title="scalaz.Applicative" target="_blank">
<polygon fill="#799f5a" stroke="black" points="254,-198.5 254,-227.5 328,-227.5 328,-198.5 254,-198.5"/>
<text text-anchor="middle" x="291" y="-210.5" font-family="Times,serif" font-size="10.00">Applicative</text>
</a>
</g>
</g>
<!-- scalaz.Apply -->
<g id="node5" class="node">
<title>scalaz.Apply</title>
<g id="a_node5"><a xlink:href="https://github.com/scalaz/scalaz/tree/v7.3.7/core/src/main/scala/scalaz/Apply.scala" xlink:title="scalaz.Apply" target="_blank">
<polygon fill="#799f5a" stroke="black" points="315.5,-132.5 315.5,-161.5 362.5,-161.5 362.5,-132.5 315.5,-132.5"/>
<text text-anchor="middle" x="339" y="-144.5" font-family="Times,serif" font-size="10.00">Apply</text>
</a>
</g>
</g>
<!-- scalaz.Applicative&#45;&gt;scalaz.Apply -->
<g id="edge7" class="edge">
<title>scalaz.Applicative&#45;&gt;scalaz.Apply</title>
<path fill="none" stroke="black" d="M301.18,-198.43C307.42,-190.11 315.54,-179.28 322.66,-169.78"/>
<polygon fill="black" stroke="black" points="325.64,-171.65 328.84,-161.55 320.04,-167.45 325.64,-171.65"/>
</g>
<!-- scalaz.InvariantApplicative -->
<g id="node18" class="node">
<title>scalaz.InvariantApplicative</title>
<g id="a_node18"><a xlink:href="https://github.com/scalaz/scalaz/tree/v7.3.7/core/src/main/scala/scalaz/InvariantApplicative.scala" xlink:title="scalaz.InvariantApplicative" target="_blank">
<polygon fill="#799f5a" stroke="black" points="115,-132.5 115,-161.5 235,-161.5 235,-132.5 115,-132.5"/>
<text text-anchor="middle" x="175" y="-144.5" font-family="Times,serif" font-size="10.00">InvariantApplicative</text>
</a>
</g>
</g>
<!-- scalaz.Applicative&#45;&gt;scalaz.InvariantApplicative -->
<g id="edge8" class="edge">
<title>scalaz.Applicative&#45;&gt;scalaz.InvariantApplicative</title>
<path fill="none" stroke="black" d="M266.4,-198.43C249.56,-189.14 227.02,-176.7 208.54,-166.5"/>
<polygon fill="black" stroke="black" points="210.01,-163.32 199.57,-161.55 206.63,-169.45 210.01,-163.32"/>
</g>
<!-- scalaz.ApplicativeError -->
<g id="node3" class="node">
<title>scalaz.ApplicativeError</title>
<g id="a_node3"><a xlink:href="https://github.com/scalaz/scalaz/tree/v7.3.7/core/src/main/scala/scalaz/ApplicativeError.scala" xlink:title="scalaz.ApplicativeError" target="_blank">
<polygon fill="#799f5a" stroke="black" points="145.5,-264.5 145.5,-293.5 246.5,-293.5 246.5,-264.5 145.5,-264.5"/>
<text text-anchor="middle" x="196" y="-276.5" font-family="Times,serif" font-size="10.00">ApplicativeError</text>
</a>
</g>
</g>
<!-- scalaz.ApplicativeError&#45;&gt;scalaz.Applicative -->
<g id="edge17" class="edge">
<title>scalaz.ApplicativeError&#45;&gt;scalaz.Applicative</title>
<path fill="none" stroke="black" d="M216.15,-264.43C229.62,-255.35 247.56,-243.27 262.49,-233.21"/>
<polygon fill="black" stroke="black" points="264.54,-236.04 270.88,-227.55 260.63,-230.24 264.54,-236.04"/>
</g>
<!-- scalaz.ApplicativePlus -->
<g id="node4" class="node">
<title>scalaz.ApplicativePlus</title>
<g id="a_node4"><a xlink:href="https://github.com/scalaz/scalaz/tree/v7.3.7/core/src/main/scala/scalaz/ApplicativePlus.scala" xlink:title="scalaz.ApplicativePlus" target="_blank">
<polygon fill="#799f5a" stroke="black" points="335.5,-264.5 335.5,-293.5 430.5,-293.5 430.5,-264.5 335.5,-264.5"/>
<text text-anchor="middle" x="383" y="-276.5" font-family="Times,serif" font-size="10.00">ApplicativePlus</text>
</a>
</g>
</g>
<!-- scalaz.ApplicativePlus&#45;&gt;scalaz.Applicative -->
<g id="edge2" class="edge">
<title>scalaz.ApplicativePlus&#45;&gt;scalaz.Applicative</title>
<path fill="none" stroke="black" d="M363.49,-264.43C350.56,-255.43 333.4,-243.49 319.01,-233.49"/>
<polygon fill="black" stroke="black" points="320.69,-230.39 310.48,-227.55 316.69,-236.14 320.69,-230.39"/>
</g>
<!-- scalaz.PlusEmpty -->
<g id="node30" class="node">
<title>scalaz.PlusEmpty</title>
<g id="a_node30"><a xlink:href="https://github.com/scalaz/scalaz/tree/v7.3.7/core/src/main/scala/scalaz/PlusEmpty.scala" xlink:title="scalaz.PlusEmpty" target="_blank">
<polygon fill="#799f5a" stroke="black" points="364,-198.5 364,-227.5 436,-227.5 436,-198.5 364,-198.5"/>
<text text-anchor="middle" x="400" y="-210.5" font-family="Times,serif" font-size="10.00">PlusEmpty</text>
</a>
</g>
</g>
<!-- scalaz.ApplicativePlus&#45;&gt;scalaz.PlusEmpty -->
<g id="edge3" class="edge">
<title>scalaz.ApplicativePlus&#45;&gt;scalaz.PlusEmpty</title>
<path fill="none" stroke="black" d="M386.61,-264.43C388.7,-256.54 391.4,-246.38 393.82,-237.25"/>
<polygon fill="black" stroke="black" points="397.22,-238.12 396.4,-227.55 390.45,-236.32 397.22,-238.12"/>
</g>
<!-- scalaz.Apply&#45;&gt;scalaz.Functor -->
<g id="edge5" class="edge">
<title>scalaz.Apply&#45;&gt;scalaz.Functor</title>
<path fill="none" stroke="black" d="M352.15,-132.43C360.45,-123.86 371.34,-112.61 380.74,-102.92"/>
<polygon fill="black" stroke="black" points="383.43,-105.17 387.87,-95.55 378.4,-100.3 383.43,-105.17"/>
</g>
<!-- scalaz.Bind -->
<g id="node6" class="node">
<title>scalaz.Bind</title>
<g id="a_node6"><a xlink:href="https://github.com/scalaz/scalaz/tree/v7.3.7/core/src/main/scala/scalaz/Bind.scala" xlink:title="scalaz.Bind" target="_blank">
<polygon fill="#799f5a" stroke="black" points="194.5,-198.5 194.5,-227.5 235.5,-227.5 235.5,-198.5 194.5,-198.5"/>
<text text-anchor="middle" x="215" y="-210.5" font-family="Times,serif" font-size="10.00">Bind</text>
</a>
</g>
</g>
<!-- scalaz.Bind&#45;&gt;scalaz.Apply -->
<g id="edge6" class="edge">
<title>scalaz.Bind&#45;&gt;scalaz.Apply</title>
<path fill="none" stroke="black" d="M235.75,-201.29C254.94,-191.39 283.76,-176.51 306.09,-164.99"/>
<polygon fill="black" stroke="black" points="307.93,-167.98 315.21,-160.28 304.72,-161.76 307.93,-167.98"/>
</g>
<!-- scalaz.BindRec -->
<g id="node7" class="node">
<title>scalaz.BindRec</title>
<g id="a_node7"><a xlink:href="https://github.com/scalaz/scalaz/tree/v7.3.7/core/src/main/scala/scalaz/BindRec.scala" xlink:title="scalaz.BindRec" target="_blank">
<polygon fill="#799f5a" stroke="black" points="68.5,-264.5 68.5,-293.5 127.5,-293.5 127.5,-264.5 68.5,-264.5"/>
<text text-anchor="middle" x="98" y="-276.5" font-family="Times,serif" font-size="10.00">BindRec</text>
</a>
</g>
</g>
<!-- scalaz.BindRec&#45;&gt;scalaz.Bind -->
<g id="edge35" class="edge">
<title>scalaz.BindRec&#45;&gt;scalaz.Bind</title>
<path fill="none" stroke="black" d="M122.81,-264.43C141.03,-254.46 165.86,-240.88 185.16,-230.33"/>
<polygon fill="black" stroke="black" points="187.04,-233.28 194.13,-225.41 183.68,-227.14 187.04,-233.28"/>
</g>
<!-- scalaz.Cobind -->
<g id="node8" class="node">
<title>scalaz.Cobind</title>
<g id="a_node8"><a xlink:href="https://github.com/scalaz/scalaz/tree/v7.3.7/core/src/main/scala/scalaz/Cobind.scala" xlink:title="scalaz.Cobind" target="_blank">
<polygon fill="#799f5a" stroke="black" points="437.5,-132.5 437.5,-161.5 490.5,-161.5 490.5,-132.5 437.5,-132.5"/>
<text text-anchor="middle" x="464" y="-144.5" font-family="Times,serif" font-size="10.00">Cobind</text>
</a>
</g>
</g>
<!-- scalaz.Cobind&#45;&gt;scalaz.Functor -->
<g id="edge12" class="edge">
<title>scalaz.Cobind&#45;&gt;scalaz.Functor</title>
<path fill="none" stroke="black" d="M450.64,-132.43C442.2,-123.86 431.13,-112.61 421.59,-102.92"/>
<polygon fill="black" stroke="black" points="423.85,-100.22 414.34,-95.55 418.86,-105.14 423.85,-100.22"/>
</g>
<!-- scalaz.Comonad -->
<g id="node9" class="node">
<title>scalaz.Comonad</title>
<g id="a_node9"><a xlink:href="https://github.com/scalaz/scalaz/tree/v7.3.7/core/src/main/scala/scalaz/Comonad.scala" xlink:title="scalaz.Comonad" target="_blank">
<polygon fill="#799f5a" stroke="black" points="521.5,-198.5 521.5,-227.5 586.5,-227.5 586.5,-198.5 521.5,-198.5"/>
<text text-anchor="middle" x="554" y="-210.5" font-family="Times,serif" font-size="10.00">Comonad</text>
</a>
</g>
</g>
<!-- scalaz.Comonad&#45;&gt;scalaz.Cobind -->
<g id="edge13" class="edge">
<title>scalaz.Comonad&#45;&gt;scalaz.Cobind</title>
<path fill="none" stroke="black" d="M534.91,-198.43C522.27,-189.43 505.47,-177.49 491.41,-167.49"/>
<polygon fill="black" stroke="black" points="493.24,-164.5 483.06,-161.55 489.18,-170.2 493.24,-164.5"/>
</g>
<!-- scalaz.ComonadStore -->
<g id="node10" class="node">
<title>scalaz.ComonadStore</title>
<g id="a_node10"><a xlink:href="https://github.com/scalaz/scalaz/tree/v7.3.7/core/src/main/scala/scalaz/ComonadStore.scala" xlink:title="scalaz.ComonadStore" target="_blank">
<polygon fill="#799f5a" stroke="black" points="526,-264.5 526,-293.5 618,-293.5 618,-264.5 526,-264.5"/>
<text text-anchor="middle" x="572" y="-276.5" font-family="Times,serif" font-size="10.00">ComonadStore</text>
</a>
</g>
</g>
<!-- scalaz.ComonadStore&#45;&gt;scalaz.Comonad -->
<g id="edge23" class="edge">
<title>scalaz.ComonadStore&#45;&gt;scalaz.Comonad</title>
<path fill="none" stroke="black" d="M568.18,-264.43C565.96,-256.54 563.11,-246.38 560.54,-237.25"/>
<polygon fill="black" stroke="black" points="563.89,-236.23 557.81,-227.55 557.15,-238.13 563.89,-236.23"/>
</g>
<!-- scalaz.Contravariant -->
<g id="node11" class="node">
<title>scalaz.Contravariant</title>
<g id="a_node11"><a xlink:href="https://github.com/scalaz/scalaz/tree/v7.3.7/core/src/main/scala/scalaz/Contravariant.scala" xlink:title="scalaz.Contravariant" target="_blank">
<polygon fill="#799f5a" stroke="black" points="44.5,-66.5 44.5,-95.5 131.5,-95.5 131.5,-66.5 44.5,-66.5"/>
<text text-anchor="middle" x="88" y="-78.5" font-family="Times,serif" font-size="10.00">Contravariant</text>
</a>
</g>
</g>
<!-- scalaz.InvariantFunctor -->
<g id="node19" class="node">
<title>scalaz.InvariantFunctor</title>
<g id="a_node19"><a xlink:href="https://github.com/scalaz/scalaz/tree/v7.3.7/core/src/main/scala/scalaz/InvariantFunctor.scala" xlink:title="scalaz.InvariantFunctor" target="_blank">
<polygon fill="#799f5a" stroke="black" points="123.5,-0.5 123.5,-29.5 226.5,-29.5 226.5,-0.5 123.5,-0.5"/>
<text text-anchor="middle" x="175" y="-12.5" font-family="Times,serif" font-size="10.00">InvariantFunctor</text>
</a>
</g>
</g>
<!-- scalaz.Contravariant&#45;&gt;scalaz.InvariantFunctor -->
<g id="edge19" class="edge">
<title>scalaz.Contravariant&#45;&gt;scalaz.InvariantFunctor</title>
<path fill="none" stroke="black" d="M106.45,-66.43C118.68,-57.43 134.91,-45.49 148.51,-35.49"/>
<polygon fill="black" stroke="black" points="150.59,-38.3 156.58,-29.55 146.45,-32.66 150.59,-38.3"/>
</g>
<!-- scalaz.Distributive -->
<g id="node12" class="node">
<title>scalaz.Distributive</title>
<g id="a_node12"><a xlink:href="https://github.com/scalaz/scalaz/tree/v7.3.7/core/src/main/scala/scalaz/Distributive.scala" xlink:title="scalaz.Distributive" target="_blank">
<polygon fill="#799f5a" stroke="black" points="508.5,-132.5 508.5,-161.5 585.5,-161.5 585.5,-132.5 508.5,-132.5"/>
<text text-anchor="middle" x="547" y="-144.5" font-family="Times,serif" font-size="10.00">Distributive</text>
</a>
</g>
</g>
<!-- scalaz.Distributive&#45;&gt;scalaz.Functor -->
<g id="edge37" class="edge">
<title>scalaz.Distributive&#45;&gt;scalaz.Functor</title>
<path fill="none" stroke="black" d="M516.04,-132.43C493.43,-122.52 462.65,-109.02 438.62,-98.49"/>
<polygon fill="black" stroke="black" points="440.01,-95.28 429.44,-94.47 437.2,-101.69 440.01,-95.28"/>
</g>
<!-- scalaz.Divide -->
<g id="node13" class="node">
<title>scalaz.Divide</title>
<g id="a_node13"><a xlink:href="https://github.com/scalaz/scalaz/tree/v7.3.7/core/src/main/scala/scalaz/Divide.scala" xlink:title="scalaz.Divide" target="_blank">
<polygon fill="#799f5a" stroke="black" points="47,-132.5 47,-161.5 97,-161.5 97,-132.5 47,-132.5"/>
<text text-anchor="middle" x="72" y="-144.5" font-family="Times,serif" font-size="10.00">Divide</text>
</a>
</g>
</g>
<!-- scalaz.Divide&#45;&gt;scalaz.Contravariant -->
<g id="edge20" class="edge">
<title>scalaz.Divide&#45;&gt;scalaz.Contravariant</title>
<path fill="none" stroke="black" d="M75.39,-132.43C77.34,-124.62 79.85,-114.6 82.11,-105.54"/>
<polygon fill="black" stroke="black" points="85.58,-106.1 84.61,-95.55 78.79,-104.41 85.58,-106.1"/>
</g>
<!-- scalaz.Divisible -->
<g id="node14" class="node">
<title>scalaz.Divisible</title>
<g id="a_node14"><a xlink:href="https://github.com/scalaz/scalaz/tree/v7.3.7/core/src/main/scala/scalaz/Divisible.scala" xlink:title="scalaz.Divisible" target="_blank">
<polygon fill="#799f5a" stroke="black" points="70.5,-198.5 70.5,-227.5 131.5,-227.5 131.5,-198.5 70.5,-198.5"/>
<text text-anchor="middle" x="101" y="-210.5" font-family="Times,serif" font-size="10.00">Divisible</text>
</a>
</g>
</g>
<!-- scalaz.Divisible&#45;&gt;scalaz.Divide -->
<g id="edge33" class="edge">
<title>scalaz.Divisible&#45;&gt;scalaz.Divide</title>
<path fill="none" stroke="black" d="M94.85,-198.43C91.24,-190.45 86.57,-180.16 82.4,-170.95"/>
<polygon fill="black" stroke="black" points="85.46,-169.22 78.14,-161.55 79.08,-172.11 85.46,-169.22"/>
</g>
<!-- scalaz.Divisible&#45;&gt;scalaz.InvariantApplicative -->
<g id="edge34" class="edge">
<title>scalaz.Divisible&#45;&gt;scalaz.InvariantApplicative</title>
<path fill="none" stroke="black" d="M116.69,-198.43C126.8,-189.69 140.12,-178.17 151.48,-168.34"/>
<polygon fill="black" stroke="black" points="154.06,-170.74 159.33,-161.55 149.48,-165.45 154.06,-170.74"/>
</g>
<!-- scalaz.Foldable -->
<g id="node15" class="node">
<title>scalaz.Foldable</title>
<g id="a_node15"><a xlink:href="https://github.com/scalaz/scalaz/tree/v7.3.7/core/src/main/scala/scalaz/Foldable.scala" xlink:title="scalaz.Foldable" target="_blank">
<polygon fill="#799f5a" stroke="black" points="645.5,-66.5 645.5,-95.5 706.5,-95.5 706.5,-66.5 645.5,-66.5"/>
<text text-anchor="middle" x="676" y="-78.5" font-family="Times,serif" font-size="10.00">Foldable</text>
</a>
</g>
</g>
<!-- scalaz.Foldable1 -->
<g id="node16" class="node">
<title>scalaz.Foldable1</title>
<g id="a_node16"><a xlink:href="https://github.com/scalaz/scalaz/tree/v7.3.7/core/src/main/scala/scalaz/Foldable1.scala" xlink:title="scalaz.Foldable1" target="_blank">
<polygon fill="#799f5a" stroke="black" points="684.5,-132.5 684.5,-161.5 751.5,-161.5 751.5,-132.5 684.5,-132.5"/>
<text text-anchor="middle" x="718" y="-144.5" font-family="Times,serif" font-size="10.00">Foldable1</text>
</a>
</g>
</g>
<!-- scalaz.Foldable1&#45;&gt;scalaz.Foldable -->
<g id="edge14" class="edge">
<title>scalaz.Foldable1&#45;&gt;scalaz.Foldable</title>
<path fill="none" stroke="black" d="M709.09,-132.43C703.69,-124.2 696.67,-113.5 690.49,-104.08"/>
<polygon fill="black" stroke="black" points="693.31,-101.99 684.89,-95.55 687.45,-105.83 693.31,-101.99"/>
</g>
<!-- scalaz.Functor&#45;&gt;scalaz.InvariantFunctor -->
<g id="edge4" class="edge">
<title>scalaz.Functor&#45;&gt;scalaz.InvariantFunctor</title>
<path fill="none" stroke="black" d="M372.83,-72.02C337.96,-62.15 277.69,-45.08 232.81,-32.37"/>
<polygon fill="black" stroke="black" points="233.48,-28.92 222.91,-29.57 231.58,-35.66 233.48,-28.92"/>
</g>
<!-- scalaz.InvariantApplicative&#45;&gt;scalaz.InvariantFunctor -->
<g id="edge1" class="edge">
<title>scalaz.InvariantApplicative&#45;&gt;scalaz.InvariantFunctor</title>
<path fill="none" stroke="black" d="M175,-132.09C175,-110.1 175,-67.03 175,-39.98"/>
<polygon fill="black" stroke="black" points="178.5,-39.81 175,-29.81 171.5,-39.81 178.5,-39.81"/>
</g>
<!-- scalaz.IsEmpty -->
<g id="node20" class="node">
<title>scalaz.IsEmpty</title>
<g id="a_node20"><a xlink:href="https://github.com/scalaz/scalaz/tree/v7.3.7/core/src/main/scala/scalaz/IsEmpty.scala" xlink:title="scalaz.IsEmpty" target="_blank">
<polygon fill="#799f5a" stroke="black" points="448.5,-264.5 448.5,-293.5 507.5,-293.5 507.5,-264.5 448.5,-264.5"/>
<text text-anchor="middle" x="478" y="-276.5" font-family="Times,serif" font-size="10.00">IsEmpty</text>
</a>
</g>
</g>
<!-- scalaz.IsEmpty&#45;&gt;scalaz.PlusEmpty -->
<g id="edge26" class="edge">
<title>scalaz.IsEmpty&#45;&gt;scalaz.PlusEmpty</title>
<path fill="none" stroke="black" d="M461.46,-264.43C450.7,-255.6 436.49,-243.94 424.44,-234.06"/>
<polygon fill="black" stroke="black" points="426.47,-231.19 416.52,-227.55 422.03,-236.6 426.47,-231.19"/>
</g>
<!-- scalaz.Monad -->
<g id="node21" class="node">
<title>scalaz.Monad</title>
<g id="a_node21"><a xlink:href="https://github.com/scalaz/scalaz/tree/v7.3.7/core/src/main/scala/scalaz/Monad.scala" xlink:title="scalaz.Monad" target="_blank">
<polygon fill="#799f5a" stroke="black" points="264.5,-264.5 264.5,-293.5 317.5,-293.5 317.5,-264.5 264.5,-264.5"/>
<text text-anchor="middle" x="291" y="-276.5" font-family="Times,serif" font-size="10.00">Monad</text>
</a>
</g>
</g>
<!-- scalaz.Monad&#45;&gt;scalaz.Applicative -->
<g id="edge10" class="edge">
<title>scalaz.Monad&#45;&gt;scalaz.Applicative</title>
<path fill="none" stroke="black" d="M291,-264.43C291,-256.71 291,-246.81 291,-237.84"/>
<polygon fill="black" stroke="black" points="294.5,-237.55 291,-227.55 287.5,-237.55 294.5,-237.55"/>
</g>
<!-- scalaz.Monad&#45;&gt;scalaz.Bind -->
<g id="edge11" class="edge">
<title>scalaz.Monad&#45;&gt;scalaz.Bind</title>
<path fill="none" stroke="black" d="M274.88,-264.43C264.4,-255.6 250.56,-243.94 238.82,-234.06"/>
<polygon fill="black" stroke="black" points="241,-231.32 231.09,-227.55 236.49,-236.67 241,-231.32"/>
</g>
<!-- scalaz.MonadError -->
<g id="node22" class="node">
<title>scalaz.MonadError</title>
<g id="a_node22"><a xlink:href="https://github.com/scalaz/scalaz/tree/v7.3.7/core/src/main/scala/scalaz/MonadError.scala" xlink:title="scalaz.MonadError" target="_blank">
<polygon fill="#799f5a" stroke="black" points="0,-330.5 0,-359.5 80,-359.5 80,-330.5 0,-330.5"/>
<text text-anchor="middle" x="40" y="-342.5" font-family="Times,serif" font-size="10.00">MonadError</text>
</a>
</g>
</g>
<!-- scalaz.MonadError&#45;&gt;scalaz.ApplicativeError -->
<g id="edge30" class="edge">
<title>scalaz.MonadError&#45;&gt;scalaz.ApplicativeError</title>
<path fill="none" stroke="black" d="M73.08,-330.43C96.56,-320.8 128.27,-307.79 153.6,-297.4"/>
<polygon fill="black" stroke="black" points="155.04,-300.59 162.96,-293.55 152.38,-294.11 155.04,-300.59"/>
</g>
<!-- scalaz.MonadError&#45;&gt;scalaz.Monad -->
<g id="edge29" class="edge">
<title>scalaz.MonadError&#45;&gt;scalaz.Monad</title>
<path fill="none" stroke="black" d="M80.05,-332.33C83.08,-331.52 86.08,-330.73 89,-330 159.22,-312.37 180.94,-315.45 254.67,-293.79"/>
<polygon fill="black" stroke="black" points="255.85,-297.09 264.43,-290.87 253.84,-290.38 255.85,-297.09"/>
</g>
<!-- scalaz.MonadListen -->
<g id="node23" class="node">
<title>scalaz.MonadListen</title>
<g id="a_node23"><a xlink:href="https://github.com/scalaz/scalaz/tree/v7.3.7/core/src/main/scala/scalaz/MonadListen.scala" xlink:title="scalaz.MonadListen" target="_blank">
<polygon fill="#799f5a" stroke="black" points="296,-396.5 296,-425.5 380,-425.5 380,-396.5 296,-396.5"/>
<text text-anchor="middle" x="338" y="-408.5" font-family="Times,serif" font-size="10.00">MonadListen</text>
</a>
</g>
</g>
<!-- scalaz.MonadTell -->
<g id="node27" class="node">
<title>scalaz.MonadTell</title>
<g id="a_node27"><a xlink:href="https://github.com/scalaz/scalaz/tree/v7.3.7/core/src/main/scala/scalaz/MonadTell.scala" xlink:title="scalaz.MonadTell" target="_blank">
<polygon fill="#799f5a" stroke="black" points="302.5,-330.5 302.5,-359.5 373.5,-359.5 373.5,-330.5 302.5,-330.5"/>
<text text-anchor="middle" x="338" y="-342.5" font-family="Times,serif" font-size="10.00">MonadTell</text>
</a>
</g>
</g>
<!-- scalaz.MonadListen&#45;&gt;scalaz.MonadTell -->
<g id="edge31" class="edge">
<title>scalaz.MonadListen&#45;&gt;scalaz.MonadTell</title>
<path fill="none" stroke="black" d="M338,-396.43C338,-388.71 338,-378.81 338,-369.84"/>
<polygon fill="black" stroke="black" points="341.5,-369.55 338,-359.55 334.5,-369.55 341.5,-369.55"/>
</g>
<!-- scalaz.MonadPlus -->
<g id="node24" class="node">
<title>scalaz.MonadPlus</title>
<g id="a_node24"><a xlink:href="https://github.com/scalaz/scalaz/tree/v7.3.7/core/src/main/scala/scalaz/MonadPlus.scala" xlink:title="scalaz.MonadPlus" target="_blank">
<polygon fill="#799f5a" stroke="black" points="513,-330.5 513,-359.5 587,-359.5 587,-330.5 513,-330.5"/>
<text text-anchor="middle" x="550" y="-342.5" font-family="Times,serif" font-size="10.00">MonadPlus</text>
</a>
</g>
</g>
<!-- scalaz.MonadPlus&#45;&gt;scalaz.ApplicativePlus -->
<g id="edge22" class="edge">
<title>scalaz.MonadPlus&#45;&gt;scalaz.ApplicativePlus</title>
<path fill="none" stroke="black" d="M514.58,-330.43C489.34,-320.75 455.21,-307.67 428.03,-297.26"/>
<polygon fill="black" stroke="black" points="428.96,-293.86 418.37,-293.55 426.45,-300.4 428.96,-293.86"/>
</g>
<!-- scalaz.MonadPlus&#45;&gt;scalaz.Monad -->
<g id="edge21" class="edge">
<title>scalaz.MonadPlus&#45;&gt;scalaz.Monad</title>
<path fill="none" stroke="black" d="M512.88,-332.61C509.55,-331.69 506.22,-330.81 503,-330 428.16,-311.28 404.73,-316.53 327.3,-294.08"/>
<polygon fill="black" stroke="black" points="328.16,-290.69 317.58,-291.2 326.17,-297.4 328.16,-290.69"/>
</g>
<!-- scalaz.MonadReader -->
<g id="node25" class="node">
<title>scalaz.MonadReader</title>
<g id="a_node25"><a xlink:href="https://github.com/scalaz/scalaz/tree/v7.3.7/core/src/main/scala/scalaz/MonadReader.scala" xlink:title="scalaz.MonadReader" target="_blank">
<polygon fill="#799f5a" stroke="black" points="98.5,-330.5 98.5,-359.5 187.5,-359.5 187.5,-330.5 98.5,-330.5"/>
<text text-anchor="middle" x="143" y="-342.5" font-family="Times,serif" font-size="10.00">MonadReader</text>
</a>
</g>
</g>
<!-- scalaz.MonadReader&#45;&gt;scalaz.Monad -->
<g id="edge27" class="edge">
<title>scalaz.MonadReader&#45;&gt;scalaz.Monad</title>
<path fill="none" stroke="black" d="M174.39,-330.43C197.91,-320.26 230.14,-306.32 254.76,-295.67"/>
<polygon fill="black" stroke="black" points="256.33,-298.8 264.12,-291.62 253.56,-292.38 256.33,-298.8"/>
</g>
<!-- scalaz.MonadState -->
<g id="node26" class="node">
<title>scalaz.MonadState</title>
<g id="a_node26"><a xlink:href="https://github.com/scalaz/scalaz/tree/v7.3.7/core/src/main/scala/scalaz/MonadState.scala" xlink:title="scalaz.MonadState" target="_blank">
<polygon fill="#799f5a" stroke="black" points="205.5,-330.5 205.5,-359.5 284.5,-359.5 284.5,-330.5 205.5,-330.5"/>
<text text-anchor="middle" x="245" y="-342.5" font-family="Times,serif" font-size="10.00">MonadState</text>
</a>
</g>
</g>
<!-- scalaz.MonadState&#45;&gt;scalaz.Monad -->
<g id="edge28" class="edge">
<title>scalaz.MonadState&#45;&gt;scalaz.Monad</title>
<path fill="none" stroke="black" d="M254.76,-330.43C260.73,-322.11 268.52,-311.28 275.34,-301.78"/>
<polygon fill="black" stroke="black" points="278.26,-303.72 281.26,-293.55 272.58,-299.63 278.26,-303.72"/>
</g>
<!-- scalaz.MonadTell&#45;&gt;scalaz.Monad -->
<g id="edge18" class="edge">
<title>scalaz.MonadTell&#45;&gt;scalaz.Monad</title>
<path fill="none" stroke="black" d="M328.03,-330.43C321.93,-322.11 313.97,-311.28 307,-301.78"/>
<polygon fill="black" stroke="black" points="309.69,-299.54 300.95,-293.55 304.05,-303.68 309.69,-299.54"/>
</g>
<!-- scalaz.Nondeterminism -->
<g id="node28" class="node">
<title>scalaz.Nondeterminism</title>
<g id="a_node28"><a xlink:href="https://github.com/scalaz/scalaz/tree/v7.3.7/core/src/main/scala/scalaz/Nondeterminism.scala" xlink:title="scalaz.Nondeterminism" target="_blank">
<polygon fill="#799f5a" stroke="black" points="391.5,-330.5 391.5,-359.5 494.5,-359.5 494.5,-330.5 391.5,-330.5"/>
<text text-anchor="middle" x="443" y="-342.5" font-family="Times,serif" font-size="10.00">Nondeterminism</text>
</a>
</g>
</g>
<!-- scalaz.Nondeterminism&#45;&gt;scalaz.Monad -->
<g id="edge32" class="edge">
<title>scalaz.Nondeterminism&#45;&gt;scalaz.Monad</title>
<path fill="none" stroke="black" d="M410.76,-330.43C386.19,-320.08 352.36,-305.84 326.92,-295.12"/>
<polygon fill="black" stroke="black" points="328.19,-291.86 317.62,-291.21 325.48,-298.31 328.19,-291.86"/>
</g>
<!-- scalaz.Plus -->
<g id="node29" class="node">
<title>scalaz.Plus</title>
<g id="a_node29"><a xlink:href="https://github.com/scalaz/scalaz/tree/v7.3.7/core/src/main/scala/scalaz/Plus.scala" xlink:title="scalaz.Plus" target="_blank">
<polygon fill="#799f5a" stroke="black" points="381,-132.5 381,-161.5 419,-161.5 419,-132.5 381,-132.5"/>
<text text-anchor="middle" x="400" y="-144.5" font-family="Times,serif" font-size="10.00">Plus</text>
</a>
</g>
</g>
<!-- scalaz.PlusEmpty&#45;&gt;scalaz.Plus -->
<g id="edge9" class="edge">
<title>scalaz.PlusEmpty&#45;&gt;scalaz.Plus</title>
<path fill="none" stroke="black" d="M400,-198.43C400,-190.71 400,-180.81 400,-171.84"/>
<polygon fill="black" stroke="black" points="403.5,-171.55 400,-161.55 396.5,-171.55 403.5,-171.55"/>
</g>
<!-- scalaz.Traverse -->
<g id="node31" class="node">
<title>scalaz.Traverse</title>
<g id="a_node31"><a xlink:href="https://github.com/scalaz/scalaz/tree/v7.3.7/core/src/main/scala/scalaz/Traverse.scala" xlink:title="scalaz.Traverse" target="_blank">
<polygon fill="#799f5a" stroke="black" points="604,-132.5 604,-161.5 666,-161.5 666,-132.5 604,-132.5"/>
<text text-anchor="middle" x="635" y="-144.5" font-family="Times,serif" font-size="10.00">Traverse</text>
</a>
</g>
</g>
<!-- scalaz.Traverse&#45;&gt;scalaz.Foldable -->
<g id="edge16" class="edge">
<title>scalaz.Traverse&#45;&gt;scalaz.Foldable</title>
<path fill="none" stroke="black" d="M643.7,-132.43C648.97,-124.2 655.82,-113.5 661.86,-104.08"/>
<polygon fill="black" stroke="black" points="664.87,-105.86 667.32,-95.55 658.98,-102.09 664.87,-105.86"/>
</g>
<!-- scalaz.Traverse&#45;&gt;scalaz.Functor -->
<g id="edge15" class="edge">
<title>scalaz.Traverse&#45;&gt;scalaz.Functor</title>
<path fill="none" stroke="black" d="M603.74,-135.05C600.46,-133.99 597.17,-132.95 594,-132 540.74,-116.03 478.32,-100.42 439.21,-91"/>
<polygon fill="black" stroke="black" points="439.85,-87.55 429.31,-88.62 438.22,-94.36 439.85,-87.55"/>
</g>
<!-- scalaz.Traverse1 -->
<g id="node32" class="node">
<title>scalaz.Traverse1</title>
<g id="a_node32"><a xlink:href="https://github.com/scalaz/scalaz/tree/v7.3.7/core/src/main/scala/scalaz/Traverse1.scala" xlink:title="scalaz.Traverse1" target="_blank">
<polygon fill="#799f5a" stroke="black" points="636,-198.5 636,-227.5 704,-227.5 704,-198.5 636,-198.5"/>
<text text-anchor="middle" x="670" y="-210.5" font-family="Times,serif" font-size="10.00">Traverse1</text>
</a>
</g>
</g>
<!-- scalaz.Traverse1&#45;&gt;scalaz.Foldable1 -->
<g id="edge25" class="edge">
<title>scalaz.Traverse1&#45;&gt;scalaz.Foldable1</title>
<path fill="none" stroke="black" d="M680.18,-198.43C686.42,-190.11 694.54,-179.28 701.66,-169.78"/>
<polygon fill="black" stroke="black" points="704.64,-171.65 707.84,-161.55 699.04,-167.45 704.64,-171.65"/>
</g>
<!-- scalaz.Traverse1&#45;&gt;scalaz.Traverse -->
<g id="edge24" class="edge">
<title>scalaz.Traverse1&#45;&gt;scalaz.Traverse</title>
<path fill="none" stroke="black" d="M662.58,-198.43C658.12,-190.28 652.35,-179.72 647.23,-170.37"/>
<polygon fill="black" stroke="black" points="650.28,-168.65 642.41,-161.55 644.14,-172.01 650.28,-168.65"/>
</g>
</g>
</svg>

