<?xml version="1.0" encoding="UTF-8" standalone="no"?>
<!DOCTYPE svg PUBLIC "-//W3C//DTD SVG 1.1//EN"
 "http://www.w3.org/Graphics/SVG/1.1/DTD/svg11.dtd">
<!-- Generated by graphviz version 2.26.3 (20100126.1600)
 -->
<!-- Title: scalaz 7.2.10 diagram Pages: 1 -->
<svg width="559pt" height="434pt"
 viewBox="0.00 0.00 559.00 434.00" xmlns="http://www.w3.org/2000/svg" xmlns:xlink="http://www.w3.org/1999/xlink">
<g id="graph1" class="graph" transform="scale(1 1) rotate(0) translate(4 430)">
<title>scalaz 7.2.10 diagram</title>
<polygon fill="white" stroke="white" points="-4,5 -4,-430 556,-430 556,5 -4,5"/>
<!-- scalaz.Align -->
<g id="node1" class="node"><title>scalaz.Align</title>
<a xlink:href="https://github.com/scalaz/scalaz/tree/v7.2.10/core/src/main/scala/scalaz/Align.scala" xlink:title="scalaz.Align" target="_blank">
<polygon fill="#799f5a" stroke="black" points="87,-132.5 87,-161.5 127,-161.5 127,-132.5 87,-132.5"/>
<text text-anchor="middle" x="107" y="-144.5" font-family="Times Roman,serif" font-size="10.00">Align</text>
</a>
</g>
<!-- scalaz.Functor -->
<g id="node16" class="node"><title>scalaz.Functor</title>
<a xlink:href="https://github.com/scalaz/scalaz/tree/v7.2.10/core/src/main/scala/scalaz/Functor.scala" xlink:title="scalaz.Functor" target="_blank">
<polygon fill="#799f5a" stroke="black" points="226,-66.5 226,-95.5 278,-95.5 278,-66.5 226,-66.5"/>
<text text-anchor="middle" x="252" y="-78.5" font-family="Times Roman,serif" font-size="10.00">Functor</text>
</a>
</g>
<!-- scalaz.Align&#45;&gt;scalaz.Functor -->
<g id="edge62" class="edge"><title>scalaz.Align&#45;&gt;scalaz.Functor</title>
<path fill="none" stroke="black" d="M127.2,-136.345C130.137,-134.856 133.136,-133.369 136,-132 162.747,-119.219 193.476,-105.762 216.584,-95.8831"/>
<polygon fill="black" stroke="black" points="218.157,-99.0175 225.987,-91.8805 215.415,-92.5767 218.157,-99.0175"/>
</g>
<!-- scalaz.Applicative -->
<g id="node2" class="node"><title>scalaz.Applicative</title>
<a xlink:href="https://github.com/scalaz/scalaz/tree/v7.2.10/core/src/main/scala/scalaz/Applicative.scala" xlink:title="scalaz.Applicative" target="_blank">
<polygon fill="#799f5a" stroke="black" points="181,-198.5 181,-227.5 249,-227.5 249,-198.5 181,-198.5"/>
<text text-anchor="middle" x="215" y="-210.5" font-family="Times Roman,serif" font-size="10.00">Applicative</text>
</a>
</g>
<!-- scalaz.Apply -->
<g id="node4" class="node"><title>scalaz.Apply</title>
<a xlink:href="https://github.com/scalaz/scalaz/tree/v7.2.10/core/src/main/scala/scalaz/Apply.scala" xlink:title="scalaz.Apply" target="_blank">
<polygon fill="#799f5a" stroke="black" points="198.5,-132.5 198.5,-161.5 241.5,-161.5 241.5,-132.5 198.5,-132.5"/>
<text text-anchor="middle" x="220" y="-144.5" font-family="Times Roman,serif" font-size="10.00">Apply</text>
</a>
</g>
<!-- scalaz.Applicative&#45;&gt;scalaz.Apply -->
<g id="edge18" class="edge"><title>scalaz.Applicative&#45;&gt;scalaz.Apply</title>
<path fill="none" stroke="black" d="M216.11,-198.352C216.705,-190.491 217.455,-180.593 218.137,-171.589"/>
<polygon fill="black" stroke="black" points="221.628,-171.842 218.893,-161.607 214.648,-171.314 221.628,-171.842"/>
</g>
<!-- scalaz.ApplicativePlus -->
<g id="node3" class="node"><title>scalaz.ApplicativePlus</title>
<a xlink:href="https://github.com/scalaz/scalaz/tree/v7.2.10/core/src/main/scala/scalaz/ApplicativePlus.scala" xlink:title="scalaz.ApplicativePlus" target="_blank">
<polygon fill="#799f5a" stroke="black" points="87,-264.5 87,-293.5 175,-293.5 175,-264.5 87,-264.5"/>
<text text-anchor="middle" x="131" y="-276.5" font-family="Times Roman,serif" font-size="10.00">ApplicativePlus</text>
</a>
</g>
<!-- scalaz.ApplicativePlus&#45;&gt;scalaz.Applicative -->
<g id="edge6" class="edge"><title>scalaz.ApplicativePlus&#45;&gt;scalaz.Applicative</title>
<path fill="none" stroke="black" d="M149.642,-264.352C161.061,-255.38 175.858,-243.755 188.484,-233.834"/>
<polygon fill="black" stroke="black" points="190.709,-236.537 196.41,-227.607 186.384,-231.033 190.709,-236.537"/>
</g>
<!-- scalaz.PlusEmpty -->
<g id="node28" class="node"><title>scalaz.PlusEmpty</title>
<a xlink:href="https://github.com/scalaz/scalaz/tree/v7.2.10/core/src/main/scala/scalaz/PlusEmpty.scala" xlink:title="scalaz.PlusEmpty" target="_blank">
<polygon fill="#799f5a" stroke="black" points="96.5,-198.5 96.5,-227.5 163.5,-227.5 163.5,-198.5 96.5,-198.5"/>
<text text-anchor="middle" x="130" y="-210.5" font-family="Times Roman,serif" font-size="10.00">PlusEmpty</text>
</a>
</g>
<!-- scalaz.ApplicativePlus&#45;&gt;scalaz.PlusEmpty -->
<g id="edge8" class="edge"><title>scalaz.ApplicativePlus&#45;&gt;scalaz.PlusEmpty</title>
<path fill="none" stroke="black" d="M130.778,-264.352C130.66,-256.577 130.512,-246.808 130.377,-237.883"/>
<polygon fill="black" stroke="black" points="133.873,-237.552 130.221,-227.607 126.873,-237.659 133.873,-237.552"/>
</g>
<!-- scalaz.Apply&#45;&gt;scalaz.Functor -->
<g id="edge10" class="edge"><title>scalaz.Apply&#45;&gt;scalaz.Functor</title>
<path fill="none" stroke="black" d="M227.102,-132.352C231.038,-124.235 236.027,-113.945 240.504,-104.711"/>
<polygon fill="black" stroke="black" points="243.705,-106.132 244.918,-95.6066 237.406,-103.078 243.705,-106.132"/>
</g>
<!-- scalaz.Bind -->
<g id="node5" class="node"><title>scalaz.Bind</title>
<a xlink:href="https://github.com/scalaz/scalaz/tree/v7.2.10/core/src/main/scala/scalaz/Bind.scala" xlink:title="scalaz.Bind" target="_blank">
<polygon fill="#799f5a" stroke="black" points="267,-198.5 267,-227.5 305,-227.5 305,-198.5 267,-198.5"/>
<text text-anchor="middle" x="286" y="-210.5" font-family="Times Roman,serif" font-size="10.00">Bind</text>
</a>
</g>
<!-- scalaz.Bind&#45;&gt;scalaz.Apply -->
<g id="edge2" class="edge"><title>scalaz.Bind&#45;&gt;scalaz.Apply</title>
<path fill="none" stroke="black" d="M271.352,-198.352C262.637,-189.637 251.417,-178.417 241.689,-168.689"/>
<polygon fill="black" stroke="black" points="244.153,-166.203 234.607,-161.607 239.203,-171.153 244.153,-166.203"/>
</g>
<!-- scalaz.BindRec -->
<g id="node6" class="node"><title>scalaz.BindRec</title>
<a xlink:href="https://github.com/scalaz/scalaz/tree/v7.2.10/core/src/main/scala/scalaz/BindRec.scala" xlink:title="scalaz.BindRec" target="_blank">
<polygon fill="#799f5a" stroke="black" points="259,-264.5 259,-293.5 313,-293.5 313,-264.5 259,-264.5"/>
<text text-anchor="middle" x="286" y="-276.5" font-family="Times Roman,serif" font-size="10.00">BindRec</text>
</a>
</g>
<!-- scalaz.BindRec&#45;&gt;scalaz.Bind -->
<g id="edge60" class="edge"><title>scalaz.BindRec&#45;&gt;scalaz.Bind</title>
<path fill="none" stroke="black" d="M286,-264.352C286,-256.577 286,-246.808 286,-237.883"/>
<polygon fill="black" stroke="black" points="289.5,-237.607 286,-227.607 282.5,-237.607 289.5,-237.607"/>
</g>
<!-- scalaz.Cobind -->
<g id="node7" class="node"><title>scalaz.Cobind</title>
<a xlink:href="https://github.com/scalaz/scalaz/tree/v7.2.10/core/src/main/scala/scalaz/Cobind.scala" xlink:title="scalaz.Cobind" target="_blank">
<polygon fill="#799f5a" stroke="black" points="259,-132.5 259,-161.5 309,-161.5 309,-132.5 259,-132.5"/>
<text text-anchor="middle" x="284" y="-144.5" font-family="Times Roman,serif" font-size="10.00">Cobind</text>
</a>
</g>
<!-- scalaz.Cobind&#45;&gt;scalaz.Functor -->
<g id="edge20" class="edge"><title>scalaz.Cobind&#45;&gt;scalaz.Functor</title>
<path fill="none" stroke="black" d="M276.898,-132.352C272.962,-124.235 267.973,-113.945 263.496,-104.711"/>
<polygon fill="black" stroke="black" points="266.594,-103.078 259.082,-95.6066 260.295,-106.132 266.594,-103.078"/>
</g>
<!-- scalaz.Comonad -->
<g id="node8" class="node"><title>scalaz.Comonad</title>
<a xlink:href="https://github.com/scalaz/scalaz/tree/v7.2.10/core/src/main/scala/scalaz/Comonad.scala" xlink:title="scalaz.Comonad" target="_blank">
<polygon fill="#799f5a" stroke="black" points="332.5,-198.5 332.5,-227.5 395.5,-227.5 395.5,-198.5 332.5,-198.5"/>
<text text-anchor="middle" x="364" y="-210.5" font-family="Times Roman,serif" font-size="10.00">Comonad</text>
</a>
</g>
<!-- scalaz.Comonad&#45;&gt;scalaz.Cobind -->
<g id="edge22" class="edge"><title>scalaz.Comonad&#45;&gt;scalaz.Cobind</title>
<path fill="none" stroke="black" d="M346.245,-198.352C335.474,-189.466 321.546,-177.976 309.598,-168.118"/>
<polygon fill="black" stroke="black" points="311.646,-165.271 301.705,-161.607 307.191,-170.67 311.646,-165.271"/>
</g>
<!-- scalaz.ComonadStore -->
<g id="node9" class="node"><title>scalaz.ComonadStore</title>
<a xlink:href="https://github.com/scalaz/scalaz/tree/v7.2.10/core/src/main/scala/scalaz/ComonadStore.scala" xlink:title="scalaz.ComonadStore" target="_blank">
<polygon fill="#799f5a" stroke="black" points="330.5,-264.5 330.5,-293.5 419.5,-293.5 419.5,-264.5 330.5,-264.5"/>
<text text-anchor="middle" x="375" y="-276.5" font-family="Times Roman,serif" font-size="10.00">ComonadStore</text>
</a>
</g>
<!-- scalaz.ComonadStore&#45;&gt;scalaz.Comonad -->
<g id="edge40" class="edge"><title>scalaz.ComonadStore&#45;&gt;scalaz.Comonad</title>
<path fill="none" stroke="black" d="M372.559,-264.352C371.249,-256.491 369.599,-246.593 368.098,-237.589"/>
<polygon fill="black" stroke="black" points="371.531,-236.895 366.434,-227.607 364.626,-238.046 371.531,-236.895"/>
</g>
<!-- scalaz.Contravariant -->
<g id="node10" class="node"><title>scalaz.Contravariant</title>
<a xlink:href="https://github.com/scalaz/scalaz/tree/v7.2.10/core/src/main/scala/scalaz/Contravariant.scala" xlink:title="scalaz.Contravariant" target="_blank">
<polygon fill="#799f5a" stroke="black" points="82,-66.5 82,-95.5 164,-95.5 164,-66.5 82,-66.5"/>
<text text-anchor="middle" x="123" y="-78.5" font-family="Times Roman,serif" font-size="10.00">Contravariant</text>
</a>
</g>
<!-- scalaz.InvariantFunctor -->
<g id="node17" class="node"><title>scalaz.InvariantFunctor</title>
<a xlink:href="https://github.com/scalaz/scalaz/tree/v7.2.10/core/src/main/scala/scalaz/InvariantFunctor.scala" xlink:title="scalaz.InvariantFunctor" target="_blank">
<polygon fill="#799f5a" stroke="black" points="140.5,-0.5 140.5,-29.5 233.5,-29.5 233.5,-0.5 140.5,-0.5"/>
<text text-anchor="middle" x="187" y="-12.5" font-family="Times Roman,serif" font-size="10.00">InvariantFunctor</text>
</a>
</g>
<!-- scalaz.Contravariant&#45;&gt;scalaz.InvariantFunctor -->
<g id="edge32" class="edge"><title>scalaz.Contravariant&#45;&gt;scalaz.InvariantFunctor</title>
<path fill="none" stroke="black" d="M137.204,-66.3525C145.572,-57.7222 156.322,-46.6365 165.691,-36.9753"/>
<polygon fill="black" stroke="black" points="168.387,-39.2221 172.836,-29.6066 163.362,-34.3491 168.387,-39.2221"/>
</g>
<!-- scalaz.Distributive -->
<g id="node11" class="node"><title>scalaz.Distributive</title>
<a xlink:href="https://github.com/scalaz/scalaz/tree/v7.2.10/core/src/main/scala/scalaz/Distributive.scala" xlink:title="scalaz.Distributive" target="_blank">
<polygon fill="#799f5a" stroke="black" points="326.5,-132.5 326.5,-161.5 397.5,-161.5 397.5,-132.5 326.5,-132.5"/>
<text text-anchor="middle" x="362" y="-144.5" font-family="Times Roman,serif" font-size="10.00">Distributive</text>
</a>
</g>
<!-- scalaz.Distributive&#45;&gt;scalaz.Functor -->
<g id="edge64" class="edge"><title>scalaz.Distributive&#45;&gt;scalaz.Functor</title>
<path fill="none" stroke="black" d="M337.587,-132.352C322.207,-123.124 302.147,-111.088 285.314,-100.988"/>
<polygon fill="black" stroke="black" points="286.72,-97.7504 276.344,-95.6066 283.119,-103.753 286.72,-97.7504"/>
</g>
<!-- scalaz.Divide -->
<g id="node12" class="node"><title>scalaz.Divide</title>
<a xlink:href="https://github.com/scalaz/scalaz/tree/v7.2.10/core/src/main/scala/scalaz/Divide.scala" xlink:title="scalaz.Divide" target="_blank">
<polygon fill="#799f5a" stroke="black" points="23,-132.5 23,-161.5 69,-161.5 69,-132.5 23,-132.5"/>
<text text-anchor="middle" x="46" y="-144.5" font-family="Times Roman,serif" font-size="10.00">Divide</text>
</a>
</g>
<!-- scalaz.Divide&#45;&gt;scalaz.Contravariant -->
<g id="edge34" class="edge"><title>scalaz.Divide&#45;&gt;scalaz.Contravariant</title>
<path fill="none" stroke="black" d="M63.0888,-132.352C73.4565,-123.466 86.8615,-111.976 98.3621,-102.118"/>
<polygon fill="black" stroke="black" points="100.644,-104.772 105.959,-95.6066 96.0886,-99.4571 100.644,-104.772"/>
</g>
<!-- scalaz.Divisible -->
<g id="node13" class="node"><title>scalaz.Divisible</title>
<a xlink:href="https://github.com/scalaz/scalaz/tree/v7.2.10/core/src/main/scala/scalaz/Divisible.scala" xlink:title="scalaz.Divisible" target="_blank">
<polygon fill="#799f5a" stroke="black" points="18,-198.5 18,-227.5 74,-227.5 74,-198.5 18,-198.5"/>
<text text-anchor="middle" x="46" y="-210.5" font-family="Times Roman,serif" font-size="10.00">Divisible</text>
</a>
</g>
<!-- scalaz.Divisible&#45;&gt;scalaz.Divide -->
<g id="edge58" class="edge"><title>scalaz.Divisible&#45;&gt;scalaz.Divide</title>
<path fill="none" stroke="black" d="M46,-198.352C46,-190.577 46,-180.808 46,-171.883"/>
<polygon fill="black" stroke="black" points="49.5001,-171.607 46,-161.607 42.5001,-171.607 49.5001,-171.607"/>
</g>
<!-- scalaz.Foldable -->
<g id="node14" class="node"><title>scalaz.Foldable</title>
<a xlink:href="https://github.com/scalaz/scalaz/tree/v7.2.10/core/src/main/scala/scalaz/Foldable.scala" xlink:title="scalaz.Foldable" target="_blank">
<polygon fill="#799f5a" stroke="black" points="453,-66.5 453,-95.5 509,-95.5 509,-66.5 453,-66.5"/>
<text text-anchor="middle" x="481" y="-78.5" font-family="Times Roman,serif" font-size="10.00">Foldable</text>
</a>
</g>
<!-- scalaz.Foldable1 -->
<g id="node15" class="node"><title>scalaz.Foldable1</title>
<a xlink:href="https://github.com/scalaz/scalaz/tree/v7.2.10/core/src/main/scala/scalaz/Foldable1.scala" xlink:title="scalaz.Foldable1" target="_blank">
<polygon fill="#799f5a" stroke="black" points="489,-132.5 489,-161.5 551,-161.5 551,-132.5 489,-132.5"/>
<text text-anchor="middle" x="520" y="-144.5" font-family="Times Roman,serif" font-size="10.00">Foldable1</text>
</a>
</g>
<!-- scalaz.Foldable1&#45;&gt;scalaz.Foldable -->
<g id="edge28" class="edge"><title>scalaz.Foldable1&#45;&gt;scalaz.Foldable</title>
<path fill="none" stroke="black" d="M511.345,-132.352C506.497,-124.149 500.339,-113.728 494.839,-104.42"/>
<polygon fill="black" stroke="black" points="497.732,-102.435 489.631,-95.6066 491.705,-105.996 497.732,-102.435"/>
</g>
<!-- scalaz.Functor&#45;&gt;scalaz.InvariantFunctor -->
<g id="edge16" class="edge"><title>scalaz.Functor&#45;&gt;scalaz.InvariantFunctor</title>
<path fill="none" stroke="black" d="M237.574,-66.3525C229.075,-57.7222 218.157,-46.6365 208.642,-36.9753"/>
<polygon fill="black" stroke="black" points="210.896,-34.2755 201.385,-29.6066 205.908,-39.1874 210.896,-34.2755"/>
</g>
<!-- scalaz.IsEmpty -->
<g id="node18" class="node"><title>scalaz.IsEmpty</title>
<a xlink:href="https://github.com/scalaz/scalaz/tree/v7.2.10/core/src/main/scala/scalaz/IsEmpty.scala" xlink:title="scalaz.IsEmpty" target="_blank">
<polygon fill="#799f5a" stroke="black" points="14.5,-264.5 14.5,-293.5 69.5,-293.5 69.5,-264.5 14.5,-264.5"/>
<text text-anchor="middle" x="42" y="-276.5" font-family="Times Roman,serif" font-size="10.00">IsEmpty</text>
</a>
</g>
<!-- scalaz.IsEmpty&#45;&gt;scalaz.PlusEmpty -->
<g id="edge46" class="edge"><title>scalaz.IsEmpty&#45;&gt;scalaz.PlusEmpty</title>
<path fill="none" stroke="black" d="M61.5301,-264.352C73.4928,-255.38 88.9938,-243.755 102.221,-233.834"/>
<polygon fill="black" stroke="black" points="104.625,-236.407 110.525,-227.607 100.425,-230.807 104.625,-236.407"/>
</g>
<!-- scalaz.Monad -->
<g id="node19" class="node"><title>scalaz.Monad</title>
<a xlink:href="https://github.com/scalaz/scalaz/tree/v7.2.10/core/src/main/scala/scalaz/Monad.scala" xlink:title="scalaz.Monad" target="_blank">
<polygon fill="#799f5a" stroke="black" points="192.5,-264.5 192.5,-293.5 241.5,-293.5 241.5,-264.5 192.5,-264.5"/>
<text text-anchor="middle" x="217" y="-276.5" font-family="Times Roman,serif" font-size="10.00">Monad</text>
</a>
</g>
<!-- scalaz.Monad&#45;&gt;scalaz.Applicative -->
<g id="edge12" class="edge"><title>scalaz.Monad&#45;&gt;scalaz.Applicative</title>
<path fill="none" stroke="black" d="M216.556,-264.352C216.321,-256.577 216.024,-246.808 215.754,-237.883"/>
<polygon fill="black" stroke="black" points="219.244,-237.496 215.443,-227.607 212.247,-237.708 219.244,-237.496"/>
</g>
<!-- scalaz.Monad&#45;&gt;scalaz.Bind -->
<g id="edge14" class="edge"><title>scalaz.Monad&#45;&gt;scalaz.Bind</title>
<path fill="none" stroke="black" d="M232.313,-264.352C241.425,-255.637 253.155,-244.417 263.325,-234.689"/>
<polygon fill="black" stroke="black" points="265.922,-237.048 270.729,-227.607 261.084,-231.99 265.922,-237.048"/>
</g>
<!-- scalaz.MonadError -->
<g id="node20" class="node"><title>scalaz.MonadError</title>
<a xlink:href="https://github.com/scalaz/scalaz/tree/v7.2.10/core/src/main/scala/scalaz/MonadError.scala" xlink:title="scalaz.MonadError" target="_blank">
<polygon fill="#799f5a" stroke="black" points="86,-330.5 86,-359.5 158,-359.5 158,-330.5 86,-330.5"/>
<text text-anchor="middle" x="122" y="-342.5" font-family="Times Roman,serif" font-size="10.00">MonadError</text>
</a>
</g>
<!-- scalaz.MonadError&#45;&gt;scalaz.Monad -->
<g id="edge52" class="edge"><title>scalaz.MonadError&#45;&gt;scalaz.Monad</title>
<path fill="none" stroke="black" d="M143.084,-330.352C156.121,-321.295 173.051,-309.533 187.419,-299.551"/>
<polygon fill="black" stroke="black" points="189.76,-302.187 195.975,-293.607 185.766,-296.438 189.76,-302.187"/>
</g>
<!-- scalaz.MonadListen -->
<g id="node21" class="node"><title>scalaz.MonadListen</title>
<a xlink:href="https://github.com/scalaz/scalaz/tree/v7.2.10/core/src/main/scala/scalaz/MonadListen.scala" xlink:title="scalaz.MonadListen" target="_blank">
<polygon fill="#799f5a" stroke="black" points="360.5,-396.5 360.5,-425.5 437.5,-425.5 437.5,-396.5 360.5,-396.5"/>
<text text-anchor="middle" x="399" y="-408.5" font-family="Times Roman,serif" font-size="10.00">MonadListen</text>
</a>
</g>
<!-- scalaz.MonadTell -->
<g id="node25" class="node"><title>scalaz.MonadTell</title>
<a xlink:href="https://github.com/scalaz/scalaz/tree/v7.2.10/core/src/main/scala/scalaz/MonadTell.scala" xlink:title="scalaz.MonadTell" target="_blank">
<polygon fill="#799f5a" stroke="black" points="367.5,-330.5 367.5,-359.5 430.5,-359.5 430.5,-330.5 367.5,-330.5"/>
<text text-anchor="middle" x="399" y="-342.5" font-family="Times Roman,serif" font-size="10.00">MonadTell</text>
</a>
</g>
<!-- scalaz.MonadListen&#45;&gt;scalaz.MonadTell -->
<g id="edge54" class="edge"><title>scalaz.MonadListen&#45;&gt;scalaz.MonadTell</title>
<path fill="none" stroke="black" d="M399,-396.352C399,-388.577 399,-378.808 399,-369.883"/>
<polygon fill="black" stroke="black" points="402.5,-369.607 399,-359.607 395.5,-369.607 402.5,-369.607"/>
</g>
<!-- scalaz.MonadPlus -->
<g id="node22" class="node"><title>scalaz.MonadPlus</title>
<a xlink:href="https://github.com/scalaz/scalaz/tree/v7.2.10/core/src/main/scala/scalaz/MonadPlus.scala" xlink:title="scalaz.MonadPlus" target="_blank">
<polygon fill="#799f5a" stroke="black" points="0,-330.5 0,-359.5 68,-359.5 68,-330.5 0,-330.5"/>
<text text-anchor="middle" x="34" y="-342.5" font-family="Times Roman,serif" font-size="10.00">MonadPlus</text>
</a>
</g>
<!-- scalaz.MonadPlus&#45;&gt;scalaz.ApplicativePlus -->
<g id="edge38" class="edge"><title>scalaz.MonadPlus&#45;&gt;scalaz.ApplicativePlus</title>
<path fill="none" stroke="black" d="M55.5274,-330.352C68.9648,-321.21 86.4524,-309.311 101.21,-299.269"/>
<polygon fill="black" stroke="black" points="103.234,-302.126 109.533,-293.607 99.2961,-296.338 103.234,-302.126"/>
</g>
<!-- scalaz.MonadPlus&#45;&gt;scalaz.Monad -->
<g id="edge36" class="edge"><title>scalaz.MonadPlus&#45;&gt;scalaz.Monad</title>
<path fill="none" stroke="black" d="M68.2557,-333.012C71.2118,-331.989 74.1578,-330.974 77,-330 121.592,-314.721 135.639,-312.621 182.719,-294.325"/>
<polygon fill="black" stroke="black" points="184.224,-297.494 192.25,-290.577 181.663,-290.979 184.224,-297.494"/>
</g>
<!-- scalaz.MonadReader -->
<g id="node23" class="node"><title>scalaz.MonadReader</title>
<a xlink:href="https://github.com/scalaz/scalaz/tree/v7.2.10/core/src/main/scala/scalaz/MonadReader.scala" xlink:title="scalaz.MonadReader" target="_blank">
<polygon fill="#799f5a" stroke="black" points="176,-330.5 176,-359.5 258,-359.5 258,-330.5 176,-330.5"/>
<text text-anchor="middle" x="217" y="-342.5" font-family="Times Roman,serif" font-size="10.00">MonadReader</text>
</a>
</g>
<!-- scalaz.MonadReader&#45;&gt;scalaz.Monad -->
<g id="edge48" class="edge"><title>scalaz.MonadReader&#45;&gt;scalaz.Monad</title>
<path fill="none" stroke="black" d="M217,-330.352C217,-322.577 217,-312.808 217,-303.883"/>
<polygon fill="black" stroke="black" points="220.5,-303.607 217,-293.607 213.5,-303.607 220.5,-303.607"/>
</g>
<!-- scalaz.MonadState -->
<g id="node24" class="node"><title>scalaz.MonadState</title>
<a xlink:href="https://github.com/scalaz/scalaz/tree/v7.2.10/core/src/main/scala/scalaz/MonadState.scala" xlink:title="scalaz.MonadState" target="_blank">
<polygon fill="#799f5a" stroke="black" points="275.5,-330.5 275.5,-359.5 350.5,-359.5 350.5,-330.5 275.5,-330.5"/>
<text text-anchor="middle" x="313" y="-342.5" font-family="Times Roman,serif" font-size="10.00">MonadState</text>
</a>
</g>
<!-- scalaz.MonadState&#45;&gt;scalaz.Monad -->
<g id="edge50" class="edge"><title>scalaz.MonadState&#45;&gt;scalaz.Monad</title>
<path fill="none" stroke="black" d="M291.694,-330.352C278.52,-321.295 261.412,-309.533 246.893,-299.551"/>
<polygon fill="black" stroke="black" points="248.469,-296.388 238.246,-293.607 244.504,-302.156 248.469,-296.388"/>
</g>
<!-- scalaz.MonadTell&#45;&gt;scalaz.Monad -->
<g id="edge30" class="edge"><title>scalaz.MonadTell&#45;&gt;scalaz.Monad</title>
<path fill="none" stroke="black" d="M367.165,-332.932C364.408,-331.926 361.658,-330.937 359,-330 313.703,-314.034 299.2,-312.693 251.126,-294.244"/>
<polygon fill="black" stroke="black" points="252.332,-290.958 241.744,-290.593 249.794,-297.481 252.332,-290.958"/>
</g>
<!-- scalaz.Nondeterminism -->
<g id="node26" class="node"><title>scalaz.Nondeterminism</title>
<a xlink:href="https://github.com/scalaz/scalaz/tree/v7.2.10/core/src/main/scala/scalaz/Nondeterminism.scala" xlink:title="scalaz.Nondeterminism" target="_blank">
<polygon fill="#799f5a" stroke="black" points="447.5,-330.5 447.5,-359.5 544.5,-359.5 544.5,-330.5 447.5,-330.5"/>
<text text-anchor="middle" x="496" y="-342.5" font-family="Times Roman,serif" font-size="10.00">Nondeterminism</text>
</a>
</g>
<!-- scalaz.Nondeterminism&#45;&gt;scalaz.Monad -->
<g id="edge56" class="edge"><title>scalaz.Nondeterminism&#45;&gt;scalaz.Monad</title>
<path fill="none" stroke="black" d="M447.237,-331.931C444.455,-331.259 441.695,-330.61 439,-330 358.698,-311.809 333.372,-319.263 251.358,-294.02"/>
<polygon fill="black" stroke="black" points="252.206,-290.618 241.616,-290.953 250.103,-297.295 252.206,-290.618"/>
</g>
<!-- scalaz.Plus -->
<g id="node27" class="node"><title>scalaz.Plus</title>
<a xlink:href="https://github.com/scalaz/scalaz/tree/v7.2.10/core/src/main/scala/scalaz/Plus.scala" xlink:title="scalaz.Plus" target="_blank">
<polygon fill="#799f5a" stroke="black" points="145,-132.5 145,-161.5 181,-161.5 181,-132.5 145,-132.5"/>
<text text-anchor="middle" x="163" y="-144.5" font-family="Times Roman,serif" font-size="10.00">Plus</text>
</a>
</g>
<!-- scalaz.PlusEmpty&#45;&gt;scalaz.Plus -->
<g id="edge4" class="edge"><title>scalaz.PlusEmpty&#45;&gt;scalaz.Plus</title>
<path fill="none" stroke="black" d="M137.324,-198.352C141.383,-190.235 146.528,-179.945 151.144,-170.711"/>
<polygon fill="black" stroke="black" points="154.355,-172.116 155.697,-161.607 148.094,-168.986 154.355,-172.116"/>
</g>
<!-- scalaz.Traverse -->
<g id="node29" class="node"><title>scalaz.Traverse</title>
<a xlink:href="https://github.com/scalaz/scalaz/tree/v7.2.10/core/src/main/scala/scalaz/Traverse.scala" xlink:title="scalaz.Traverse" target="_blank">
<polygon fill="#799f5a" stroke="black" points="415,-132.5 415,-161.5 471,-161.5 471,-132.5 415,-132.5"/>
<text text-anchor="middle" x="443" y="-144.5" font-family="Times Roman,serif" font-size="10.00">Traverse</text>
</a>
</g>
<!-- scalaz.Traverse&#45;&gt;scalaz.Foldable -->
<g id="edge26" class="edge"><title>scalaz.Traverse&#45;&gt;scalaz.Foldable</title>
<path fill="none" stroke="black" d="M451.433,-132.352C456.156,-124.149 462.157,-113.728 467.516,-104.42"/>
<polygon fill="black" stroke="black" points="470.634,-106.019 472.59,-95.6066 464.567,-102.526 470.634,-106.019"/>
</g>
<!-- scalaz.Traverse&#45;&gt;scalaz.Functor -->
<g id="edge24" class="edge"><title>scalaz.Traverse&#45;&gt;scalaz.Functor</title>
<path fill="none" stroke="black" d="M414.792,-135.343C411.834,-134.187 408.862,-133.053 406,-132 365.811,-117.217 319.037,-102.004 287.677,-92.0861"/>
<polygon fill="black" stroke="black" points="288.654,-88.7244 278.065,-89.0594 286.552,-95.4013 288.654,-88.7244"/>
</g>
<!-- scalaz.Traverse1 -->
<g id="node30" class="node"><title>scalaz.Traverse1</title>
<a xlink:href="https://github.com/scalaz/scalaz/tree/v7.2.10/core/src/main/scala/scalaz/Traverse1.scala" xlink:title="scalaz.Traverse1" target="_blank">
<polygon fill="#799f5a" stroke="black" points="450,-198.5 450,-227.5 512,-227.5 512,-198.5 450,-198.5"/>
<text text-anchor="middle" x="481" y="-210.5" font-family="Times Roman,serif" font-size="10.00">Traverse1</text>
</a>
</g>
<!-- scalaz.Traverse1&#45;&gt;scalaz.Foldable1 -->
<g id="edge44" class="edge"><title>scalaz.Traverse1&#45;&gt;scalaz.Foldable1</title>
<path fill="none" stroke="black" d="M489.655,-198.352C494.503,-190.149 500.661,-179.728 506.161,-170.42"/>
<polygon fill="black" stroke="black" points="509.295,-171.996 511.369,-161.607 503.268,-168.435 509.295,-171.996"/>
</g>
<!-- scalaz.Traverse1&#45;&gt;scalaz.Traverse -->
<g id="edge42" class="edge"><title>scalaz.Traverse1&#45;&gt;scalaz.Traverse</title>
<path fill="none" stroke="black" d="M472.567,-198.352C467.844,-190.149 461.843,-179.728 456.484,-170.42"/>
<polygon fill="black" stroke="black" points="459.433,-168.526 451.41,-161.607 453.366,-172.019 459.433,-168.526"/>
</g>
</g>
</svg>

