<?xml version="1.0" encoding="UTF-8" standalone="no"?>
<!DOCTYPE svg PUBLIC "-//W3C//DTD SVG 1.1//EN"
 "http://www.w3.org/Graphics/SVG/1.1/DTD/svg11.dtd">
<!-- Generated by graphviz version 2.40.1 (20161225.0304)
 -->
<!-- Title: scalaz 7.3.3 diagram Pages: 1 -->
<svg width="741pt" height="434pt"
 viewBox="0.00 0.00 741.00 434.00" xmlns="http://www.w3.org/2000/svg" xmlns:xlink="http://www.w3.org/1999/xlink">
<g id="graph0" class="graph" transform="scale(1 1) rotate(0) translate(4 430)">
<title>scalaz 7.3.3 diagram</title>
<polygon fill="#ffffff" stroke="transparent" points="-4,4 -4,-430 737,-430 737,4 -4,4"/>
<!-- scalaz.Align -->
<g id="node1" class="node">
<title>scalaz.Align</title>
<g id="a_node1"><a xlink:href="https://github.com/scalaz/scalaz/tree/v7.3.3/core/src/main/scala/scalaz/Align.scala" xlink:title="scalaz.Align" target="_blank">
<polygon fill="#799f5a" stroke="#000000" points="249,-132.5 249,-161.5 290,-161.5 290,-132.5 249,-132.5"/>
<text text-anchor="middle" x="269.5" y="-144.5" font-family="Times,serif" font-size="10.00" fill="#000000">Align</text>
</a>
</g>
</g>
<!-- scalaz.Functor -->
<g id="node17" class="node">
<title>scalaz.Functor</title>
<g id="a_node17"><a xlink:href="https://github.com/scalaz/scalaz/tree/v7.3.3/core/src/main/scala/scalaz/Functor.scala" xlink:title="scalaz.Functor" target="_blank">
<polygon fill="#799f5a" stroke="#000000" points="364,-66.5 364,-95.5 419,-95.5 419,-66.5 364,-66.5"/>
<text text-anchor="middle" x="391.5" y="-78.5" font-family="Times,serif" font-size="10.00" fill="#000000">Functor</text>
</a>
</g>
</g>
<!-- scalaz.Align&#45;&gt;scalaz.Functor -->
<g id="edge36" class="edge">
<title>scalaz.Align&#45;&gt;scalaz.Functor</title>
<path fill="none" stroke="#000000" d="M290.1956,-135.804C307.9614,-126.193 333.983,-112.1158 355.2044,-100.6353"/>
<polygon fill="#000000" stroke="#000000" points="357.1379,-103.5687 364.2679,-95.7321 353.8071,-97.4119 357.1379,-103.5687"/>
</g>
<!-- scalaz.Applicative -->
<g id="node2" class="node">
<title>scalaz.Applicative</title>
<g id="a_node2"><a xlink:href="https://github.com/scalaz/scalaz/tree/v7.3.3/core/src/main/scala/scalaz/Applicative.scala" xlink:title="scalaz.Applicative" target="_blank">
<polygon fill="#799f5a" stroke="#000000" points="248,-198.5 248,-227.5 319,-227.5 319,-198.5 248,-198.5"/>
<text text-anchor="middle" x="283.5" y="-210.5" font-family="Times,serif" font-size="10.00" fill="#000000">Applicative</text>
</a>
</g>
</g>
<!-- scalaz.Apply -->
<g id="node5" class="node">
<title>scalaz.Apply</title>
<g id="a_node5"><a xlink:href="https://github.com/scalaz/scalaz/tree/v7.3.3/core/src/main/scala/scalaz/Apply.scala" xlink:title="scalaz.Apply" target="_blank">
<polygon fill="#799f5a" stroke="#000000" points="308.5,-132.5 308.5,-161.5 352.5,-161.5 352.5,-132.5 308.5,-132.5"/>
<text text-anchor="middle" x="330.5" y="-144.5" font-family="Times,serif" font-size="10.00" fill="#000000">Apply</text>
</a>
</g>
</g>
<!-- scalaz.Applicative&#45;&gt;scalaz.Apply -->
<g id="edge9" class="edge">
<title>scalaz.Applicative&#45;&gt;scalaz.Apply</title>
<path fill="none" stroke="#000000" d="M293.9308,-198.3525C299.894,-189.9786 307.5035,-179.2929 314.2353,-169.8398"/>
<polygon fill="#000000" stroke="#000000" points="317.1486,-171.7825 320.0983,-161.6066 311.4466,-167.722 317.1486,-171.7825"/>
</g>
<!-- scalaz.InvariantApplicative -->
<g id="node18" class="node">
<title>scalaz.InvariantApplicative</title>
<g id="a_node18"><a xlink:href="https://github.com/scalaz/scalaz/tree/v7.3.3/core/src/main/scala/scalaz/InvariantApplicative.scala" xlink:title="scalaz.InvariantApplicative" target="_blank">
<polygon fill="#799f5a" stroke="#000000" points="116,-132.5 116,-161.5 231,-161.5 231,-132.5 116,-132.5"/>
<text text-anchor="middle" x="173.5" y="-144.5" font-family="Times,serif" font-size="10.00" fill="#000000">InvariantApplicative</text>
</a>
</g>
</g>
<!-- scalaz.Applicative&#45;&gt;scalaz.InvariantApplicative -->
<g id="edge10" class="edge">
<title>scalaz.Applicative&#45;&gt;scalaz.InvariantApplicative</title>
<path fill="none" stroke="#000000" d="M259.0874,-198.3525C243.7068,-189.1241 223.6469,-177.0881 206.8138,-166.9883"/>
<polygon fill="#000000" stroke="#000000" points="208.22,-163.7504 197.8443,-161.6066 204.6185,-169.7528 208.22,-163.7504"/>
</g>
<!-- scalaz.ApplicativeError -->
<g id="node3" class="node">
<title>scalaz.ApplicativeError</title>
<g id="a_node3"><a xlink:href="https://github.com/scalaz/scalaz/tree/v7.3.3/core/src/main/scala/scalaz/ApplicativeError.scala" xlink:title="scalaz.ApplicativeError" target="_blank">
<polygon fill="#799f5a" stroke="#000000" points="143,-264.5 143,-293.5 240,-293.5 240,-264.5 143,-264.5"/>
<text text-anchor="middle" x="191.5" y="-276.5" font-family="Times,serif" font-size="10.00" fill="#000000">ApplicativeError</text>
</a>
</g>
</g>
<!-- scalaz.ApplicativeError&#45;&gt;scalaz.Applicative -->
<g id="edge17" class="edge">
<title>scalaz.ApplicativeError&#45;&gt;scalaz.Applicative</title>
<path fill="none" stroke="#000000" d="M211.9178,-264.3525C224.5434,-255.295 240.9389,-243.5329 254.8527,-233.5514"/>
<polygon fill="#000000" stroke="#000000" points="257.0541,-236.2796 263.1393,-227.6066 252.9737,-230.5918 257.0541,-236.2796"/>
</g>
<!-- scalaz.ApplicativePlus -->
<g id="node4" class="node">
<title>scalaz.ApplicativePlus</title>
<g id="a_node4"><a xlink:href="https://github.com/scalaz/scalaz/tree/v7.3.3/core/src/main/scala/scalaz/ApplicativePlus.scala" xlink:title="scalaz.ApplicativePlus" target="_blank">
<polygon fill="#799f5a" stroke="#000000" points="326.5,-264.5 326.5,-293.5 418.5,-293.5 418.5,-264.5 326.5,-264.5"/>
<text text-anchor="middle" x="372.5" y="-276.5" font-family="Times,serif" font-size="10.00" fill="#000000">ApplicativePlus</text>
</a>
</g>
</g>
<!-- scalaz.ApplicativePlus&#45;&gt;scalaz.Applicative -->
<g id="edge3" class="edge">
<title>scalaz.ApplicativePlus&#45;&gt;scalaz.Applicative</title>
<path fill="none" stroke="#000000" d="M352.748,-264.3525C340.6494,-255.3804 324.9721,-243.7546 311.5948,-233.8343"/>
<polygon fill="#000000" stroke="#000000" points="313.314,-230.7519 303.1968,-227.6066 309.1443,-236.3746 313.314,-230.7519"/>
</g>
<!-- scalaz.PlusEmpty -->
<g id="node30" class="node">
<title>scalaz.PlusEmpty</title>
<g id="a_node30"><a xlink:href="https://github.com/scalaz/scalaz/tree/v7.3.3/core/src/main/scala/scalaz/PlusEmpty.scala" xlink:title="scalaz.PlusEmpty" target="_blank">
<polygon fill="#799f5a" stroke="#000000" points="355.5,-198.5 355.5,-227.5 423.5,-227.5 423.5,-198.5 355.5,-198.5"/>
<text text-anchor="middle" x="389.5" y="-210.5" font-family="Times,serif" font-size="10.00" fill="#000000">PlusEmpty</text>
</a>
</g>
</g>
<!-- scalaz.ApplicativePlus&#45;&gt;scalaz.PlusEmpty -->
<g id="edge4" class="edge">
<title>scalaz.ApplicativePlus&#45;&gt;scalaz.PlusEmpty</title>
<path fill="none" stroke="#000000" d="M376.2729,-264.3525C378.3197,-256.4058 380.9028,-246.3773 383.242,-237.2959"/>
<polygon fill="#000000" stroke="#000000" points="386.6327,-238.1636 385.7377,-227.6066 379.8539,-236.4175 386.6327,-238.1636"/>
</g>
<!-- scalaz.Apply&#45;&gt;scalaz.Functor -->
<g id="edge6" class="edge">
<title>scalaz.Apply&#45;&gt;scalaz.Functor</title>
<path fill="none" stroke="#000000" d="M344.0379,-132.3525C352.0143,-123.7222 362.2602,-112.6365 371.1895,-102.9753"/>
<polygon fill="#000000" stroke="#000000" points="373.7828,-105.326 378,-95.6066 368.6422,-100.5748 373.7828,-105.326"/>
</g>
<!-- scalaz.Bind -->
<g id="node6" class="node">
<title>scalaz.Bind</title>
<g id="a_node6"><a xlink:href="https://github.com/scalaz/scalaz/tree/v7.3.3/core/src/main/scala/scalaz/Bind.scala" xlink:title="scalaz.Bind" target="_blank">
<polygon fill="#799f5a" stroke="#000000" points="191,-198.5 191,-227.5 230,-227.5 230,-198.5 191,-198.5"/>
<text text-anchor="middle" x="210.5" y="-210.5" font-family="Times,serif" font-size="10.00" fill="#000000">Bind</text>
</a>
</g>
</g>
<!-- scalaz.Bind&#45;&gt;scalaz.Apply -->
<g id="edge11" class="edge">
<title>scalaz.Bind&#45;&gt;scalaz.Apply</title>
<path fill="none" stroke="#000000" d="M230.0471,-202.2491C248.759,-191.9576 277.2962,-176.2621 299.1788,-164.2267"/>
<polygon fill="#000000" stroke="#000000" points="301.0261,-167.2052 308.1015,-159.3192 297.6526,-161.0716 301.0261,-167.2052"/>
</g>
<!-- scalaz.BindRec -->
<g id="node7" class="node">
<title>scalaz.BindRec</title>
<g id="a_node7"><a xlink:href="https://github.com/scalaz/scalaz/tree/v7.3.3/core/src/main/scala/scalaz/BindRec.scala" xlink:title="scalaz.BindRec" target="_blank">
<polygon fill="#799f5a" stroke="#000000" points="66.5,-264.5 66.5,-293.5 124.5,-293.5 124.5,-264.5 66.5,-264.5"/>
<text text-anchor="middle" x="95.5" y="-276.5" font-family="Times,serif" font-size="10.00" fill="#000000">BindRec</text>
</a>
</g>
</g>
<!-- scalaz.BindRec&#45;&gt;scalaz.Bind -->
<g id="edge35" class="edge">
<title>scalaz.BindRec&#45;&gt;scalaz.Bind</title>
<path fill="none" stroke="#000000" d="M121.0222,-264.3525C139.1057,-253.9741 163.3765,-240.0448 182.0777,-229.3119"/>
<polygon fill="#000000" stroke="#000000" points="183.8284,-232.3427 190.7594,-224.3294 180.3441,-226.2715 183.8284,-232.3427"/>
</g>
<!-- scalaz.Cobind -->
<g id="node8" class="node">
<title>scalaz.Cobind</title>
<g id="a_node8"><a xlink:href="https://github.com/scalaz/scalaz/tree/v7.3.3/core/src/main/scala/scalaz/Cobind.scala" xlink:title="scalaz.Cobind" target="_blank">
<polygon fill="#799f5a" stroke="#000000" points="427,-132.5 427,-161.5 478,-161.5 478,-132.5 427,-132.5"/>
<text text-anchor="middle" x="452.5" y="-144.5" font-family="Times,serif" font-size="10.00" fill="#000000">Cobind</text>
</a>
</g>
</g>
<!-- scalaz.Cobind&#45;&gt;scalaz.Functor -->
<g id="edge13" class="edge">
<title>scalaz.Cobind&#45;&gt;scalaz.Functor</title>
<path fill="none" stroke="#000000" d="M438.9621,-132.3525C430.9857,-123.7222 420.7398,-112.6365 411.8105,-102.9753"/>
<polygon fill="#000000" stroke="#000000" points="414.3578,-100.5748 405,-95.6066 409.2172,-105.326 414.3578,-100.5748"/>
</g>
<!-- scalaz.Comonad -->
<g id="node9" class="node">
<title>scalaz.Comonad</title>
<g id="a_node9"><a xlink:href="https://github.com/scalaz/scalaz/tree/v7.3.3/core/src/main/scala/scalaz/Comonad.scala" xlink:title="scalaz.Comonad" target="_blank">
<polygon fill="#799f5a" stroke="#000000" points="507,-198.5 507,-227.5 570,-227.5 570,-198.5 507,-198.5"/>
<text text-anchor="middle" x="538.5" y="-210.5" font-family="Times,serif" font-size="10.00" fill="#000000">Comonad</text>
</a>
</g>
</g>
<!-- scalaz.Comonad&#45;&gt;scalaz.Cobind -->
<g id="edge12" class="edge">
<title>scalaz.Comonad&#45;&gt;scalaz.Cobind</title>
<path fill="none" stroke="#000000" d="M519.4138,-198.3525C507.723,-189.3804 492.5742,-177.7546 479.6478,-167.8343"/>
<polygon fill="#000000" stroke="#000000" points="481.5968,-164.9182 471.5328,-161.6066 477.3351,-170.4714 481.5968,-164.9182"/>
</g>
<!-- scalaz.ComonadStore -->
<g id="node10" class="node">
<title>scalaz.ComonadStore</title>
<g id="a_node10"><a xlink:href="https://github.com/scalaz/scalaz/tree/v7.3.3/core/src/main/scala/scalaz/ComonadStore.scala" xlink:title="scalaz.ComonadStore" target="_blank">
<polygon fill="#799f5a" stroke="#000000" points="510.5,-264.5 510.5,-293.5 600.5,-293.5 600.5,-264.5 510.5,-264.5"/>
<text text-anchor="middle" x="555.5" y="-276.5" font-family="Times,serif" font-size="10.00" fill="#000000">ComonadStore</text>
</a>
</g>
</g>
<!-- scalaz.ComonadStore&#45;&gt;scalaz.Comonad -->
<g id="edge23" class="edge">
<title>scalaz.ComonadStore&#45;&gt;scalaz.Comonad</title>
<path fill="none" stroke="#000000" d="M551.7271,-264.3525C549.6803,-256.4058 547.0972,-246.3773 544.758,-237.2959"/>
<polygon fill="#000000" stroke="#000000" points="548.1461,-236.4175 542.2623,-227.6066 541.3673,-238.1636 548.1461,-236.4175"/>
</g>
<!-- scalaz.Contravariant -->
<g id="node11" class="node">
<title>scalaz.Contravariant</title>
<g id="a_node11"><a xlink:href="https://github.com/scalaz/scalaz/tree/v7.3.3/core/src/main/scala/scalaz/Contravariant.scala" xlink:title="scalaz.Contravariant" target="_blank">
<polygon fill="#799f5a" stroke="#000000" points="46,-66.5 46,-95.5 131,-95.5 131,-66.5 46,-66.5"/>
<text text-anchor="middle" x="88.5" y="-78.5" font-family="Times,serif" font-size="10.00" fill="#000000">Contravariant</text>
</a>
</g>
</g>
<!-- scalaz.InvariantFunctor -->
<g id="node19" class="node">
<title>scalaz.InvariantFunctor</title>
<g id="a_node19"><a xlink:href="https://github.com/scalaz/scalaz/tree/v7.3.3/core/src/main/scala/scalaz/InvariantFunctor.scala" xlink:title="scalaz.InvariantFunctor" target="_blank">
<polygon fill="#799f5a" stroke="#000000" points="124,-.5 124,-29.5 223,-29.5 223,-.5 124,-.5"/>
<text text-anchor="middle" x="173.5" y="-12.5" font-family="Times,serif" font-size="10.00" fill="#000000">InvariantFunctor</text>
</a>
</g>
</g>
<!-- scalaz.Contravariant&#45;&gt;scalaz.InvariantFunctor -->
<g id="edge19" class="edge">
<title>scalaz.Contravariant&#45;&gt;scalaz.InvariantFunctor</title>
<path fill="none" stroke="#000000" d="M107.3643,-66.3525C118.9191,-57.3804 133.8918,-45.7546 146.6679,-35.8343"/>
<polygon fill="#000000" stroke="#000000" points="148.9365,-38.5041 154.6885,-29.6066 144.6434,-32.9751 148.9365,-38.5041"/>
</g>
<!-- scalaz.Distributive -->
<g id="node12" class="node">
<title>scalaz.Distributive</title>
<g id="a_node12"><a xlink:href="https://github.com/scalaz/scalaz/tree/v7.3.3/core/src/main/scala/scalaz/Distributive.scala" xlink:title="scalaz.Distributive" target="_blank">
<polygon fill="#799f5a" stroke="#000000" points="496.5,-132.5 496.5,-161.5 570.5,-161.5 570.5,-132.5 496.5,-132.5"/>
<text text-anchor="middle" x="533.5" y="-144.5" font-family="Times,serif" font-size="10.00" fill="#000000">Distributive</text>
</a>
</g>
</g>
<!-- scalaz.Distributive&#45;&gt;scalaz.Functor -->
<g id="edge37" class="edge">
<title>scalaz.Distributive&#45;&gt;scalaz.Functor</title>
<path fill="none" stroke="#000000" d="M501.9856,-132.3525C480.2513,-122.2506 451.2789,-108.7845 428.4555,-98.1765"/>
<polygon fill="#000000" stroke="#000000" points="429.6331,-94.8643 419.0895,-93.8233 426.6827,-101.2122 429.6331,-94.8643"/>
</g>
<!-- scalaz.Divide -->
<g id="node13" class="node">
<title>scalaz.Divide</title>
<g id="a_node13"><a xlink:href="https://github.com/scalaz/scalaz/tree/v7.3.3/core/src/main/scala/scalaz/Divide.scala" xlink:title="scalaz.Divide" target="_blank">
<polygon fill="#799f5a" stroke="#000000" points="51,-132.5 51,-161.5 98,-161.5 98,-132.5 51,-132.5"/>
<text text-anchor="middle" x="74.5" y="-144.5" font-family="Times,serif" font-size="10.00" fill="#000000">Divide</text>
</a>
</g>
</g>
<!-- scalaz.Divide&#45;&gt;scalaz.Contravariant -->
<g id="edge20" class="edge">
<title>scalaz.Divide&#45;&gt;scalaz.Contravariant</title>
<path fill="none" stroke="#000000" d="M77.6071,-132.3525C79.2746,-124.4913 81.3743,-114.5927 83.2841,-105.5892"/>
<polygon fill="#000000" stroke="#000000" points="86.7503,-106.1152 85.4016,-95.6066 79.9027,-104.6626 86.7503,-106.1152"/>
</g>
<!-- scalaz.Divisible -->
<g id="node14" class="node">
<title>scalaz.Divisible</title>
<g id="a_node14"><a xlink:href="https://github.com/scalaz/scalaz/tree/v7.3.3/core/src/main/scala/scalaz/Divisible.scala" xlink:title="scalaz.Divisible" target="_blank">
<polygon fill="#799f5a" stroke="#000000" points="71,-198.5 71,-227.5 130,-227.5 130,-198.5 71,-198.5"/>
<text text-anchor="middle" x="100.5" y="-210.5" font-family="Times,serif" font-size="10.00" fill="#000000">Divisible</text>
</a>
</g>
</g>
<!-- scalaz.Divisible&#45;&gt;scalaz.Divide -->
<g id="edge33" class="edge">
<title>scalaz.Divisible&#45;&gt;scalaz.Divide</title>
<path fill="none" stroke="#000000" d="M94.7298,-198.3525C91.5656,-190.3204 87.5636,-180.1614 83.9558,-171.0033"/>
<polygon fill="#000000" stroke="#000000" points="87.1759,-169.6278 80.2541,-161.6066 80.663,-172.1935 87.1759,-169.6278"/>
</g>
<!-- scalaz.Divisible&#45;&gt;scalaz.InvariantApplicative -->
<g id="edge34" class="edge">
<title>scalaz.Divisible&#45;&gt;scalaz.InvariantApplicative</title>
<path fill="none" stroke="#000000" d="M116.7011,-198.3525C126.4356,-189.5513 138.9947,-178.1965 149.827,-168.403"/>
<polygon fill="#000000" stroke="#000000" points="152.2737,-170.9093 157.3442,-161.6066 147.5792,-165.7169 152.2737,-170.9093"/>
</g>
<!-- scalaz.Foldable -->
<g id="node15" class="node">
<title>scalaz.Foldable</title>
<g id="a_node15"><a xlink:href="https://github.com/scalaz/scalaz/tree/v7.3.3/core/src/main/scala/scalaz/Foldable.scala" xlink:title="scalaz.Foldable" target="_blank">
<polygon fill="#799f5a" stroke="#000000" points="630,-66.5 630,-95.5 689,-95.5 689,-66.5 630,-66.5"/>
<text text-anchor="middle" x="659.5" y="-78.5" font-family="Times,serif" font-size="10.00" fill="#000000">Foldable</text>
</a>
</g>
</g>
<!-- scalaz.Foldable1 -->
<g id="node16" class="node">
<title>scalaz.Foldable1</title>
<g id="a_node16"><a xlink:href="https://github.com/scalaz/scalaz/tree/v7.3.3/core/src/main/scala/scalaz/Foldable1.scala" xlink:title="scalaz.Foldable1" target="_blank">
<polygon fill="#799f5a" stroke="#000000" points="668,-132.5 668,-161.5 733,-161.5 733,-132.5 668,-132.5"/>
<text text-anchor="middle" x="700.5" y="-144.5" font-family="Times,serif" font-size="10.00" fill="#000000">Foldable1</text>
</a>
</g>
</g>
<!-- scalaz.Foldable1&#45;&gt;scalaz.Foldable -->
<g id="edge16" class="edge">
<title>scalaz.Foldable1&#45;&gt;scalaz.Foldable</title>
<path fill="none" stroke="#000000" d="M691.4008,-132.3525C686.2519,-124.064 679.6961,-113.5108 673.8684,-104.1296"/>
<polygon fill="#000000" stroke="#000000" points="676.8237,-102.2541 668.5738,-95.6066 670.8776,-105.9479 676.8237,-102.2541"/>
</g>
<!-- scalaz.Functor&#45;&gt;scalaz.InvariantFunctor -->
<g id="edge5" class="edge">
<title>scalaz.Functor&#45;&gt;scalaz.InvariantFunctor</title>
<path fill="none" stroke="#000000" d="M363.8901,-72.6411C330.727,-62.6008 274.2106,-45.4904 231.345,-32.5127"/>
<polygon fill="#000000" stroke="#000000" points="232.1792,-29.1084 221.594,-29.5606 230.1508,-35.8081 232.1792,-29.1084"/>
</g>
<!-- scalaz.InvariantApplicative&#45;&gt;scalaz.InvariantFunctor -->
<g id="edge2" class="edge">
<title>scalaz.InvariantApplicative&#45;&gt;scalaz.InvariantFunctor</title>
<path fill="none" stroke="#000000" d="M173.5,-132.3693C173.5,-110.0688 173.5,-67.2912 173.5,-40.0004"/>
<polygon fill="#000000" stroke="#000000" points="177.0001,-39.6962 173.5,-29.6962 170.0001,-39.6962 177.0001,-39.6962"/>
</g>
<!-- scalaz.IsEmpty -->
<g id="node20" class="node">
<title>scalaz.IsEmpty</title>
<g id="a_node20"><a xlink:href="https://github.com/scalaz/scalaz/tree/v7.3.3/core/src/main/scala/scalaz/IsEmpty.scala" xlink:title="scalaz.IsEmpty" target="_blank">
<polygon fill="#799f5a" stroke="#000000" points="436.5,-264.5 436.5,-293.5 492.5,-293.5 492.5,-264.5 436.5,-264.5"/>
<text text-anchor="middle" x="464.5" y="-276.5" font-family="Times,serif" font-size="10.00" fill="#000000">IsEmpty</text>
</a>
</g>
</g>
<!-- scalaz.IsEmpty&#45;&gt;scalaz.PlusEmpty -->
<g id="edge26" class="edge">
<title>scalaz.IsEmpty&#45;&gt;scalaz.PlusEmpty</title>
<path fill="none" stroke="#000000" d="M447.8551,-264.3525C437.8538,-255.5513 424.9506,-244.1965 413.8216,-234.403"/>
<polygon fill="#000000" stroke="#000000" points="415.9178,-231.5854 406.0984,-227.6066 411.2934,-236.8404 415.9178,-231.5854"/>
</g>
<!-- scalaz.Monad -->
<g id="node21" class="node">
<title>scalaz.Monad</title>
<g id="a_node21"><a xlink:href="https://github.com/scalaz/scalaz/tree/v7.3.3/core/src/main/scala/scalaz/Monad.scala" xlink:title="scalaz.Monad" target="_blank">
<polygon fill="#799f5a" stroke="#000000" points="258.5,-264.5 258.5,-293.5 308.5,-293.5 308.5,-264.5 258.5,-264.5"/>
<text text-anchor="middle" x="283.5" y="-276.5" font-family="Times,serif" font-size="10.00" fill="#000000">Monad</text>
</a>
</g>
</g>
<!-- scalaz.Monad&#45;&gt;scalaz.Applicative -->
<g id="edge7" class="edge">
<title>scalaz.Monad&#45;&gt;scalaz.Applicative</title>
<path fill="none" stroke="#000000" d="M283.5,-264.3525C283.5,-256.5767 283.5,-246.8077 283.5,-237.8831"/>
<polygon fill="#000000" stroke="#000000" points="287.0001,-237.6066 283.5,-227.6066 280.0001,-237.6066 287.0001,-237.6066"/>
</g>
<!-- scalaz.Monad&#45;&gt;scalaz.Bind -->
<g id="edge8" class="edge">
<title>scalaz.Monad&#45;&gt;scalaz.Bind</title>
<path fill="none" stroke="#000000" d="M267.2989,-264.3525C257.5644,-255.5513 245.0053,-244.1965 234.173,-234.403"/>
<polygon fill="#000000" stroke="#000000" points="236.4208,-231.7169 226.6558,-227.6066 231.7263,-236.9093 236.4208,-231.7169"/>
</g>
<!-- scalaz.MonadError -->
<g id="node22" class="node">
<title>scalaz.MonadError</title>
<g id="a_node22"><a xlink:href="https://github.com/scalaz/scalaz/tree/v7.3.3/core/src/main/scala/scalaz/MonadError.scala" xlink:title="scalaz.MonadError" target="_blank">
<polygon fill="#799f5a" stroke="#000000" points="0,-330.5 0,-359.5 77,-359.5 77,-330.5 0,-330.5"/>
<text text-anchor="middle" x="38.5" y="-342.5" font-family="Times,serif" font-size="10.00" fill="#000000">MonadError</text>
</a>
</g>
</g>
<!-- scalaz.MonadError&#45;&gt;scalaz.ApplicativeError -->
<g id="edge30" class="edge">
<title>scalaz.MonadError&#45;&gt;scalaz.ApplicativeError</title>
<path fill="none" stroke="#000000" d="M72.4557,-330.3525C94.8391,-320.6969 124.3477,-307.9677 148.3854,-297.5985"/>
<polygon fill="#000000" stroke="#000000" points="149.8435,-300.7813 157.6393,-293.6066 147.0708,-294.3538 149.8435,-300.7813"/>
</g>
<!-- scalaz.MonadError&#45;&gt;scalaz.Monad -->
<g id="edge29" class="edge">
<title>scalaz.MonadError&#45;&gt;scalaz.Monad</title>
<path fill="none" stroke="#000000" d="M77.191,-332.6019C80.3313,-331.6895 83.4632,-330.8104 86.5,-330 157.7627,-310.9833 178.2995,-316.625 248.5,-294 248.6022,-293.967 248.7046,-293.9339 248.8071,-293.9006"/>
<polygon fill="#000000" stroke="#000000" points="250.2756,-297.0909 258.4788,-290.3858 247.8847,-290.5119 250.2756,-297.0909"/>
</g>
<!-- scalaz.MonadListen -->
<g id="node23" class="node">
<title>scalaz.MonadListen</title>
<g id="a_node23"><a xlink:href="https://github.com/scalaz/scalaz/tree/v7.3.3/core/src/main/scala/scalaz/MonadListen.scala" xlink:title="scalaz.MonadListen" target="_blank">
<polygon fill="#799f5a" stroke="#000000" points="289,-396.5 289,-425.5 370,-425.5 370,-396.5 289,-396.5"/>
<text text-anchor="middle" x="329.5" y="-408.5" font-family="Times,serif" font-size="10.00" fill="#000000">MonadListen</text>
</a>
</g>
</g>
<!-- scalaz.MonadTell -->
<g id="node27" class="node">
<title>scalaz.MonadTell</title>
<g id="a_node27"><a xlink:href="https://github.com/scalaz/scalaz/tree/v7.3.3/core/src/main/scala/scalaz/MonadTell.scala" xlink:title="scalaz.MonadTell" target="_blank">
<polygon fill="#799f5a" stroke="#000000" points="295.5,-330.5 295.5,-359.5 363.5,-359.5 363.5,-330.5 295.5,-330.5"/>
<text text-anchor="middle" x="329.5" y="-342.5" font-family="Times,serif" font-size="10.00" fill="#000000">MonadTell</text>
</a>
</g>
</g>
<!-- scalaz.MonadListen&#45;&gt;scalaz.MonadTell -->
<g id="edge31" class="edge">
<title>scalaz.MonadListen&#45;&gt;scalaz.MonadTell</title>
<path fill="none" stroke="#000000" d="M329.5,-396.3525C329.5,-388.5767 329.5,-378.8077 329.5,-369.8831"/>
<polygon fill="#000000" stroke="#000000" points="333.0001,-369.6066 329.5,-359.6066 326.0001,-369.6066 333.0001,-369.6066"/>
</g>
<!-- scalaz.MonadPlus -->
<g id="node24" class="node">
<title>scalaz.MonadPlus</title>
<g id="a_node24"><a xlink:href="https://github.com/scalaz/scalaz/tree/v7.3.3/core/src/main/scala/scalaz/MonadPlus.scala" xlink:title="scalaz.MonadPlus" target="_blank">
<polygon fill="#799f5a" stroke="#000000" points="498,-330.5 498,-359.5 569,-359.5 569,-330.5 498,-330.5"/>
<text text-anchor="middle" x="533.5" y="-342.5" font-family="Times,serif" font-size="10.00" fill="#000000">MonadPlus</text>
</a>
</g>
</g>
<!-- scalaz.MonadPlus&#45;&gt;scalaz.ApplicativePlus -->
<g id="edge22" class="edge">
<title>scalaz.MonadPlus&#45;&gt;scalaz.ApplicativePlus</title>
<path fill="none" stroke="#000000" d="M497.7689,-330.3525C474.1108,-320.6541 442.8886,-307.8549 417.5335,-297.461"/>
<polygon fill="#000000" stroke="#000000" points="418.7116,-294.1612 408.1312,-293.6066 416.0564,-300.6382 418.7116,-294.1612"/>
</g>
<!-- scalaz.MonadPlus&#45;&gt;scalaz.Monad -->
<g id="edge21" class="edge">
<title>scalaz.MonadPlus&#45;&gt;scalaz.Monad</title>
<path fill="none" stroke="#000000" d="M497.751,-332.6739C494.6356,-331.7245 491.5204,-330.8185 488.5,-330 416.6122,-310.52 393.331,-317.1852 318.4264,-293.8934"/>
<polygon fill="#000000" stroke="#000000" points="319.115,-290.4394 308.5243,-290.736 316.9884,-297.1086 319.115,-290.4394"/>
</g>
<!-- scalaz.MonadReader -->
<g id="node25" class="node">
<title>scalaz.MonadReader</title>
<g id="a_node25"><a xlink:href="https://github.com/scalaz/scalaz/tree/v7.3.3/core/src/main/scala/scalaz/MonadReader.scala" xlink:title="scalaz.MonadReader" target="_blank">
<polygon fill="#799f5a" stroke="#000000" points="95.5,-330.5 95.5,-359.5 181.5,-359.5 181.5,-330.5 95.5,-330.5"/>
<text text-anchor="middle" x="138.5" y="-342.5" font-family="Times,serif" font-size="10.00" fill="#000000">MonadReader</text>
</a>
</g>
</g>
<!-- scalaz.MonadReader&#45;&gt;scalaz.Monad -->
<g id="edge27" class="edge">
<title>scalaz.MonadReader&#45;&gt;scalaz.Monad</title>
<path fill="none" stroke="#000000" d="M170.6802,-330.3525C193.8527,-319.805 225.0828,-305.5899 248.8102,-294.7898"/>
<polygon fill="#000000" stroke="#000000" points="250.4981,-297.8671 258.1496,-290.5388 247.5981,-291.4961 250.4981,-297.8671"/>
</g>
<!-- scalaz.MonadState -->
<g id="node26" class="node">
<title>scalaz.MonadState</title>
<g id="a_node26"><a xlink:href="https://github.com/scalaz/scalaz/tree/v7.3.3/core/src/main/scala/scalaz/MonadState.scala" xlink:title="scalaz.MonadState" target="_blank">
<polygon fill="#799f5a" stroke="#000000" points="200,-330.5 200,-359.5 277,-359.5 277,-330.5 200,-330.5"/>
<text text-anchor="middle" x="238.5" y="-342.5" font-family="Times,serif" font-size="10.00" fill="#000000">MonadState</text>
</a>
</g>
</g>
<!-- scalaz.MonadState&#45;&gt;scalaz.Monad -->
<g id="edge28" class="edge">
<title>scalaz.MonadState&#45;&gt;scalaz.Monad</title>
<path fill="none" stroke="#000000" d="M248.487,-330.3525C254.1382,-322.064 261.3336,-311.5108 267.7298,-302.1296"/>
<polygon fill="#000000" stroke="#000000" points="270.7993,-303.8406 273.541,-293.6066 265.0157,-299.8972 270.7993,-303.8406"/>
</g>
<!-- scalaz.MonadTell&#45;&gt;scalaz.Monad -->
<g id="edge18" class="edge">
<title>scalaz.MonadTell&#45;&gt;scalaz.Monad</title>
<path fill="none" stroke="#000000" d="M319.2911,-330.3525C313.4548,-321.9786 306.0072,-311.2929 299.4187,-301.8398"/>
<polygon fill="#000000" stroke="#000000" points="302.2697,-299.8093 293.6804,-293.6066 296.5269,-303.8119 302.2697,-299.8093"/>
</g>
<!-- scalaz.Nondeterminism -->
<g id="node28" class="node">
<title>scalaz.Nondeterminism</title>
<g id="a_node28"><a xlink:href="https://github.com/scalaz/scalaz/tree/v7.3.3/core/src/main/scala/scalaz/Nondeterminism.scala" xlink:title="scalaz.Nondeterminism" target="_blank">
<polygon fill="#799f5a" stroke="#000000" points="381.5,-330.5 381.5,-359.5 479.5,-359.5 479.5,-330.5 381.5,-330.5"/>
<text text-anchor="middle" x="430.5" y="-342.5" font-family="Times,serif" font-size="10.00" fill="#000000">Nondeterminism</text>
</a>
</g>
</g>
<!-- scalaz.Nondeterminism&#45;&gt;scalaz.Monad -->
<g id="edge32" class="edge">
<title>scalaz.Nondeterminism&#45;&gt;scalaz.Monad</title>
<path fill="none" stroke="#000000" d="M397.8759,-330.3525C374.1301,-319.6911 342.038,-305.2824 317.8914,-294.441"/>
<polygon fill="#000000" stroke="#000000" points="319.2899,-291.2324 308.7336,-290.3294 316.4227,-297.6183 319.2899,-291.2324"/>
</g>
<!-- scalaz.Plus -->
<g id="node29" class="node">
<title>scalaz.Plus</title>
<g id="a_node29"><a xlink:href="https://github.com/scalaz/scalaz/tree/v7.3.3/core/src/main/scala/scalaz/Plus.scala" xlink:title="scalaz.Plus" target="_blank">
<polygon fill="#799f5a" stroke="#000000" points="370.5,-132.5 370.5,-161.5 408.5,-161.5 408.5,-132.5 370.5,-132.5"/>
<text text-anchor="middle" x="389.5" y="-144.5" font-family="Times,serif" font-size="10.00" fill="#000000">Plus</text>
</a>
</g>
</g>
<!-- scalaz.PlusEmpty&#45;&gt;scalaz.Plus -->
<g id="edge1" class="edge">
<title>scalaz.PlusEmpty&#45;&gt;scalaz.Plus</title>
<path fill="none" stroke="#000000" d="M389.5,-198.3525C389.5,-190.5767 389.5,-180.8077 389.5,-171.8831"/>
<polygon fill="#000000" stroke="#000000" points="393.0001,-171.6066 389.5,-161.6066 386.0001,-171.6066 393.0001,-171.6066"/>
</g>
<!-- scalaz.Traverse -->
<g id="node31" class="node">
<title>scalaz.Traverse</title>
<g id="a_node31"><a xlink:href="https://github.com/scalaz/scalaz/tree/v7.3.3/core/src/main/scala/scalaz/Traverse.scala" xlink:title="scalaz.Traverse" target="_blank">
<polygon fill="#799f5a" stroke="#000000" points="589,-132.5 589,-161.5 650,-161.5 650,-132.5 589,-132.5"/>
<text text-anchor="middle" x="619.5" y="-144.5" font-family="Times,serif" font-size="10.00" fill="#000000">Traverse</text>
</a>
</g>
</g>
<!-- scalaz.Traverse&#45;&gt;scalaz.Foldable -->
<g id="edge15" class="edge">
<title>scalaz.Traverse&#45;&gt;scalaz.Foldable</title>
<path fill="none" stroke="#000000" d="M628.3773,-132.3525C633.3488,-124.1495 639.6648,-113.7281 645.306,-104.4201"/>
<polygon fill="#000000" stroke="#000000" points="648.4577,-105.9727 650.6475,-95.6066 642.4713,-102.3445 648.4577,-105.9727"/>
</g>
<!-- scalaz.Traverse&#45;&gt;scalaz.Functor -->
<g id="edge14" class="edge">
<title>scalaz.Traverse&#45;&gt;scalaz.Functor</title>
<path fill="none" stroke="#000000" d="M588.592,-135.0823C585.5334,-134.0016 582.4648,-132.9557 579.5,-132 528.0125,-115.4029 467.467,-99.6349 429.2858,-90.14"/>
<polygon fill="#000000" stroke="#000000" points="429.6834,-86.6331 419.1358,-87.6329 428.0047,-93.4289 429.6834,-86.6331"/>
</g>
<!-- scalaz.Traverse1 -->
<g id="node32" class="node">
<title>scalaz.Traverse1</title>
<g id="a_node32"><a xlink:href="https://github.com/scalaz/scalaz/tree/v7.3.3/core/src/main/scala/scalaz/Traverse1.scala" xlink:title="scalaz.Traverse1" target="_blank">
<polygon fill="#799f5a" stroke="#000000" points="619,-198.5 619,-227.5 686,-227.5 686,-198.5 619,-198.5"/>
<text text-anchor="middle" x="652.5" y="-210.5" font-family="Times,serif" font-size="10.00" fill="#000000">Traverse1</text>
</a>
</g>
</g>
<!-- scalaz.Traverse1&#45;&gt;scalaz.Foldable1 -->
<g id="edge25" class="edge">
<title>scalaz.Traverse1&#45;&gt;scalaz.Foldable1</title>
<path fill="none" stroke="#000000" d="M663.1528,-198.3525C669.2429,-189.9786 677.0142,-179.2929 683.8892,-169.8398"/>
<polygon fill="#000000" stroke="#000000" points="686.8258,-171.7526 689.877,-161.6066 681.1647,-167.6354 686.8258,-171.7526"/>
</g>
<!-- scalaz.Traverse1&#45;&gt;scalaz.Traverse -->
<g id="edge24" class="edge">
<title>scalaz.Traverse1&#45;&gt;scalaz.Traverse</title>
<path fill="none" stroke="#000000" d="M645.1762,-198.3525C641.1175,-190.2349 635.9725,-179.945 631.3557,-170.7113"/>
<polygon fill="#000000" stroke="#000000" points="634.406,-168.9856 626.8033,-161.6066 628.145,-172.1161 634.406,-168.9856"/>
</g>
</g>
</svg>

