<?xml version="1.0" encoding="UTF-8" standalone="no"?>
<!DOCTYPE svg PUBLIC "-//W3C//DTD SVG 1.1//EN"
 "http://www.w3.org/Graphics/SVG/1.1/DTD/svg11.dtd">
<!-- Generated by graphviz version 2.36.0 (20140111.2315)
 -->
<!-- Title: scalaz 7.2.17 diagram Pages: 1 -->
<svg width="533pt" height="434pt"
 viewBox="0.00 0.00 533.00 434.00" xmlns="http://www.w3.org/2000/svg" xmlns:xlink="http://www.w3.org/1999/xlink">
<g id="graph0" class="graph" transform="scale(1 1) rotate(0) translate(4 430)">
<title>scalaz 7.2.17 diagram</title>
<polygon fill="white" stroke="none" points="-4,4 -4,-430 529,-430 529,4 -4,4"/>
<!-- scalaz.Align -->
<g id="node1" class="node"><title>scalaz.Align</title>
<g id="a_node1"><a xlink:href="https://github.com/scalaz/scalaz/tree/v7.2.17/core/src/main/scala/scalaz/Align.scala" xlink:title="scalaz.Align" target="_blank">
<polygon fill="#799f5a" stroke="black" points="74.5,-132.5 74.5,-161.5 115.5,-161.5 115.5,-132.5 74.5,-132.5"/>
<text text-anchor="middle" x="95" y="-144.5" font-family="Times,serif" font-size="10.00">Align</text>
</a>
</g>
</g>
<!-- scalaz.Functor -->
<g id="node16" class="node"><title>scalaz.Functor</title>
<g id="a_node16"><a xlink:href="https://github.com/scalaz/scalaz/tree/v7.2.17/core/src/main/scala/scalaz/Functor.scala" xlink:title="scalaz.Functor" target="_blank">
<polygon fill="#799f5a" stroke="black" points="215,-66.5 215,-95.5 263,-95.5 263,-66.5 215,-66.5"/>
<text text-anchor="middle" x="239" y="-78.5" font-family="Times,serif" font-size="10.00">Functor</text>
</a>
</g>
</g>
<!-- scalaz.Align&#45;&gt;scalaz.Functor -->
<g id="edge31" class="edge"><title>scalaz.Align&#45;&gt;scalaz.Functor</title>
<path fill="none" stroke="black" d="M115.628,-136.297C118.762,-134.845 121.963,-133.374 125,-132 152.048,-119.759 182.895,-106.258 205.674,-96.3733"/>
<polygon fill="black" stroke="black" points="207.124,-99.5597 214.908,-92.3728 204.341,-93.1365 207.124,-99.5597"/>
</g>
<!-- scalaz.Applicative -->
<g id="node2" class="node"><title>scalaz.Applicative</title>
<g id="a_node2"><a xlink:href="https://github.com/scalaz/scalaz/tree/v7.2.17/core/src/main/scala/scalaz/Applicative.scala" xlink:title="scalaz.Applicative" target="_blank">
<polygon fill="#799f5a" stroke="black" points="167.5,-198.5 167.5,-227.5 232.5,-227.5 232.5,-198.5 167.5,-198.5"/>
<text text-anchor="middle" x="200" y="-210.5" font-family="Times,serif" font-size="10.00">Applicative</text>
</a>
</g>
</g>
<!-- scalaz.Apply -->
<g id="node4" class="node"><title>scalaz.Apply</title>
<g id="a_node4"><a xlink:href="https://github.com/scalaz/scalaz/tree/v7.2.17/core/src/main/scala/scalaz/Apply.scala" xlink:title="scalaz.Apply" target="_blank">
<polygon fill="#799f5a" stroke="black" points="186.5,-132.5 186.5,-161.5 229.5,-161.5 229.5,-132.5 186.5,-132.5"/>
<text text-anchor="middle" x="208" y="-144.5" font-family="Times,serif" font-size="10.00">Apply</text>
</a>
</g>
</g>
<!-- scalaz.Applicative&#45;&gt;scalaz.Apply -->
<g id="edge1" class="edge"><title>scalaz.Applicative&#45;&gt;scalaz.Apply</title>
<path fill="none" stroke="black" d="M201.697,-198.427C202.672,-190.621 203.926,-180.595 205.057,-171.542"/>
<polygon fill="black" stroke="black" points="208.538,-171.91 206.306,-161.553 201.592,-171.042 208.538,-171.91"/>
</g>
<!-- scalaz.ApplicativePlus -->
<g id="node3" class="node"><title>scalaz.ApplicativePlus</title>
<g id="a_node3"><a xlink:href="https://github.com/scalaz/scalaz/tree/v7.2.17/core/src/main/scala/scalaz/ApplicativePlus.scala" xlink:title="scalaz.ApplicativePlus" target="_blank">
<polygon fill="#799f5a" stroke="black" points="77.5,-264.5 77.5,-293.5 160.5,-293.5 160.5,-264.5 77.5,-264.5"/>
<text text-anchor="middle" x="119" y="-276.5" font-family="Times,serif" font-size="10.00">ApplicativePlus</text>
</a>
</g>
</g>
<!-- scalaz.ApplicativePlus&#45;&gt;scalaz.Applicative -->
<g id="edge5" class="edge"><title>scalaz.ApplicativePlus&#45;&gt;scalaz.Applicative</title>
<path fill="none" stroke="black" d="M136.178,-264.427C147.454,-255.518 162.389,-243.717 174.976,-233.772"/>
<polygon fill="black" stroke="black" points="177.17,-236.499 182.847,-227.553 172.831,-231.007 177.17,-236.499"/>
</g>
<!-- scalaz.PlusEmpty -->
<g id="node28" class="node"><title>scalaz.PlusEmpty</title>
<g id="a_node28"><a xlink:href="https://github.com/scalaz/scalaz/tree/v7.2.17/core/src/main/scala/scalaz/PlusEmpty.scala" xlink:title="scalaz.PlusEmpty" target="_blank">
<polygon fill="#799f5a" stroke="black" points="88.5,-198.5 88.5,-227.5 149.5,-227.5 149.5,-198.5 88.5,-198.5"/>
<text text-anchor="middle" x="119" y="-210.5" font-family="Times,serif" font-size="10.00">PlusEmpty</text>
</a>
</g>
</g>
<!-- scalaz.ApplicativePlus&#45;&gt;scalaz.PlusEmpty -->
<g id="edge6" class="edge"><title>scalaz.ApplicativePlus&#45;&gt;scalaz.PlusEmpty</title>
<path fill="none" stroke="black" d="M119,-264.427C119,-256.706 119,-246.813 119,-237.838"/>
<polygon fill="black" stroke="black" points="122.5,-237.553 119,-227.553 115.5,-237.553 122.5,-237.553"/>
</g>
<!-- scalaz.Apply&#45;&gt;scalaz.Functor -->
<g id="edge3" class="edge"><title>scalaz.Apply&#45;&gt;scalaz.Functor</title>
<path fill="none" stroke="black" d="M214.574,-132.427C218.479,-124.366 223.53,-113.939 228.024,-104.66"/>
<polygon fill="black" stroke="black" points="231.226,-106.079 232.435,-95.5532 224.926,-103.027 231.226,-106.079"/>
</g>
<!-- scalaz.Bind -->
<g id="node5" class="node"><title>scalaz.Bind</title>
<g id="a_node5"><a xlink:href="https://github.com/scalaz/scalaz/tree/v7.2.17/core/src/main/scala/scalaz/Bind.scala" xlink:title="scalaz.Bind" target="_blank">
<polygon fill="#799f5a" stroke="black" points="250.5,-198.5 250.5,-227.5 287.5,-227.5 287.5,-198.5 250.5,-198.5"/>
<text text-anchor="middle" x="269" y="-210.5" font-family="Times,serif" font-size="10.00">Bind</text>
</a>
</g>
</g>
<!-- scalaz.Bind&#45;&gt;scalaz.Apply -->
<g id="edge7" class="edge"><title>scalaz.Bind&#45;&gt;scalaz.Apply</title>
<path fill="none" stroke="black" d="M256.063,-198.427C247.895,-189.857 237.177,-178.612 227.936,-168.916"/>
<polygon fill="black" stroke="black" points="230.351,-166.377 220.918,-161.553 225.284,-171.207 230.351,-166.377"/>
</g>
<!-- scalaz.BindRec -->
<g id="node6" class="node"><title>scalaz.BindRec</title>
<g id="a_node6"><a xlink:href="https://github.com/scalaz/scalaz/tree/v7.2.17/core/src/main/scala/scalaz/BindRec.scala" xlink:title="scalaz.BindRec" target="_blank">
<polygon fill="#799f5a" stroke="black" points="243.5,-264.5 243.5,-293.5 296.5,-293.5 296.5,-264.5 243.5,-264.5"/>
<text text-anchor="middle" x="270" y="-276.5" font-family="Times,serif" font-size="10.00">BindRec</text>
</a>
</g>
</g>
<!-- scalaz.BindRec&#45;&gt;scalaz.Bind -->
<g id="edge30" class="edge"><title>scalaz.BindRec&#45;&gt;scalaz.Bind</title>
<path fill="none" stroke="black" d="M269.788,-264.427C269.667,-256.706 269.513,-246.813 269.372,-237.838"/>
<polygon fill="black" stroke="black" points="272.868,-237.497 269.212,-227.553 265.869,-237.607 272.868,-237.497"/>
</g>
<!-- scalaz.Cobind -->
<g id="node7" class="node"><title>scalaz.Cobind</title>
<g id="a_node7"><a xlink:href="https://github.com/scalaz/scalaz/tree/v7.2.17/core/src/main/scala/scalaz/Cobind.scala" xlink:title="scalaz.Cobind" target="_blank">
<polygon fill="#799f5a" stroke="black" points="247.5,-132.5 247.5,-161.5 294.5,-161.5 294.5,-132.5 247.5,-132.5"/>
<text text-anchor="middle" x="271" y="-144.5" font-family="Times,serif" font-size="10.00">Cobind</text>
</a>
</g>
</g>
<!-- scalaz.Cobind&#45;&gt;scalaz.Functor -->
<g id="edge11" class="edge"><title>scalaz.Cobind&#45;&gt;scalaz.Functor</title>
<path fill="none" stroke="black" d="M264.214,-132.427C260.183,-124.366 254.969,-113.939 250.33,-104.66"/>
<polygon fill="black" stroke="black" points="253.379,-102.932 245.777,-95.5532 247.118,-106.063 253.379,-102.932"/>
</g>
<!-- scalaz.Comonad -->
<g id="node8" class="node"><title>scalaz.Comonad</title>
<g id="a_node8"><a xlink:href="https://github.com/scalaz/scalaz/tree/v7.2.17/core/src/main/scala/scalaz/Comonad.scala" xlink:title="scalaz.Comonad" target="_blank">
<polygon fill="#799f5a" stroke="black" points="315,-198.5 315,-227.5 371,-227.5 371,-198.5 315,-198.5"/>
<text text-anchor="middle" x="343" y="-210.5" font-family="Times,serif" font-size="10.00">Comonad</text>
</a>
</g>
</g>
<!-- scalaz.Comonad&#45;&gt;scalaz.Cobind -->
<g id="edge10" class="edge"><title>scalaz.Comonad&#45;&gt;scalaz.Cobind</title>
<path fill="none" stroke="black" d="M327.731,-198.427C317.898,-189.688 304.937,-178.166 293.885,-168.342"/>
<polygon fill="black" stroke="black" points="296.047,-165.581 286.247,-161.553 291.396,-170.813 296.047,-165.581"/>
</g>
<!-- scalaz.ComonadStore -->
<g id="node9" class="node"><title>scalaz.ComonadStore</title>
<g id="a_node9"><a xlink:href="https://github.com/scalaz/scalaz/tree/v7.2.17/core/src/main/scala/scalaz/ComonadStore.scala" xlink:title="scalaz.ComonadStore" target="_blank">
<polygon fill="#799f5a" stroke="black" points="314.5,-264.5 314.5,-293.5 391.5,-293.5 391.5,-264.5 314.5,-264.5"/>
<text text-anchor="middle" x="353" y="-276.5" font-family="Times,serif" font-size="10.00">ComonadStore</text>
</a>
</g>
</g>
<!-- scalaz.ComonadStore&#45;&gt;scalaz.Comonad -->
<g id="edge20" class="edge"><title>scalaz.ComonadStore&#45;&gt;scalaz.Comonad</title>
<path fill="none" stroke="black" d="M350.879,-264.427C349.66,-256.621 348.093,-246.595 346.678,-237.542"/>
<polygon fill="black" stroke="black" points="350.12,-236.893 345.118,-227.553 343.203,-237.974 350.12,-236.893"/>
</g>
<!-- scalaz.Contravariant -->
<g id="node10" class="node"><title>scalaz.Contravariant</title>
<g id="a_node10"><a xlink:href="https://github.com/scalaz/scalaz/tree/v7.2.17/core/src/main/scala/scalaz/Contravariant.scala" xlink:title="scalaz.Contravariant" target="_blank">
<polygon fill="#799f5a" stroke="black" points="76.5,-66.5 76.5,-95.5 149.5,-95.5 149.5,-66.5 76.5,-66.5"/>
<text text-anchor="middle" x="113" y="-78.5" font-family="Times,serif" font-size="10.00">Contravariant</text>
</a>
</g>
</g>
<!-- scalaz.InvariantFunctor -->
<g id="node17" class="node"><title>scalaz.InvariantFunctor</title>
<g id="a_node17"><a xlink:href="https://github.com/scalaz/scalaz/tree/v7.2.17/core/src/main/scala/scalaz/InvariantFunctor.scala" xlink:title="scalaz.InvariantFunctor" target="_blank">
<polygon fill="#799f5a" stroke="black" points="133.5,-0.5 133.5,-29.5 218.5,-29.5 218.5,-0.5 133.5,-0.5"/>
<text text-anchor="middle" x="176" y="-12.5" font-family="Times,serif" font-size="10.00">InvariantFunctor</text>
</a>
</g>
</g>
<!-- scalaz.Contravariant&#45;&gt;scalaz.InvariantFunctor -->
<g id="edge16" class="edge"><title>scalaz.Contravariant&#45;&gt;scalaz.InvariantFunctor</title>
<path fill="none" stroke="black" d="M126.361,-66.4272C134.797,-57.8572 145.866,-46.6123 155.41,-36.9164"/>
<polygon fill="black" stroke="black" points="158.138,-39.1351 162.659,-29.5532 153.149,-34.2244 158.138,-39.1351"/>
</g>
<!-- scalaz.Distributive -->
<g id="node11" class="node"><title>scalaz.Distributive</title>
<g id="a_node11"><a xlink:href="https://github.com/scalaz/scalaz/tree/v7.2.17/core/src/main/scala/scalaz/Distributive.scala" xlink:title="scalaz.Distributive" target="_blank">
<polygon fill="#799f5a" stroke="black" points="313,-132.5 313,-161.5 379,-161.5 379,-132.5 313,-132.5"/>
<text text-anchor="middle" x="346" y="-144.5" font-family="Times,serif" font-size="10.00">Distributive</text>
</a>
</g>
</g>
<!-- scalaz.Distributive&#45;&gt;scalaz.Functor -->
<g id="edge32" class="edge"><title>scalaz.Distributive&#45;&gt;scalaz.Functor</title>
<path fill="none" stroke="black" d="M323.308,-132.427C307.987,-123.263 287.553,-111.041 270.639,-100.924"/>
<polygon fill="black" stroke="black" points="272.038,-97.6827 261.659,-95.5532 268.445,-103.69 272.038,-97.6827"/>
</g>
<!-- scalaz.Divide -->
<g id="node12" class="node"><title>scalaz.Divide</title>
<g id="a_node12"><a xlink:href="https://github.com/scalaz/scalaz/tree/v7.2.17/core/src/main/scala/scalaz/Divide.scala" xlink:title="scalaz.Divide" target="_blank">
<polygon fill="#799f5a" stroke="black" points="11.5,-132.5 11.5,-161.5 56.5,-161.5 56.5,-132.5 11.5,-132.5"/>
<text text-anchor="middle" x="34" y="-144.5" font-family="Times,serif" font-size="10.00">Divide</text>
</a>
</g>
</g>
<!-- scalaz.Divide&#45;&gt;scalaz.Contravariant -->
<g id="edge17" class="edge"><title>scalaz.Divide&#45;&gt;scalaz.Contravariant</title>
<path fill="none" stroke="black" d="M50.7539,-132.427C61.6467,-123.603 76.0404,-111.942 88.2426,-102.057"/>
<polygon fill="black" stroke="black" points="90.7033,-104.568 96.2703,-95.5532 86.2969,-99.1285 90.7033,-104.568"/>
</g>
<!-- scalaz.Divisible -->
<g id="node13" class="node"><title>scalaz.Divisible</title>
<g id="a_node13"><a xlink:href="https://github.com/scalaz/scalaz/tree/v7.2.17/core/src/main/scala/scalaz/Divisible.scala" xlink:title="scalaz.Divisible" target="_blank">
<polygon fill="#799f5a" stroke="black" points="6.5,-198.5 6.5,-227.5 61.5,-227.5 61.5,-198.5 6.5,-198.5"/>
<text text-anchor="middle" x="34" y="-210.5" font-family="Times,serif" font-size="10.00">Divisible</text>
</a>
</g>
</g>
<!-- scalaz.Divisible&#45;&gt;scalaz.Divide -->
<g id="edge29" class="edge"><title>scalaz.Divisible&#45;&gt;scalaz.Divide</title>
<path fill="none" stroke="black" d="M34,-198.427C34,-190.706 34,-180.813 34,-171.838"/>
<polygon fill="black" stroke="black" points="37.5001,-171.553 34,-161.553 30.5001,-171.553 37.5001,-171.553"/>
</g>
<!-- scalaz.Foldable -->
<g id="node14" class="node"><title>scalaz.Foldable</title>
<g id="a_node14"><a xlink:href="https://github.com/scalaz/scalaz/tree/v7.2.17/core/src/main/scala/scalaz/Foldable.scala" xlink:title="scalaz.Foldable" target="_blank">
<polygon fill="#799f5a" stroke="black" points="432.5,-66.5 432.5,-95.5 485.5,-95.5 485.5,-66.5 432.5,-66.5"/>
<text text-anchor="middle" x="459" y="-78.5" font-family="Times,serif" font-size="10.00">Foldable</text>
</a>
</g>
</g>
<!-- scalaz.Foldable1 -->
<g id="node15" class="node"><title>scalaz.Foldable1</title>
<g id="a_node15"><a xlink:href="https://github.com/scalaz/scalaz/tree/v7.2.17/core/src/main/scala/scalaz/Foldable1.scala" xlink:title="scalaz.Foldable1" target="_blank">
<polygon fill="#799f5a" stroke="black" points="467,-132.5 467,-161.5 525,-161.5 525,-132.5 467,-132.5"/>
<text text-anchor="middle" x="496" y="-144.5" font-family="Times,serif" font-size="10.00">Foldable1</text>
</a>
</g>
</g>
<!-- scalaz.Foldable1&#45;&gt;scalaz.Foldable -->
<g id="edge12" class="edge"><title>scalaz.Foldable1&#45;&gt;scalaz.Foldable</title>
<path fill="none" stroke="black" d="M488.153,-132.427C483.444,-124.281 477.338,-113.719 471.931,-104.367"/>
<polygon fill="black" stroke="black" points="474.871,-102.459 466.835,-95.5532 468.81,-105.962 474.871,-102.459"/>
</g>
<!-- scalaz.Functor&#45;&gt;scalaz.InvariantFunctor -->
<g id="edge2" class="edge"><title>scalaz.Functor&#45;&gt;scalaz.InvariantFunctor</title>
<path fill="none" stroke="black" d="M225.639,-66.4272C217.203,-57.8572 206.134,-46.6123 196.59,-36.9164"/>
<polygon fill="black" stroke="black" points="198.851,-34.2244 189.341,-29.5532 193.862,-39.1351 198.851,-34.2244"/>
</g>
<!-- scalaz.IsEmpty -->
<g id="node18" class="node"><title>scalaz.IsEmpty</title>
<g id="a_node18"><a xlink:href="https://github.com/scalaz/scalaz/tree/v7.2.17/core/src/main/scala/scalaz/IsEmpty.scala" xlink:title="scalaz.IsEmpty" target="_blank">
<polygon fill="#799f5a" stroke="black" points="9,-264.5 9,-293.5 59,-293.5 59,-264.5 9,-264.5"/>
<text text-anchor="middle" x="34" y="-276.5" font-family="Times,serif" font-size="10.00">IsEmpty</text>
</a>
</g>
</g>
<!-- scalaz.IsEmpty&#45;&gt;scalaz.PlusEmpty -->
<g id="edge23" class="edge"><title>scalaz.IsEmpty&#45;&gt;scalaz.PlusEmpty</title>
<path fill="none" stroke="black" d="M52.0263,-264.427C63.8591,-255.518 79.5315,-243.717 92.7404,-233.772"/>
<polygon fill="black" stroke="black" points="95.1162,-236.364 101,-227.553 90.9057,-230.772 95.1162,-236.364"/>
</g>
<!-- scalaz.Monad -->
<g id="node19" class="node"><title>scalaz.Monad</title>
<g id="a_node19"><a xlink:href="https://github.com/scalaz/scalaz/tree/v7.2.17/core/src/main/scala/scalaz/Monad.scala" xlink:title="scalaz.Monad" target="_blank">
<polygon fill="#799f5a" stroke="black" points="179,-264.5 179,-293.5 225,-293.5 225,-264.5 179,-264.5"/>
<text text-anchor="middle" x="202" y="-276.5" font-family="Times,serif" font-size="10.00">Monad</text>
</a>
</g>
</g>
<!-- scalaz.Monad&#45;&gt;scalaz.Applicative -->
<g id="edge8" class="edge"><title>scalaz.Monad&#45;&gt;scalaz.Applicative</title>
<path fill="none" stroke="black" d="M201.576,-264.427C201.335,-256.706 201.025,-246.813 200.745,-237.838"/>
<polygon fill="black" stroke="black" points="204.234,-237.439 200.424,-227.553 197.238,-237.658 204.234,-237.439"/>
</g>
<!-- scalaz.Monad&#45;&gt;scalaz.Bind -->
<g id="edge9" class="edge"><title>scalaz.Monad&#45;&gt;scalaz.Bind</title>
<path fill="none" stroke="black" d="M216.209,-264.427C225.27,-255.772 237.186,-244.389 247.404,-234.629"/>
<polygon fill="black" stroke="black" points="249.998,-236.991 254.812,-227.553 245.163,-231.93 249.998,-236.991"/>
</g>
<!-- scalaz.MonadError -->
<g id="node20" class="node"><title>scalaz.MonadError</title>
<g id="a_node20"><a xlink:href="https://github.com/scalaz/scalaz/tree/v7.2.17/core/src/main/scala/scalaz/MonadError.scala" xlink:title="scalaz.MonadError" target="_blank">
<polygon fill="#799f5a" stroke="black" points="81,-330.5 81,-359.5 147,-359.5 147,-330.5 81,-330.5"/>
<text text-anchor="middle" x="114" y="-342.5" font-family="Times,serif" font-size="10.00">MonadError</text>
</a>
</g>
</g>
<!-- scalaz.MonadError&#45;&gt;scalaz.Monad -->
<g id="edge26" class="edge"><title>scalaz.MonadError&#45;&gt;scalaz.Monad</title>
<path fill="none" stroke="black" d="M132.663,-330.427C145.03,-321.433 161.448,-309.492 175.204,-299.488"/>
<polygon fill="black" stroke="black" points="177.336,-302.266 183.364,-293.553 173.218,-296.604 177.336,-302.266"/>
</g>
<!-- scalaz.MonadListen -->
<g id="node21" class="node"><title>scalaz.MonadListen</title>
<g id="a_node21"><a xlink:href="https://github.com/scalaz/scalaz/tree/v7.2.17/core/src/main/scala/scalaz/MonadListen.scala" xlink:title="scalaz.MonadListen" target="_blank">
<polygon fill="#799f5a" stroke="black" points="336.5,-396.5 336.5,-425.5 407.5,-425.5 407.5,-396.5 336.5,-396.5"/>
<text text-anchor="middle" x="372" y="-408.5" font-family="Times,serif" font-size="10.00">MonadListen</text>
</a>
</g>
</g>
<!-- scalaz.MonadTell -->
<g id="node25" class="node"><title>scalaz.MonadTell</title>
<g id="a_node25"><a xlink:href="https://github.com/scalaz/scalaz/tree/v7.2.17/core/src/main/scala/scalaz/MonadTell.scala" xlink:title="scalaz.MonadTell" target="_blank">
<polygon fill="#799f5a" stroke="black" points="341,-330.5 341,-359.5 403,-359.5 403,-330.5 341,-330.5"/>
<text text-anchor="middle" x="372" y="-342.5" font-family="Times,serif" font-size="10.00">MonadTell</text>
</a>
</g>
</g>
<!-- scalaz.MonadListen&#45;&gt;scalaz.MonadTell -->
<g id="edge27" class="edge"><title>scalaz.MonadListen&#45;&gt;scalaz.MonadTell</title>
<path fill="none" stroke="black" d="M372,-396.427C372,-388.706 372,-378.813 372,-369.838"/>
<polygon fill="black" stroke="black" points="375.5,-369.553 372,-359.553 368.5,-369.553 375.5,-369.553"/>
</g>
<!-- scalaz.MonadPlus -->
<g id="node22" class="node"><title>scalaz.MonadPlus</title>
<g id="a_node22"><a xlink:href="https://github.com/scalaz/scalaz/tree/v7.2.17/core/src/main/scala/scalaz/MonadPlus.scala" xlink:title="scalaz.MonadPlus" target="_blank">
<polygon fill="#799f5a" stroke="black" points="-0.5,-330.5 -0.5,-359.5 62.5,-359.5 62.5,-330.5 -0.5,-330.5"/>
<text text-anchor="middle" x="31" y="-342.5" font-family="Times,serif" font-size="10.00">MonadPlus</text>
</a>
</g>
</g>
<!-- scalaz.MonadPlus&#45;&gt;scalaz.ApplicativePlus -->
<g id="edge19" class="edge"><title>scalaz.MonadPlus&#45;&gt;scalaz.ApplicativePlus</title>
<path fill="none" stroke="black" d="M49.6625,-330.427C62.0297,-321.433 78.4479,-309.492 92.2036,-299.488"/>
<polygon fill="black" stroke="black" points="94.3356,-302.266 100.364,-293.553 90.2184,-296.604 94.3356,-302.266"/>
</g>
<!-- scalaz.MonadPlus&#45;&gt;scalaz.Monad -->
<g id="edge18" class="edge"><title>scalaz.MonadPlus&#45;&gt;scalaz.Monad</title>
<path fill="none" stroke="black" d="M62.6955,-333.059C90.7834,-323.235 132.832,-308.213 169,-294 169.203,-293.92 169.406,-293.84 169.61,-293.76"/>
<polygon fill="black" stroke="black" points="171.039,-296.957 178.986,-289.949 168.404,-290.472 171.039,-296.957"/>
</g>
<!-- scalaz.MonadReader -->
<g id="node23" class="node"><title>scalaz.MonadReader</title>
<g id="a_node23"><a xlink:href="https://github.com/scalaz/scalaz/tree/v7.2.17/core/src/main/scala/scalaz/MonadReader.scala" xlink:title="scalaz.MonadReader" target="_blank">
<polygon fill="#799f5a" stroke="black" points="165,-330.5 165,-359.5 239,-359.5 239,-330.5 165,-330.5"/>
<text text-anchor="middle" x="202" y="-342.5" font-family="Times,serif" font-size="10.00">MonadReader</text>
</a>
</g>
</g>
<!-- scalaz.MonadReader&#45;&gt;scalaz.Monad -->
<g id="edge24" class="edge"><title>scalaz.MonadReader&#45;&gt;scalaz.Monad</title>
<path fill="none" stroke="black" d="M202,-330.427C202,-322.706 202,-312.813 202,-303.838"/>
<polygon fill="black" stroke="black" points="205.5,-303.553 202,-293.553 198.5,-303.553 205.5,-303.553"/>
</g>
<!-- scalaz.MonadState -->
<g id="node24" class="node"><title>scalaz.MonadState</title>
<g id="a_node24"><a xlink:href="https://github.com/scalaz/scalaz/tree/v7.2.17/core/src/main/scala/scalaz/MonadState.scala" xlink:title="scalaz.MonadState" target="_blank">
<polygon fill="#799f5a" stroke="black" points="257,-330.5 257,-359.5 323,-359.5 323,-330.5 257,-330.5"/>
<text text-anchor="middle" x="290" y="-342.5" font-family="Times,serif" font-size="10.00">MonadState</text>
</a>
</g>
</g>
<!-- scalaz.MonadState&#45;&gt;scalaz.Monad -->
<g id="edge25" class="edge"><title>scalaz.MonadState&#45;&gt;scalaz.Monad</title>
<path fill="none" stroke="black" d="M271.337,-330.427C258.97,-321.433 242.552,-309.492 228.796,-299.488"/>
<polygon fill="black" stroke="black" points="230.782,-296.604 220.636,-293.553 226.664,-302.266 230.782,-296.604"/>
</g>
<!-- scalaz.MonadTell&#45;&gt;scalaz.Monad -->
<g id="edge15" class="edge"><title>scalaz.MonadTell&#45;&gt;scalaz.Monad</title>
<path fill="none" stroke="black" d="M340.724,-332.934C309.945,-322.001 264.275,-305.657 234.71,-294.131"/>
<polygon fill="black" stroke="black" points="235.931,-290.85 225.345,-290.422 233.353,-297.358 235.931,-290.85"/>
</g>
<!-- scalaz.Nondeterminism -->
<g id="node26" class="node"><title>scalaz.Nondeterminism</title>
<g id="a_node26"><a xlink:href="https://github.com/scalaz/scalaz/tree/v7.2.17/core/src/main/scala/scalaz/Nondeterminism.scala" xlink:title="scalaz.Nondeterminism" target="_blank">
<polygon fill="#799f5a" stroke="black" points="421.5,-330.5 421.5,-359.5 506.5,-359.5 506.5,-330.5 421.5,-330.5"/>
<text text-anchor="middle" x="464" y="-342.5" font-family="Times,serif" font-size="10.00">Nondeterminism</text>
</a>
</g>
</g>
<!-- scalaz.Nondeterminism&#45;&gt;scalaz.Monad -->
<g id="edge28" class="edge"><title>scalaz.Nondeterminism&#45;&gt;scalaz.Monad</title>
<path fill="none" stroke="black" d="M421.241,-332.479C417.782,-331.616 414.336,-330.779 411,-330 335.88,-312.455 312.362,-317.755 234.918,-293.888"/>
<polygon fill="black" stroke="black" points="235.789,-290.493 225.199,-290.829 233.687,-297.17 235.789,-290.493"/>
</g>
<!-- scalaz.Plus -->
<g id="node27" class="node"><title>scalaz.Plus</title>
<g id="a_node27"><a xlink:href="https://github.com/scalaz/scalaz/tree/v7.2.17/core/src/main/scala/scalaz/Plus.scala" xlink:title="scalaz.Plus" target="_blank">
<polygon fill="#799f5a" stroke="black" points="134,-132.5 134,-161.5 168,-161.5 168,-132.5 134,-132.5"/>
<text text-anchor="middle" x="151" y="-144.5" font-family="Times,serif" font-size="10.00">Plus</text>
</a>
</g>
</g>
<!-- scalaz.PlusEmpty&#45;&gt;scalaz.Plus -->
<g id="edge4" class="edge"><title>scalaz.PlusEmpty&#45;&gt;scalaz.Plus</title>
<path fill="none" stroke="black" d="M125.786,-198.427C129.817,-190.366 135.031,-179.939 139.67,-170.66"/>
<polygon fill="black" stroke="black" points="142.882,-172.063 144.223,-161.553 136.621,-168.932 142.882,-172.063"/>
</g>
<!-- scalaz.Traverse -->
<g id="node29" class="node"><title>scalaz.Traverse</title>
<g id="a_node29"><a xlink:href="https://github.com/scalaz/scalaz/tree/v7.2.17/core/src/main/scala/scalaz/Traverse.scala" xlink:title="scalaz.Traverse" target="_blank">
<polygon fill="#799f5a" stroke="black" points="397.5,-132.5 397.5,-161.5 448.5,-161.5 448.5,-132.5 397.5,-132.5"/>
<text text-anchor="middle" x="423" y="-144.5" font-family="Times,serif" font-size="10.00">Traverse</text>
</a>
</g>
</g>
<!-- scalaz.Traverse&#45;&gt;scalaz.Foldable -->
<g id="edge14" class="edge"><title>scalaz.Traverse&#45;&gt;scalaz.Foldable</title>
<path fill="none" stroke="black" d="M430.635,-132.427C435.217,-124.281 441.158,-113.719 446.418,-104.367"/>
<polygon fill="black" stroke="black" points="449.524,-105.985 451.376,-95.5532 443.423,-102.553 449.524,-105.985"/>
</g>
<!-- scalaz.Traverse&#45;&gt;scalaz.Functor -->
<g id="edge13" class="edge"><title>scalaz.Traverse&#45;&gt;scalaz.Functor</title>
<path fill="none" stroke="black" d="M397.45,-135.586C394.278,-134.35 391.071,-133.129 388,-132 348.768,-117.584 303.137,-102.518 272.812,-92.7412"/>
<polygon fill="black" stroke="black" points="273.738,-89.3623 263.146,-89.637 271.597,-96.0271 273.738,-89.3623"/>
</g>
<!-- scalaz.Traverse1 -->
<g id="node30" class="node"><title>scalaz.Traverse1</title>
<g id="a_node30"><a xlink:href="https://github.com/scalaz/scalaz/tree/v7.2.17/core/src/main/scala/scalaz/Traverse1.scala" xlink:title="scalaz.Traverse1" target="_blank">
<polygon fill="#799f5a" stroke="black" points="431,-198.5 431,-227.5 487,-227.5 487,-198.5 431,-198.5"/>
<text text-anchor="middle" x="459" y="-210.5" font-family="Times,serif" font-size="10.00">Traverse1</text>
</a>
</g>
</g>
<!-- scalaz.Traverse1&#45;&gt;scalaz.Foldable1 -->
<g id="edge22" class="edge"><title>scalaz.Traverse1&#45;&gt;scalaz.Foldable1</title>
<path fill="none" stroke="black" d="M466.847,-198.427C471.556,-190.281 477.662,-179.719 483.069,-170.367"/>
<polygon fill="black" stroke="black" points="486.19,-171.962 488.165,-161.553 480.129,-168.459 486.19,-171.962"/>
</g>
<!-- scalaz.Traverse1&#45;&gt;scalaz.Traverse -->
<g id="edge21" class="edge"><title>scalaz.Traverse1&#45;&gt;scalaz.Traverse</title>
<path fill="none" stroke="black" d="M451.365,-198.427C446.783,-190.281 440.842,-179.719 435.582,-170.367"/>
<polygon fill="black" stroke="black" points="438.577,-168.553 430.624,-161.553 432.476,-171.985 438.577,-168.553"/>
</g>
</g>
</svg>

