<?xml version="1.0" encoding="UTF-8" standalone="no"?>
<!DOCTYPE svg PUBLIC "-//W3C//DTD SVG 1.1//EN"
 "http://www.w3.org/Graphics/SVG/1.1/DTD/svg11.dtd">
<!-- Generated by graphviz version 2.40.1 (20161225.0304)
 -->
<!-- Title: scalaz 7.3.2 diagram Pages: 1 -->
<svg width="669pt" height="434pt"
 viewBox="0.00 0.00 669.00 434.00" xmlns="http://www.w3.org/2000/svg" xmlns:xlink="http://www.w3.org/1999/xlink">
<g id="graph0" class="graph" transform="scale(1 1) rotate(0) translate(4 430)">
<title>scalaz 7.3.2 diagram</title>
<polygon fill="#ffffff" stroke="transparent" points="-4,4 -4,-430 665,-430 665,4 -4,4"/>
<!-- scalaz.Align -->
<g id="node1" class="node">
<title>scalaz.Align</title>
<g id="a_node1"><a xlink:href="https://github.com/scalaz/scalaz/tree/v7.3.2/core/src/main/scala/scalaz/Align.scala" xlink:title="scalaz.Align" target="_blank">
<polygon fill="#799f5a" stroke="#000000" points="210.5,-132.5 210.5,-161.5 251.5,-161.5 251.5,-132.5 210.5,-132.5"/>
<text text-anchor="middle" x="231" y="-144.5" font-family="Times,serif" font-size="10.00" fill="#000000">Align</text>
</a>
</g>
</g>
<!-- scalaz.Functor -->
<g id="node17" class="node">
<title>scalaz.Functor</title>
<g id="a_node17"><a xlink:href="https://github.com/scalaz/scalaz/tree/v7.3.2/core/src/main/scala/scalaz/Functor.scala" xlink:title="scalaz.Functor" target="_blank">
<polygon fill="#799f5a" stroke="#000000" points="325,-66.5 325,-95.5 373,-95.5 373,-66.5 325,-66.5"/>
<text text-anchor="middle" x="349" y="-78.5" font-family="Times,serif" font-size="10.00" fill="#000000">Functor</text>
</a>
</g>
</g>
<!-- scalaz.Align&#45;&gt;scalaz.Functor -->
<g id="edge36" class="edge">
<title>scalaz.Align&#45;&gt;scalaz.Functor</title>
<path fill="none" stroke="#000000" d="M251.554,-135.5037C269.2699,-125.5948 295.177,-111.1044 315.826,-99.555"/>
<polygon fill="#000000" stroke="#000000" points="317.585,-102.5815 324.604,-94.6452 314.1679,-96.4721 317.585,-102.5815"/>
</g>
<!-- scalaz.Applicative -->
<g id="node2" class="node">
<title>scalaz.Applicative</title>
<g id="a_node2"><a xlink:href="https://github.com/scalaz/scalaz/tree/v7.3.2/core/src/main/scala/scalaz/Applicative.scala" xlink:title="scalaz.Applicative" target="_blank">
<polygon fill="#799f5a" stroke="#000000" points="218.5,-198.5 218.5,-227.5 283.5,-227.5 283.5,-198.5 218.5,-198.5"/>
<text text-anchor="middle" x="251" y="-210.5" font-family="Times,serif" font-size="10.00" fill="#000000">Applicative</text>
</a>
</g>
</g>
<!-- scalaz.Apply -->
<g id="node5" class="node">
<title>scalaz.Apply</title>
<g id="a_node5"><a xlink:href="https://github.com/scalaz/scalaz/tree/v7.3.2/core/src/main/scala/scalaz/Apply.scala" xlink:title="scalaz.Apply" target="_blank">
<polygon fill="#799f5a" stroke="#000000" points="269.5,-132.5 269.5,-161.5 312.5,-161.5 312.5,-132.5 269.5,-132.5"/>
<text text-anchor="middle" x="291" y="-144.5" font-family="Times,serif" font-size="10.00" fill="#000000">Apply</text>
</a>
</g>
</g>
<!-- scalaz.Applicative&#45;&gt;scalaz.Apply -->
<g id="edge2" class="edge">
<title>scalaz.Applicative&#45;&gt;scalaz.Apply</title>
<path fill="none" stroke="#000000" d="M259.8773,-198.3525C264.8488,-190.1495 271.1648,-179.7281 276.806,-170.4201"/>
<polygon fill="#000000" stroke="#000000" points="279.9577,-171.9727 282.1475,-161.6066 273.9713,-168.3445 279.9577,-171.9727"/>
</g>
<!-- scalaz.InvariantApplicative -->
<g id="node18" class="node">
<title>scalaz.InvariantApplicative</title>
<g id="a_node18"><a xlink:href="https://github.com/scalaz/scalaz/tree/v7.3.2/core/src/main/scala/scalaz/InvariantApplicative.scala" xlink:title="scalaz.InvariantApplicative" target="_blank">
<polygon fill="#799f5a" stroke="#000000" points="90,-132.5 90,-161.5 192,-161.5 192,-132.5 90,-132.5"/>
<text text-anchor="middle" x="141" y="-144.5" font-family="Times,serif" font-size="10.00" fill="#000000">InvariantApplicative</text>
</a>
</g>
</g>
<!-- scalaz.Applicative&#45;&gt;scalaz.InvariantApplicative -->
<g id="edge3" class="edge">
<title>scalaz.Applicative&#45;&gt;scalaz.InvariantApplicative</title>
<path fill="none" stroke="#000000" d="M226.5874,-198.3525C211.2068,-189.1241 191.1469,-177.0881 174.3138,-166.9883"/>
<polygon fill="#000000" stroke="#000000" points="175.72,-163.7504 165.3443,-161.6066 172.1185,-169.7528 175.72,-163.7504"/>
</g>
<!-- scalaz.ApplicativeError -->
<g id="node3" class="node">
<title>scalaz.ApplicativeError</title>
<g id="a_node3"><a xlink:href="https://github.com/scalaz/scalaz/tree/v7.3.2/core/src/main/scala/scalaz/ApplicativeError.scala" xlink:title="scalaz.ApplicativeError" target="_blank">
<polygon fill="#799f5a" stroke="#000000" points="123,-264.5 123,-293.5 209,-293.5 209,-264.5 123,-264.5"/>
<text text-anchor="middle" x="166" y="-276.5" font-family="Times,serif" font-size="10.00" fill="#000000">ApplicativeError</text>
</a>
</g>
</g>
<!-- scalaz.ApplicativeError&#45;&gt;scalaz.Applicative -->
<g id="edge17" class="edge">
<title>scalaz.ApplicativeError&#45;&gt;scalaz.Applicative</title>
<path fill="none" stroke="#000000" d="M184.8643,-264.3525C196.4191,-255.3804 211.3918,-243.7546 224.1679,-233.8343"/>
<polygon fill="#000000" stroke="#000000" points="226.4365,-236.5041 232.1885,-227.6066 222.1434,-230.9751 226.4365,-236.5041"/>
</g>
<!-- scalaz.ApplicativePlus -->
<g id="node4" class="node">
<title>scalaz.ApplicativePlus</title>
<g id="a_node4"><a xlink:href="https://github.com/scalaz/scalaz/tree/v7.3.2/core/src/main/scala/scalaz/ApplicativePlus.scala" xlink:title="scalaz.ApplicativePlus" target="_blank">
<polygon fill="#799f5a" stroke="#000000" points="291.5,-264.5 291.5,-293.5 374.5,-293.5 374.5,-264.5 291.5,-264.5"/>
<text text-anchor="middle" x="333" y="-276.5" font-family="Times,serif" font-size="10.00" fill="#000000">ApplicativePlus</text>
</a>
</g>
</g>
<!-- scalaz.ApplicativePlus&#45;&gt;scalaz.Applicative -->
<g id="edge6" class="edge">
<title>scalaz.ApplicativePlus&#45;&gt;scalaz.Applicative</title>
<path fill="none" stroke="#000000" d="M314.8015,-264.3525C303.7606,-255.4659 289.4851,-243.9758 277.2378,-234.1182"/>
<polygon fill="#000000" stroke="#000000" points="279.1323,-231.1502 269.1476,-227.6066 274.7432,-236.6033 279.1323,-231.1502"/>
</g>
<!-- scalaz.PlusEmpty -->
<g id="node30" class="node">
<title>scalaz.PlusEmpty</title>
<g id="a_node30"><a xlink:href="https://github.com/scalaz/scalaz/tree/v7.3.2/core/src/main/scala/scalaz/PlusEmpty.scala" xlink:title="scalaz.PlusEmpty" target="_blank">
<polygon fill="#799f5a" stroke="#000000" points="317.5,-198.5 317.5,-227.5 378.5,-227.5 378.5,-198.5 317.5,-198.5"/>
<text text-anchor="middle" x="348" y="-210.5" font-family="Times,serif" font-size="10.00" fill="#000000">PlusEmpty</text>
</a>
</g>
</g>
<!-- scalaz.ApplicativePlus&#45;&gt;scalaz.PlusEmpty -->
<g id="edge7" class="edge">
<title>scalaz.ApplicativePlus&#45;&gt;scalaz.PlusEmpty</title>
<path fill="none" stroke="#000000" d="M336.329,-264.3525C338.1156,-256.4913 340.3653,-246.5927 342.4116,-237.5892"/>
<polygon fill="#000000" stroke="#000000" points="345.877,-238.1336 344.6803,-227.6066 339.0511,-236.5822 345.877,-238.1336"/>
</g>
<!-- scalaz.Apply&#45;&gt;scalaz.Functor -->
<g id="edge5" class="edge">
<title>scalaz.Apply&#45;&gt;scalaz.Functor</title>
<path fill="none" stroke="#000000" d="M303.8721,-132.3525C311.3811,-123.8077 321.0055,-112.8558 329.4359,-103.2626"/>
<polygon fill="#000000" stroke="#000000" points="332.1918,-105.4287 336.1639,-95.6066 326.9336,-100.8079 332.1918,-105.4287"/>
</g>
<!-- scalaz.Bind -->
<g id="node6" class="node">
<title>scalaz.Bind</title>
<g id="a_node6"><a xlink:href="https://github.com/scalaz/scalaz/tree/v7.3.2/core/src/main/scala/scalaz/Bind.scala" xlink:title="scalaz.Bind" target="_blank">
<polygon fill="#799f5a" stroke="#000000" points="163.5,-198.5 163.5,-227.5 200.5,-227.5 200.5,-198.5 163.5,-198.5"/>
<text text-anchor="middle" x="182" y="-210.5" font-family="Times,serif" font-size="10.00" fill="#000000">Bind</text>
</a>
</g>
</g>
<!-- scalaz.Bind&#45;&gt;scalaz.Apply -->
<g id="edge1" class="edge">
<title>scalaz.Bind&#45;&gt;scalaz.Apply</title>
<path fill="none" stroke="#000000" d="M200.9864,-201.5037C217.4149,-191.5561 241.469,-176.9912 260.5793,-165.4199"/>
<polygon fill="#000000" stroke="#000000" points="262.4956,-168.3512 269.2369,-160.1777 258.8699,-162.3633 262.4956,-168.3512"/>
</g>
<!-- scalaz.BindRec -->
<g id="node7" class="node">
<title>scalaz.BindRec</title>
<g id="a_node7"><a xlink:href="https://github.com/scalaz/scalaz/tree/v7.3.2/core/src/main/scala/scalaz/BindRec.scala" xlink:title="scalaz.BindRec" target="_blank">
<polygon fill="#799f5a" stroke="#000000" points="51.5,-264.5 51.5,-293.5 104.5,-293.5 104.5,-264.5 51.5,-264.5"/>
<text text-anchor="middle" x="78" y="-276.5" font-family="Times,serif" font-size="10.00" fill="#000000">BindRec</text>
</a>
</g>
</g>
<!-- scalaz.BindRec&#45;&gt;scalaz.Bind -->
<g id="edge35" class="edge">
<title>scalaz.BindRec&#45;&gt;scalaz.Bind</title>
<path fill="none" stroke="#000000" d="M101.081,-264.3525C116.9354,-254.291 138.0489,-240.8921 154.7335,-230.3037"/>
<polygon fill="#000000" stroke="#000000" points="156.9177,-233.063 163.4856,-224.7495 153.1668,-227.1527 156.9177,-233.063"/>
</g>
<!-- scalaz.Cobind -->
<g id="node8" class="node">
<title>scalaz.Cobind</title>
<g id="a_node8"><a xlink:href="https://github.com/scalaz/scalaz/tree/v7.3.2/core/src/main/scala/scalaz/Cobind.scala" xlink:title="scalaz.Cobind" target="_blank">
<polygon fill="#799f5a" stroke="#000000" points="383.5,-132.5 383.5,-161.5 430.5,-161.5 430.5,-132.5 383.5,-132.5"/>
<text text-anchor="middle" x="407" y="-144.5" font-family="Times,serif" font-size="10.00" fill="#000000">Cobind</text>
</a>
</g>
</g>
<!-- scalaz.Cobind&#45;&gt;scalaz.Functor -->
<g id="edge12" class="edge">
<title>scalaz.Cobind&#45;&gt;scalaz.Functor</title>
<path fill="none" stroke="#000000" d="M394.1279,-132.3525C386.6189,-123.8077 376.9945,-112.8558 368.5641,-103.2626"/>
<polygon fill="#000000" stroke="#000000" points="371.0664,-100.8079 361.8361,-95.6066 365.8082,-105.4287 371.0664,-100.8079"/>
</g>
<!-- scalaz.Comonad -->
<g id="node9" class="node">
<title>scalaz.Comonad</title>
<g id="a_node9"><a xlink:href="https://github.com/scalaz/scalaz/tree/v7.3.2/core/src/main/scala/scalaz/Comonad.scala" xlink:title="scalaz.Comonad" target="_blank">
<polygon fill="#799f5a" stroke="#000000" points="457,-198.5 457,-227.5 513,-227.5 513,-198.5 457,-198.5"/>
<text text-anchor="middle" x="485" y="-210.5" font-family="Times,serif" font-size="10.00" fill="#000000">Comonad</text>
</a>
</g>
</g>
<!-- scalaz.Comonad&#45;&gt;scalaz.Cobind -->
<g id="edge13" class="edge">
<title>scalaz.Comonad&#45;&gt;scalaz.Cobind</title>
<path fill="none" stroke="#000000" d="M467.6893,-198.3525C457.187,-189.4659 443.6078,-177.9758 431.9579,-168.1182"/>
<polygon fill="#000000" stroke="#000000" points="434.157,-165.3942 424.2623,-161.6066 429.6354,-170.7379 434.157,-165.3942"/>
</g>
<!-- scalaz.ComonadStore -->
<g id="node10" class="node">
<title>scalaz.ComonadStore</title>
<g id="a_node10"><a xlink:href="https://github.com/scalaz/scalaz/tree/v7.3.2/core/src/main/scala/scalaz/ComonadStore.scala" xlink:title="scalaz.ComonadStore" target="_blank">
<polygon fill="#799f5a" stroke="#000000" points="461.5,-264.5 461.5,-293.5 538.5,-293.5 538.5,-264.5 461.5,-264.5"/>
<text text-anchor="middle" x="500" y="-276.5" font-family="Times,serif" font-size="10.00" fill="#000000">ComonadStore</text>
</a>
</g>
</g>
<!-- scalaz.ComonadStore&#45;&gt;scalaz.Comonad -->
<g id="edge23" class="edge">
<title>scalaz.ComonadStore&#45;&gt;scalaz.Comonad</title>
<path fill="none" stroke="#000000" d="M496.671,-264.3525C494.8844,-256.4913 492.6347,-246.5927 490.5884,-237.5892"/>
<polygon fill="#000000" stroke="#000000" points="493.9489,-236.5822 488.3197,-227.6066 487.123,-238.1336 493.9489,-236.5822"/>
</g>
<!-- scalaz.Contravariant -->
<g id="node11" class="node">
<title>scalaz.Contravariant</title>
<g id="a_node11"><a xlink:href="https://github.com/scalaz/scalaz/tree/v7.3.2/core/src/main/scala/scalaz/Contravariant.scala" xlink:title="scalaz.Contravariant" target="_blank">
<polygon fill="#799f5a" stroke="#000000" points="26.5,-66.5 26.5,-95.5 99.5,-95.5 99.5,-66.5 26.5,-66.5"/>
<text text-anchor="middle" x="63" y="-78.5" font-family="Times,serif" font-size="10.00" fill="#000000">Contravariant</text>
</a>
</g>
</g>
<!-- scalaz.InvariantFunctor -->
<g id="node19" class="node">
<title>scalaz.InvariantFunctor</title>
<g id="a_node19"><a xlink:href="https://github.com/scalaz/scalaz/tree/v7.3.2/core/src/main/scala/scalaz/InvariantFunctor.scala" xlink:title="scalaz.InvariantFunctor" target="_blank">
<polygon fill="#799f5a" stroke="#000000" points="98.5,-.5 98.5,-29.5 183.5,-29.5 183.5,-.5 98.5,-.5"/>
<text text-anchor="middle" x="141" y="-12.5" font-family="Times,serif" font-size="10.00" fill="#000000">InvariantFunctor</text>
</a>
</g>
</g>
<!-- scalaz.Contravariant&#45;&gt;scalaz.InvariantFunctor -->
<g id="edge20" class="edge">
<title>scalaz.Contravariant&#45;&gt;scalaz.InvariantFunctor</title>
<path fill="none" stroke="#000000" d="M80.3107,-66.3525C90.813,-57.4659 104.3922,-45.9758 116.0421,-36.1182"/>
<polygon fill="#000000" stroke="#000000" points="118.3646,-38.7379 123.7377,-29.6066 113.843,-33.3942 118.3646,-38.7379"/>
</g>
<!-- scalaz.Distributive -->
<g id="node12" class="node">
<title>scalaz.Distributive</title>
<g id="a_node12"><a xlink:href="https://github.com/scalaz/scalaz/tree/v7.3.2/core/src/main/scala/scalaz/Distributive.scala" xlink:title="scalaz.Distributive" target="_blank">
<polygon fill="#799f5a" stroke="#000000" points="449,-132.5 449,-161.5 515,-161.5 515,-132.5 449,-132.5"/>
<text text-anchor="middle" x="482" y="-144.5" font-family="Times,serif" font-size="10.00" fill="#000000">Distributive</text>
</a>
</g>
</g>
<!-- scalaz.Distributive&#45;&gt;scalaz.Functor -->
<g id="edge37" class="edge">
<title>scalaz.Distributive&#45;&gt;scalaz.Functor</title>
<path fill="none" stroke="#000000" d="M452.483,-132.3525C431.6838,-122.0311 403.8073,-108.1976 382.2277,-97.4889"/>
<polygon fill="#000000" stroke="#000000" points="383.6181,-94.2717 373.1046,-92.9617 380.5064,-100.5421 383.6181,-94.2717"/>
</g>
<!-- scalaz.Divide -->
<g id="node13" class="node">
<title>scalaz.Divide</title>
<g id="a_node13"><a xlink:href="https://github.com/scalaz/scalaz/tree/v7.3.2/core/src/main/scala/scalaz/Divide.scala" xlink:title="scalaz.Divide" target="_blank">
<polygon fill="#799f5a" stroke="#000000" points="26.5,-132.5 26.5,-161.5 71.5,-161.5 71.5,-132.5 26.5,-132.5"/>
<text text-anchor="middle" x="49" y="-144.5" font-family="Times,serif" font-size="10.00" fill="#000000">Divide</text>
</a>
</g>
</g>
<!-- scalaz.Divide&#45;&gt;scalaz.Contravariant -->
<g id="edge19" class="edge">
<title>scalaz.Divide&#45;&gt;scalaz.Contravariant</title>
<path fill="none" stroke="#000000" d="M52.1071,-132.3525C53.7746,-124.4913 55.8743,-114.5927 57.7841,-105.5892"/>
<polygon fill="#000000" stroke="#000000" points="61.2503,-106.1152 59.9016,-95.6066 54.4027,-104.6626 61.2503,-106.1152"/>
</g>
<!-- scalaz.Divisible -->
<g id="node14" class="node">
<title>scalaz.Divisible</title>
<g id="a_node14"><a xlink:href="https://github.com/scalaz/scalaz/tree/v7.3.2/core/src/main/scala/scalaz/Divisible.scala" xlink:title="scalaz.Divisible" target="_blank">
<polygon fill="#799f5a" stroke="#000000" points="49.5,-198.5 49.5,-227.5 104.5,-227.5 104.5,-198.5 49.5,-198.5"/>
<text text-anchor="middle" x="77" y="-210.5" font-family="Times,serif" font-size="10.00" fill="#000000">Divisible</text>
</a>
</g>
</g>
<!-- scalaz.Divisible&#45;&gt;scalaz.Divide -->
<g id="edge33" class="edge">
<title>scalaz.Divisible&#45;&gt;scalaz.Divide</title>
<path fill="none" stroke="#000000" d="M70.7859,-198.3525C67.3783,-190.3204 63.0685,-180.1614 59.1832,-171.0033"/>
<polygon fill="#000000" stroke="#000000" points="62.3243,-169.4455 55.1967,-161.6066 55.8803,-172.1794 62.3243,-169.4455"/>
</g>
<!-- scalaz.Divisible&#45;&gt;scalaz.InvariantApplicative -->
<g id="edge34" class="edge">
<title>scalaz.Divisible&#45;&gt;scalaz.InvariantApplicative</title>
<path fill="none" stroke="#000000" d="M91.2037,-198.3525C99.5724,-189.7222 110.3221,-178.6365 119.6907,-168.9753"/>
<polygon fill="#000000" stroke="#000000" points="122.3872,-171.2221 126.836,-161.6066 117.3619,-166.3491 122.3872,-171.2221"/>
</g>
<!-- scalaz.Foldable -->
<g id="node15" class="node">
<title>scalaz.Foldable</title>
<g id="a_node15"><a xlink:href="https://github.com/scalaz/scalaz/tree/v7.3.2/core/src/main/scala/scalaz/Foldable.scala" xlink:title="scalaz.Foldable" target="_blank">
<polygon fill="#799f5a" stroke="#000000" points="568.5,-66.5 568.5,-95.5 621.5,-95.5 621.5,-66.5 568.5,-66.5"/>
<text text-anchor="middle" x="595" y="-78.5" font-family="Times,serif" font-size="10.00" fill="#000000">Foldable</text>
</a>
</g>
</g>
<!-- scalaz.Foldable1 -->
<g id="node16" class="node">
<title>scalaz.Foldable1</title>
<g id="a_node16"><a xlink:href="https://github.com/scalaz/scalaz/tree/v7.3.2/core/src/main/scala/scalaz/Foldable1.scala" xlink:title="scalaz.Foldable1" target="_blank">
<polygon fill="#799f5a" stroke="#000000" points="603,-132.5 603,-161.5 661,-161.5 661,-132.5 603,-132.5"/>
<text text-anchor="middle" x="632" y="-144.5" font-family="Times,serif" font-size="10.00" fill="#000000">Foldable1</text>
</a>
</g>
</g>
<!-- scalaz.Foldable1&#45;&gt;scalaz.Foldable -->
<g id="edge14" class="edge">
<title>scalaz.Foldable1&#45;&gt;scalaz.Foldable</title>
<path fill="none" stroke="#000000" d="M623.7885,-132.3525C619.1899,-124.1495 613.3476,-113.7281 608.1294,-104.4201"/>
<polygon fill="#000000" stroke="#000000" points="611.1316,-102.6179 603.1885,-95.6066 605.0257,-106.0409 611.1316,-102.6179"/>
</g>
<!-- scalaz.Functor&#45;&gt;scalaz.InvariantFunctor -->
<g id="edge9" class="edge">
<title>scalaz.Functor&#45;&gt;scalaz.InvariantFunctor</title>
<path fill="none" stroke="#000000" d="M324.7327,-73.2998C292.7194,-63.1417 235.5161,-44.9907 193.4154,-31.6318"/>
<polygon fill="#000000" stroke="#000000" points="194.4614,-28.2918 183.8711,-28.6033 192.3442,-34.964 194.4614,-28.2918"/>
</g>
<!-- scalaz.InvariantApplicative&#45;&gt;scalaz.InvariantFunctor -->
<g id="edge4" class="edge">
<title>scalaz.InvariantApplicative&#45;&gt;scalaz.InvariantFunctor</title>
<path fill="none" stroke="#000000" d="M141,-132.3693C141,-110.0688 141,-67.2912 141,-40.0004"/>
<polygon fill="#000000" stroke="#000000" points="144.5001,-39.6962 141,-29.6962 137.5001,-39.6962 144.5001,-39.6962"/>
</g>
<!-- scalaz.IsEmpty -->
<g id="node20" class="node">
<title>scalaz.IsEmpty</title>
<g id="a_node20"><a xlink:href="https://github.com/scalaz/scalaz/tree/v7.3.2/core/src/main/scala/scalaz/IsEmpty.scala" xlink:title="scalaz.IsEmpty" target="_blank">
<polygon fill="#799f5a" stroke="#000000" points="393,-264.5 393,-293.5 443,-293.5 443,-264.5 393,-264.5"/>
<text text-anchor="middle" x="418" y="-276.5" font-family="Times,serif" font-size="10.00" fill="#000000">IsEmpty</text>
</a>
</g>
</g>
<!-- scalaz.IsEmpty&#45;&gt;scalaz.PlusEmpty -->
<g id="edge26" class="edge">
<title>scalaz.IsEmpty&#45;&gt;scalaz.PlusEmpty</title>
<path fill="none" stroke="#000000" d="M402.4647,-264.3525C393.2208,-255.6368 381.3208,-244.4168 371.0032,-234.6887"/>
<polygon fill="#000000" stroke="#000000" points="373.1688,-231.9202 363.4918,-227.6066 368.3667,-237.0133 373.1688,-231.9202"/>
</g>
<!-- scalaz.Monad -->
<g id="node21" class="node">
<title>scalaz.Monad</title>
<g id="a_node21"><a xlink:href="https://github.com/scalaz/scalaz/tree/v7.3.2/core/src/main/scala/scalaz/Monad.scala" xlink:title="scalaz.Monad" target="_blank">
<polygon fill="#799f5a" stroke="#000000" points="227,-264.5 227,-293.5 273,-293.5 273,-264.5 227,-264.5"/>
<text text-anchor="middle" x="250" y="-276.5" font-family="Times,serif" font-size="10.00" fill="#000000">Monad</text>
</a>
</g>
</g>
<!-- scalaz.Monad&#45;&gt;scalaz.Applicative -->
<g id="edge10" class="edge">
<title>scalaz.Monad&#45;&gt;scalaz.Applicative</title>
<path fill="none" stroke="#000000" d="M250.2219,-264.3525C250.3397,-256.5767 250.4878,-246.8077 250.623,-237.8831"/>
<polygon fill="#000000" stroke="#000000" points="254.1267,-237.6585 250.7787,-227.6066 247.1275,-237.5524 254.1267,-237.6585"/>
</g>
<!-- scalaz.Monad&#45;&gt;scalaz.Bind -->
<g id="edge11" class="edge">
<title>scalaz.Monad&#45;&gt;scalaz.Bind</title>
<path fill="none" stroke="#000000" d="M234.9086,-264.3525C225.9288,-255.6368 214.3688,-244.4168 204.3459,-234.6887"/>
<polygon fill="#000000" stroke="#000000" points="206.6627,-232.0598 197.0492,-227.6066 201.7874,-237.0829 206.6627,-232.0598"/>
</g>
<!-- scalaz.MonadError -->
<g id="node22" class="node">
<title>scalaz.MonadError</title>
<g id="a_node22"><a xlink:href="https://github.com/scalaz/scalaz/tree/v7.3.2/core/src/main/scala/scalaz/MonadError.scala" xlink:title="scalaz.MonadError" target="_blank">
<polygon fill="#799f5a" stroke="#000000" points="0,-330.5 0,-359.5 66,-359.5 66,-330.5 0,-330.5"/>
<text text-anchor="middle" x="33" y="-342.5" font-family="Times,serif" font-size="10.00" fill="#000000">MonadError</text>
</a>
</g>
</g>
<!-- scalaz.MonadError&#45;&gt;scalaz.ApplicativeError -->
<g id="edge30" class="edge">
<title>scalaz.MonadError&#45;&gt;scalaz.ApplicativeError</title>
<path fill="none" stroke="#000000" d="M62.517,-330.3525C81.6301,-320.8677 106.7197,-308.4173 127.4074,-298.1512"/>
<polygon fill="#000000" stroke="#000000" points="129.1636,-301.187 136.5655,-293.6066 126.052,-294.9166 129.1636,-301.187"/>
</g>
<!-- scalaz.MonadError&#45;&gt;scalaz.Monad -->
<g id="edge29" class="edge">
<title>scalaz.MonadError&#45;&gt;scalaz.Monad</title>
<path fill="none" stroke="#000000" d="M66.3739,-332.7533C69.2798,-331.7866 72.1847,-330.8549 75,-330 134.7713,-311.849 154.4309,-315.5887 217.2129,-293.8963"/>
<polygon fill="#000000" stroke="#000000" points="218.5382,-297.1401 226.7986,-290.5056 216.2038,-290.5407 218.5382,-297.1401"/>
</g>
<!-- scalaz.MonadListen -->
<g id="node23" class="node">
<title>scalaz.MonadListen</title>
<g id="a_node23"><a xlink:href="https://github.com/scalaz/scalaz/tree/v7.3.2/core/src/main/scala/scalaz/MonadListen.scala" xlink:title="scalaz.MonadListen" target="_blank">
<polygon fill="#799f5a" stroke="#000000" points="255.5,-396.5 255.5,-425.5 326.5,-425.5 326.5,-396.5 255.5,-396.5"/>
<text text-anchor="middle" x="291" y="-408.5" font-family="Times,serif" font-size="10.00" fill="#000000">MonadListen</text>
</a>
</g>
</g>
<!-- scalaz.MonadTell -->
<g id="node27" class="node">
<title>scalaz.MonadTell</title>
<g id="a_node27"><a xlink:href="https://github.com/scalaz/scalaz/tree/v7.3.2/core/src/main/scala/scalaz/MonadTell.scala" xlink:title="scalaz.MonadTell" target="_blank">
<polygon fill="#799f5a" stroke="#000000" points="260,-330.5 260,-359.5 322,-359.5 322,-330.5 260,-330.5"/>
<text text-anchor="middle" x="291" y="-342.5" font-family="Times,serif" font-size="10.00" fill="#000000">MonadTell</text>
</a>
</g>
</g>
<!-- scalaz.MonadListen&#45;&gt;scalaz.MonadTell -->
<g id="edge31" class="edge">
<title>scalaz.MonadListen&#45;&gt;scalaz.MonadTell</title>
<path fill="none" stroke="#000000" d="M291,-396.3525C291,-388.5767 291,-378.8077 291,-369.8831"/>
<polygon fill="#000000" stroke="#000000" points="294.5001,-369.6066 291,-359.6066 287.5001,-369.6066 294.5001,-369.6066"/>
</g>
<!-- scalaz.MonadPlus -->
<g id="node24" class="node">
<title>scalaz.MonadPlus</title>
<g id="a_node24"><a xlink:href="https://github.com/scalaz/scalaz/tree/v7.3.2/core/src/main/scala/scalaz/MonadPlus.scala" xlink:title="scalaz.MonadPlus" target="_blank">
<polygon fill="#799f5a" stroke="#000000" points="443.5,-330.5 443.5,-359.5 506.5,-359.5 506.5,-330.5 443.5,-330.5"/>
<text text-anchor="middle" x="475" y="-342.5" font-family="Times,serif" font-size="10.00" fill="#000000">MonadPlus</text>
</a>
</g>
</g>
<!-- scalaz.MonadPlus&#45;&gt;scalaz.ApplicativePlus -->
<g id="edge22" class="edge">
<title>scalaz.MonadPlus&#45;&gt;scalaz.ApplicativePlus</title>
<path fill="none" stroke="#000000" d="M443.4856,-330.3525C422.8953,-320.7823 395.8086,-308.1927 373.6083,-297.8743"/>
<polygon fill="#000000" stroke="#000000" points="374.9699,-294.6476 364.4263,-293.6066 372.0194,-300.9954 374.9699,-294.6476"/>
</g>
<!-- scalaz.MonadPlus&#45;&gt;scalaz.Monad -->
<g id="edge21" class="edge">
<title>scalaz.MonadPlus&#45;&gt;scalaz.Monad</title>
<path fill="none" stroke="#000000" d="M443.3404,-332.9976C440.201,-331.934 437.049,-330.9153 434,-330 370.4941,-310.9354 349.4415,-316.2956 282.8894,-293.8955"/>
<polygon fill="#000000" stroke="#000000" points="283.7822,-290.5011 273.1875,-290.5451 281.4972,-297.1177 283.7822,-290.5011"/>
</g>
<!-- scalaz.MonadReader -->
<g id="node25" class="node">
<title>scalaz.MonadReader</title>
<g id="a_node25"><a xlink:href="https://github.com/scalaz/scalaz/tree/v7.3.2/core/src/main/scala/scalaz/MonadReader.scala" xlink:title="scalaz.MonadReader" target="_blank">
<polygon fill="#799f5a" stroke="#000000" points="84,-330.5 84,-359.5 158,-359.5 158,-330.5 84,-330.5"/>
<text text-anchor="middle" x="121" y="-342.5" font-family="Times,serif" font-size="10.00" fill="#000000">MonadReader</text>
</a>
</g>
</g>
<!-- scalaz.MonadReader&#45;&gt;scalaz.Monad -->
<g id="edge27" class="edge">
<title>scalaz.MonadReader&#45;&gt;scalaz.Monad</title>
<path fill="none" stroke="#000000" d="M149.6293,-330.3525C169.7124,-320.0774 196.5987,-306.3216 217.4897,-295.6332"/>
<polygon fill="#000000" stroke="#000000" points="219.3121,-298.6323 226.6204,-290.9617 216.1237,-292.4006 219.3121,-298.6323"/>
</g>
<!-- scalaz.MonadState -->
<g id="node26" class="node">
<title>scalaz.MonadState</title>
<g id="a_node26"><a xlink:href="https://github.com/scalaz/scalaz/tree/v7.3.2/core/src/main/scala/scalaz/MonadState.scala" xlink:title="scalaz.MonadState" target="_blank">
<polygon fill="#799f5a" stroke="#000000" points="176,-330.5 176,-359.5 242,-359.5 242,-330.5 176,-330.5"/>
<text text-anchor="middle" x="209" y="-342.5" font-family="Times,serif" font-size="10.00" fill="#000000">MonadState</text>
</a>
</g>
</g>
<!-- scalaz.MonadState&#45;&gt;scalaz.Monad -->
<g id="edge28" class="edge">
<title>scalaz.MonadState&#45;&gt;scalaz.Monad</title>
<path fill="none" stroke="#000000" d="M218.0992,-330.3525C223.2481,-322.064 229.8039,-311.5108 235.6316,-302.1296"/>
<polygon fill="#000000" stroke="#000000" points="238.6224,-303.9479 240.9262,-293.6066 232.6763,-300.2541 238.6224,-303.9479"/>
</g>
<!-- scalaz.MonadTell&#45;&gt;scalaz.Monad -->
<g id="edge18" class="edge">
<title>scalaz.MonadTell&#45;&gt;scalaz.Monad</title>
<path fill="none" stroke="#000000" d="M281.9008,-330.3525C276.7519,-322.064 270.1961,-311.5108 264.3684,-302.1296"/>
<polygon fill="#000000" stroke="#000000" points="267.3237,-300.2541 259.0738,-293.6066 261.3776,-303.9479 267.3237,-300.2541"/>
</g>
<!-- scalaz.Nondeterminism -->
<g id="node28" class="node">
<title>scalaz.Nondeterminism</title>
<g id="a_node28"><a xlink:href="https://github.com/scalaz/scalaz/tree/v7.3.2/core/src/main/scala/scalaz/Nondeterminism.scala" xlink:title="scalaz.Nondeterminism" target="_blank">
<polygon fill="#799f5a" stroke="#000000" points="340.5,-330.5 340.5,-359.5 425.5,-359.5 425.5,-330.5 340.5,-330.5"/>
<text text-anchor="middle" x="383" y="-342.5" font-family="Times,serif" font-size="10.00" fill="#000000">Nondeterminism</text>
</a>
</g>
</g>
<!-- scalaz.Nondeterminism&#45;&gt;scalaz.Monad -->
<g id="edge32" class="edge">
<title>scalaz.Nondeterminism&#45;&gt;scalaz.Monad</title>
<path fill="none" stroke="#000000" d="M353.483,-330.3525C332.4172,-319.8987 304.0914,-305.8423 282.4009,-295.0786"/>
<polygon fill="#000000" stroke="#000000" points="283.7659,-291.8488 273.2524,-290.5388 280.6543,-298.1192 283.7659,-291.8488"/>
</g>
<!-- scalaz.Plus -->
<g id="node29" class="node">
<title>scalaz.Plus</title>
<g id="a_node29"><a xlink:href="https://github.com/scalaz/scalaz/tree/v7.3.2/core/src/main/scala/scalaz/Plus.scala" xlink:title="scalaz.Plus" target="_blank">
<polygon fill="#799f5a" stroke="#000000" points="331,-132.5 331,-161.5 365,-161.5 365,-132.5 331,-132.5"/>
<text text-anchor="middle" x="348" y="-144.5" font-family="Times,serif" font-size="10.00" fill="#000000">Plus</text>
</a>
</g>
</g>
<!-- scalaz.PlusEmpty&#45;&gt;scalaz.Plus -->
<g id="edge8" class="edge">
<title>scalaz.PlusEmpty&#45;&gt;scalaz.Plus</title>
<path fill="none" stroke="#000000" d="M348,-198.3525C348,-190.5767 348,-180.8077 348,-171.8831"/>
<polygon fill="#000000" stroke="#000000" points="351.5001,-171.6066 348,-161.6066 344.5001,-171.6066 351.5001,-171.6066"/>
</g>
<!-- scalaz.Traverse -->
<g id="node31" class="node">
<title>scalaz.Traverse</title>
<g id="a_node31"><a xlink:href="https://github.com/scalaz/scalaz/tree/v7.3.2/core/src/main/scala/scalaz/Traverse.scala" xlink:title="scalaz.Traverse" target="_blank">
<polygon fill="#799f5a" stroke="#000000" points="533.5,-132.5 533.5,-161.5 584.5,-161.5 584.5,-132.5 533.5,-132.5"/>
<text text-anchor="middle" x="559" y="-144.5" font-family="Times,serif" font-size="10.00" fill="#000000">Traverse</text>
</a>
</g>
</g>
<!-- scalaz.Traverse&#45;&gt;scalaz.Foldable -->
<g id="edge16" class="edge">
<title>scalaz.Traverse&#45;&gt;scalaz.Foldable</title>
<path fill="none" stroke="#000000" d="M566.9896,-132.3525C571.4639,-124.1495 577.1483,-113.7281 582.2254,-104.4201"/>
<polygon fill="#000000" stroke="#000000" points="585.3168,-106.0616 587.0328,-95.6066 579.1716,-102.7096 585.3168,-106.0616"/>
</g>
<!-- scalaz.Traverse&#45;&gt;scalaz.Functor -->
<g id="edge15" class="edge">
<title>scalaz.Traverse&#45;&gt;scalaz.Functor</title>
<path fill="none" stroke="#000000" d="M533.1458,-135.5051C530.0845,-134.2675 526.9871,-133.0709 524,-132 475.739,-114.6981 418.4755,-98.87 382.9318,-89.5795"/>
<polygon fill="#000000" stroke="#000000" points="383.6288,-86.1446 373.0705,-87.0243 381.8729,-92.9208 383.6288,-86.1446"/>
</g>
<!-- scalaz.Traverse1 -->
<g id="node32" class="node">
<title>scalaz.Traverse1</title>
<g id="a_node32"><a xlink:href="https://github.com/scalaz/scalaz/tree/v7.3.2/core/src/main/scala/scalaz/Traverse1.scala" xlink:title="scalaz.Traverse1" target="_blank">
<polygon fill="#799f5a" stroke="#000000" points="561,-198.5 561,-227.5 617,-227.5 617,-198.5 561,-198.5"/>
<text text-anchor="middle" x="589" y="-210.5" font-family="Times,serif" font-size="10.00" fill="#000000">Traverse1</text>
</a>
</g>
</g>
<!-- scalaz.Traverse1&#45;&gt;scalaz.Foldable1 -->
<g id="edge25" class="edge">
<title>scalaz.Traverse1&#45;&gt;scalaz.Foldable1</title>
<path fill="none" stroke="#000000" d="M598.5431,-198.3525C603.9431,-190.064 610.8187,-179.5108 616.9307,-170.1296"/>
<polygon fill="#000000" stroke="#000000" points="619.9573,-171.8958 622.4836,-161.6066 614.0922,-168.0746 619.9573,-171.8958"/>
</g>
<!-- scalaz.Traverse1&#45;&gt;scalaz.Traverse -->
<g id="edge24" class="edge">
<title>scalaz.Traverse1&#45;&gt;scalaz.Traverse</title>
<path fill="none" stroke="#000000" d="M582.342,-198.3525C578.6522,-190.2349 573.975,-179.945 569.7779,-170.7113"/>
<polygon fill="#000000" stroke="#000000" points="572.9637,-169.2619 565.6394,-161.6066 566.5912,-172.1586 572.9637,-169.2619"/>
</g>
</g>
</svg>

