<?xml version="1.0" encoding="UTF-8" standalone="no"?>
<!DOCTYPE svg PUBLIC "-//W3C//DTD SVG 1.1//EN"
 "http://www.w3.org/Graphics/SVG/1.1/DTD/svg11.dtd">
<!-- Generated by graphviz version 2.26.3 (20100126.1600)
 -->
<!-- Title: scalaz 7.2.13 diagram Pages: 1 -->
<svg width="783pt" height="434pt"
 viewBox="0.00 0.00 783.00 434.00" xmlns="http://www.w3.org/2000/svg" xmlns:xlink="http://www.w3.org/1999/xlink">
<g id="graph1" class="graph" transform="scale(1 1) rotate(0) translate(4 430)">
<title>scalaz 7.2.13 diagram</title>
<polygon fill="white" stroke="white" points="-4,5 -4,-430 780,-430 780,5 -4,5"/>
<!-- scalaz.Align -->
<g id="node1" class="node"><title>scalaz.Align</title>
<a xlink:href="https://github.com/scalaz/scalaz/tree/v7.2.13/core/src/main/scala/scalaz/Align.scala" xlink:title="scalaz.Align" target="_blank">
<polygon fill="#799f5a" stroke="black" points="581,-132.5 581,-161.5 621,-161.5 621,-132.5 581,-132.5"/>
<text text-anchor="middle" x="601" y="-144.5" font-family="Times Roman,serif" font-size="10.00">Align</text>
</a>
</g>
<!-- scalaz.Functor -->
<g id="node20" class="node"><title>scalaz.Functor</title>
<a xlink:href="https://github.com/scalaz/scalaz/tree/v7.2.13/core/src/main/scala/scalaz/Functor.scala" xlink:title="scalaz.Functor" target="_blank">
<polygon fill="#799f5a" stroke="black" points="463,-66.5 463,-95.5 515,-95.5 515,-66.5 463,-66.5"/>
<text text-anchor="middle" x="489" y="-78.5" font-family="Times Roman,serif" font-size="10.00">Functor</text>
</a>
</g>
<!-- scalaz.Align&#45;&gt;scalaz.Functor -->
<g id="edge72" class="edge"><title>scalaz.Align&#45;&gt;scalaz.Functor</title>
<path fill="none" stroke="black" d="M580.977,-135.201C564.79,-125.662 541.649,-112.025 522.628,-100.817"/>
<polygon fill="black" stroke="black" points="524.338,-97.7616 513.946,-95.7001 520.784,-103.792 524.338,-97.7616"/>
</g>
<!-- scalaz.Applicative -->
<g id="node2" class="node"><title>scalaz.Applicative</title>
<a xlink:href="https://github.com/scalaz/scalaz/tree/v7.2.13/core/src/main/scala/scalaz/Applicative.scala" xlink:title="scalaz.Applicative" target="_blank">
<polygon fill="#799f5a" stroke="black" points="190,-198.5 190,-227.5 258,-227.5 258,-198.5 190,-198.5"/>
<text text-anchor="middle" x="224" y="-210.5" font-family="Times Roman,serif" font-size="10.00">Applicative</text>
</a>
</g>
<!-- scalaz.ApplicativeParent -->
<g id="node3" class="node"><title>scalaz.ApplicativeParent</title>
<a xlink:href="https://github.com/scalaz/scalaz/tree/v7.2.13/core/src/main/scala/scalaz/ApplicativeParent.scala" xlink:title="scalaz.ApplicativeParent" target="_blank">
<polygon fill="#799f5a" stroke="black" points="162.5,-132.5 162.5,-161.5 261.5,-161.5 261.5,-132.5 162.5,-132.5"/>
<text text-anchor="middle" x="212" y="-144.5" font-family="Times Roman,serif" font-size="10.00">ApplicativeParent</text>
</a>
</g>
<!-- scalaz.Applicative&#45;&gt;scalaz.ApplicativeParent -->
<g id="edge14" class="edge"><title>scalaz.Applicative&#45;&gt;scalaz.ApplicativeParent</title>
<path fill="none" stroke="black" d="M221.337,-198.352C219.908,-190.491 218.108,-180.593 216.471,-171.589"/>
<polygon fill="black" stroke="black" points="219.888,-170.819 214.656,-161.607 213.001,-172.071 219.888,-170.819"/>
</g>
<!-- scalaz.Apply -->
<g id="node5" class="node"><title>scalaz.Apply</title>
<a xlink:href="https://github.com/scalaz/scalaz/tree/v7.2.13/core/src/main/scala/scalaz/Apply.scala" xlink:title="scalaz.Apply" target="_blank">
<polygon fill="#799f5a" stroke="black" points="278.5,-132.5 278.5,-161.5 321.5,-161.5 321.5,-132.5 278.5,-132.5"/>
<text text-anchor="middle" x="300" y="-144.5" font-family="Times Roman,serif" font-size="10.00">Apply</text>
</a>
</g>
<!-- scalaz.Applicative&#45;&gt;scalaz.Apply -->
<g id="edge12" class="edge"><title>scalaz.Applicative&#45;&gt;scalaz.Apply</title>
<path fill="none" stroke="black" d="M240.867,-198.352C251.001,-189.551 264.077,-178.197 275.354,-168.403"/>
<polygon fill="black" stroke="black" points="277.925,-170.806 283.18,-161.607 273.335,-165.521 277.925,-170.806"/>
</g>
<!-- scalaz.ApplicativePlus -->
<g id="node4" class="node"><title>scalaz.ApplicativePlus</title>
<a xlink:href="https://github.com/scalaz/scalaz/tree/v7.2.13/core/src/main/scala/scalaz/ApplicativePlus.scala" xlink:title="scalaz.ApplicativePlus" target="_blank">
<polygon fill="#799f5a" stroke="black" points="72,-264.5 72,-293.5 160,-293.5 160,-264.5 72,-264.5"/>
<text text-anchor="middle" x="116" y="-276.5" font-family="Times Roman,serif" font-size="10.00">ApplicativePlus</text>
</a>
</g>
<!-- scalaz.ApplicativePlus&#45;&gt;scalaz.Applicative -->
<g id="edge22" class="edge"><title>scalaz.ApplicativePlus&#45;&gt;scalaz.Applicative</title>
<path fill="none" stroke="black" d="M139.969,-264.352C155.07,-255.124 174.765,-243.088 191.292,-232.988"/>
<polygon fill="black" stroke="black" points="193.391,-235.808 200.098,-227.607 189.74,-229.835 193.391,-235.808"/>
</g>
<!-- scalaz.PlusEmpty -->
<g id="node33" class="node"><title>scalaz.PlusEmpty</title>
<a xlink:href="https://github.com/scalaz/scalaz/tree/v7.2.13/core/src/main/scala/scalaz/PlusEmpty.scala" xlink:title="scalaz.PlusEmpty" target="_blank">
<polygon fill="#799f5a" stroke="black" points="82.5,-198.5 82.5,-227.5 149.5,-227.5 149.5,-198.5 82.5,-198.5"/>
<text text-anchor="middle" x="116" y="-210.5" font-family="Times Roman,serif" font-size="10.00">PlusEmpty</text>
</a>
</g>
<!-- scalaz.ApplicativePlus&#45;&gt;scalaz.PlusEmpty -->
<g id="edge24" class="edge"><title>scalaz.ApplicativePlus&#45;&gt;scalaz.PlusEmpty</title>
<path fill="none" stroke="black" d="M116,-264.352C116,-256.577 116,-246.808 116,-237.883"/>
<polygon fill="black" stroke="black" points="119.5,-237.607 116,-227.607 112.5,-237.607 119.5,-237.607"/>
</g>
<!-- scalaz.ApplyParent -->
<g id="node6" class="node"><title>scalaz.ApplyParent</title>
<a xlink:href="https://github.com/scalaz/scalaz/tree/v7.2.13/core/src/main/scala/scalaz/ApplyParent.scala" xlink:title="scalaz.ApplyParent" target="_blank">
<polygon fill="#799f5a" stroke="black" points="263,-66.5 263,-95.5 337,-95.5 337,-66.5 263,-66.5"/>
<text text-anchor="middle" x="300" y="-78.5" font-family="Times Roman,serif" font-size="10.00">ApplyParent</text>
</a>
</g>
<!-- scalaz.Apply&#45;&gt;scalaz.ApplyParent -->
<g id="edge10" class="edge"><title>scalaz.Apply&#45;&gt;scalaz.ApplyParent</title>
<path fill="none" stroke="black" d="M300,-132.352C300,-124.577 300,-114.808 300,-105.883"/>
<polygon fill="black" stroke="black" points="303.5,-105.607 300,-95.6066 296.5,-105.607 303.5,-105.607"/>
</g>
<!-- scalaz.Apply&#45;&gt;scalaz.Functor -->
<g id="edge8" class="edge"><title>scalaz.Apply&#45;&gt;scalaz.Functor</title>
<path fill="none" stroke="black" d="M321.776,-135.628C324.516,-134.341 327.304,-133.099 330,-132 371.301,-115.167 420.387,-100.146 452.983,-90.8398"/>
<polygon fill="black" stroke="black" points="454.284,-94.1095 462.956,-88.0238 452.382,-87.3729 454.284,-94.1095"/>
</g>
<!-- scalaz.Bind -->
<g id="node7" class="node"><title>scalaz.Bind</title>
<a xlink:href="https://github.com/scalaz/scalaz/tree/v7.2.13/core/src/main/scala/scalaz/Bind.scala" xlink:title="scalaz.Bind" target="_blank">
<polygon fill="#799f5a" stroke="black" points="326,-198.5 326,-227.5 364,-227.5 364,-198.5 326,-198.5"/>
<text text-anchor="middle" x="345" y="-210.5" font-family="Times Roman,serif" font-size="10.00">Bind</text>
</a>
</g>
<!-- scalaz.Bind&#45;&gt;scalaz.Apply -->
<g id="edge4" class="edge"><title>scalaz.Bind&#45;&gt;scalaz.Apply</title>
<path fill="none" stroke="black" d="M335.013,-198.352C329.362,-190.064 322.166,-179.511 315.77,-170.13"/>
<polygon fill="black" stroke="black" points="318.484,-167.897 309.959,-161.607 312.701,-171.841 318.484,-167.897"/>
</g>
<!-- scalaz.BindParent -->
<g id="node8" class="node"><title>scalaz.BindParent</title>
<a xlink:href="https://github.com/scalaz/scalaz/tree/v7.2.13/core/src/main/scala/scalaz/BindParent.scala" xlink:title="scalaz.BindParent" target="_blank">
<polygon fill="#799f5a" stroke="black" points="339,-132.5 339,-161.5 407,-161.5 407,-132.5 339,-132.5"/>
<text text-anchor="middle" x="373" y="-144.5" font-family="Times Roman,serif" font-size="10.00">BindParent</text>
</a>
</g>
<!-- scalaz.Bind&#45;&gt;scalaz.BindParent -->
<g id="edge6" class="edge"><title>scalaz.Bind&#45;&gt;scalaz.BindParent</title>
<path fill="none" stroke="black" d="M351.214,-198.352C354.622,-190.32 358.932,-180.161 362.817,-171.003"/>
<polygon fill="black" stroke="black" points="366.12,-172.179 366.803,-161.607 359.676,-169.445 366.12,-172.179"/>
</g>
<!-- scalaz.BindRec -->
<g id="node9" class="node"><title>scalaz.BindRec</title>
<a xlink:href="https://github.com/scalaz/scalaz/tree/v7.2.13/core/src/main/scala/scalaz/BindRec.scala" xlink:title="scalaz.BindRec" target="_blank">
<polygon fill="#799f5a" stroke="black" points="360,-264.5 360,-293.5 414,-293.5 414,-264.5 360,-264.5"/>
<text text-anchor="middle" x="387" y="-276.5" font-family="Times Roman,serif" font-size="10.00">BindRec</text>
</a>
</g>
<!-- scalaz.BindRec&#45;&gt;scalaz.Bind -->
<g id="edge70" class="edge"><title>scalaz.BindRec&#45;&gt;scalaz.Bind</title>
<path fill="none" stroke="black" d="M377.679,-264.352C372.404,-256.064 365.689,-245.511 359.719,-236.13"/>
<polygon fill="black" stroke="black" points="362.617,-234.164 354.295,-227.607 356.711,-237.922 362.617,-234.164"/>
</g>
<!-- scalaz.Cobind -->
<g id="node10" class="node"><title>scalaz.Cobind</title>
<a xlink:href="https://github.com/scalaz/scalaz/tree/v7.2.13/core/src/main/scala/scalaz/Cobind.scala" xlink:title="scalaz.Cobind" target="_blank">
<polygon fill="#799f5a" stroke="black" points="425,-132.5 425,-161.5 475,-161.5 475,-132.5 425,-132.5"/>
<text text-anchor="middle" x="450" y="-144.5" font-family="Times Roman,serif" font-size="10.00">Cobind</text>
</a>
</g>
<!-- scalaz.Cobind&#45;&gt;scalaz.Functor -->
<g id="edge28" class="edge"><title>scalaz.Cobind&#45;&gt;scalaz.Functor</title>
<path fill="none" stroke="black" d="M458.655,-132.352C463.503,-124.149 469.661,-113.728 475.161,-104.42"/>
<polygon fill="black" stroke="black" points="478.295,-105.996 480.369,-95.6066 472.268,-102.435 478.295,-105.996"/>
</g>
<!-- scalaz.Comonad -->
<g id="node11" class="node"><title>scalaz.Comonad</title>
<a xlink:href="https://github.com/scalaz/scalaz/tree/v7.2.13/core/src/main/scala/scalaz/Comonad.scala" xlink:title="scalaz.Comonad" target="_blank">
<polygon fill="#799f5a" stroke="black" points="431.5,-198.5 431.5,-227.5 494.5,-227.5 494.5,-198.5 431.5,-198.5"/>
<text text-anchor="middle" x="463" y="-210.5" font-family="Times Roman,serif" font-size="10.00">Comonad</text>
</a>
</g>
<!-- scalaz.Comonad&#45;&gt;scalaz.Cobind -->
<g id="edge26" class="edge"><title>scalaz.Comonad&#45;&gt;scalaz.Cobind</title>
<path fill="none" stroke="black" d="M460.115,-198.352C458.566,-190.491 456.617,-180.593 454.843,-171.589"/>
<polygon fill="black" stroke="black" points="458.244,-170.742 452.877,-161.607 451.376,-172.095 458.244,-170.742"/>
</g>
<!-- scalaz.ComonadStore -->
<g id="node12" class="node"><title>scalaz.ComonadStore</title>
<a xlink:href="https://github.com/scalaz/scalaz/tree/v7.2.13/core/src/main/scala/scalaz/ComonadStore.scala" xlink:title="scalaz.ComonadStore" target="_blank">
<polygon fill="#799f5a" stroke="black" points="431.5,-264.5 431.5,-293.5 520.5,-293.5 520.5,-264.5 431.5,-264.5"/>
<text text-anchor="middle" x="476" y="-276.5" font-family="Times Roman,serif" font-size="10.00">ComonadStore</text>
</a>
</g>
<!-- scalaz.ComonadStore&#45;&gt;scalaz.Comonad -->
<g id="edge50" class="edge"><title>scalaz.ComonadStore&#45;&gt;scalaz.Comonad</title>
<path fill="none" stroke="black" d="M473.115,-264.352C471.566,-256.491 469.617,-246.593 467.843,-237.589"/>
<polygon fill="black" stroke="black" points="471.244,-236.742 465.877,-227.607 464.376,-238.095 471.244,-236.742"/>
</g>
<!-- scalaz.Contravariant -->
<g id="node13" class="node"><title>scalaz.Contravariant</title>
<a xlink:href="https://github.com/scalaz/scalaz/tree/v7.2.13/core/src/main/scala/scalaz/Contravariant.scala" xlink:title="scalaz.Contravariant" target="_blank">
<polygon fill="#799f5a" stroke="black" points="85,-66.5 85,-95.5 167,-95.5 167,-66.5 85,-66.5"/>
<text text-anchor="middle" x="126" y="-78.5" font-family="Times Roman,serif" font-size="10.00">Contravariant</text>
</a>
</g>
<!-- scalaz.InvariantFunctor -->
<g id="node21" class="node"><title>scalaz.InvariantFunctor</title>
<a xlink:href="https://github.com/scalaz/scalaz/tree/v7.2.13/core/src/main/scala/scalaz/InvariantFunctor.scala" xlink:title="scalaz.InvariantFunctor" target="_blank">
<polygon fill="#799f5a" stroke="black" points="261.5,-0.5 261.5,-29.5 354.5,-29.5 354.5,-0.5 261.5,-0.5"/>
<text text-anchor="middle" x="308" y="-12.5" font-family="Times Roman,serif" font-size="10.00">InvariantFunctor</text>
</a>
</g>
<!-- scalaz.Contravariant&#45;&gt;scalaz.InvariantFunctor -->
<g id="edge40" class="edge"><title>scalaz.Contravariant&#45;&gt;scalaz.InvariantFunctor</title>
<path fill="none" stroke="black" d="M166.392,-66.3525C193.489,-56.526 229.365,-43.5161 258.225,-33.0501"/>
<polygon fill="black" stroke="black" points="259.513,-36.3061 267.721,-29.6066 257.127,-29.7255 259.513,-36.3061"/>
</g>
<!-- scalaz.Distributive -->
<g id="node14" class="node"><title>scalaz.Distributive</title>
<a xlink:href="https://github.com/scalaz/scalaz/tree/v7.2.13/core/src/main/scala/scalaz/Distributive.scala" xlink:title="scalaz.Distributive" target="_blank">
<polygon fill="#799f5a" stroke="black" points="492.5,-132.5 492.5,-161.5 563.5,-161.5 563.5,-132.5 492.5,-132.5"/>
<text text-anchor="middle" x="528" y="-144.5" font-family="Times Roman,serif" font-size="10.00">Distributive</text>
</a>
</g>
<!-- scalaz.Distributive&#45;&gt;scalaz.Functor -->
<g id="edge74" class="edge"><title>scalaz.Distributive&#45;&gt;scalaz.Functor</title>
<path fill="none" stroke="black" d="M519.345,-132.352C514.497,-124.149 508.339,-113.728 502.839,-104.42"/>
<polygon fill="black" stroke="black" points="505.732,-102.435 497.631,-95.6066 499.705,-105.996 505.732,-102.435"/>
</g>
<!-- scalaz.Divide -->
<g id="node15" class="node"><title>scalaz.Divide</title>
<a xlink:href="https://github.com/scalaz/scalaz/tree/v7.2.13/core/src/main/scala/scalaz/Divide.scala" xlink:title="scalaz.Divide" target="_blank">
<polygon fill="#799f5a" stroke="black" points="24,-132.5 24,-161.5 70,-161.5 70,-132.5 24,-132.5"/>
<text text-anchor="middle" x="47" y="-144.5" font-family="Times Roman,serif" font-size="10.00">Divide</text>
</a>
</g>
<!-- scalaz.Divide&#45;&gt;scalaz.Contravariant -->
<g id="edge42" class="edge"><title>scalaz.Divide&#45;&gt;scalaz.Contravariant</title>
<path fill="none" stroke="black" d="M64.5327,-132.352C75.1696,-123.466 88.9229,-111.976 100.722,-102.118"/>
<polygon fill="black" stroke="black" points="103.086,-104.704 108.516,-95.6066 98.5981,-99.332 103.086,-104.704"/>
</g>
<!-- scalaz.Divisible -->
<g id="node16" class="node"><title>scalaz.Divisible</title>
<a xlink:href="https://github.com/scalaz/scalaz/tree/v7.2.13/core/src/main/scala/scalaz/Divisible.scala" xlink:title="scalaz.Divisible" target="_blank">
<polygon fill="#799f5a" stroke="black" points="9,-198.5 9,-227.5 65,-227.5 65,-198.5 9,-198.5"/>
<text text-anchor="middle" x="37" y="-210.5" font-family="Times Roman,serif" font-size="10.00">Divisible</text>
</a>
</g>
<!-- scalaz.Divisible&#45;&gt;scalaz.Divide -->
<g id="edge68" class="edge"><title>scalaz.Divisible&#45;&gt;scalaz.Divide</title>
<path fill="none" stroke="black" d="M39.2193,-198.352C40.4104,-190.491 41.9102,-180.593 43.2744,-171.589"/>
<polygon fill="black" stroke="black" points="46.7492,-172.018 44.7869,-161.607 39.8282,-170.969 46.7492,-172.018"/>
</g>
<!-- scalaz.Foldable -->
<g id="node17" class="node"><title>scalaz.Foldable</title>
<a xlink:href="https://github.com/scalaz/scalaz/tree/v7.2.13/core/src/main/scala/scalaz/Foldable.scala" xlink:title="scalaz.Foldable" target="_blank">
<polygon fill="#799f5a" stroke="black" points="677,-66.5 677,-95.5 733,-95.5 733,-66.5 677,-66.5"/>
<text text-anchor="middle" x="705" y="-78.5" font-family="Times Roman,serif" font-size="10.00">Foldable</text>
</a>
</g>
<!-- scalaz.FoldableParent -->
<g id="node19" class="node"><title>scalaz.FoldableParent</title>
<a xlink:href="https://github.com/scalaz/scalaz/tree/v7.2.13/core/src/main/scala/scalaz/FoldableParent.scala" xlink:title="scalaz.FoldableParent" target="_blank">
<polygon fill="#799f5a" stroke="black" points="661.5,-0.5 661.5,-29.5 748.5,-29.5 748.5,-0.5 661.5,-0.5"/>
<text text-anchor="middle" x="705" y="-12.5" font-family="Times Roman,serif" font-size="10.00">FoldableParent</text>
</a>
</g>
<!-- scalaz.Foldable&#45;&gt;scalaz.FoldableParent -->
<g id="edge36" class="edge"><title>scalaz.Foldable&#45;&gt;scalaz.FoldableParent</title>
<path fill="none" stroke="black" d="M705,-66.3525C705,-58.5767 705,-48.8077 705,-39.8831"/>
<polygon fill="black" stroke="black" points="708.5,-39.6066 705,-29.6066 701.5,-39.6066 708.5,-39.6066"/>
</g>
<!-- scalaz.Foldable1 -->
<g id="node18" class="node"><title>scalaz.Foldable1</title>
<a xlink:href="https://github.com/scalaz/scalaz/tree/v7.2.13/core/src/main/scala/scalaz/Foldable1.scala" xlink:title="scalaz.Foldable1" target="_blank">
<polygon fill="#799f5a" stroke="black" points="713,-132.5 713,-161.5 775,-161.5 775,-132.5 713,-132.5"/>
<text text-anchor="middle" x="744" y="-144.5" font-family="Times Roman,serif" font-size="10.00">Foldable1</text>
</a>
</g>
<!-- scalaz.Foldable1&#45;&gt;scalaz.Foldable -->
<g id="edge30" class="edge"><title>scalaz.Foldable1&#45;&gt;scalaz.Foldable</title>
<path fill="none" stroke="black" d="M735.345,-132.352C730.497,-124.149 724.339,-113.728 718.839,-104.42"/>
<polygon fill="black" stroke="black" points="721.732,-102.435 713.631,-95.6066 715.705,-105.996 721.732,-102.435"/>
</g>
<!-- scalaz.Functor&#45;&gt;scalaz.InvariantFunctor -->
<g id="edge16" class="edge"><title>scalaz.Functor&#45;&gt;scalaz.InvariantFunctor</title>
<path fill="none" stroke="black" d="M462.681,-71.403C435.285,-61.4133 391.722,-45.5286 357.798,-33.1584"/>
<polygon fill="black" stroke="black" points="358.652,-29.7445 348.058,-29.6069 356.254,-36.321 358.652,-29.7445"/>
</g>
<!-- scalaz.IsEmpty -->
<g id="node22" class="node"><title>scalaz.IsEmpty</title>
<a xlink:href="https://github.com/scalaz/scalaz/tree/v7.2.13/core/src/main/scala/scalaz/IsEmpty.scala" xlink:title="scalaz.IsEmpty" target="_blank">
<polygon fill="#799f5a" stroke="black" points="-0.5,-264.5 -0.5,-293.5 54.5,-293.5 54.5,-264.5 -0.5,-264.5"/>
<text text-anchor="middle" x="27" y="-276.5" font-family="Times Roman,serif" font-size="10.00">IsEmpty</text>
</a>
</g>
<!-- scalaz.IsEmpty&#45;&gt;scalaz.PlusEmpty -->
<g id="edge56" class="edge"><title>scalaz.IsEmpty&#45;&gt;scalaz.PlusEmpty</title>
<path fill="none" stroke="black" d="M46.752,-264.352C58.8506,-255.38 74.5279,-243.755 87.9052,-233.834"/>
<polygon fill="black" stroke="black" points="90.3557,-236.375 96.3032,-227.607 86.186,-230.752 90.3557,-236.375"/>
</g>
<!-- scalaz.Monad -->
<g id="node23" class="node"><title>scalaz.Monad</title>
<a xlink:href="https://github.com/scalaz/scalaz/tree/v7.2.13/core/src/main/scala/scalaz/Monad.scala" xlink:title="scalaz.Monad" target="_blank">
<polygon fill="#799f5a" stroke="black" points="293.5,-264.5 293.5,-293.5 342.5,-293.5 342.5,-264.5 293.5,-264.5"/>
<text text-anchor="middle" x="318" y="-276.5" font-family="Times Roman,serif" font-size="10.00">Monad</text>
</a>
</g>
<!-- scalaz.Monad&#45;&gt;scalaz.Applicative -->
<g id="edge18" class="edge"><title>scalaz.Monad&#45;&gt;scalaz.Applicative</title>
<path fill="none" stroke="black" d="M297.138,-264.352C284.238,-255.295 267.486,-243.533 253.27,-233.551"/>
<polygon fill="black" stroke="black" points="254.999,-230.488 244.803,-227.607 250.976,-236.217 254.999,-230.488"/>
</g>
<!-- scalaz.Monad&#45;&gt;scalaz.Bind -->
<g id="edge20" class="edge"><title>scalaz.Monad&#45;&gt;scalaz.Bind</title>
<path fill="none" stroke="black" d="M323.992,-264.352C327.278,-256.32 331.434,-246.161 335.18,-237.003"/>
<polygon fill="black" stroke="black" points="338.478,-238.187 339.025,-227.607 331.999,-235.537 338.478,-238.187"/>
</g>
<!-- scalaz.MonadError -->
<g id="node24" class="node"><title>scalaz.MonadError</title>
<a xlink:href="https://github.com/scalaz/scalaz/tree/v7.2.13/core/src/main/scala/scalaz/MonadError.scala" xlink:title="scalaz.MonadError" target="_blank">
<polygon fill="#799f5a" stroke="black" points="560,-330.5 560,-359.5 632,-359.5 632,-330.5 560,-330.5"/>
<text text-anchor="middle" x="596" y="-342.5" font-family="Times Roman,serif" font-size="10.00">MonadError</text>
</a>
</g>
<!-- scalaz.MonadError&#45;&gt;scalaz.Monad -->
<g id="edge62" class="edge"><title>scalaz.MonadError&#45;&gt;scalaz.Monad</title>
<path fill="none" stroke="black" d="M559.784,-332.431C556.827,-331.557 553.873,-330.733 551,-330 466.565,-308.447 439.143,-320.008 352.338,-293.979"/>
<polygon fill="black" stroke="black" points="353.195,-290.581 342.608,-290.981 351.133,-297.27 353.195,-290.581"/>
</g>
<!-- scalaz.MonadListen -->
<g id="node25" class="node"><title>scalaz.MonadListen</title>
<a xlink:href="https://github.com/scalaz/scalaz/tree/v7.2.13/core/src/main/scala/scalaz/MonadListen.scala" xlink:title="scalaz.MonadListen" target="_blank">
<polygon fill="#799f5a" stroke="black" points="358.5,-396.5 358.5,-425.5 435.5,-425.5 435.5,-396.5 358.5,-396.5"/>
<text text-anchor="middle" x="397" y="-408.5" font-family="Times Roman,serif" font-size="10.00">MonadListen</text>
</a>
</g>
<!-- scalaz.MonadTell -->
<g id="node30" class="node"><title>scalaz.MonadTell</title>
<a xlink:href="https://github.com/scalaz/scalaz/tree/v7.2.13/core/src/main/scala/scalaz/MonadTell.scala" xlink:title="scalaz.MonadTell" target="_blank">
<polygon fill="#799f5a" stroke="black" points="365.5,-330.5 365.5,-359.5 428.5,-359.5 428.5,-330.5 365.5,-330.5"/>
<text text-anchor="middle" x="397" y="-342.5" font-family="Times Roman,serif" font-size="10.00">MonadTell</text>
</a>
</g>
<!-- scalaz.MonadListen&#45;&gt;scalaz.MonadTell -->
<g id="edge64" class="edge"><title>scalaz.MonadListen&#45;&gt;scalaz.MonadTell</title>
<path fill="none" stroke="black" d="M397,-396.352C397,-388.577 397,-378.808 397,-369.883"/>
<polygon fill="black" stroke="black" points="400.5,-369.607 397,-359.607 393.5,-369.607 400.5,-369.607"/>
</g>
<!-- scalaz.MonadPlus -->
<g id="node26" class="node"><title>scalaz.MonadPlus</title>
<a xlink:href="https://github.com/scalaz/scalaz/tree/v7.2.13/core/src/main/scala/scalaz/MonadPlus.scala" xlink:title="scalaz.MonadPlus" target="_blank">
<polygon fill="#799f5a" stroke="black" points="88,-330.5 88,-359.5 156,-359.5 156,-330.5 88,-330.5"/>
<text text-anchor="middle" x="122" y="-342.5" font-family="Times Roman,serif" font-size="10.00">MonadPlus</text>
</a>
</g>
<!-- scalaz.MonadPlus&#45;&gt;scalaz.ApplicativePlus -->
<g id="edge46" class="edge"><title>scalaz.MonadPlus&#45;&gt;scalaz.ApplicativePlus</title>
<path fill="none" stroke="black" d="M120.668,-330.352C119.954,-322.491 119.054,-312.593 118.235,-303.589"/>
<polygon fill="black" stroke="black" points="121.719,-303.249 117.328,-293.607 114.748,-303.882 121.719,-303.249"/>
</g>
<!-- scalaz.MonadPlus&#45;&gt;scalaz.Monad -->
<g id="edge44" class="edge"><title>scalaz.MonadPlus&#45;&gt;scalaz.Monad</title>
<path fill="none" stroke="black" d="M156.221,-332.909C159.185,-331.909 162.142,-330.927 165,-330 215.07,-313.765 231.125,-313.538 283.768,-294.219"/>
<polygon fill="black" stroke="black" points="285.14,-297.443 293.285,-290.668 282.692,-290.885 285.14,-297.443"/>
</g>
<!-- scalaz.MonadPlusParent -->
<g id="node27" class="node"><title>scalaz.MonadPlusParent</title>
<a xlink:href="https://github.com/scalaz/scalaz/tree/v7.2.13/core/src/main/scala/scalaz/MonadPlusParent.scala" xlink:title="scalaz.MonadPlusParent" target="_blank">
<polygon fill="#799f5a" stroke="black" points="177.5,-264.5 177.5,-293.5 276.5,-293.5 276.5,-264.5 177.5,-264.5"/>
<text text-anchor="middle" x="227" y="-276.5" font-family="Times Roman,serif" font-size="10.00">MonadPlusParent</text>
</a>
</g>
<!-- scalaz.MonadPlus&#45;&gt;scalaz.MonadPlusParent -->
<g id="edge48" class="edge"><title>scalaz.MonadPlus&#45;&gt;scalaz.MonadPlusParent</title>
<path fill="none" stroke="black" d="M145.303,-330.352C159.984,-321.124 179.133,-309.088 195.2,-298.988"/>
<polygon fill="black" stroke="black" points="197.158,-301.892 203.762,-293.607 193.433,-295.965 197.158,-301.892"/>
</g>
<!-- scalaz.MonadReader -->
<g id="node28" class="node"><title>scalaz.MonadReader</title>
<a xlink:href="https://github.com/scalaz/scalaz/tree/v7.2.13/core/src/main/scala/scalaz/MonadReader.scala" xlink:title="scalaz.MonadReader" target="_blank">
<polygon fill="#799f5a" stroke="black" points="174,-330.5 174,-359.5 256,-359.5 256,-330.5 174,-330.5"/>
<text text-anchor="middle" x="215" y="-342.5" font-family="Times Roman,serif" font-size="10.00">MonadReader</text>
</a>
</g>
<!-- scalaz.MonadReader&#45;&gt;scalaz.Monad -->
<g id="edge58" class="edge"><title>scalaz.MonadReader&#45;&gt;scalaz.Monad</title>
<path fill="none" stroke="black" d="M237.859,-330.352C252.128,-321.21 270.697,-309.311 286.368,-299.269"/>
<polygon fill="black" stroke="black" points="288.673,-301.949 295.205,-293.607 284.897,-296.055 288.673,-301.949"/>
</g>
<!-- scalaz.MonadState -->
<g id="node29" class="node"><title>scalaz.MonadState</title>
<a xlink:href="https://github.com/scalaz/scalaz/tree/v7.2.13/core/src/main/scala/scalaz/MonadState.scala" xlink:title="scalaz.MonadState" target="_blank">
<polygon fill="#799f5a" stroke="black" points="273.5,-330.5 273.5,-359.5 348.5,-359.5 348.5,-330.5 273.5,-330.5"/>
<text text-anchor="middle" x="311" y="-342.5" font-family="Times Roman,serif" font-size="10.00">MonadState</text>
</a>
</g>
<!-- scalaz.MonadState&#45;&gt;scalaz.Monad -->
<g id="edge60" class="edge"><title>scalaz.MonadState&#45;&gt;scalaz.Monad</title>
<path fill="none" stroke="black" d="M312.554,-330.352C313.387,-322.491 314.437,-312.593 315.392,-303.589"/>
<polygon fill="black" stroke="black" points="318.877,-303.92 316.451,-293.607 311.916,-303.182 318.877,-303.92"/>
</g>
<!-- scalaz.MonadTell&#45;&gt;scalaz.Monad -->
<g id="edge38" class="edge"><title>scalaz.MonadTell&#45;&gt;scalaz.Monad</title>
<path fill="none" stroke="black" d="M379.467,-330.352C368.83,-321.466 355.077,-309.976 343.278,-300.118"/>
<polygon fill="black" stroke="black" points="345.402,-297.332 335.484,-293.607 340.914,-302.704 345.402,-297.332"/>
</g>
<!-- scalaz.Nondeterminism -->
<g id="node31" class="node"><title>scalaz.Nondeterminism</title>
<a xlink:href="https://github.com/scalaz/scalaz/tree/v7.2.13/core/src/main/scala/scalaz/Nondeterminism.scala" xlink:title="scalaz.Nondeterminism" target="_blank">
<polygon fill="#799f5a" stroke="black" points="445.5,-330.5 445.5,-359.5 542.5,-359.5 542.5,-330.5 445.5,-330.5"/>
<text text-anchor="middle" x="494" y="-342.5" font-family="Times Roman,serif" font-size="10.00">Nondeterminism</text>
</a>
</g>
<!-- scalaz.Nondeterminism&#45;&gt;scalaz.Monad -->
<g id="edge66" class="edge"><title>scalaz.Nondeterminism&#45;&gt;scalaz.Monad</title>
<path fill="none" stroke="black" d="M450.148,-330.429C423.891,-321.463 389.712,-309.373 352.337,-294.398"/>
<polygon fill="black" stroke="black" points="353.352,-291.033 342.769,-290.528 350.728,-297.522 353.352,-291.033"/>
</g>
<!-- scalaz.Plus -->
<g id="node32" class="node"><title>scalaz.Plus</title>
<a xlink:href="https://github.com/scalaz/scalaz/tree/v7.2.13/core/src/main/scala/scalaz/Plus.scala" xlink:title="scalaz.Plus" target="_blank">
<polygon fill="#799f5a" stroke="black" points="98,-132.5 98,-161.5 134,-161.5 134,-132.5 98,-132.5"/>
<text text-anchor="middle" x="116" y="-144.5" font-family="Times Roman,serif" font-size="10.00">Plus</text>
</a>
</g>
<!-- scalaz.PlusEmpty&#45;&gt;scalaz.Plus -->
<g id="edge2" class="edge"><title>scalaz.PlusEmpty&#45;&gt;scalaz.Plus</title>
<path fill="none" stroke="black" d="M116,-198.352C116,-190.577 116,-180.808 116,-171.883"/>
<polygon fill="black" stroke="black" points="119.5,-171.607 116,-161.607 112.5,-171.607 119.5,-171.607"/>
</g>
<!-- scalaz.Traverse -->
<g id="node34" class="node"><title>scalaz.Traverse</title>
<a xlink:href="https://github.com/scalaz/scalaz/tree/v7.2.13/core/src/main/scala/scalaz/Traverse.scala" xlink:title="scalaz.Traverse" target="_blank">
<polygon fill="#799f5a" stroke="black" points="639,-132.5 639,-161.5 695,-161.5 695,-132.5 639,-132.5"/>
<text text-anchor="middle" x="667" y="-144.5" font-family="Times Roman,serif" font-size="10.00">Traverse</text>
</a>
</g>
<!-- scalaz.Traverse&#45;&gt;scalaz.Foldable -->
<g id="edge34" class="edge"><title>scalaz.Traverse&#45;&gt;scalaz.Foldable</title>
<path fill="none" stroke="black" d="M675.433,-132.352C680.156,-124.149 686.157,-113.728 691.516,-104.42"/>
<polygon fill="black" stroke="black" points="694.634,-106.019 696.59,-95.6066 688.567,-102.526 694.634,-106.019"/>
</g>
<!-- scalaz.Traverse&#45;&gt;scalaz.Functor -->
<g id="edge32" class="edge"><title>scalaz.Traverse&#45;&gt;scalaz.Functor</title>
<path fill="none" stroke="black" d="M638.762,-135.423C635.81,-134.251 632.848,-133.092 630,-132 594.342,-118.329 553.249,-103.578 524.659,-93.475"/>
<polygon fill="black" stroke="black" points="525.692,-90.1282 515.097,-90.1045 523.365,-96.73 525.692,-90.1282"/>
</g>
<!-- scalaz.Traverse1 -->
<g id="node35" class="node"><title>scalaz.Traverse1</title>
<a xlink:href="https://github.com/scalaz/scalaz/tree/v7.2.13/core/src/main/scala/scalaz/Traverse1.scala" xlink:title="scalaz.Traverse1" target="_blank">
<polygon fill="#799f5a" stroke="black" points="674,-198.5 674,-227.5 736,-227.5 736,-198.5 674,-198.5"/>
<text text-anchor="middle" x="705" y="-210.5" font-family="Times Roman,serif" font-size="10.00">Traverse1</text>
</a>
</g>
<!-- scalaz.Traverse1&#45;&gt;scalaz.Foldable1 -->
<g id="edge54" class="edge"><title>scalaz.Traverse1&#45;&gt;scalaz.Foldable1</title>
<path fill="none" stroke="black" d="M713.655,-198.352C718.503,-190.149 724.661,-179.728 730.161,-170.42"/>
<polygon fill="black" stroke="black" points="733.295,-171.996 735.369,-161.607 727.268,-168.435 733.295,-171.996"/>
</g>
<!-- scalaz.Traverse1&#45;&gt;scalaz.Traverse -->
<g id="edge52" class="edge"><title>scalaz.Traverse1&#45;&gt;scalaz.Traverse</title>
<path fill="none" stroke="black" d="M696.567,-198.352C691.844,-190.149 685.843,-179.728 680.484,-170.42"/>
<polygon fill="black" stroke="black" points="683.433,-168.526 675.41,-161.607 677.366,-172.019 683.433,-168.526"/>
</g>
</g>
</svg>

