<?xml version="1.0" encoding="UTF-8" standalone="no"?>
<!DOCTYPE svg PUBLIC "-//W3C//DTD SVG 1.1//EN"
 "http://www.w3.org/Graphics/SVG/1.1/DTD/svg11.dtd">
<!-- Generated by graphviz version 2.26.3 (20100126.1600)
 -->
<!-- Title: scalaz 7.2.1 diagram Pages: 1 -->
<svg width="576pt" height="170pt"
 viewBox="0.00 0.00 576.00 170.00" xmlns="http://www.w3.org/2000/svg" xmlns:xlink="http://www.w3.org/1999/xlink">
<g id="graph1" class="graph" transform="scale(1 1) rotate(0) translate(4 166)">
<title>scalaz 7.2.1 diagram</title>
<polygon fill="white" stroke="white" points="-4,5 -4,-166 573,-166 573,5 -4,5"/>
<!-- scalaz.Arrow -->
<g id="node1" class="node"><title>scalaz.Arrow</title>
<a xlink:href="https://github.com/scalaz/scalaz/tree/v7.2.1/core/src/main/scala/scalaz/Arrow.scala" xlink:title="scalaz.Arrow" target="_blank">
<polygon fill="#799f5a" stroke="black" points="75,-132.5 75,-161.5 119,-161.5 119,-132.5 75,-132.5"/>
<text text-anchor="middle" x="97" y="-144.5" font-family="Times Roman,serif" font-size="10.00">Arrow</text>
</a>
</g>
<!-- scalaz.Category -->
<g id="node6" class="node"><title>scalaz.Category</title>
<a xlink:href="https://github.com/scalaz/scalaz/tree/v7.2.1/core/src/main/scala/scalaz/Category.scala" xlink:title="scalaz.Category" target="_blank">
<polygon fill="#799f5a" stroke="black" points="0,-66.5 0,-95.5 60,-95.5 60,-66.5 0,-66.5"/>
<text text-anchor="middle" x="30" y="-78.5" font-family="Times Roman,serif" font-size="10.00">Category</text>
</a>
</g>
<!-- scalaz.Arrow&#45;&gt;scalaz.Category -->
<g id="edge24" class="edge"><title>scalaz.Arrow&#45;&gt;scalaz.Category</title>
<path fill="none" stroke="black" d="M82.1305,-132.352C73.2828,-123.637 61.8928,-112.417 52.0173,-102.689"/>
<polygon fill="black" stroke="black" points="54.4082,-100.131 44.8279,-95.6066 49.4958,-105.118 54.4082,-100.131"/>
</g>
<!-- scalaz.Split -->
<g id="node16" class="node"><title>scalaz.Split</title>
<a xlink:href="https://github.com/scalaz/scalaz/tree/v7.2.1/core/src/main/scala/scalaz/Split.scala" xlink:title="scalaz.Split" target="_blank">
<polygon fill="#799f5a" stroke="black" points="78,-66.5 78,-95.5 116,-95.5 116,-66.5 78,-66.5"/>
<text text-anchor="middle" x="97" y="-78.5" font-family="Times Roman,serif" font-size="10.00">Split</text>
</a>
</g>
<!-- scalaz.Arrow&#45;&gt;scalaz.Split -->
<g id="edge20" class="edge"><title>scalaz.Arrow&#45;&gt;scalaz.Split</title>
<path fill="none" stroke="black" d="M97,-132.352C97,-124.577 97,-114.808 97,-105.883"/>
<polygon fill="black" stroke="black" points="100.5,-105.607 97,-95.6066 93.5001,-105.607 100.5,-105.607"/>
</g>
<!-- scalaz.Strong -->
<g id="node17" class="node"><title>scalaz.Strong</title>
<a xlink:href="https://github.com/scalaz/scalaz/tree/v7.2.1/core/src/main/scala/scalaz/Strong.scala" xlink:title="scalaz.Strong" target="_blank">
<polygon fill="#799f5a" stroke="black" points="133.5,-66.5 133.5,-95.5 182.5,-95.5 182.5,-66.5 133.5,-66.5"/>
<text text-anchor="middle" x="158" y="-78.5" font-family="Times Roman,serif" font-size="10.00">Strong</text>
</a>
</g>
<!-- scalaz.Arrow&#45;&gt;scalaz.Strong -->
<g id="edge22" class="edge"><title>scalaz.Arrow&#45;&gt;scalaz.Strong</title>
<path fill="none" stroke="black" d="M110.538,-132.352C118.514,-123.722 128.76,-112.637 137.69,-102.975"/>
<polygon fill="black" stroke="black" points="140.283,-105.326 144.5,-95.6066 135.142,-100.575 140.283,-105.326"/>
</g>
<!-- scalaz.Associative -->
<g id="node2" class="node"><title>scalaz.Associative</title>
<a xlink:href="https://github.com/scalaz/scalaz/tree/v7.2.1/core/src/main/scala/scalaz/Associative.scala" xlink:title="scalaz.Associative" target="_blank">
<polygon fill="#799f5a" stroke="black" points="164.5,-132.5 164.5,-161.5 235.5,-161.5 235.5,-132.5 164.5,-132.5"/>
<text text-anchor="middle" x="200" y="-144.5" font-family="Times Roman,serif" font-size="10.00">Associative</text>
</a>
</g>
<!-- scalaz.Bifoldable -->
<g id="node3" class="node"><title>scalaz.Bifoldable</title>
<a xlink:href="https://github.com/scalaz/scalaz/tree/v7.2.1/core/src/main/scala/scalaz/Bifoldable.scala" xlink:title="scalaz.Bifoldable" target="_blank">
<polygon fill="#799f5a" stroke="black" points="281.5,-66.5 281.5,-95.5 344.5,-95.5 344.5,-66.5 281.5,-66.5"/>
<text text-anchor="middle" x="313" y="-78.5" font-family="Times Roman,serif" font-size="10.00">Bifoldable</text>
</a>
</g>
<!-- scalaz.Bifunctor -->
<g id="node4" class="node"><title>scalaz.Bifunctor</title>
<a xlink:href="https://github.com/scalaz/scalaz/tree/v7.2.1/core/src/main/scala/scalaz/Bifunctor.scala" xlink:title="scalaz.Bifunctor" target="_blank">
<polygon fill="#799f5a" stroke="black" points="361.5,-66.5 361.5,-95.5 420.5,-95.5 420.5,-66.5 361.5,-66.5"/>
<text text-anchor="middle" x="391" y="-78.5" font-family="Times Roman,serif" font-size="10.00">Bifunctor</text>
</a>
</g>
<!-- scalaz.Bitraverse -->
<g id="node5" class="node"><title>scalaz.Bitraverse</title>
<a xlink:href="https://github.com/scalaz/scalaz/tree/v7.2.1/core/src/main/scala/scalaz/Bitraverse.scala" xlink:title="scalaz.Bitraverse" target="_blank">
<polygon fill="#799f5a" stroke="black" points="317.5,-132.5 317.5,-161.5 382.5,-161.5 382.5,-132.5 317.5,-132.5"/>
<text text-anchor="middle" x="350" y="-144.5" font-family="Times Roman,serif" font-size="10.00">Bitraverse</text>
</a>
</g>
<!-- scalaz.Bitraverse&#45;&gt;scalaz.Bifoldable -->
<g id="edge16" class="edge"><title>scalaz.Bitraverse&#45;&gt;scalaz.Bifoldable</title>
<path fill="none" stroke="black" d="M341.789,-132.352C337.19,-124.149 331.348,-113.728 326.129,-104.42"/>
<polygon fill="black" stroke="black" points="329.132,-102.618 321.189,-95.6066 323.026,-106.041 329.132,-102.618"/>
</g>
<!-- scalaz.Bitraverse&#45;&gt;scalaz.Bifunctor -->
<g id="edge14" class="edge"><title>scalaz.Bitraverse&#45;&gt;scalaz.Bifunctor</title>
<path fill="none" stroke="black" d="M359.099,-132.352C364.248,-124.064 370.804,-113.511 376.632,-104.13"/>
<polygon fill="black" stroke="black" points="379.622,-105.948 381.926,-95.6066 373.676,-102.254 379.622,-105.948"/>
</g>
<!-- scalaz.Compose -->
<g id="node8" class="node"><title>scalaz.Compose</title>
<a xlink:href="https://github.com/scalaz/scalaz/tree/v7.2.1/core/src/main/scala/scalaz/Compose.scala" xlink:title="scalaz.Compose" target="_blank">
<polygon fill="#799f5a" stroke="black" points="44,-0.5 44,-29.5 106,-29.5 106,-0.5 44,-0.5"/>
<text text-anchor="middle" x="75" y="-12.5" font-family="Times Roman,serif" font-size="10.00">Compose</text>
</a>
</g>
<!-- scalaz.Category&#45;&gt;scalaz.Compose -->
<g id="edge4" class="edge"><title>scalaz.Category&#45;&gt;scalaz.Compose</title>
<path fill="none" stroke="black" d="M39.987,-66.3525C45.6382,-58.064 52.8336,-47.5108 59.2298,-38.1296"/>
<polygon fill="black" stroke="black" points="62.2993,-39.8406 65.041,-29.6066 56.5157,-35.8972 62.2993,-39.8406"/>
</g>
<!-- scalaz.Choice -->
<g id="node7" class="node"><title>scalaz.Choice</title>
<a xlink:href="https://github.com/scalaz/scalaz/tree/v7.2.1/core/src/main/scala/scalaz/Choice.scala" xlink:title="scalaz.Choice" target="_blank">
<polygon fill="#799f5a" stroke="black" points="5.5,-132.5 5.5,-161.5 54.5,-161.5 54.5,-132.5 5.5,-132.5"/>
<text text-anchor="middle" x="30" y="-144.5" font-family="Times Roman,serif" font-size="10.00">Choice</text>
</a>
</g>
<!-- scalaz.Choice&#45;&gt;scalaz.Category -->
<g id="edge18" class="edge"><title>scalaz.Choice&#45;&gt;scalaz.Category</title>
<path fill="none" stroke="black" d="M30,-132.352C30,-124.577 30,-114.808 30,-105.883"/>
<polygon fill="black" stroke="black" points="33.5001,-105.607 30,-95.6066 26.5001,-105.607 33.5001,-105.607"/>
</g>
<!-- scalaz.Enum -->
<g id="node9" class="node"><title>scalaz.Enum</title>
<a xlink:href="https://github.com/scalaz/scalaz/tree/v7.2.1/core/src/main/scala/scalaz/Enum.scala" xlink:title="scalaz.Enum" target="_blank">
<polygon fill="#799f5a" stroke="black" points="438,-132.5 438,-161.5 482,-161.5 482,-132.5 438,-132.5"/>
<text text-anchor="middle" x="460" y="-144.5" font-family="Times Roman,serif" font-size="10.00">Enum</text>
</a>
</g>
<!-- scalaz.Order -->
<g id="node12" class="node"><title>scalaz.Order</title>
<a xlink:href="https://github.com/scalaz/scalaz/tree/v7.2.1/core/src/main/scala/scalaz/Order.scala" xlink:title="scalaz.Order" target="_blank">
<polygon fill="#799f5a" stroke="black" points="438,-66.5 438,-95.5 482,-95.5 482,-66.5 438,-66.5"/>
<text text-anchor="middle" x="460" y="-78.5" font-family="Times Roman,serif" font-size="10.00">Order</text>
</a>
</g>
<!-- scalaz.Enum&#45;&gt;scalaz.Order -->
<g id="edge12" class="edge"><title>scalaz.Enum&#45;&gt;scalaz.Order</title>
<path fill="none" stroke="black" d="M460,-132.352C460,-124.577 460,-114.808 460,-105.883"/>
<polygon fill="black" stroke="black" points="463.5,-105.607 460,-95.6066 456.5,-105.607 463.5,-105.607"/>
</g>
<!-- scalaz.Equal -->
<g id="node10" class="node"><title>scalaz.Equal</title>
<a xlink:href="https://github.com/scalaz/scalaz/tree/v7.2.1/core/src/main/scala/scalaz/Equal.scala" xlink:title="scalaz.Equal" target="_blank">
<polygon fill="#799f5a" stroke="black" points="438.5,-0.5 438.5,-29.5 481.5,-29.5 481.5,-0.5 438.5,-0.5"/>
<text text-anchor="middle" x="460" y="-12.5" font-family="Times Roman,serif" font-size="10.00">Equal</text>
</a>
</g>
<!-- scalaz.Monoid -->
<g id="node11" class="node"><title>scalaz.Monoid</title>
<a xlink:href="https://github.com/scalaz/scalaz/tree/v7.2.1/core/src/main/scala/scalaz/Monoid.scala" xlink:title="scalaz.Monoid" target="_blank">
<polygon fill="#799f5a" stroke="black" points="508.5,-132.5 508.5,-161.5 559.5,-161.5 559.5,-132.5 508.5,-132.5"/>
<text text-anchor="middle" x="534" y="-144.5" font-family="Times Roman,serif" font-size="10.00">Monoid</text>
</a>
</g>
<!-- scalaz.Semigroup -->
<g id="node15" class="node"><title>scalaz.Semigroup</title>
<a xlink:href="https://github.com/scalaz/scalaz/tree/v7.2.1/core/src/main/scala/scalaz/Semigroup.scala" xlink:title="scalaz.Semigroup" target="_blank">
<polygon fill="#799f5a" stroke="black" points="499.5,-66.5 499.5,-95.5 568.5,-95.5 568.5,-66.5 499.5,-66.5"/>
<text text-anchor="middle" x="534" y="-78.5" font-family="Times Roman,serif" font-size="10.00">Semigroup</text>
</a>
</g>
<!-- scalaz.Monoid&#45;&gt;scalaz.Semigroup -->
<g id="edge10" class="edge"><title>scalaz.Monoid&#45;&gt;scalaz.Semigroup</title>
<path fill="none" stroke="black" d="M534,-132.352C534,-124.577 534,-114.808 534,-105.883"/>
<polygon fill="black" stroke="black" points="537.5,-105.607 534,-95.6066 530.5,-105.607 537.5,-105.607"/>
</g>
<!-- scalaz.Order&#45;&gt;scalaz.Equal -->
<g id="edge2" class="edge"><title>scalaz.Order&#45;&gt;scalaz.Equal</title>
<path fill="none" stroke="black" d="M460,-66.3525C460,-58.5767 460,-48.8077 460,-39.8831"/>
<polygon fill="black" stroke="black" points="463.5,-39.6066 460,-29.6066 456.5,-39.6066 463.5,-39.6066"/>
</g>
<!-- scalaz.ProChoice -->
<g id="node13" class="node"><title>scalaz.ProChoice</title>
<a xlink:href="https://github.com/scalaz/scalaz/tree/v7.2.1/core/src/main/scala/scalaz/ProChoice.scala" xlink:title="scalaz.ProChoice" target="_blank">
<polygon fill="#799f5a" stroke="black" points="199.5,-66.5 199.5,-95.5 264.5,-95.5 264.5,-66.5 199.5,-66.5"/>
<text text-anchor="middle" x="232" y="-78.5" font-family="Times Roman,serif" font-size="10.00">ProChoice</text>
</a>
</g>
<!-- scalaz.Profunctor -->
<g id="node14" class="node"><title>scalaz.Profunctor</title>
<a xlink:href="https://github.com/scalaz/scalaz/tree/v7.2.1/core/src/main/scala/scalaz/Profunctor.scala" xlink:title="scalaz.Profunctor" target="_blank">
<polygon fill="#799f5a" stroke="black" points="147,-0.5 147,-29.5 213,-29.5 213,-0.5 147,-0.5"/>
<text text-anchor="middle" x="180" y="-12.5" font-family="Times Roman,serif" font-size="10.00">Profunctor</text>
</a>
</g>
<!-- scalaz.ProChoice&#45;&gt;scalaz.Profunctor -->
<g id="edge26" class="edge"><title>scalaz.ProChoice&#45;&gt;scalaz.Profunctor</title>
<path fill="none" stroke="black" d="M220.46,-66.3525C213.795,-57.8931 205.271,-47.0746 197.767,-37.5508"/>
<polygon fill="black" stroke="black" points="200.446,-35.2955 191.508,-29.6066 194.948,-39.6276 200.446,-35.2955"/>
</g>
<!-- scalaz.Split&#45;&gt;scalaz.Compose -->
<g id="edge6" class="edge"><title>scalaz.Split&#45;&gt;scalaz.Compose</title>
<path fill="none" stroke="black" d="M92.1175,-66.3525C89.4686,-58.4058 86.1258,-48.3773 83.0986,-39.2959"/>
<polygon fill="black" stroke="black" points="86.3516,-37.9866 79.8689,-29.6066 79.7108,-40.2003 86.3516,-37.9866"/>
</g>
<!-- scalaz.Strong&#45;&gt;scalaz.Profunctor -->
<g id="edge8" class="edge"><title>scalaz.Strong&#45;&gt;scalaz.Profunctor</title>
<path fill="none" stroke="black" d="M162.883,-66.3525C165.531,-58.4058 168.874,-48.3773 171.901,-39.2959"/>
<polygon fill="black" stroke="black" points="175.289,-40.2003 175.131,-29.6066 168.648,-37.9866 175.289,-40.2003"/>
</g>
</g>
</svg>

