<?xml version="1.0" encoding="UTF-8" standalone="no"?>
<!DOCTYPE svg PUBLIC "-//W3C//DTD SVG 1.1//EN"
 "http://www.w3.org/Graphics/SVG/1.1/DTD/svg11.dtd">
<!-- Generated by graphviz version 2.43.0 (0)
 -->
<!-- Title: scalaz 7.3.8 diagram Pages: 1 -->
<svg width="672pt" height="170pt"
 viewBox="0.00 0.00 672.00 170.00" xmlns="http://www.w3.org/2000/svg" xmlns:xlink="http://www.w3.org/1999/xlink">
<g id="graph0" class="graph" transform="scale(1 1) rotate(0) translate(4 166)">
<title>scalaz 7.3.8 diagram</title>
<polygon fill="white" stroke="transparent" points="-4,4 -4,-166 668,-166 668,4 -4,4"/>
<!-- scalaz.Arrow -->
<g id="node1" class="node">
<title>scalaz.Arrow</title>
<g id="a_node1"><a xlink:href="https://github.com/scalaz/scalaz/tree/v7.3.8/core/src/main/scala/scalaz/Arrow.scala" xlink:title="scalaz.Arrow" target="_blank">
<polygon fill="#799f5a" stroke="black" points="78,-132.5 78,-161.5 125,-161.5 125,-132.5 78,-132.5"/>
<text text-anchor="middle" x="101.5" y="-144.5" font-family="Times,serif" font-size="10.00">Arrow</text>
</a>
</g>
</g>
<!-- scalaz.Category -->
<g id="node7" class="node">
<title>scalaz.Category</title>
<g id="a_node7"><a xlink:href="https://github.com/scalaz/scalaz/tree/v7.3.8/core/src/main/scala/scalaz/Category.scala" xlink:title="scalaz.Category" target="_blank">
<polygon fill="#799f5a" stroke="black" points="0,-66.5 0,-95.5 63,-95.5 63,-66.5 0,-66.5"/>
<text text-anchor="middle" x="31.5" y="-78.5" font-family="Times,serif" font-size="10.00">Category</text>
</a>
</g>
</g>
<!-- scalaz.Arrow&#45;&gt;scalaz.Category -->
<g id="edge14" class="edge">
<title>scalaz.Arrow&#45;&gt;scalaz.Category</title>
<path fill="none" stroke="black" d="M86.65,-132.43C77.1,-123.69 64.49,-112.17 53.75,-102.34"/>
<polygon fill="black" stroke="black" points="56.07,-99.72 46.32,-95.55 51.34,-104.88 56.07,-99.72"/>
</g>
<!-- scalaz.Split -->
<g id="node18" class="node">
<title>scalaz.Split</title>
<g id="a_node18"><a xlink:href="https://github.com/scalaz/scalaz/tree/v7.3.8/core/src/main/scala/scalaz/Split.scala" xlink:title="scalaz.Split" target="_blank">
<polygon fill="#799f5a" stroke="black" points="81.5,-66.5 81.5,-95.5 121.5,-95.5 121.5,-66.5 81.5,-66.5"/>
<text text-anchor="middle" x="101.5" y="-78.5" font-family="Times,serif" font-size="10.00">Split</text>
</a>
</g>
</g>
<!-- scalaz.Arrow&#45;&gt;scalaz.Split -->
<g id="edge12" class="edge">
<title>scalaz.Arrow&#45;&gt;scalaz.Split</title>
<path fill="none" stroke="black" d="M101.5,-132.43C101.5,-124.71 101.5,-114.81 101.5,-105.84"/>
<polygon fill="black" stroke="black" points="105,-105.55 101.5,-95.55 98,-105.55 105,-105.55"/>
</g>
<!-- scalaz.Strong -->
<g id="node19" class="node">
<title>scalaz.Strong</title>
<g id="a_node19"><a xlink:href="https://github.com/scalaz/scalaz/tree/v7.3.8/core/src/main/scala/scalaz/Strong.scala" xlink:title="scalaz.Strong" target="_blank">
<polygon fill="#799f5a" stroke="black" points="140,-66.5 140,-95.5 191,-95.5 191,-66.5 140,-66.5"/>
<text text-anchor="middle" x="165.5" y="-78.5" font-family="Times,serif" font-size="10.00">Strong</text>
</a>
</g>
</g>
<!-- scalaz.Arrow&#45;&gt;scalaz.Strong -->
<g id="edge13" class="edge">
<title>scalaz.Arrow&#45;&gt;scalaz.Strong</title>
<path fill="none" stroke="black" d="M115.07,-132.43C123.73,-123.77 135.11,-112.39 144.87,-102.63"/>
<polygon fill="black" stroke="black" points="147.35,-105.1 151.95,-95.55 142.4,-100.15 147.35,-105.1"/>
</g>
<!-- scalaz.Associative -->
<g id="node2" class="node">
<title>scalaz.Associative</title>
<g id="a_node2"><a xlink:href="https://github.com/scalaz/scalaz/tree/v7.3.8/core/src/main/scala/scalaz/Associative.scala" xlink:title="scalaz.Associative" target="_blank">
<polygon fill="#799f5a" stroke="black" points="202.5,-132.5 202.5,-161.5 276.5,-161.5 276.5,-132.5 202.5,-132.5"/>
<text text-anchor="middle" x="239.5" y="-144.5" font-family="Times,serif" font-size="10.00">Associative</text>
</a>
</g>
</g>
<!-- scalaz.Band -->
<g id="node3" class="node">
<title>scalaz.Band</title>
<g id="a_node3"><a xlink:href="https://github.com/scalaz/scalaz/tree/v7.3.8/core/src/main/scala/scalaz/Band.scala" xlink:title="scalaz.Band" target="_blank">
<polygon fill="#799f5a" stroke="black" points="369.5,-66.5 369.5,-95.5 413.5,-95.5 413.5,-66.5 369.5,-66.5"/>
<text text-anchor="middle" x="391.5" y="-78.5" font-family="Times,serif" font-size="10.00">Band</text>
</a>
</g>
</g>
<!-- scalaz.Semigroup -->
<g id="node17" class="node">
<title>scalaz.Semigroup</title>
<g id="a_node17"><a xlink:href="https://github.com/scalaz/scalaz/tree/v7.3.8/core/src/main/scala/scalaz/Semigroup.scala" xlink:title="scalaz.Semigroup" target="_blank">
<polygon fill="#799f5a" stroke="black" points="321,-0.5 321,-29.5 394,-29.5 394,-0.5 321,-0.5"/>
<text text-anchor="middle" x="357.5" y="-12.5" font-family="Times,serif" font-size="10.00">Semigroup</text>
</a>
</g>
</g>
<!-- scalaz.Band&#45;&gt;scalaz.Semigroup -->
<g id="edge1" class="edge">
<title>scalaz.Band&#45;&gt;scalaz.Semigroup</title>
<path fill="none" stroke="black" d="M384.29,-66.43C380.01,-58.37 374.47,-47.94 369.54,-38.66"/>
<polygon fill="black" stroke="black" points="372.48,-36.74 364.7,-29.55 366.3,-40.03 372.48,-36.74"/>
</g>
<!-- scalaz.Bifoldable -->
<g id="node4" class="node">
<title>scalaz.Bifoldable</title>
<g id="a_node4"><a xlink:href="https://github.com/scalaz/scalaz/tree/v7.3.8/core/src/main/scala/scalaz/Bifoldable.scala" xlink:title="scalaz.Bifoldable" target="_blank">
<polygon fill="#799f5a" stroke="black" points="431.5,-66.5 431.5,-95.5 499.5,-95.5 499.5,-66.5 431.5,-66.5"/>
<text text-anchor="middle" x="465.5" y="-78.5" font-family="Times,serif" font-size="10.00">Bifoldable</text>
</a>
</g>
</g>
<!-- scalaz.Bifunctor -->
<g id="node5" class="node">
<title>scalaz.Bifunctor</title>
<g id="a_node5"><a xlink:href="https://github.com/scalaz/scalaz/tree/v7.3.8/core/src/main/scala/scalaz/Bifunctor.scala" xlink:title="scalaz.Bifunctor" target="_blank">
<polygon fill="#799f5a" stroke="black" points="517.5,-66.5 517.5,-95.5 581.5,-95.5 581.5,-66.5 517.5,-66.5"/>
<text text-anchor="middle" x="549.5" y="-78.5" font-family="Times,serif" font-size="10.00">Bifunctor</text>
</a>
</g>
</g>
<!-- scalaz.Bitraverse -->
<g id="node6" class="node">
<title>scalaz.Bitraverse</title>
<g id="a_node6"><a xlink:href="https://github.com/scalaz/scalaz/tree/v7.3.8/core/src/main/scala/scalaz/Bitraverse.scala" xlink:title="scalaz.Bitraverse" target="_blank">
<polygon fill="#799f5a" stroke="black" points="498,-132.5 498,-161.5 567,-161.5 567,-132.5 498,-132.5"/>
<text text-anchor="middle" x="532.5" y="-144.5" font-family="Times,serif" font-size="10.00">Bitraverse</text>
</a>
</g>
</g>
<!-- scalaz.Bitraverse&#45;&gt;scalaz.Bifoldable -->
<g id="edge10" class="edge">
<title>scalaz.Bitraverse&#45;&gt;scalaz.Bifoldable</title>
<path fill="none" stroke="black" d="M518.29,-132.43C509.23,-123.77 497.31,-112.39 487.1,-102.63"/>
<polygon fill="black" stroke="black" points="489.34,-99.93 479.69,-95.55 484.5,-104.99 489.34,-99.93"/>
</g>
<!-- scalaz.Bitraverse&#45;&gt;scalaz.Bifunctor -->
<g id="edge9" class="edge">
<title>scalaz.Bitraverse&#45;&gt;scalaz.Bifunctor</title>
<path fill="none" stroke="black" d="M536.11,-132.43C538.2,-124.54 540.9,-114.38 543.32,-105.25"/>
<polygon fill="black" stroke="black" points="546.72,-106.12 545.9,-95.55 539.95,-104.32 546.72,-106.12"/>
</g>
<!-- scalaz.Compose -->
<g id="node9" class="node">
<title>scalaz.Compose</title>
<g id="a_node9"><a xlink:href="https://github.com/scalaz/scalaz/tree/v7.3.8/core/src/main/scala/scalaz/Compose.scala" xlink:title="scalaz.Compose" target="_blank">
<polygon fill="#799f5a" stroke="black" points="46.5,-0.5 46.5,-29.5 110.5,-29.5 110.5,-0.5 46.5,-0.5"/>
<text text-anchor="middle" x="78.5" y="-12.5" font-family="Times,serif" font-size="10.00">Compose</text>
</a>
</g>
</g>
<!-- scalaz.Category&#45;&gt;scalaz.Compose -->
<g id="edge3" class="edge">
<title>scalaz.Category&#45;&gt;scalaz.Compose</title>
<path fill="none" stroke="black" d="M41.47,-66.43C47.57,-58.11 55.53,-47.28 62.5,-37.78"/>
<polygon fill="black" stroke="black" points="65.45,-39.68 68.55,-29.55 59.81,-35.54 65.45,-39.68"/>
</g>
<!-- scalaz.Choice -->
<g id="node8" class="node">
<title>scalaz.Choice</title>
<g id="a_node8"><a xlink:href="https://github.com/scalaz/scalaz/tree/v7.3.8/core/src/main/scala/scalaz/Choice.scala" xlink:title="scalaz.Choice" target="_blank">
<polygon fill="#799f5a" stroke="black" points="6,-132.5 6,-161.5 57,-161.5 57,-132.5 6,-132.5"/>
<text text-anchor="middle" x="31.5" y="-144.5" font-family="Times,serif" font-size="10.00">Choice</text>
</a>
</g>
</g>
<!-- scalaz.Choice&#45;&gt;scalaz.Category -->
<g id="edge11" class="edge">
<title>scalaz.Choice&#45;&gt;scalaz.Category</title>
<path fill="none" stroke="black" d="M31.5,-132.43C31.5,-124.71 31.5,-114.81 31.5,-105.84"/>
<polygon fill="black" stroke="black" points="35,-105.55 31.5,-95.55 28,-105.55 35,-105.55"/>
</g>
<!-- scalaz.Enum -->
<g id="node10" class="node">
<title>scalaz.Enum</title>
<g id="a_node10"><a xlink:href="https://github.com/scalaz/scalaz/tree/v7.3.8/core/src/main/scala/scalaz/Enum.scala" xlink:title="scalaz.Enum" target="_blank">
<polygon fill="#799f5a" stroke="black" points="617,-132.5 617,-161.5 664,-161.5 664,-132.5 617,-132.5"/>
<text text-anchor="middle" x="640.5" y="-144.5" font-family="Times,serif" font-size="10.00">Enum</text>
</a>
</g>
</g>
<!-- scalaz.Order -->
<g id="node13" class="node">
<title>scalaz.Order</title>
<g id="a_node13"><a xlink:href="https://github.com/scalaz/scalaz/tree/v7.3.8/core/src/main/scala/scalaz/Order.scala" xlink:title="scalaz.Order" target="_blank">
<polygon fill="#799f5a" stroke="black" points="617,-66.5 617,-95.5 664,-95.5 664,-66.5 617,-66.5"/>
<text text-anchor="middle" x="640.5" y="-78.5" font-family="Times,serif" font-size="10.00">Order</text>
</a>
</g>
</g>
<!-- scalaz.Enum&#45;&gt;scalaz.Order -->
<g id="edge8" class="edge">
<title>scalaz.Enum&#45;&gt;scalaz.Order</title>
<path fill="none" stroke="black" d="M640.5,-132.43C640.5,-124.71 640.5,-114.81 640.5,-105.84"/>
<polygon fill="black" stroke="black" points="644,-105.55 640.5,-95.55 637,-105.55 644,-105.55"/>
</g>
<!-- scalaz.Equal -->
<g id="node11" class="node">
<title>scalaz.Equal</title>
<g id="a_node11"><a xlink:href="https://github.com/scalaz/scalaz/tree/v7.3.8/core/src/main/scala/scalaz/Equal.scala" xlink:title="scalaz.Equal" target="_blank">
<polygon fill="#799f5a" stroke="black" points="617,-0.5 617,-29.5 664,-29.5 664,-0.5 617,-0.5"/>
<text text-anchor="middle" x="640.5" y="-12.5" font-family="Times,serif" font-size="10.00">Equal</text>
</a>
</g>
</g>
<!-- scalaz.Monoid -->
<g id="node12" class="node">
<title>scalaz.Monoid</title>
<g id="a_node12"><a xlink:href="https://github.com/scalaz/scalaz/tree/v7.3.8/core/src/main/scala/scalaz/Monoid.scala" xlink:title="scalaz.Monoid" target="_blank">
<polygon fill="#799f5a" stroke="black" points="295.5,-66.5 295.5,-95.5 351.5,-95.5 351.5,-66.5 295.5,-66.5"/>
<text text-anchor="middle" x="323.5" y="-78.5" font-family="Times,serif" font-size="10.00">Monoid</text>
</a>
</g>
</g>
<!-- scalaz.Monoid&#45;&gt;scalaz.Semigroup -->
<g id="edge7" class="edge">
<title>scalaz.Monoid&#45;&gt;scalaz.Semigroup</title>
<path fill="none" stroke="black" d="M330.71,-66.43C334.99,-58.37 340.53,-47.94 345.46,-38.66"/>
<polygon fill="black" stroke="black" points="348.7,-40.03 350.3,-29.55 342.52,-36.74 348.7,-40.03"/>
</g>
<!-- scalaz.Order&#45;&gt;scalaz.Equal -->
<g id="edge2" class="edge">
<title>scalaz.Order&#45;&gt;scalaz.Equal</title>
<path fill="none" stroke="black" d="M640.5,-66.43C640.5,-58.71 640.5,-48.81 640.5,-39.84"/>
<polygon fill="black" stroke="black" points="644,-39.55 640.5,-29.55 637,-39.55 644,-39.55"/>
</g>
<!-- scalaz.ProChoice -->
<g id="node14" class="node">
<title>scalaz.ProChoice</title>
<g id="a_node14"><a xlink:href="https://github.com/scalaz/scalaz/tree/v7.3.8/core/src/main/scala/scalaz/ProChoice.scala" xlink:title="scalaz.ProChoice" target="_blank">
<polygon fill="#799f5a" stroke="black" points="209.5,-66.5 209.5,-95.5 277.5,-95.5 277.5,-66.5 209.5,-66.5"/>
<text text-anchor="middle" x="243.5" y="-78.5" font-family="Times,serif" font-size="10.00">ProChoice</text>
</a>
</g>
</g>
<!-- scalaz.Profunctor -->
<g id="node15" class="node">
<title>scalaz.Profunctor</title>
<g id="a_node15"><a xlink:href="https://github.com/scalaz/scalaz/tree/v7.3.8/core/src/main/scala/scalaz/Profunctor.scala" xlink:title="scalaz.Profunctor" target="_blank">
<polygon fill="#799f5a" stroke="black" points="153,-0.5 153,-29.5 224,-29.5 224,-0.5 153,-0.5"/>
<text text-anchor="middle" x="188.5" y="-12.5" font-family="Times,serif" font-size="10.00">Profunctor</text>
</a>
</g>
</g>
<!-- scalaz.ProChoice&#45;&gt;scalaz.Profunctor -->
<g id="edge15" class="edge">
<title>scalaz.ProChoice&#45;&gt;scalaz.Profunctor</title>
<path fill="none" stroke="black" d="M231.84,-66.43C224.54,-57.94 215,-46.83 206.72,-37.2"/>
<polygon fill="black" stroke="black" points="209.32,-34.86 200.15,-29.55 204.01,-39.42 209.32,-34.86"/>
</g>
<!-- scalaz.SemiLattice -->
<g id="node16" class="node">
<title>scalaz.SemiLattice</title>
<g id="a_node16"><a xlink:href="https://github.com/scalaz/scalaz/tree/v7.3.8/core/src/main/scala/scalaz/SemiLattice.scala" xlink:title="scalaz.SemiLattice" target="_blank">
<polygon fill="#799f5a" stroke="black" points="353,-132.5 353,-161.5 430,-161.5 430,-132.5 353,-132.5"/>
<text text-anchor="middle" x="391.5" y="-144.5" font-family="Times,serif" font-size="10.00">SemiLattice</text>
</a>
</g>
</g>
<!-- scalaz.SemiLattice&#45;&gt;scalaz.Band -->
<g id="edge6" class="edge">
<title>scalaz.SemiLattice&#45;&gt;scalaz.Band</title>
<path fill="none" stroke="black" d="M391.5,-132.43C391.5,-124.71 391.5,-114.81 391.5,-105.84"/>
<polygon fill="black" stroke="black" points="395,-105.55 391.5,-95.55 388,-105.55 395,-105.55"/>
</g>
<!-- scalaz.Split&#45;&gt;scalaz.Compose -->
<g id="edge5" class="edge">
<title>scalaz.Split&#45;&gt;scalaz.Compose</title>
<path fill="none" stroke="black" d="M96.62,-66.43C93.79,-58.54 90.14,-48.38 86.85,-39.25"/>
<polygon fill="black" stroke="black" points="90.05,-37.78 83.37,-29.55 83.46,-40.15 90.05,-37.78"/>
</g>
<!-- scalaz.Strong&#45;&gt;scalaz.Profunctor -->
<g id="edge4" class="edge">
<title>scalaz.Strong&#45;&gt;scalaz.Profunctor</title>
<path fill="none" stroke="black" d="M170.38,-66.43C173.21,-58.54 176.86,-48.38 180.15,-39.25"/>
<polygon fill="black" stroke="black" points="183.54,-40.15 183.63,-29.55 176.95,-37.78 183.54,-40.15"/>
</g>
</g>
</svg>

