<?xml version="1.0" encoding="UTF-8" standalone="no"?>
<!DOCTYPE svg PUBLIC "-//W3C//DTD SVG 1.1//EN"
 "http://www.w3.org/Graphics/SVG/1.1/DTD/svg11.dtd">
<!-- Generated by graphviz version 2.40.1 (20161225.0304)
 -->
<!-- Title: scalaz 7.2.29 diagram Pages: 1 -->
<svg width="585pt" height="434pt"
 viewBox="0.00 0.00 585.00 434.00" xmlns="http://www.w3.org/2000/svg" xmlns:xlink="http://www.w3.org/1999/xlink">
<g id="graph0" class="graph" transform="scale(1 1) rotate(0) translate(4 430)">
<title>scalaz 7.2.29 diagram</title>
<polygon fill="#ffffff" stroke="transparent" points="-4,4 -4,-430 581,-430 581,4 -4,4"/>
<!-- scalaz.Align -->
<g id="node1" class="node">
<title>scalaz.Align</title>
<g id="a_node1"><a xlink:href="https://github.com/scalaz/scalaz/tree/v7.2.29/core/src/main/scala/scalaz/Align.scala" xlink:title="scalaz.Align" target="_blank">
<polygon fill="#799f5a" stroke="#000000" points="93,-132.5 93,-161.5 134,-161.5 134,-132.5 93,-132.5"/>
<text text-anchor="middle" x="113.5" y="-144.5" font-family="Times,serif" font-size="10.00" fill="#000000">Align</text>
</a>
</g>
</g>
<!-- scalaz.Functor -->
<g id="node16" class="node">
<title>scalaz.Functor</title>
<g id="a_node16"><a xlink:href="https://github.com/scalaz/scalaz/tree/v7.2.29/core/src/main/scala/scalaz/Functor.scala" xlink:title="scalaz.Functor" target="_blank">
<polygon fill="#799f5a" stroke="#000000" points="236,-66.5 236,-95.5 291,-95.5 291,-66.5 236,-66.5"/>
<text text-anchor="middle" x="263.5" y="-78.5" font-family="Times,serif" font-size="10.00" fill="#000000">Functor</text>
</a>
</g>
</g>
<!-- scalaz.Align&#45;&gt;scalaz.Functor -->
<g id="edge31" class="edge">
<title>scalaz.Align&#45;&gt;scalaz.Functor</title>
<path fill="none" stroke="#000000" d="M134.0757,-136.5029C137.2173,-134.961 140.434,-133.4164 143.5,-132 170.9534,-119.3175 202.4331,-105.983 226.2604,-96.1308"/>
<polygon fill="#000000" stroke="#000000" points="227.7284,-99.3115 235.6427,-92.2677 225.0632,-92.8387 227.7284,-99.3115"/>
</g>
<!-- scalaz.Applicative -->
<g id="node2" class="node">
<title>scalaz.Applicative</title>
<g id="a_node2"><a xlink:href="https://github.com/scalaz/scalaz/tree/v7.2.29/core/src/main/scala/scalaz/Applicative.scala" xlink:title="scalaz.Applicative" target="_blank">
<polygon fill="#799f5a" stroke="#000000" points="191,-198.5 191,-227.5 262,-227.5 262,-198.5 191,-198.5"/>
<text text-anchor="middle" x="226.5" y="-210.5" font-family="Times,serif" font-size="10.00" fill="#000000">Applicative</text>
</a>
</g>
</g>
<!-- scalaz.Apply -->
<g id="node4" class="node">
<title>scalaz.Apply</title>
<g id="a_node4"><a xlink:href="https://github.com/scalaz/scalaz/tree/v7.2.29/core/src/main/scala/scalaz/Apply.scala" xlink:title="scalaz.Apply" target="_blank">
<polygon fill="#799f5a" stroke="#000000" points="208.5,-132.5 208.5,-161.5 252.5,-161.5 252.5,-132.5 208.5,-132.5"/>
<text text-anchor="middle" x="230.5" y="-144.5" font-family="Times,serif" font-size="10.00" fill="#000000">Apply</text>
</a>
</g>
</g>
<!-- scalaz.Applicative&#45;&gt;scalaz.Apply -->
<g id="edge5" class="edge">
<title>scalaz.Applicative&#45;&gt;scalaz.Apply</title>
<path fill="none" stroke="#000000" d="M227.3877,-198.3525C227.8642,-190.4913 228.4641,-180.5927 229.0097,-171.5892"/>
<polygon fill="#000000" stroke="#000000" points="232.5033,-171.8 229.6148,-161.6066 225.5161,-171.3765 232.5033,-171.8"/>
</g>
<!-- scalaz.ApplicativePlus -->
<g id="node3" class="node">
<title>scalaz.ApplicativePlus</title>
<g id="a_node3"><a xlink:href="https://github.com/scalaz/scalaz/tree/v7.2.29/core/src/main/scala/scalaz/ApplicativePlus.scala" xlink:title="scalaz.ApplicativePlus" target="_blank">
<polygon fill="#799f5a" stroke="#000000" points="92.5,-264.5 92.5,-293.5 184.5,-293.5 184.5,-264.5 92.5,-264.5"/>
<text text-anchor="middle" x="138.5" y="-276.5" font-family="Times,serif" font-size="10.00" fill="#000000">ApplicativePlus</text>
</a>
</g>
</g>
<!-- scalaz.ApplicativePlus&#45;&gt;scalaz.Applicative -->
<g id="edge6" class="edge">
<title>scalaz.ApplicativePlus&#45;&gt;scalaz.Applicative</title>
<path fill="none" stroke="#000000" d="M158.0301,-264.3525C169.9928,-255.3804 185.4938,-243.7546 198.7209,-233.8343"/>
<polygon fill="#000000" stroke="#000000" points="201.1245,-236.4066 207.0245,-227.6066 196.9245,-230.8066 201.1245,-236.4066"/>
</g>
<!-- scalaz.PlusEmpty -->
<g id="node28" class="node">
<title>scalaz.PlusEmpty</title>
<g id="a_node28"><a xlink:href="https://github.com/scalaz/scalaz/tree/v7.2.29/core/src/main/scala/scalaz/PlusEmpty.scala" xlink:title="scalaz.PlusEmpty" target="_blank">
<polygon fill="#799f5a" stroke="#000000" points="104.5,-198.5 104.5,-227.5 172.5,-227.5 172.5,-198.5 104.5,-198.5"/>
<text text-anchor="middle" x="138.5" y="-210.5" font-family="Times,serif" font-size="10.00" fill="#000000">PlusEmpty</text>
</a>
</g>
</g>
<!-- scalaz.ApplicativePlus&#45;&gt;scalaz.PlusEmpty -->
<g id="edge7" class="edge">
<title>scalaz.ApplicativePlus&#45;&gt;scalaz.PlusEmpty</title>
<path fill="none" stroke="#000000" d="M138.5,-264.3525C138.5,-256.5767 138.5,-246.8077 138.5,-237.8831"/>
<polygon fill="#000000" stroke="#000000" points="142.0001,-237.6066 138.5,-227.6066 135.0001,-237.6066 142.0001,-237.6066"/>
</g>
<!-- scalaz.Apply&#45;&gt;scalaz.Functor -->
<g id="edge9" class="edge">
<title>scalaz.Apply&#45;&gt;scalaz.Functor</title>
<path fill="none" stroke="#000000" d="M237.8238,-132.3525C241.8825,-124.2349 247.0275,-113.945 251.6443,-104.7113"/>
<polygon fill="#000000" stroke="#000000" points="254.855,-106.1161 256.1967,-95.6066 248.594,-102.9856 254.855,-106.1161"/>
</g>
<!-- scalaz.Bind -->
<g id="node5" class="node">
<title>scalaz.Bind</title>
<g id="a_node5"><a xlink:href="https://github.com/scalaz/scalaz/tree/v7.2.29/core/src/main/scala/scalaz/Bind.scala" xlink:title="scalaz.Bind" target="_blank">
<polygon fill="#799f5a" stroke="#000000" points="280,-198.5 280,-227.5 319,-227.5 319,-198.5 280,-198.5"/>
<text text-anchor="middle" x="299.5" y="-210.5" font-family="Times,serif" font-size="10.00" fill="#000000">Bind</text>
</a>
</g>
</g>
<!-- scalaz.Bind&#45;&gt;scalaz.Apply -->
<g id="edge2" class="edge">
<title>scalaz.Bind&#45;&gt;scalaz.Apply</title>
<path fill="none" stroke="#000000" d="M284.1867,-198.3525C275.0748,-189.6368 263.3448,-178.4168 253.1746,-168.6887"/>
<polygon fill="#000000" stroke="#000000" points="255.4163,-165.9896 245.7705,-161.6066 250.5777,-171.0481 255.4163,-165.9896"/>
</g>
<!-- scalaz.BindRec -->
<g id="node6" class="node">
<title>scalaz.BindRec</title>
<g id="a_node6"><a xlink:href="https://github.com/scalaz/scalaz/tree/v7.2.29/core/src/main/scala/scalaz/BindRec.scala" xlink:title="scalaz.BindRec" target="_blank">
<polygon fill="#799f5a" stroke="#000000" points="270.5,-264.5 270.5,-293.5 328.5,-293.5 328.5,-264.5 270.5,-264.5"/>
<text text-anchor="middle" x="299.5" y="-276.5" font-family="Times,serif" font-size="10.00" fill="#000000">BindRec</text>
</a>
</g>
</g>
<!-- scalaz.BindRec&#45;&gt;scalaz.Bind -->
<g id="edge30" class="edge">
<title>scalaz.BindRec&#45;&gt;scalaz.Bind</title>
<path fill="none" stroke="#000000" d="M299.5,-264.3525C299.5,-256.5767 299.5,-246.8077 299.5,-237.8831"/>
<polygon fill="#000000" stroke="#000000" points="303.0001,-237.6066 299.5,-227.6066 296.0001,-237.6066 303.0001,-237.6066"/>
</g>
<!-- scalaz.Cobind -->
<g id="node7" class="node">
<title>scalaz.Cobind</title>
<g id="a_node7"><a xlink:href="https://github.com/scalaz/scalaz/tree/v7.2.29/core/src/main/scala/scalaz/Cobind.scala" xlink:title="scalaz.Cobind" target="_blank">
<polygon fill="#799f5a" stroke="#000000" points="271,-132.5 271,-161.5 322,-161.5 322,-132.5 271,-132.5"/>
<text text-anchor="middle" x="296.5" y="-144.5" font-family="Times,serif" font-size="10.00" fill="#000000">Cobind</text>
</a>
</g>
</g>
<!-- scalaz.Cobind&#45;&gt;scalaz.Functor -->
<g id="edge11" class="edge">
<title>scalaz.Cobind&#45;&gt;scalaz.Functor</title>
<path fill="none" stroke="#000000" d="M289.1762,-132.3525C285.1175,-124.2349 279.9725,-113.945 275.3557,-104.7113"/>
<polygon fill="#000000" stroke="#000000" points="278.406,-102.9856 270.8033,-95.6066 272.145,-106.1161 278.406,-102.9856"/>
</g>
<!-- scalaz.Comonad -->
<g id="node8" class="node">
<title>scalaz.Comonad</title>
<g id="a_node8"><a xlink:href="https://github.com/scalaz/scalaz/tree/v7.2.29/core/src/main/scala/scalaz/Comonad.scala" xlink:title="scalaz.Comonad" target="_blank">
<polygon fill="#799f5a" stroke="#000000" points="354,-198.5 354,-227.5 417,-227.5 417,-198.5 354,-198.5"/>
<text text-anchor="middle" x="385.5" y="-210.5" font-family="Times,serif" font-size="10.00" fill="#000000">Comonad</text>
</a>
</g>
</g>
<!-- scalaz.Comonad&#45;&gt;scalaz.Cobind -->
<g id="edge10" class="edge">
<title>scalaz.Comonad&#45;&gt;scalaz.Cobind</title>
<path fill="none" stroke="#000000" d="M365.748,-198.3525C353.6494,-189.3804 337.9721,-177.7546 324.5948,-167.8343"/>
<polygon fill="#000000" stroke="#000000" points="326.314,-164.7519 316.1968,-161.6066 322.1443,-170.3746 326.314,-164.7519"/>
</g>
<!-- scalaz.ComonadStore -->
<g id="node9" class="node">
<title>scalaz.ComonadStore</title>
<g id="a_node9"><a xlink:href="https://github.com/scalaz/scalaz/tree/v7.2.29/core/src/main/scala/scalaz/ComonadStore.scala" xlink:title="scalaz.ComonadStore" target="_blank">
<polygon fill="#799f5a" stroke="#000000" points="346.5,-264.5 346.5,-293.5 436.5,-293.5 436.5,-264.5 346.5,-264.5"/>
<text text-anchor="middle" x="391.5" y="-276.5" font-family="Times,serif" font-size="10.00" fill="#000000">ComonadStore</text>
</a>
</g>
</g>
<!-- scalaz.ComonadStore&#45;&gt;scalaz.Comonad -->
<g id="edge20" class="edge">
<title>scalaz.ComonadStore&#45;&gt;scalaz.Comonad</title>
<path fill="none" stroke="#000000" d="M390.1684,-264.3525C389.4538,-256.4913 388.5539,-246.5927 387.7354,-237.5892"/>
<polygon fill="#000000" stroke="#000000" points="391.2189,-237.2486 386.8279,-227.6066 384.2477,-237.8824 391.2189,-237.2486"/>
</g>
<!-- scalaz.Contravariant -->
<g id="node10" class="node">
<title>scalaz.Contravariant</title>
<g id="a_node10"><a xlink:href="https://github.com/scalaz/scalaz/tree/v7.2.29/core/src/main/scala/scalaz/Contravariant.scala" xlink:title="scalaz.Contravariant" target="_blank">
<polygon fill="#799f5a" stroke="#000000" points="88,-66.5 88,-95.5 173,-95.5 173,-66.5 88,-66.5"/>
<text text-anchor="middle" x="130.5" y="-78.5" font-family="Times,serif" font-size="10.00" fill="#000000">Contravariant</text>
</a>
</g>
</g>
<!-- scalaz.InvariantFunctor -->
<g id="node17" class="node">
<title>scalaz.InvariantFunctor</title>
<g id="a_node17"><a xlink:href="https://github.com/scalaz/scalaz/tree/v7.2.29/core/src/main/scala/scalaz/InvariantFunctor.scala" xlink:title="scalaz.InvariantFunctor" target="_blank">
<polygon fill="#799f5a" stroke="#000000" points="125,-.5 125,-29.5 224,-29.5 224,-.5 125,-.5"/>
<text text-anchor="middle" x="174.5" y="-12.5" font-family="Times,serif" font-size="10.00" fill="#000000">InvariantFunctor</text>
</a>
</g>
</g>
<!-- scalaz.Contravariant&#45;&gt;scalaz.InvariantFunctor -->
<g id="edge16" class="edge">
<title>scalaz.Contravariant&#45;&gt;scalaz.InvariantFunctor</title>
<path fill="none" stroke="#000000" d="M140.265,-66.3525C145.7907,-58.064 152.8262,-47.5108 159.0803,-38.1296"/>
<polygon fill="#000000" stroke="#000000" points="162.1274,-39.8686 164.7623,-29.6066 156.303,-35.9856 162.1274,-39.8686"/>
</g>
<!-- scalaz.Distributive -->
<g id="node11" class="node">
<title>scalaz.Distributive</title>
<g id="a_node11"><a xlink:href="https://github.com/scalaz/scalaz/tree/v7.2.29/core/src/main/scala/scalaz/Distributive.scala" xlink:title="scalaz.Distributive" target="_blank">
<polygon fill="#799f5a" stroke="#000000" points="340.5,-132.5 340.5,-161.5 414.5,-161.5 414.5,-132.5 340.5,-132.5"/>
<text text-anchor="middle" x="377.5" y="-144.5" font-family="Times,serif" font-size="10.00" fill="#000000">Distributive</text>
</a>
</g>
</g>
<!-- scalaz.Distributive&#45;&gt;scalaz.Functor -->
<g id="edge32" class="edge">
<title>scalaz.Distributive&#45;&gt;scalaz.Functor</title>
<path fill="none" stroke="#000000" d="M352.1997,-132.3525C336.1122,-123.0386 315.085,-110.865 297.5415,-100.7082"/>
<polygon fill="#000000" stroke="#000000" points="299.1375,-97.588 288.7296,-95.6066 295.6302,-103.646 299.1375,-97.588"/>
</g>
<!-- scalaz.Divide -->
<g id="node12" class="node">
<title>scalaz.Divide</title>
<g id="a_node12"><a xlink:href="https://github.com/scalaz/scalaz/tree/v7.2.29/core/src/main/scala/scalaz/Divide.scala" xlink:title="scalaz.Divide" target="_blank">
<polygon fill="#799f5a" stroke="#000000" points="28,-132.5 28,-161.5 75,-161.5 75,-132.5 28,-132.5"/>
<text text-anchor="middle" x="51.5" y="-144.5" font-family="Times,serif" font-size="10.00" fill="#000000">Divide</text>
</a>
</g>
</g>
<!-- scalaz.Divide&#45;&gt;scalaz.Contravariant -->
<g id="edge17" class="edge">
<title>scalaz.Divide&#45;&gt;scalaz.Contravariant</title>
<path fill="none" stroke="#000000" d="M69.0327,-132.3525C79.6696,-123.4659 93.4229,-111.9758 105.2221,-102.1182"/>
<polygon fill="#000000" stroke="#000000" points="107.5861,-104.704 113.0163,-95.6066 103.0981,-99.332 107.5861,-104.704"/>
</g>
<!-- scalaz.Divisible -->
<g id="node13" class="node">
<title>scalaz.Divisible</title>
<g id="a_node13"><a xlink:href="https://github.com/scalaz/scalaz/tree/v7.2.29/core/src/main/scala/scalaz/Divisible.scala" xlink:title="scalaz.Divisible" target="_blank">
<polygon fill="#799f5a" stroke="#000000" points="22,-198.5 22,-227.5 81,-227.5 81,-198.5 22,-198.5"/>
<text text-anchor="middle" x="51.5" y="-210.5" font-family="Times,serif" font-size="10.00" fill="#000000">Divisible</text>
</a>
</g>
</g>
<!-- scalaz.Divisible&#45;&gt;scalaz.Divide -->
<g id="edge29" class="edge">
<title>scalaz.Divisible&#45;&gt;scalaz.Divide</title>
<path fill="none" stroke="#000000" d="M51.5,-198.3525C51.5,-190.5767 51.5,-180.8077 51.5,-171.8831"/>
<polygon fill="#000000" stroke="#000000" points="55.0001,-171.6066 51.5,-161.6066 48.0001,-171.6066 55.0001,-171.6066"/>
</g>
<!-- scalaz.Foldable -->
<g id="node14" class="node">
<title>scalaz.Foldable</title>
<g id="a_node14"><a xlink:href="https://github.com/scalaz/scalaz/tree/v7.2.29/core/src/main/scala/scalaz/Foldable.scala" xlink:title="scalaz.Foldable" target="_blank">
<polygon fill="#799f5a" stroke="#000000" points="474,-66.5 474,-95.5 533,-95.5 533,-66.5 474,-66.5"/>
<text text-anchor="middle" x="503.5" y="-78.5" font-family="Times,serif" font-size="10.00" fill="#000000">Foldable</text>
</a>
</g>
</g>
<!-- scalaz.Foldable1 -->
<g id="node15" class="node">
<title>scalaz.Foldable1</title>
<g id="a_node15"><a xlink:href="https://github.com/scalaz/scalaz/tree/v7.2.29/core/src/main/scala/scalaz/Foldable1.scala" xlink:title="scalaz.Foldable1" target="_blank">
<polygon fill="#799f5a" stroke="#000000" points="512,-132.5 512,-161.5 577,-161.5 577,-132.5 512,-132.5"/>
<text text-anchor="middle" x="544.5" y="-144.5" font-family="Times,serif" font-size="10.00" fill="#000000">Foldable1</text>
</a>
</g>
</g>
<!-- scalaz.Foldable1&#45;&gt;scalaz.Foldable -->
<g id="edge14" class="edge">
<title>scalaz.Foldable1&#45;&gt;scalaz.Foldable</title>
<path fill="none" stroke="#000000" d="M535.4008,-132.3525C530.2519,-124.064 523.6961,-113.5108 517.8684,-104.1296"/>
<polygon fill="#000000" stroke="#000000" points="520.8237,-102.2541 512.5738,-95.6066 514.8776,-105.9479 520.8237,-102.2541"/>
</g>
<!-- scalaz.Functor&#45;&gt;scalaz.InvariantFunctor -->
<g id="edge1" class="edge">
<title>scalaz.Functor&#45;&gt;scalaz.InvariantFunctor</title>
<path fill="none" stroke="#000000" d="M243.748,-66.3525C231.6494,-57.3804 215.9721,-45.7546 202.5948,-35.8343"/>
<polygon fill="#000000" stroke="#000000" points="204.314,-32.7519 194.1968,-29.6066 200.1443,-38.3746 204.314,-32.7519"/>
</g>
<!-- scalaz.IsEmpty -->
<g id="node18" class="node">
<title>scalaz.IsEmpty</title>
<g id="a_node18"><a xlink:href="https://github.com/scalaz/scalaz/tree/v7.2.29/core/src/main/scala/scalaz/IsEmpty.scala" xlink:title="scalaz.IsEmpty" target="_blank">
<polygon fill="#799f5a" stroke="#000000" points="18.5,-264.5 18.5,-293.5 74.5,-293.5 74.5,-264.5 18.5,-264.5"/>
<text text-anchor="middle" x="46.5" y="-276.5" font-family="Times,serif" font-size="10.00" fill="#000000">IsEmpty</text>
</a>
</g>
</g>
<!-- scalaz.IsEmpty&#45;&gt;scalaz.PlusEmpty -->
<g id="edge23" class="edge">
<title>scalaz.IsEmpty&#45;&gt;scalaz.PlusEmpty</title>
<path fill="none" stroke="#000000" d="M66.9178,-264.3525C79.5434,-255.295 95.9389,-243.5329 109.8527,-233.5514"/>
<polygon fill="#000000" stroke="#000000" points="112.0541,-236.2796 118.1393,-227.6066 107.9737,-230.5918 112.0541,-236.2796"/>
</g>
<!-- scalaz.Monad -->
<g id="node19" class="node">
<title>scalaz.Monad</title>
<g id="a_node19"><a xlink:href="https://github.com/scalaz/scalaz/tree/v7.2.29/core/src/main/scala/scalaz/Monad.scala" xlink:title="scalaz.Monad" target="_blank">
<polygon fill="#799f5a" stroke="#000000" points="202.5,-264.5 202.5,-293.5 252.5,-293.5 252.5,-264.5 202.5,-264.5"/>
<text text-anchor="middle" x="227.5" y="-276.5" font-family="Times,serif" font-size="10.00" fill="#000000">Monad</text>
</a>
</g>
</g>
<!-- scalaz.Monad&#45;&gt;scalaz.Applicative -->
<g id="edge3" class="edge">
<title>scalaz.Monad&#45;&gt;scalaz.Applicative</title>
<path fill="none" stroke="#000000" d="M227.2781,-264.3525C227.1603,-256.5767 227.0122,-246.8077 226.877,-237.8831"/>
<polygon fill="#000000" stroke="#000000" points="230.3725,-237.5524 226.7213,-227.6066 223.3733,-237.6585 230.3725,-237.5524"/>
</g>
<!-- scalaz.Monad&#45;&gt;scalaz.Bind -->
<g id="edge4" class="edge">
<title>scalaz.Monad&#45;&gt;scalaz.Bind</title>
<path fill="none" stroke="#000000" d="M243.4791,-264.3525C253.0804,-255.5513 265.4674,-244.1965 276.1512,-234.403"/>
<polygon fill="#000000" stroke="#000000" points="278.559,-236.9439 283.5655,-227.6066 273.8289,-231.7838 278.559,-236.9439"/>
</g>
<!-- scalaz.MonadError -->
<g id="node20" class="node">
<title>scalaz.MonadError</title>
<g id="a_node20"><a xlink:href="https://github.com/scalaz/scalaz/tree/v7.2.29/core/src/main/scala/scalaz/MonadError.scala" xlink:title="scalaz.MonadError" target="_blank">
<polygon fill="#799f5a" stroke="#000000" points="89,-330.5 89,-359.5 166,-359.5 166,-330.5 89,-330.5"/>
<text text-anchor="middle" x="127.5" y="-342.5" font-family="Times,serif" font-size="10.00" fill="#000000">MonadError</text>
</a>
</g>
</g>
<!-- scalaz.MonadError&#45;&gt;scalaz.Monad -->
<g id="edge26" class="edge">
<title>scalaz.MonadError&#45;&gt;scalaz.Monad</title>
<path fill="none" stroke="#000000" d="M149.6932,-330.3525C163.5462,-321.2095 181.5746,-309.3108 196.7889,-299.2693"/>
<polygon fill="#000000" stroke="#000000" points="198.9507,-302.0362 205.3688,-293.6066 195.0947,-296.1939 198.9507,-302.0362"/>
</g>
<!-- scalaz.MonadListen -->
<g id="node21" class="node">
<title>scalaz.MonadListen</title>
<g id="a_node21"><a xlink:href="https://github.com/scalaz/scalaz/tree/v7.2.29/core/src/main/scala/scalaz/MonadListen.scala" xlink:title="scalaz.MonadListen" target="_blank">
<polygon fill="#799f5a" stroke="#000000" points="378,-396.5 378,-425.5 459,-425.5 459,-396.5 378,-396.5"/>
<text text-anchor="middle" x="418.5" y="-408.5" font-family="Times,serif" font-size="10.00" fill="#000000">MonadListen</text>
</a>
</g>
</g>
<!-- scalaz.MonadTell -->
<g id="node25" class="node">
<title>scalaz.MonadTell</title>
<g id="a_node25"><a xlink:href="https://github.com/scalaz/scalaz/tree/v7.2.29/core/src/main/scala/scalaz/MonadTell.scala" xlink:title="scalaz.MonadTell" target="_blank">
<polygon fill="#799f5a" stroke="#000000" points="384.5,-330.5 384.5,-359.5 452.5,-359.5 452.5,-330.5 384.5,-330.5"/>
<text text-anchor="middle" x="418.5" y="-342.5" font-family="Times,serif" font-size="10.00" fill="#000000">MonadTell</text>
</a>
</g>
</g>
<!-- scalaz.MonadListen&#45;&gt;scalaz.MonadTell -->
<g id="edge27" class="edge">
<title>scalaz.MonadListen&#45;&gt;scalaz.MonadTell</title>
<path fill="none" stroke="#000000" d="M418.5,-396.3525C418.5,-388.5767 418.5,-378.8077 418.5,-369.8831"/>
<polygon fill="#000000" stroke="#000000" points="422.0001,-369.6066 418.5,-359.6066 415.0001,-369.6066 422.0001,-369.6066"/>
</g>
<!-- scalaz.MonadPlus -->
<g id="node22" class="node">
<title>scalaz.MonadPlus</title>
<g id="a_node22"><a xlink:href="https://github.com/scalaz/scalaz/tree/v7.2.29/core/src/main/scala/scalaz/MonadPlus.scala" xlink:title="scalaz.MonadPlus" target="_blank">
<polygon fill="#799f5a" stroke="#000000" points="0,-330.5 0,-359.5 71,-359.5 71,-330.5 0,-330.5"/>
<text text-anchor="middle" x="35.5" y="-342.5" font-family="Times,serif" font-size="10.00" fill="#000000">MonadPlus</text>
</a>
</g>
</g>
<!-- scalaz.MonadPlus&#45;&gt;scalaz.ApplicativePlus -->
<g id="edge19" class="edge">
<title>scalaz.MonadPlus&#45;&gt;scalaz.ApplicativePlus</title>
<path fill="none" stroke="#000000" d="M58.359,-330.3525C72.6275,-321.2095 91.1968,-309.3108 106.8676,-299.2693"/>
<polygon fill="#000000" stroke="#000000" points="109.1734,-301.9487 115.7049,-293.6066 105.3968,-296.0549 109.1734,-301.9487"/>
</g>
<!-- scalaz.MonadPlus&#45;&gt;scalaz.Monad -->
<g id="edge18" class="edge">
<title>scalaz.MonadPlus&#45;&gt;scalaz.Monad</title>
<path fill="none" stroke="#000000" d="M71.0184,-332.8144C73.8854,-331.8543 76.7395,-330.9063 79.5,-330 127.1227,-314.3654 142.1045,-312.8789 192.8367,-294.0392"/>
<polygon fill="#000000" stroke="#000000" points="194.2485,-297.2477 202.3762,-290.4512 191.7842,-290.6958 194.2485,-297.2477"/>
</g>
<!-- scalaz.MonadReader -->
<g id="node23" class="node">
<title>scalaz.MonadReader</title>
<g id="a_node23"><a xlink:href="https://github.com/scalaz/scalaz/tree/v7.2.29/core/src/main/scala/scalaz/MonadReader.scala" xlink:title="scalaz.MonadReader" target="_blank">
<polygon fill="#799f5a" stroke="#000000" points="184.5,-330.5 184.5,-359.5 270.5,-359.5 270.5,-330.5 184.5,-330.5"/>
<text text-anchor="middle" x="227.5" y="-342.5" font-family="Times,serif" font-size="10.00" fill="#000000">MonadReader</text>
</a>
</g>
</g>
<!-- scalaz.MonadReader&#45;&gt;scalaz.Monad -->
<g id="edge24" class="edge">
<title>scalaz.MonadReader&#45;&gt;scalaz.Monad</title>
<path fill="none" stroke="#000000" d="M227.5,-330.3525C227.5,-322.5767 227.5,-312.8077 227.5,-303.8831"/>
<polygon fill="#000000" stroke="#000000" points="231.0001,-303.6066 227.5,-293.6066 224.0001,-303.6066 231.0001,-303.6066"/>
</g>
<!-- scalaz.MonadState -->
<g id="node24" class="node">
<title>scalaz.MonadState</title>
<g id="a_node24"><a xlink:href="https://github.com/scalaz/scalaz/tree/v7.2.29/core/src/main/scala/scalaz/MonadState.scala" xlink:title="scalaz.MonadState" target="_blank">
<polygon fill="#799f5a" stroke="#000000" points="289,-330.5 289,-359.5 366,-359.5 366,-330.5 289,-330.5"/>
<text text-anchor="middle" x="327.5" y="-342.5" font-family="Times,serif" font-size="10.00" fill="#000000">MonadState</text>
</a>
</g>
</g>
<!-- scalaz.MonadState&#45;&gt;scalaz.Monad -->
<g id="edge25" class="edge">
<title>scalaz.MonadState&#45;&gt;scalaz.Monad</title>
<path fill="none" stroke="#000000" d="M305.3068,-330.3525C291.4538,-321.2095 273.4254,-309.3108 258.2111,-299.2693"/>
<polygon fill="#000000" stroke="#000000" points="259.9053,-296.1939 249.6312,-293.6066 256.0493,-302.0362 259.9053,-296.1939"/>
</g>
<!-- scalaz.MonadTell&#45;&gt;scalaz.Monad -->
<g id="edge15" class="edge">
<title>scalaz.MonadTell&#45;&gt;scalaz.Monad</title>
<path fill="none" stroke="#000000" d="M384.413,-333.3038C381.0664,-332.1783 377.7192,-331.0614 374.5,-330 327.2768,-314.43 312.4569,-312.8089 262.0967,-294.0206"/>
<polygon fill="#000000" stroke="#000000" points="263.2182,-290.7029 252.6265,-290.444 260.745,-297.2514 263.2182,-290.7029"/>
</g>
<!-- scalaz.Nondeterminism -->
<g id="node26" class="node">
<title>scalaz.Nondeterminism</title>
<g id="a_node26"><a xlink:href="https://github.com/scalaz/scalaz/tree/v7.2.29/core/src/main/scala/scalaz/Nondeterminism.scala" xlink:title="scalaz.Nondeterminism" target="_blank">
<polygon fill="#799f5a" stroke="#000000" points="470.5,-330.5 470.5,-359.5 568.5,-359.5 568.5,-330.5 470.5,-330.5"/>
<text text-anchor="middle" x="519.5" y="-342.5" font-family="Times,serif" font-size="10.00" fill="#000000">Nondeterminism</text>
</a>
</g>
</g>
<!-- scalaz.Nondeterminism&#45;&gt;scalaz.Monad -->
<g id="edge28" class="edge">
<title>scalaz.Nondeterminism&#45;&gt;scalaz.Monad</title>
<path fill="none" stroke="#000000" d="M470.1993,-331.9815C467.2611,-331.2891 464.3448,-330.623 461.5,-330 376.375,-311.3587 349.7326,-319.7652 262.6388,-293.9322"/>
<polygon fill="#000000" stroke="#000000" points="263.4574,-290.523 252.8719,-290.969 261.4251,-297.2215 263.4574,-290.523"/>
</g>
<!-- scalaz.Plus -->
<g id="node27" class="node">
<title>scalaz.Plus</title>
<g id="a_node27"><a xlink:href="https://github.com/scalaz/scalaz/tree/v7.2.29/core/src/main/scala/scalaz/Plus.scala" xlink:title="scalaz.Plus" target="_blank">
<polygon fill="#799f5a" stroke="#000000" points="152.5,-132.5 152.5,-161.5 190.5,-161.5 190.5,-132.5 152.5,-132.5"/>
<text text-anchor="middle" x="171.5" y="-144.5" font-family="Times,serif" font-size="10.00" fill="#000000">Plus</text>
</a>
</g>
</g>
<!-- scalaz.PlusEmpty&#45;&gt;scalaz.Plus -->
<g id="edge8" class="edge">
<title>scalaz.PlusEmpty&#45;&gt;scalaz.Plus</title>
<path fill="none" stroke="#000000" d="M145.8238,-198.3525C149.8825,-190.2349 155.0275,-179.945 159.6443,-170.7113"/>
<polygon fill="#000000" stroke="#000000" points="162.855,-172.1161 164.1967,-161.6066 156.594,-168.9856 162.855,-172.1161"/>
</g>
<!-- scalaz.Traverse -->
<g id="node29" class="node">
<title>scalaz.Traverse</title>
<g id="a_node29"><a xlink:href="https://github.com/scalaz/scalaz/tree/v7.2.29/core/src/main/scala/scalaz/Traverse.scala" xlink:title="scalaz.Traverse" target="_blank">
<polygon fill="#799f5a" stroke="#000000" points="433,-132.5 433,-161.5 494,-161.5 494,-132.5 433,-132.5"/>
<text text-anchor="middle" x="463.5" y="-144.5" font-family="Times,serif" font-size="10.00" fill="#000000">Traverse</text>
</a>
</g>
</g>
<!-- scalaz.Traverse&#45;&gt;scalaz.Foldable -->
<g id="edge13" class="edge">
<title>scalaz.Traverse&#45;&gt;scalaz.Foldable</title>
<path fill="none" stroke="#000000" d="M472.3773,-132.3525C477.3488,-124.1495 483.6648,-113.7281 489.306,-104.4201"/>
<polygon fill="#000000" stroke="#000000" points="492.4577,-105.9727 494.6475,-95.6066 486.4713,-102.3445 492.4577,-105.9727"/>
</g>
<!-- scalaz.Traverse&#45;&gt;scalaz.Functor -->
<g id="edge12" class="edge">
<title>scalaz.Traverse&#45;&gt;scalaz.Functor</title>
<path fill="none" stroke="#000000" d="M432.9823,-135.3759C429.7884,-134.2133 426.5834,-133.0688 423.5,-132 381.6848,-117.5056 333.2032,-102.2688 300.6631,-92.2663"/>
<polygon fill="#000000" stroke="#000000" points="301.6879,-88.9197 291.1013,-89.3367 299.6372,-95.6126 301.6879,-88.9197"/>
</g>
<!-- scalaz.Traverse1 -->
<g id="node30" class="node">
<title>scalaz.Traverse1</title>
<g id="a_node30"><a xlink:href="https://github.com/scalaz/scalaz/tree/v7.2.29/core/src/main/scala/scalaz/Traverse1.scala" xlink:title="scalaz.Traverse1" target="_blank">
<polygon fill="#799f5a" stroke="#000000" points="439,-198.5 439,-227.5 506,-227.5 506,-198.5 439,-198.5"/>
<text text-anchor="middle" x="472.5" y="-210.5" font-family="Times,serif" font-size="10.00" fill="#000000">Traverse1</text>
</a>
</g>
</g>
<!-- scalaz.Traverse1&#45;&gt;scalaz.Foldable1 -->
<g id="edge22" class="edge">
<title>scalaz.Traverse1&#45;&gt;scalaz.Foldable1</title>
<path fill="none" stroke="#000000" d="M488.4791,-198.3525C498.0804,-189.5513 510.4674,-178.1965 521.1512,-168.403"/>
<polygon fill="#000000" stroke="#000000" points="523.559,-170.9439 528.5655,-161.6066 518.8289,-165.7838 523.559,-170.9439"/>
</g>
<!-- scalaz.Traverse1&#45;&gt;scalaz.Traverse -->
<g id="edge21" class="edge">
<title>scalaz.Traverse1&#45;&gt;scalaz.Traverse</title>
<path fill="none" stroke="#000000" d="M470.5026,-198.3525C469.4306,-190.4913 468.0808,-180.5927 466.8531,-171.5892"/>
<polygon fill="#000000" stroke="#000000" points="470.3109,-171.042 465.4918,-161.6066 463.3751,-171.9878 470.3109,-171.042"/>
</g>
</g>
</svg>

