<?xml version="1.0" encoding="UTF-8" standalone="no"?>
<!DOCTYPE svg PUBLIC "-//W3C//DTD SVG 1.1//EN"
 "http://www.w3.org/Graphics/SVG/1.1/DTD/svg11.dtd">
<!-- Generated by graphviz version 2.40.1 (20161225.0304)
 -->
<!-- Title: scalaz 7.3.2 diagram Pages: 1 -->
<svg width="661pt" height="170pt"
 viewBox="0.00 0.00 661.00 170.00" xmlns="http://www.w3.org/2000/svg" xmlns:xlink="http://www.w3.org/1999/xlink">
<g id="graph0" class="graph" transform="scale(1 1) rotate(0) translate(4 166)">
<title>scalaz 7.3.2 diagram</title>
<polygon fill="#ffffff" stroke="transparent" points="-4,4 -4,-166 657,-166 657,4 -4,4"/>
<!-- scalaz.Arrow -->
<g id="node1" class="node">
<title>scalaz.Arrow</title>
<g id="a_node1"><a xlink:href="https://github.com/scalaz/scalaz/tree/v7.3.2/core/src/main/scala/scalaz/Arrow.scala" xlink:title="scalaz.Arrow" target="_blank">
<polygon fill="#799f5a" stroke="#000000" points="76.5,-132.5 76.5,-161.5 123.5,-161.5 123.5,-132.5 76.5,-132.5"/>
<text text-anchor="middle" x="100" y="-144.5" font-family="Times,serif" font-size="10.00" fill="#000000">Arrow</text>
</a>
</g>
</g>
<!-- scalaz.Category -->
<g id="node7" class="node">
<title>scalaz.Category</title>
<g id="a_node7"><a xlink:href="https://github.com/scalaz/scalaz/tree/v7.3.2/core/src/main/scala/scalaz/Category.scala" xlink:title="scalaz.Category" target="_blank">
<polygon fill="#799f5a" stroke="#000000" points="0,-66.5 0,-95.5 62,-95.5 62,-66.5 0,-66.5"/>
<text text-anchor="middle" x="31" y="-78.5" font-family="Times,serif" font-size="10.00" fill="#000000">Category</text>
</a>
</g>
</g>
<!-- scalaz.Arrow&#45;&gt;scalaz.Category -->
<g id="edge14" class="edge">
<title>scalaz.Arrow&#45;&gt;scalaz.Category</title>
<path fill="none" stroke="#000000" d="M84.6867,-132.3525C75.5748,-123.6368 63.8448,-112.4168 53.6746,-102.6887"/>
<polygon fill="#000000" stroke="#000000" points="55.9163,-99.9896 46.2705,-95.6066 51.0777,-105.0481 55.9163,-99.9896"/>
</g>
<!-- scalaz.Split -->
<g id="node18" class="node">
<title>scalaz.Split</title>
<g id="a_node18"><a xlink:href="https://github.com/scalaz/scalaz/tree/v7.3.2/core/src/main/scala/scalaz/Split.scala" xlink:title="scalaz.Split" target="_blank">
<polygon fill="#799f5a" stroke="#000000" points="80.5,-66.5 80.5,-95.5 119.5,-95.5 119.5,-66.5 80.5,-66.5"/>
<text text-anchor="middle" x="100" y="-78.5" font-family="Times,serif" font-size="10.00" fill="#000000">Split</text>
</a>
</g>
</g>
<!-- scalaz.Arrow&#45;&gt;scalaz.Split -->
<g id="edge12" class="edge">
<title>scalaz.Arrow&#45;&gt;scalaz.Split</title>
<path fill="none" stroke="#000000" d="M100,-132.3525C100,-124.5767 100,-114.8077 100,-105.8831"/>
<polygon fill="#000000" stroke="#000000" points="103.5001,-105.6066 100,-95.6066 96.5001,-105.6066 103.5001,-105.6066"/>
</g>
<!-- scalaz.Strong -->
<g id="node19" class="node">
<title>scalaz.Strong</title>
<g id="a_node19"><a xlink:href="https://github.com/scalaz/scalaz/tree/v7.3.2/core/src/main/scala/scalaz/Strong.scala" xlink:title="scalaz.Strong" target="_blank">
<polygon fill="#799f5a" stroke="#000000" points="138,-66.5 138,-95.5 188,-95.5 188,-66.5 138,-66.5"/>
<text text-anchor="middle" x="163" y="-78.5" font-family="Times,serif" font-size="10.00" fill="#000000">Strong</text>
</a>
</g>
</g>
<!-- scalaz.Arrow&#45;&gt;scalaz.Strong -->
<g id="edge13" class="edge">
<title>scalaz.Arrow&#45;&gt;scalaz.Strong</title>
<path fill="none" stroke="#000000" d="M113.9817,-132.3525C122.2197,-123.7222 132.8015,-112.6365 142.0236,-102.9753"/>
<polygon fill="#000000" stroke="#000000" points="144.6843,-105.2569 149.0573,-95.6066 139.6208,-100.4235 144.6843,-105.2569"/>
</g>
<!-- scalaz.Associative -->
<g id="node2" class="node">
<title>scalaz.Associative</title>
<g id="a_node2"><a xlink:href="https://github.com/scalaz/scalaz/tree/v7.3.2/core/src/main/scala/scalaz/Associative.scala" xlink:title="scalaz.Associative" target="_blank">
<polygon fill="#799f5a" stroke="#000000" points="200,-132.5 200,-161.5 272,-161.5 272,-132.5 200,-132.5"/>
<text text-anchor="middle" x="236" y="-144.5" font-family="Times,serif" font-size="10.00" fill="#000000">Associative</text>
</a>
</g>
</g>
<!-- scalaz.Band -->
<g id="node3" class="node">
<title>scalaz.Band</title>
<g id="a_node3"><a xlink:href="https://github.com/scalaz/scalaz/tree/v7.3.2/core/src/main/scala/scalaz/Band.scala" xlink:title="scalaz.Band" target="_blank">
<polygon fill="#799f5a" stroke="#000000" points="364,-66.5 364,-95.5 406,-95.5 406,-66.5 364,-66.5"/>
<text text-anchor="middle" x="385" y="-78.5" font-family="Times,serif" font-size="10.00" fill="#000000">Band</text>
</a>
</g>
</g>
<!-- scalaz.Semigroup -->
<g id="node17" class="node">
<title>scalaz.Semigroup</title>
<g id="a_node17"><a xlink:href="https://github.com/scalaz/scalaz/tree/v7.3.2/core/src/main/scala/scalaz/Semigroup.scala" xlink:title="scalaz.Semigroup" target="_blank">
<polygon fill="#799f5a" stroke="#000000" points="317,-.5 317,-29.5 387,-29.5 387,-.5 317,-.5"/>
<text text-anchor="middle" x="352" y="-12.5" font-family="Times,serif" font-size="10.00" fill="#000000">Semigroup</text>
</a>
</g>
</g>
<!-- scalaz.Band&#45;&gt;scalaz.Semigroup -->
<g id="edge1" class="edge">
<title>scalaz.Band&#45;&gt;scalaz.Semigroup</title>
<path fill="none" stroke="#000000" d="M377.6762,-66.3525C373.6175,-58.2349 368.4725,-47.945 363.8557,-38.7113"/>
<polygon fill="#000000" stroke="#000000" points="366.906,-36.9856 359.3033,-29.6066 360.645,-40.1161 366.906,-36.9856"/>
</g>
<!-- scalaz.Bifoldable -->
<g id="node4" class="node">
<title>scalaz.Bifoldable</title>
<g id="a_node4"><a xlink:href="https://github.com/scalaz/scalaz/tree/v7.3.2/core/src/main/scala/scalaz/Bifoldable.scala" xlink:title="scalaz.Bifoldable" target="_blank">
<polygon fill="#799f5a" stroke="#000000" points="424.5,-66.5 424.5,-95.5 491.5,-95.5 491.5,-66.5 424.5,-66.5"/>
<text text-anchor="middle" x="458" y="-78.5" font-family="Times,serif" font-size="10.00" fill="#000000">Bifoldable</text>
</a>
</g>
</g>
<!-- scalaz.Bifunctor -->
<g id="node5" class="node">
<title>scalaz.Bifunctor</title>
<g id="a_node5"><a xlink:href="https://github.com/scalaz/scalaz/tree/v7.3.2/core/src/main/scala/scalaz/Bifunctor.scala" xlink:title="scalaz.Bifunctor" target="_blank">
<polygon fill="#799f5a" stroke="#000000" points="510,-66.5 510,-95.5 572,-95.5 572,-66.5 510,-66.5"/>
<text text-anchor="middle" x="541" y="-78.5" font-family="Times,serif" font-size="10.00" fill="#000000">Bifunctor</text>
</a>
</g>
</g>
<!-- scalaz.Bitraverse -->
<g id="node6" class="node">
<title>scalaz.Bitraverse</title>
<g id="a_node6"><a xlink:href="https://github.com/scalaz/scalaz/tree/v7.3.2/core/src/main/scala/scalaz/Bitraverse.scala" xlink:title="scalaz.Bitraverse" target="_blank">
<polygon fill="#799f5a" stroke="#000000" points="490,-132.5 490,-161.5 558,-161.5 558,-132.5 490,-132.5"/>
<text text-anchor="middle" x="524" y="-144.5" font-family="Times,serif" font-size="10.00" fill="#000000">Bitraverse</text>
</a>
</g>
</g>
<!-- scalaz.Bitraverse&#45;&gt;scalaz.Bifoldable -->
<g id="edge10" class="edge">
<title>scalaz.Bitraverse&#45;&gt;scalaz.Bifoldable</title>
<path fill="none" stroke="#000000" d="M509.3525,-132.3525C500.6368,-123.6368 489.4168,-112.4168 479.6887,-102.6887"/>
<polygon fill="#000000" stroke="#000000" points="482.1526,-100.2028 472.6066,-95.6066 477.2028,-105.1526 482.1526,-100.2028"/>
</g>
<!-- scalaz.Bitraverse&#45;&gt;scalaz.Bifunctor -->
<g id="edge9" class="edge">
<title>scalaz.Bitraverse&#45;&gt;scalaz.Bifunctor</title>
<path fill="none" stroke="#000000" d="M527.7729,-132.3525C529.8197,-124.4058 532.4028,-114.3773 534.742,-105.2959"/>
<polygon fill="#000000" stroke="#000000" points="538.1327,-106.1636 537.2377,-95.6066 531.3539,-104.4175 538.1327,-106.1636"/>
</g>
<!-- scalaz.Compose -->
<g id="node9" class="node">
<title>scalaz.Compose</title>
<g id="a_node9"><a xlink:href="https://github.com/scalaz/scalaz/tree/v7.3.2/core/src/main/scala/scalaz/Compose.scala" xlink:title="scalaz.Compose" target="_blank">
<polygon fill="#799f5a" stroke="#000000" points="46,-.5 46,-29.5 108,-29.5 108,-.5 46,-.5"/>
<text text-anchor="middle" x="77" y="-12.5" font-family="Times,serif" font-size="10.00" fill="#000000">Compose</text>
</a>
</g>
</g>
<!-- scalaz.Category&#45;&gt;scalaz.Compose -->
<g id="edge3" class="edge">
<title>scalaz.Category&#45;&gt;scalaz.Compose</title>
<path fill="none" stroke="#000000" d="M41.2089,-66.3525C47.0452,-57.9786 54.4928,-47.2929 61.0813,-37.8398"/>
<polygon fill="#000000" stroke="#000000" points="63.9731,-39.8119 66.8196,-29.6066 58.2303,-35.8093 63.9731,-39.8119"/>
</g>
<!-- scalaz.Choice -->
<g id="node8" class="node">
<title>scalaz.Choice</title>
<g id="a_node8"><a xlink:href="https://github.com/scalaz/scalaz/tree/v7.3.2/core/src/main/scala/scalaz/Choice.scala" xlink:title="scalaz.Choice" target="_blank">
<polygon fill="#799f5a" stroke="#000000" points="6,-132.5 6,-161.5 56,-161.5 56,-132.5 6,-132.5"/>
<text text-anchor="middle" x="31" y="-144.5" font-family="Times,serif" font-size="10.00" fill="#000000">Choice</text>
</a>
</g>
</g>
<!-- scalaz.Choice&#45;&gt;scalaz.Category -->
<g id="edge11" class="edge">
<title>scalaz.Choice&#45;&gt;scalaz.Category</title>
<path fill="none" stroke="#000000" d="M31,-132.3525C31,-124.5767 31,-114.8077 31,-105.8831"/>
<polygon fill="#000000" stroke="#000000" points="34.5001,-105.6066 31,-95.6066 27.5001,-105.6066 34.5001,-105.6066"/>
</g>
<!-- scalaz.Enum -->
<g id="node10" class="node">
<title>scalaz.Enum</title>
<g id="a_node10"><a xlink:href="https://github.com/scalaz/scalaz/tree/v7.3.2/core/src/main/scala/scalaz/Enum.scala" xlink:title="scalaz.Enum" target="_blank">
<polygon fill="#799f5a" stroke="#000000" points="608,-132.5 608,-161.5 652,-161.5 652,-132.5 608,-132.5"/>
<text text-anchor="middle" x="630" y="-144.5" font-family="Times,serif" font-size="10.00" fill="#000000">Enum</text>
</a>
</g>
</g>
<!-- scalaz.Order -->
<g id="node13" class="node">
<title>scalaz.Order</title>
<g id="a_node13"><a xlink:href="https://github.com/scalaz/scalaz/tree/v7.3.2/core/src/main/scala/scalaz/Order.scala" xlink:title="scalaz.Order" target="_blank">
<polygon fill="#799f5a" stroke="#000000" points="607,-66.5 607,-95.5 653,-95.5 653,-66.5 607,-66.5"/>
<text text-anchor="middle" x="630" y="-78.5" font-family="Times,serif" font-size="10.00" fill="#000000">Order</text>
</a>
</g>
</g>
<!-- scalaz.Enum&#45;&gt;scalaz.Order -->
<g id="edge8" class="edge">
<title>scalaz.Enum&#45;&gt;scalaz.Order</title>
<path fill="none" stroke="#000000" d="M630,-132.3525C630,-124.5767 630,-114.8077 630,-105.8831"/>
<polygon fill="#000000" stroke="#000000" points="633.5001,-105.6066 630,-95.6066 626.5001,-105.6066 633.5001,-105.6066"/>
</g>
<!-- scalaz.Equal -->
<g id="node11" class="node">
<title>scalaz.Equal</title>
<g id="a_node11"><a xlink:href="https://github.com/scalaz/scalaz/tree/v7.3.2/core/src/main/scala/scalaz/Equal.scala" xlink:title="scalaz.Equal" target="_blank">
<polygon fill="#799f5a" stroke="#000000" points="608,-.5 608,-29.5 652,-29.5 652,-.5 608,-.5"/>
<text text-anchor="middle" x="630" y="-12.5" font-family="Times,serif" font-size="10.00" fill="#000000">Equal</text>
</a>
</g>
</g>
<!-- scalaz.Monoid -->
<g id="node12" class="node">
<title>scalaz.Monoid</title>
<g id="a_node12"><a xlink:href="https://github.com/scalaz/scalaz/tree/v7.3.2/core/src/main/scala/scalaz/Monoid.scala" xlink:title="scalaz.Monoid" target="_blank">
<polygon fill="#799f5a" stroke="#000000" points="292.5,-66.5 292.5,-95.5 345.5,-95.5 345.5,-66.5 292.5,-66.5"/>
<text text-anchor="middle" x="319" y="-78.5" font-family="Times,serif" font-size="10.00" fill="#000000">Monoid</text>
</a>
</g>
</g>
<!-- scalaz.Monoid&#45;&gt;scalaz.Semigroup -->
<g id="edge7" class="edge">
<title>scalaz.Monoid&#45;&gt;scalaz.Semigroup</title>
<path fill="none" stroke="#000000" d="M326.3238,-66.3525C330.3825,-58.2349 335.5275,-47.945 340.1443,-38.7113"/>
<polygon fill="#000000" stroke="#000000" points="343.355,-40.1161 344.6967,-29.6066 337.094,-36.9856 343.355,-40.1161"/>
</g>
<!-- scalaz.Order&#45;&gt;scalaz.Equal -->
<g id="edge2" class="edge">
<title>scalaz.Order&#45;&gt;scalaz.Equal</title>
<path fill="none" stroke="#000000" d="M630,-66.3525C630,-58.5767 630,-48.8077 630,-39.8831"/>
<polygon fill="#000000" stroke="#000000" points="633.5001,-39.6066 630,-29.6066 626.5001,-39.6066 633.5001,-39.6066"/>
</g>
<!-- scalaz.ProChoice -->
<g id="node14" class="node">
<title>scalaz.ProChoice</title>
<g id="a_node14"><a xlink:href="https://github.com/scalaz/scalaz/tree/v7.3.2/core/src/main/scala/scalaz/ProChoice.scala" xlink:title="scalaz.ProChoice" target="_blank">
<polygon fill="#799f5a" stroke="#000000" points="206,-66.5 206,-95.5 274,-95.5 274,-66.5 206,-66.5"/>
<text text-anchor="middle" x="240" y="-78.5" font-family="Times,serif" font-size="10.00" fill="#000000">ProChoice</text>
</a>
</g>
</g>
<!-- scalaz.Profunctor -->
<g id="node15" class="node">
<title>scalaz.Profunctor</title>
<g id="a_node15"><a xlink:href="https://github.com/scalaz/scalaz/tree/v7.3.2/core/src/main/scala/scalaz/Profunctor.scala" xlink:title="scalaz.Profunctor" target="_blank">
<polygon fill="#799f5a" stroke="#000000" points="150.5,-.5 150.5,-29.5 219.5,-29.5 219.5,-.5 150.5,-.5"/>
<text text-anchor="middle" x="185" y="-12.5" font-family="Times,serif" font-size="10.00" fill="#000000">Profunctor</text>
</a>
</g>
</g>
<!-- scalaz.ProChoice&#45;&gt;scalaz.Profunctor -->
<g id="edge15" class="edge">
<title>scalaz.ProChoice&#45;&gt;scalaz.Profunctor</title>
<path fill="none" stroke="#000000" d="M227.7937,-66.3525C220.7443,-57.8931 211.7288,-47.0746 203.7924,-37.5508"/>
<polygon fill="#000000" stroke="#000000" points="206.2628,-35.0482 197.1722,-29.6066 200.8853,-39.5295 206.2628,-35.0482"/>
</g>
<!-- scalaz.SemiLattice -->
<g id="node16" class="node">
<title>scalaz.SemiLattice</title>
<g id="a_node16"><a xlink:href="https://github.com/scalaz/scalaz/tree/v7.3.2/core/src/main/scala/scalaz/SemiLattice.scala" xlink:title="scalaz.SemiLattice" target="_blank">
<polygon fill="#799f5a" stroke="#000000" points="347,-132.5 347,-161.5 423,-161.5 423,-132.5 347,-132.5"/>
<text text-anchor="middle" x="385" y="-144.5" font-family="Times,serif" font-size="10.00" fill="#000000">SemiLattice</text>
</a>
</g>
</g>
<!-- scalaz.SemiLattice&#45;&gt;scalaz.Band -->
<g id="edge6" class="edge">
<title>scalaz.SemiLattice&#45;&gt;scalaz.Band</title>
<path fill="none" stroke="#000000" d="M385,-132.3525C385,-124.5767 385,-114.8077 385,-105.8831"/>
<polygon fill="#000000" stroke="#000000" points="388.5001,-105.6066 385,-95.6066 381.5001,-105.6066 388.5001,-105.6066"/>
</g>
<!-- scalaz.Split&#45;&gt;scalaz.Compose -->
<g id="edge5" class="edge">
<title>scalaz.Split&#45;&gt;scalaz.Compose</title>
<path fill="none" stroke="#000000" d="M94.8956,-66.3525C92.1263,-58.4058 88.6315,-48.3773 85.4667,-39.2959"/>
<polygon fill="#000000" stroke="#000000" points="88.6861,-37.8978 82.0902,-29.6066 82.0759,-40.2014 88.6861,-37.8978"/>
</g>
<!-- scalaz.Strong&#45;&gt;scalaz.Profunctor -->
<g id="edge4" class="edge">
<title>scalaz.Strong&#45;&gt;scalaz.Profunctor</title>
<path fill="none" stroke="#000000" d="M167.8825,-66.3525C170.5314,-58.4058 173.8742,-48.3773 176.9014,-39.2959"/>
<polygon fill="#000000" stroke="#000000" points="180.2892,-40.2003 180.1311,-29.6066 173.6484,-37.9866 180.2892,-40.2003"/>
</g>
</g>
</svg>

