<?xml version="1.0" encoding="UTF-8" standalone="no"?>
<!DOCTYPE svg PUBLIC "-//W3C//DTD SVG 1.1//EN"
 "http://www.w3.org/Graphics/SVG/1.1/DTD/svg11.dtd">
<!-- Generated by graphviz version 2.36.0 (20140111.2315)
 -->
<!-- Title: scalaz 7.2.22 diagram Pages: 1 -->
<svg width="592pt" height="170pt"
 viewBox="0.00 0.00 592.00 170.00" xmlns="http://www.w3.org/2000/svg" xmlns:xlink="http://www.w3.org/1999/xlink">
<g id="graph0" class="graph" transform="scale(1 1) rotate(0) translate(4 166)">
<title>scalaz 7.2.22 diagram</title>
<polygon fill="white" stroke="none" points="-4,4 -4,-166 588,-166 588,4 -4,4"/>
<!-- scalaz.Arrow -->
<g id="node1" class="node"><title>scalaz.Arrow</title>
<g id="a_node1"><a xlink:href="https://github.com/scalaz/scalaz/tree/v7.2.22/core/src/main/scala/scalaz/Arrow.scala" xlink:title="scalaz.Arrow" target="_blank">
<polygon fill="#799f5a" stroke="black" points="68.5,-132.5 68.5,-161.5 111.5,-161.5 111.5,-132.5 68.5,-132.5"/>
<text text-anchor="middle" x="90" y="-144.5" font-family="Times,serif" font-size="10.00">Arrow</text>
</a>
</g>
</g>
<!-- scalaz.Category -->
<g id="node7" class="node"><title>scalaz.Category</title>
<g id="a_node7"><a xlink:href="https://github.com/scalaz/scalaz/tree/v7.2.22/core/src/main/scala/scalaz/Category.scala" xlink:title="scalaz.Category" target="_blank">
<polygon fill="#799f5a" stroke="black" points="0,-66.5 0,-95.5 54,-95.5 54,-66.5 0,-66.5"/>
<text text-anchor="middle" x="27" y="-78.5" font-family="Times,serif" font-size="10.00">Category</text>
</a>
</g>
</g>
<!-- scalaz.Arrow&#45;&gt;scalaz.Category -->
<g id="edge14" class="edge"><title>scalaz.Arrow&#45;&gt;scalaz.Category</title>
<path fill="none" stroke="black" d="M76.6393,-132.427C68.2032,-123.857 57.134,-112.612 47.5896,-102.916"/>
<polygon fill="black" stroke="black" points="49.8509,-100.224 40.3414,-95.5532 44.8623,-105.135 49.8509,-100.224"/>
</g>
<!-- scalaz.Split -->
<g id="node18" class="node"><title>scalaz.Split</title>
<g id="a_node18"><a xlink:href="https://github.com/scalaz/scalaz/tree/v7.2.22/core/src/main/scala/scalaz/Split.scala" xlink:title="scalaz.Split" target="_blank">
<polygon fill="#799f5a" stroke="black" points="72,-66.5 72,-95.5 108,-95.5 108,-66.5 72,-66.5"/>
<text text-anchor="middle" x="90" y="-78.5" font-family="Times,serif" font-size="10.00">Split</text>
</a>
</g>
</g>
<!-- scalaz.Arrow&#45;&gt;scalaz.Split -->
<g id="edge12" class="edge"><title>scalaz.Arrow&#45;&gt;scalaz.Split</title>
<path fill="none" stroke="black" d="M90,-132.427C90,-124.706 90,-114.813 90,-105.838"/>
<polygon fill="black" stroke="black" points="93.5001,-105.553 90,-95.5532 86.5001,-105.553 93.5001,-105.553"/>
</g>
<!-- scalaz.Strong -->
<g id="node19" class="node"><title>scalaz.Strong</title>
<g id="a_node19"><a xlink:href="https://github.com/scalaz/scalaz/tree/v7.2.22/core/src/main/scala/scalaz/Strong.scala" xlink:title="scalaz.Strong" target="_blank">
<polygon fill="#799f5a" stroke="black" points="126,-66.5 126,-95.5 170,-95.5 170,-66.5 126,-66.5"/>
<text text-anchor="middle" x="148" y="-78.5" font-family="Times,serif" font-size="10.00">Strong</text>
</a>
</g>
</g>
<!-- scalaz.Arrow&#45;&gt;scalaz.Strong -->
<g id="edge13" class="edge"><title>scalaz.Arrow&#45;&gt;scalaz.Strong</title>
<path fill="none" stroke="black" d="M102.3,-132.427C109.99,-123.942 120.056,-112.835 128.783,-103.205"/>
<polygon fill="black" stroke="black" points="131.596,-105.313 135.717,-95.5532 126.409,-100.613 131.596,-105.313"/>
</g>
<!-- scalaz.Associative -->
<g id="node2" class="node"><title>scalaz.Associative</title>
<g id="a_node2"><a xlink:href="https://github.com/scalaz/scalaz/tree/v7.2.22/core/src/main/scala/scalaz/Associative.scala" xlink:title="scalaz.Associative" target="_blank">
<polygon fill="#799f5a" stroke="black" points="183.5,-132.5 183.5,-161.5 248.5,-161.5 248.5,-132.5 183.5,-132.5"/>
<text text-anchor="middle" x="216" y="-144.5" font-family="Times,serif" font-size="10.00">Associative</text>
</a>
</g>
</g>
<!-- scalaz.Band -->
<g id="node3" class="node"><title>scalaz.Band</title>
<g id="a_node3"><a xlink:href="https://github.com/scalaz/scalaz/tree/v7.2.22/core/src/main/scala/scalaz/Band.scala" xlink:title="scalaz.Band" target="_blank">
<polygon fill="#799f5a" stroke="black" points="334,-66.5 334,-95.5 372,-95.5 372,-66.5 334,-66.5"/>
<text text-anchor="middle" x="353" y="-78.5" font-family="Times,serif" font-size="10.00">Band</text>
</a>
</g>
</g>
<!-- scalaz.Semigroup -->
<g id="node17" class="node"><title>scalaz.Semigroup</title>
<g id="a_node17"><a xlink:href="https://github.com/scalaz/scalaz/tree/v7.2.22/core/src/main/scala/scalaz/Semigroup.scala" xlink:title="scalaz.Semigroup" target="_blank">
<polygon fill="#799f5a" stroke="black" points="291.5,-0.5 291.5,-29.5 352.5,-29.5 352.5,-0.5 291.5,-0.5"/>
<text text-anchor="middle" x="322" y="-12.5" font-family="Times,serif" font-size="10.00">Semigroup</text>
</a>
</g>
</g>
<!-- scalaz.Band&#45;&gt;scalaz.Semigroup -->
<g id="edge1" class="edge"><title>scalaz.Band&#45;&gt;scalaz.Semigroup</title>
<path fill="none" stroke="black" d="M346.426,-66.4272C342.521,-58.3663 337.47,-47.9389 332.976,-38.6599"/>
<polygon fill="black" stroke="black" points="336.074,-37.0272 328.565,-29.5532 329.774,-40.0788 336.074,-37.0272"/>
</g>
<!-- scalaz.Bifoldable -->
<g id="node4" class="node"><title>scalaz.Bifoldable</title>
<g id="a_node4"><a xlink:href="https://github.com/scalaz/scalaz/tree/v7.2.22/core/src/main/scala/scalaz/Bifoldable.scala" xlink:title="scalaz.Bifoldable" target="_blank">
<polygon fill="#799f5a" stroke="black" points="390,-66.5 390,-95.5 450,-95.5 450,-66.5 390,-66.5"/>
<text text-anchor="middle" x="420" y="-78.5" font-family="Times,serif" font-size="10.00">Bifoldable</text>
</a>
</g>
</g>
<!-- scalaz.Bifunctor -->
<g id="node5" class="node"><title>scalaz.Bifunctor</title>
<g id="a_node5"><a xlink:href="https://github.com/scalaz/scalaz/tree/v7.2.22/core/src/main/scala/scalaz/Bifunctor.scala" xlink:title="scalaz.Bifunctor" target="_blank">
<polygon fill="#799f5a" stroke="black" points="468,-66.5 468,-95.5 524,-95.5 524,-66.5 468,-66.5"/>
<text text-anchor="middle" x="496" y="-78.5" font-family="Times,serif" font-size="10.00">Bifunctor</text>
</a>
</g>
</g>
<!-- scalaz.Bitraverse -->
<g id="node6" class="node"><title>scalaz.Bitraverse</title>
<g id="a_node6"><a xlink:href="https://github.com/scalaz/scalaz/tree/v7.2.22/core/src/main/scala/scalaz/Bitraverse.scala" xlink:title="scalaz.Bitraverse" target="_blank">
<polygon fill="#799f5a" stroke="black" points="435,-132.5 435,-161.5 493,-161.5 493,-132.5 435,-132.5"/>
<text text-anchor="middle" x="464" y="-144.5" font-family="Times,serif" font-size="10.00">Bitraverse</text>
</a>
</g>
</g>
<!-- scalaz.Bitraverse&#45;&gt;scalaz.Bifoldable -->
<g id="edge10" class="edge"><title>scalaz.Bitraverse&#45;&gt;scalaz.Bifoldable</title>
<path fill="none" stroke="black" d="M454.669,-132.427C449.01,-124.197 441.655,-113.499 435.177,-104.075"/>
<polygon fill="black" stroke="black" points="437.867,-101.811 429.318,-95.5532 432.099,-105.776 437.867,-101.811"/>
</g>
<!-- scalaz.Bitraverse&#45;&gt;scalaz.Bifunctor -->
<g id="edge9" class="edge"><title>scalaz.Bitraverse&#45;&gt;scalaz.Bifunctor</title>
<path fill="none" stroke="black" d="M470.786,-132.427C474.817,-124.366 480.031,-113.939 484.67,-104.66"/>
<polygon fill="black" stroke="black" points="487.882,-106.063 489.223,-95.5532 481.621,-102.932 487.882,-106.063"/>
</g>
<!-- scalaz.Compose -->
<g id="node9" class="node"><title>scalaz.Compose</title>
<g id="a_node9"><a xlink:href="https://github.com/scalaz/scalaz/tree/v7.2.22/core/src/main/scala/scalaz/Compose.scala" xlink:title="scalaz.Compose" target="_blank">
<polygon fill="#799f5a" stroke="black" points="22.5,-0.5 22.5,-29.5 77.5,-29.5 77.5,-0.5 22.5,-0.5"/>
<text text-anchor="middle" x="50" y="-12.5" font-family="Times,serif" font-size="10.00">Compose</text>
</a>
</g>
</g>
<!-- scalaz.Category&#45;&gt;scalaz.Compose -->
<g id="edge3" class="edge"><title>scalaz.Category&#45;&gt;scalaz.Compose</title>
<path fill="none" stroke="black" d="M31.8777,-66.4272C34.7136,-58.536 38.3645,-48.3769 41.6455,-39.2474"/>
<polygon fill="black" stroke="black" points="45.041,-40.1477 45.1293,-29.5532 38.4535,-37.7802 45.041,-40.1477"/>
</g>
<!-- scalaz.Choice -->
<g id="node8" class="node"><title>scalaz.Choice</title>
<g id="a_node8"><a xlink:href="https://github.com/scalaz/scalaz/tree/v7.2.22/core/src/main/scala/scalaz/Choice.scala" xlink:title="scalaz.Choice" target="_blank">
<polygon fill="#799f5a" stroke="black" points="4,-132.5 4,-161.5 50,-161.5 50,-132.5 4,-132.5"/>
<text text-anchor="middle" x="27" y="-144.5" font-family="Times,serif" font-size="10.00">Choice</text>
</a>
</g>
</g>
<!-- scalaz.Choice&#45;&gt;scalaz.Category -->
<g id="edge11" class="edge"><title>scalaz.Choice&#45;&gt;scalaz.Category</title>
<path fill="none" stroke="black" d="M27,-132.427C27,-124.706 27,-114.813 27,-105.838"/>
<polygon fill="black" stroke="black" points="30.5001,-105.553 27,-95.5532 23.5001,-105.553 30.5001,-105.553"/>
</g>
<!-- scalaz.Enum -->
<g id="node10" class="node"><title>scalaz.Enum</title>
<g id="a_node10"><a xlink:href="https://github.com/scalaz/scalaz/tree/v7.2.22/core/src/main/scala/scalaz/Enum.scala" xlink:title="scalaz.Enum" target="_blank">
<polygon fill="#799f5a" stroke="black" points="542.5,-132.5 542.5,-161.5 583.5,-161.5 583.5,-132.5 542.5,-132.5"/>
<text text-anchor="middle" x="563" y="-144.5" font-family="Times,serif" font-size="10.00">Enum</text>
</a>
</g>
</g>
<!-- scalaz.Order -->
<g id="node13" class="node"><title>scalaz.Order</title>
<g id="a_node13"><a xlink:href="https://github.com/scalaz/scalaz/tree/v7.2.22/core/src/main/scala/scalaz/Order.scala" xlink:title="scalaz.Order" target="_blank">
<polygon fill="#799f5a" stroke="black" points="543,-66.5 543,-95.5 583,-95.5 583,-66.5 543,-66.5"/>
<text text-anchor="middle" x="563" y="-78.5" font-family="Times,serif" font-size="10.00">Order</text>
</a>
</g>
</g>
<!-- scalaz.Enum&#45;&gt;scalaz.Order -->
<g id="edge8" class="edge"><title>scalaz.Enum&#45;&gt;scalaz.Order</title>
<path fill="none" stroke="black" d="M563,-132.427C563,-124.706 563,-114.813 563,-105.838"/>
<polygon fill="black" stroke="black" points="566.5,-105.553 563,-95.5532 559.5,-105.553 566.5,-105.553"/>
</g>
<!-- scalaz.Equal -->
<g id="node11" class="node"><title>scalaz.Equal</title>
<g id="a_node11"><a xlink:href="https://github.com/scalaz/scalaz/tree/v7.2.22/core/src/main/scala/scalaz/Equal.scala" xlink:title="scalaz.Equal" target="_blank">
<polygon fill="#799f5a" stroke="black" points="542.5,-0.5 542.5,-29.5 583.5,-29.5 583.5,-0.5 542.5,-0.5"/>
<text text-anchor="middle" x="563" y="-12.5" font-family="Times,serif" font-size="10.00">Equal</text>
</a>
</g>
</g>
<!-- scalaz.Monoid -->
<g id="node12" class="node"><title>scalaz.Monoid</title>
<g id="a_node12"><a xlink:href="https://github.com/scalaz/scalaz/tree/v7.2.22/core/src/main/scala/scalaz/Monoid.scala" xlink:title="scalaz.Monoid" target="_blank">
<polygon fill="#799f5a" stroke="black" points="266,-66.5 266,-95.5 316,-95.5 316,-66.5 266,-66.5"/>
<text text-anchor="middle" x="291" y="-78.5" font-family="Times,serif" font-size="10.00">Monoid</text>
</a>
</g>
</g>
<!-- scalaz.Monoid&#45;&gt;scalaz.Semigroup -->
<g id="edge7" class="edge"><title>scalaz.Monoid&#45;&gt;scalaz.Semigroup</title>
<path fill="none" stroke="black" d="M297.574,-66.4272C301.479,-58.3663 306.53,-47.9389 311.024,-38.6599"/>
<polygon fill="black" stroke="black" points="314.226,-40.0788 315.435,-29.5532 307.926,-37.0272 314.226,-40.0788"/>
</g>
<!-- scalaz.Order&#45;&gt;scalaz.Equal -->
<g id="edge2" class="edge"><title>scalaz.Order&#45;&gt;scalaz.Equal</title>
<path fill="none" stroke="black" d="M563,-66.4272C563,-58.7057 563,-48.8128 563,-39.8378"/>
<polygon fill="black" stroke="black" points="566.5,-39.5532 563,-29.5532 559.5,-39.5532 566.5,-39.5532"/>
</g>
<!-- scalaz.ProChoice -->
<g id="node14" class="node"><title>scalaz.ProChoice</title>
<g id="a_node14"><a xlink:href="https://github.com/scalaz/scalaz/tree/v7.2.22/core/src/main/scala/scalaz/ProChoice.scala" xlink:title="scalaz.ProChoice" target="_blank">
<polygon fill="#799f5a" stroke="black" points="188.5,-66.5 188.5,-95.5 247.5,-95.5 247.5,-66.5 188.5,-66.5"/>
<text text-anchor="middle" x="218" y="-78.5" font-family="Times,serif" font-size="10.00">ProChoice</text>
</a>
</g>
</g>
<!-- scalaz.Profunctor -->
<g id="node15" class="node"><title>scalaz.Profunctor</title>
<g id="a_node15"><a xlink:href="https://github.com/scalaz/scalaz/tree/v7.2.22/core/src/main/scala/scalaz/Profunctor.scala" xlink:title="scalaz.Profunctor" target="_blank">
<polygon fill="#799f5a" stroke="black" points="150.5,-0.5 150.5,-29.5 209.5,-29.5 209.5,-0.5 150.5,-0.5"/>
<text text-anchor="middle" x="180" y="-12.5" font-family="Times,serif" font-size="10.00">Profunctor</text>
</a>
</g>
</g>
<!-- scalaz.ProChoice&#45;&gt;scalaz.Profunctor -->
<g id="edge15" class="edge"><title>scalaz.ProChoice&#45;&gt;scalaz.Profunctor</title>
<path fill="none" stroke="black" d="M209.941,-66.4272C205.105,-58.2815 198.833,-47.7191 193.281,-38.3672"/>
<polygon fill="black" stroke="black" points="196.162,-36.3648 188.047,-29.5532 190.143,-39.9387 196.162,-36.3648"/>
</g>
<!-- scalaz.SemiLattice -->
<g id="node16" class="node"><title>scalaz.SemiLattice</title>
<g id="a_node16"><a xlink:href="https://github.com/scalaz/scalaz/tree/v7.2.22/core/src/main/scala/scalaz/SemiLattice.scala" xlink:title="scalaz.SemiLattice" target="_blank">
<polygon fill="#799f5a" stroke="black" points="320.5,-132.5 320.5,-161.5 385.5,-161.5 385.5,-132.5 320.5,-132.5"/>
<text text-anchor="middle" x="353" y="-144.5" font-family="Times,serif" font-size="10.00">SemiLattice</text>
</a>
</g>
</g>
<!-- scalaz.SemiLattice&#45;&gt;scalaz.Band -->
<g id="edge6" class="edge"><title>scalaz.SemiLattice&#45;&gt;scalaz.Band</title>
<path fill="none" stroke="black" d="M353,-132.427C353,-124.706 353,-114.813 353,-105.838"/>
<polygon fill="black" stroke="black" points="356.5,-105.553 353,-95.5532 349.5,-105.553 356.5,-105.553"/>
</g>
<!-- scalaz.Split&#45;&gt;scalaz.Compose -->
<g id="edge4" class="edge"><title>scalaz.Split&#45;&gt;scalaz.Compose</title>
<path fill="none" stroke="black" d="M81.517,-66.4272C76.3729,-58.1966 69.6868,-47.4988 63.7971,-38.0754"/>
<polygon fill="black" stroke="black" points="66.7388,-36.1782 58.4707,-29.5532 60.8028,-39.8882 66.7388,-36.1782"/>
</g>
<!-- scalaz.Strong&#45;&gt;scalaz.Profunctor -->
<g id="edge5" class="edge"><title>scalaz.Strong&#45;&gt;scalaz.Profunctor</title>
<path fill="none" stroke="black" d="M154.786,-66.4272C158.817,-58.3663 164.031,-47.9389 168.67,-38.6599"/>
<polygon fill="black" stroke="black" points="171.882,-40.0627 173.223,-29.5532 165.621,-36.9322 171.882,-40.0627"/>
</g>
</g>
</svg>

