<?xml version="1.0" encoding="UTF-8" standalone="no"?>
<!DOCTYPE svg PUBLIC "-//W3C//DTD SVG 1.1//EN"
 "http://www.w3.org/Graphics/SVG/1.1/DTD/svg11.dtd">
<!-- Generated by graphviz version 2.40.1 (20161225.0304)
 -->
<!-- Title: scalaz 7.3.2 diagram Pages: 1 -->
<svg width="607pt" height="170pt"
 viewBox="0.00 0.00 606.50 170.00" xmlns="http://www.w3.org/2000/svg" xmlns:xlink="http://www.w3.org/1999/xlink">
<g id="graph0" class="graph" transform="scale(1 1) rotate(0) translate(4 166)">
<title>scalaz 7.3.2 diagram</title>
<polygon fill="#ffffff" stroke="transparent" points="-4,4 -4,-166 602.5,-166 602.5,4 -4,4"/>
<!-- scalaz.Arrow -->
<g id="node1" class="node">
<title>scalaz.Arrow</title>
<g id="a_node1"><a xlink:href="https://github.com/scalaz/scalaz/tree/v7.3.2/core/src/main/scala/scalaz/Arrow.scala" xlink:title="scalaz.Arrow" target="_blank">
<polygon fill="#799f5a" stroke="#000000" points="68.5,-132.5 68.5,-161.5 111.5,-161.5 111.5,-132.5 68.5,-132.5"/>
<text text-anchor="middle" x="90" y="-144.5" font-family="Times,serif" font-size="10.00" fill="#000000">Arrow</text>
</a>
</g>
</g>
<!-- scalaz.Category -->
<g id="node7" class="node">
<title>scalaz.Category</title>
<g id="a_node7"><a xlink:href="https://github.com/scalaz/scalaz/tree/v7.3.2/core/src/main/scala/scalaz/Category.scala" xlink:title="scalaz.Category" target="_blank">
<polygon fill="#799f5a" stroke="#000000" points="0,-66.5 0,-95.5 54,-95.5 54,-66.5 0,-66.5"/>
<text text-anchor="middle" x="27" y="-78.5" font-family="Times,serif" font-size="10.00" fill="#000000">Category</text>
</a>
</g>
</g>
<!-- scalaz.Arrow&#45;&gt;scalaz.Category -->
<g id="edge14" class="edge">
<title>scalaz.Arrow&#45;&gt;scalaz.Category</title>
<path fill="none" stroke="#000000" d="M76.0183,-132.3525C67.7803,-123.7222 57.1985,-112.6365 47.9764,-102.9753"/>
<polygon fill="#000000" stroke="#000000" points="50.3792,-100.4235 40.9427,-95.6066 45.3157,-105.2569 50.3792,-100.4235"/>
</g>
<!-- scalaz.Split -->
<g id="node18" class="node">
<title>scalaz.Split</title>
<g id="a_node18"><a xlink:href="https://github.com/scalaz/scalaz/tree/v7.3.2/core/src/main/scala/scalaz/Split.scala" xlink:title="scalaz.Split" target="_blank">
<polygon fill="#799f5a" stroke="#000000" points="72,-66.5 72,-95.5 108,-95.5 108,-66.5 72,-66.5"/>
<text text-anchor="middle" x="90" y="-78.5" font-family="Times,serif" font-size="10.00" fill="#000000">Split</text>
</a>
</g>
</g>
<!-- scalaz.Arrow&#45;&gt;scalaz.Split -->
<g id="edge12" class="edge">
<title>scalaz.Arrow&#45;&gt;scalaz.Split</title>
<path fill="none" stroke="#000000" d="M90,-132.3525C90,-124.5767 90,-114.8077 90,-105.8831"/>
<polygon fill="#000000" stroke="#000000" points="93.5001,-105.6066 90,-95.6066 86.5001,-105.6066 93.5001,-105.6066"/>
</g>
<!-- scalaz.Strong -->
<g id="node19" class="node">
<title>scalaz.Strong</title>
<g id="a_node19"><a xlink:href="https://github.com/scalaz/scalaz/tree/v7.3.2/core/src/main/scala/scalaz/Strong.scala" xlink:title="scalaz.Strong" target="_blank">
<polygon fill="#799f5a" stroke="#000000" points="126,-66.5 126,-95.5 170,-95.5 170,-66.5 126,-66.5"/>
<text text-anchor="middle" x="148" y="-78.5" font-family="Times,serif" font-size="10.00" fill="#000000">Strong</text>
</a>
</g>
</g>
<!-- scalaz.Arrow&#45;&gt;scalaz.Strong -->
<g id="edge13" class="edge">
<title>scalaz.Arrow&#45;&gt;scalaz.Strong</title>
<path fill="none" stroke="#000000" d="M102.8721,-132.3525C110.3811,-123.8077 120.0055,-112.8558 128.4359,-103.2626"/>
<polygon fill="#000000" stroke="#000000" points="131.1918,-105.4287 135.1639,-95.6066 125.9336,-100.8079 131.1918,-105.4287"/>
</g>
<!-- scalaz.Associative -->
<g id="node2" class="node">
<title>scalaz.Associative</title>
<g id="a_node2"><a xlink:href="https://github.com/scalaz/scalaz/tree/v7.3.2/core/src/main/scala/scalaz/Associative.scala" xlink:title="scalaz.Associative" target="_blank">
<polygon fill="#799f5a" stroke="#000000" points="183.5,-132.5 183.5,-161.5 248.5,-161.5 248.5,-132.5 183.5,-132.5"/>
<text text-anchor="middle" x="216" y="-144.5" font-family="Times,serif" font-size="10.00" fill="#000000">Associative</text>
</a>
</g>
</g>
<!-- scalaz.Band -->
<g id="node3" class="node">
<title>scalaz.Band</title>
<g id="a_node3"><a xlink:href="https://github.com/scalaz/scalaz/tree/v7.3.2/core/src/main/scala/scalaz/Band.scala" xlink:title="scalaz.Band" target="_blank">
<polygon fill="#799f5a" stroke="#000000" points="334,-66.5 334,-95.5 372,-95.5 372,-66.5 334,-66.5"/>
<text text-anchor="middle" x="353" y="-78.5" font-family="Times,serif" font-size="10.00" fill="#000000">Band</text>
</a>
</g>
</g>
<!-- scalaz.Semigroup -->
<g id="node17" class="node">
<title>scalaz.Semigroup</title>
<g id="a_node17"><a xlink:href="https://github.com/scalaz/scalaz/tree/v7.3.2/core/src/main/scala/scalaz/Semigroup.scala" xlink:title="scalaz.Semigroup" target="_blank">
<polygon fill="#799f5a" stroke="#000000" points="291.5,-.5 291.5,-29.5 352.5,-29.5 352.5,-.5 291.5,-.5"/>
<text text-anchor="middle" x="322" y="-12.5" font-family="Times,serif" font-size="10.00" fill="#000000">Semigroup</text>
</a>
</g>
</g>
<!-- scalaz.Band&#45;&gt;scalaz.Semigroup -->
<g id="edge1" class="edge">
<title>scalaz.Band&#45;&gt;scalaz.Semigroup</title>
<path fill="none" stroke="#000000" d="M346.1201,-66.3525C342.3073,-58.2349 337.4742,-47.945 333.1371,-38.7113"/>
<polygon fill="#000000" stroke="#000000" points="336.2801,-37.1699 328.8607,-29.6066 329.9441,-40.1459 336.2801,-37.1699"/>
</g>
<!-- scalaz.Bifoldable -->
<g id="node4" class="node">
<title>scalaz.Bifoldable</title>
<g id="a_node4"><a xlink:href="https://github.com/scalaz/scalaz/tree/v7.3.2/core/src/main/scala/scalaz/Bifoldable.scala" xlink:title="scalaz.Bifoldable" target="_blank">
<polygon fill="#799f5a" stroke="#000000" points="390,-66.5 390,-95.5 450,-95.5 450,-66.5 390,-66.5"/>
<text text-anchor="middle" x="420" y="-78.5" font-family="Times,serif" font-size="10.00" fill="#000000">Bifoldable</text>
</a>
</g>
</g>
<!-- scalaz.Bifunctor -->
<g id="node5" class="node">
<title>scalaz.Bifunctor</title>
<g id="a_node5"><a xlink:href="https://github.com/scalaz/scalaz/tree/v7.3.2/core/src/main/scala/scalaz/Bifunctor.scala" xlink:title="scalaz.Bifunctor" target="_blank">
<polygon fill="#799f5a" stroke="#000000" points="468,-66.5 468,-95.5 524,-95.5 524,-66.5 468,-66.5"/>
<text text-anchor="middle" x="496" y="-78.5" font-family="Times,serif" font-size="10.00" fill="#000000">Bifunctor</text>
</a>
</g>
</g>
<!-- scalaz.Bitraverse -->
<g id="node6" class="node">
<title>scalaz.Bitraverse</title>
<g id="a_node6"><a xlink:href="https://github.com/scalaz/scalaz/tree/v7.3.2/core/src/main/scala/scalaz/Bitraverse.scala" xlink:title="scalaz.Bitraverse" target="_blank">
<polygon fill="#799f5a" stroke="#000000" points="451,-132.5 451,-161.5 509,-161.5 509,-132.5 451,-132.5"/>
<text text-anchor="middle" x="480" y="-144.5" font-family="Times,serif" font-size="10.00" fill="#000000">Bitraverse</text>
</a>
</g>
</g>
<!-- scalaz.Bitraverse&#45;&gt;scalaz.Bifoldable -->
<g id="edge10" class="edge">
<title>scalaz.Bitraverse&#45;&gt;scalaz.Bifoldable</title>
<path fill="none" stroke="#000000" d="M466.6841,-132.3525C458.9161,-123.8077 448.9598,-112.8558 440.2388,-103.2626"/>
<polygon fill="#000000" stroke="#000000" points="442.5953,-100.6517 433.2787,-95.6066 437.4157,-105.3604 442.5953,-100.6517"/>
</g>
<!-- scalaz.Bitraverse&#45;&gt;scalaz.Bifunctor -->
<g id="edge9" class="edge">
<title>scalaz.Bitraverse&#45;&gt;scalaz.Bifunctor</title>
<path fill="none" stroke="#000000" d="M483.5509,-132.3525C485.4567,-124.4913 487.8563,-114.5927 490.039,-105.5892"/>
<polygon fill="#000000" stroke="#000000" points="493.5044,-106.1497 492.459,-95.6066 486.7015,-104.5005 493.5044,-106.1497"/>
</g>
<!-- scalaz.Compose -->
<g id="node9" class="node">
<title>scalaz.Compose</title>
<g id="a_node9"><a xlink:href="https://github.com/scalaz/scalaz/tree/v7.3.2/core/src/main/scala/scalaz/Compose.scala" xlink:title="scalaz.Compose" target="_blank">
<polygon fill="#799f5a" stroke="#000000" points="42.5,-.5 42.5,-29.5 97.5,-29.5 97.5,-.5 42.5,-.5"/>
<text text-anchor="middle" x="70" y="-12.5" font-family="Times,serif" font-size="10.00" fill="#000000">Compose</text>
</a>
</g>
</g>
<!-- scalaz.Category&#45;&gt;scalaz.Compose -->
<g id="edge3" class="edge">
<title>scalaz.Category&#45;&gt;scalaz.Compose</title>
<path fill="none" stroke="#000000" d="M36.5431,-66.3525C41.9431,-58.064 48.8187,-47.5108 54.9307,-38.1296"/>
<polygon fill="#000000" stroke="#000000" points="57.9573,-39.8958 60.4836,-29.6066 52.0922,-36.0746 57.9573,-39.8958"/>
</g>
<!-- scalaz.Choice -->
<g id="node8" class="node">
<title>scalaz.Choice</title>
<g id="a_node8"><a xlink:href="https://github.com/scalaz/scalaz/tree/v7.3.2/core/src/main/scala/scalaz/Choice.scala" xlink:title="scalaz.Choice" target="_blank">
<polygon fill="#799f5a" stroke="#000000" points="4,-132.5 4,-161.5 50,-161.5 50,-132.5 4,-132.5"/>
<text text-anchor="middle" x="27" y="-144.5" font-family="Times,serif" font-size="10.00" fill="#000000">Choice</text>
</a>
</g>
</g>
<!-- scalaz.Choice&#45;&gt;scalaz.Category -->
<g id="edge11" class="edge">
<title>scalaz.Choice&#45;&gt;scalaz.Category</title>
<path fill="none" stroke="#000000" d="M27,-132.3525C27,-124.5767 27,-114.8077 27,-105.8831"/>
<polygon fill="#000000" stroke="#000000" points="30.5001,-105.6066 27,-95.6066 23.5001,-105.6066 30.5001,-105.6066"/>
</g>
<!-- scalaz.Enum -->
<g id="node10" class="node">
<title>scalaz.Enum</title>
<g id="a_node10"><a xlink:href="https://github.com/scalaz/scalaz/tree/v7.3.2/core/src/main/scala/scalaz/Enum.scala" xlink:title="scalaz.Enum" target="_blank">
<polygon fill="#799f5a" stroke="#000000" points="557.5,-132.5 557.5,-161.5 598.5,-161.5 598.5,-132.5 557.5,-132.5"/>
<text text-anchor="middle" x="578" y="-144.5" font-family="Times,serif" font-size="10.00" fill="#000000">Enum</text>
</a>
</g>
</g>
<!-- scalaz.Order -->
<g id="node13" class="node">
<title>scalaz.Order</title>
<g id="a_node13"><a xlink:href="https://github.com/scalaz/scalaz/tree/v7.3.2/core/src/main/scala/scalaz/Order.scala" xlink:title="scalaz.Order" target="_blank">
<polygon fill="#799f5a" stroke="#000000" points="558,-66.5 558,-95.5 598,-95.5 598,-66.5 558,-66.5"/>
<text text-anchor="middle" x="578" y="-78.5" font-family="Times,serif" font-size="10.00" fill="#000000">Order</text>
</a>
</g>
</g>
<!-- scalaz.Enum&#45;&gt;scalaz.Order -->
<g id="edge8" class="edge">
<title>scalaz.Enum&#45;&gt;scalaz.Order</title>
<path fill="none" stroke="#000000" d="M578,-132.3525C578,-124.5767 578,-114.8077 578,-105.8831"/>
<polygon fill="#000000" stroke="#000000" points="581.5001,-105.6066 578,-95.6066 574.5001,-105.6066 581.5001,-105.6066"/>
</g>
<!-- scalaz.Equal -->
<g id="node11" class="node">
<title>scalaz.Equal</title>
<g id="a_node11"><a xlink:href="https://github.com/scalaz/scalaz/tree/v7.3.2/core/src/main/scala/scalaz/Equal.scala" xlink:title="scalaz.Equal" target="_blank">
<polygon fill="#799f5a" stroke="#000000" points="557.5,-.5 557.5,-29.5 598.5,-29.5 598.5,-.5 557.5,-.5"/>
<text text-anchor="middle" x="578" y="-12.5" font-family="Times,serif" font-size="10.00" fill="#000000">Equal</text>
</a>
</g>
</g>
<!-- scalaz.Monoid -->
<g id="node12" class="node">
<title>scalaz.Monoid</title>
<g id="a_node12"><a xlink:href="https://github.com/scalaz/scalaz/tree/v7.3.2/core/src/main/scala/scalaz/Monoid.scala" xlink:title="scalaz.Monoid" target="_blank">
<polygon fill="#799f5a" stroke="#000000" points="266,-66.5 266,-95.5 316,-95.5 316,-66.5 266,-66.5"/>
<text text-anchor="middle" x="291" y="-78.5" font-family="Times,serif" font-size="10.00" fill="#000000">Monoid</text>
</a>
</g>
</g>
<!-- scalaz.Monoid&#45;&gt;scalaz.Semigroup -->
<g id="edge7" class="edge">
<title>scalaz.Monoid&#45;&gt;scalaz.Semigroup</title>
<path fill="none" stroke="#000000" d="M297.8799,-66.3525C301.6927,-58.2349 306.5258,-47.945 310.8629,-38.7113"/>
<polygon fill="#000000" stroke="#000000" points="314.0559,-40.1459 315.1393,-29.6066 307.7199,-37.1699 314.0559,-40.1459"/>
</g>
<!-- scalaz.Order&#45;&gt;scalaz.Equal -->
<g id="edge2" class="edge">
<title>scalaz.Order&#45;&gt;scalaz.Equal</title>
<path fill="none" stroke="#000000" d="M578,-66.3525C578,-58.5767 578,-48.8077 578,-39.8831"/>
<polygon fill="#000000" stroke="#000000" points="581.5001,-39.6066 578,-29.6066 574.5001,-39.6066 581.5001,-39.6066"/>
</g>
<!-- scalaz.ProChoice -->
<g id="node14" class="node">
<title>scalaz.ProChoice</title>
<g id="a_node14"><a xlink:href="https://github.com/scalaz/scalaz/tree/v7.3.2/core/src/main/scala/scalaz/ProChoice.scala" xlink:title="scalaz.ProChoice" target="_blank">
<polygon fill="#799f5a" stroke="#000000" points="188.5,-66.5 188.5,-95.5 247.5,-95.5 247.5,-66.5 188.5,-66.5"/>
<text text-anchor="middle" x="218" y="-78.5" font-family="Times,serif" font-size="10.00" fill="#000000">ProChoice</text>
</a>
</g>
</g>
<!-- scalaz.Profunctor -->
<g id="node15" class="node">
<title>scalaz.Profunctor</title>
<g id="a_node15"><a xlink:href="https://github.com/scalaz/scalaz/tree/v7.3.2/core/src/main/scala/scalaz/Profunctor.scala" xlink:title="scalaz.Profunctor" target="_blank">
<polygon fill="#799f5a" stroke="#000000" points="138.5,-.5 138.5,-29.5 197.5,-29.5 197.5,-.5 138.5,-.5"/>
<text text-anchor="middle" x="168" y="-12.5" font-family="Times,serif" font-size="10.00" fill="#000000">Profunctor</text>
</a>
</g>
</g>
<!-- scalaz.ProChoice&#45;&gt;scalaz.Profunctor -->
<g id="edge15" class="edge">
<title>scalaz.ProChoice&#45;&gt;scalaz.Profunctor</title>
<path fill="none" stroke="#000000" d="M206.9034,-66.3525C200.5595,-57.9786 192.4643,-47.2929 185.3029,-37.8398"/>
<polygon fill="#000000" stroke="#000000" points="187.894,-35.464 179.0656,-29.6066 182.3144,-39.6911 187.894,-35.464"/>
</g>
<!-- scalaz.SemiLattice -->
<g id="node16" class="node">
<title>scalaz.SemiLattice</title>
<g id="a_node16"><a xlink:href="https://github.com/scalaz/scalaz/tree/v7.3.2/core/src/main/scala/scalaz/SemiLattice.scala" xlink:title="scalaz.SemiLattice" target="_blank">
<polygon fill="#799f5a" stroke="#000000" points="320.5,-132.5 320.5,-161.5 385.5,-161.5 385.5,-132.5 320.5,-132.5"/>
<text text-anchor="middle" x="353" y="-144.5" font-family="Times,serif" font-size="10.00" fill="#000000">SemiLattice</text>
</a>
</g>
</g>
<!-- scalaz.SemiLattice&#45;&gt;scalaz.Band -->
<g id="edge6" class="edge">
<title>scalaz.SemiLattice&#45;&gt;scalaz.Band</title>
<path fill="none" stroke="#000000" d="M353,-132.3525C353,-124.5767 353,-114.8077 353,-105.8831"/>
<polygon fill="#000000" stroke="#000000" points="356.5001,-105.6066 353,-95.6066 349.5001,-105.6066 356.5001,-105.6066"/>
</g>
<!-- scalaz.Split&#45;&gt;scalaz.Compose -->
<g id="edge5" class="edge">
<title>scalaz.Split&#45;&gt;scalaz.Compose</title>
<path fill="none" stroke="#000000" d="M85.5614,-66.3525C83.1533,-58.4058 80.1143,-48.3773 77.3624,-39.2959"/>
<polygon fill="#000000" stroke="#000000" points="80.676,-38.1618 74.4262,-29.6066 73.9768,-40.1919 80.676,-38.1618"/>
</g>
<!-- scalaz.Strong&#45;&gt;scalaz.Profunctor -->
<g id="edge4" class="edge">
<title>scalaz.Strong&#45;&gt;scalaz.Profunctor</title>
<path fill="none" stroke="#000000" d="M152.4386,-66.3525C154.8467,-58.4058 157.8857,-48.3773 160.6376,-39.2959"/>
<polygon fill="#000000" stroke="#000000" points="164.0232,-40.1919 163.5738,-29.6066 157.324,-38.1618 164.0232,-40.1919"/>
</g>
</g>
</svg>

