<?xml version="1.0" encoding="UTF-8" standalone="no"?>
<!DOCTYPE svg PUBLIC "-//W3C//DTD SVG 1.1//EN"
 "http://www.w3.org/Graphics/SVG/1.1/DTD/svg11.dtd">
<!-- Generated by graphviz version 2.26.3 (20100126.1600)
 -->
<!-- Title: scalaz 7.2.14 diagram Pages: 1 -->
<svg width="576pt" height="170pt"
 viewBox="0.00 0.00 576.00 170.00" xmlns="http://www.w3.org/2000/svg" xmlns:xlink="http://www.w3.org/1999/xlink">
<g id="graph1" class="graph" transform="scale(1 1) rotate(0) translate(4 166)">
<title>scalaz 7.2.14 diagram</title>
<polygon fill="white" stroke="white" points="-4,5 -4,-166 573,-166 573,5 -4,5"/>
<!-- scalaz.Arrow -->
<g id="node1" class="node"><title>scalaz.Arrow</title>
<a xlink:href="https://github.com/scalaz/scalaz/tree/v7.2.14/core/src/main/scala/scalaz/Arrow.scala" xlink:title="scalaz.Arrow" target="_blank">
<polygon fill="#799f5a" stroke="black" points="75,-132.5 75,-161.5 119,-161.5 119,-132.5 75,-132.5"/>
<text text-anchor="middle" x="97" y="-144.5" font-family="Times Roman,serif" font-size="10.00">Arrow</text>
</a>
</g>
<!-- scalaz.Category -->
<g id="node7" class="node"><title>scalaz.Category</title>
<a xlink:href="https://github.com/scalaz/scalaz/tree/v7.2.14/core/src/main/scala/scalaz/Category.scala" xlink:title="scalaz.Category" target="_blank">
<polygon fill="#799f5a" stroke="black" points="0,-66.5 0,-95.5 60,-95.5 60,-66.5 0,-66.5"/>
<text text-anchor="middle" x="30" y="-78.5" font-family="Times Roman,serif" font-size="10.00">Category</text>
</a>
</g>
<!-- scalaz.Arrow&#45;&gt;scalaz.Category -->
<g id="edge26" class="edge"><title>scalaz.Arrow&#45;&gt;scalaz.Category</title>
<path fill="none" stroke="black" d="M82.1305,-132.352C73.2828,-123.637 61.8928,-112.417 52.0173,-102.689"/>
<polygon fill="black" stroke="black" points="54.4082,-100.131 44.8279,-95.6066 49.4958,-105.118 54.4082,-100.131"/>
</g>
<!-- scalaz.Split -->
<g id="node17" class="node"><title>scalaz.Split</title>
<a xlink:href="https://github.com/scalaz/scalaz/tree/v7.2.14/core/src/main/scala/scalaz/Split.scala" xlink:title="scalaz.Split" target="_blank">
<polygon fill="#799f5a" stroke="black" points="78,-66.5 78,-95.5 116,-95.5 116,-66.5 78,-66.5"/>
<text text-anchor="middle" x="97" y="-78.5" font-family="Times Roman,serif" font-size="10.00">Split</text>
</a>
</g>
<!-- scalaz.Arrow&#45;&gt;scalaz.Split -->
<g id="edge22" class="edge"><title>scalaz.Arrow&#45;&gt;scalaz.Split</title>
<path fill="none" stroke="black" d="M97,-132.352C97,-124.577 97,-114.808 97,-105.883"/>
<polygon fill="black" stroke="black" points="100.5,-105.607 97,-95.6066 93.5001,-105.607 100.5,-105.607"/>
</g>
<!-- scalaz.Strong -->
<g id="node18" class="node"><title>scalaz.Strong</title>
<a xlink:href="https://github.com/scalaz/scalaz/tree/v7.2.14/core/src/main/scala/scalaz/Strong.scala" xlink:title="scalaz.Strong" target="_blank">
<polygon fill="#799f5a" stroke="black" points="133.5,-66.5 133.5,-95.5 182.5,-95.5 182.5,-66.5 133.5,-66.5"/>
<text text-anchor="middle" x="158" y="-78.5" font-family="Times Roman,serif" font-size="10.00">Strong</text>
</a>
</g>
<!-- scalaz.Arrow&#45;&gt;scalaz.Strong -->
<g id="edge24" class="edge"><title>scalaz.Arrow&#45;&gt;scalaz.Strong</title>
<path fill="none" stroke="black" d="M110.538,-132.352C118.514,-123.722 128.76,-112.637 137.69,-102.975"/>
<polygon fill="black" stroke="black" points="140.283,-105.326 144.5,-95.6066 135.142,-100.575 140.283,-105.326"/>
</g>
<!-- scalaz.Associative -->
<g id="node2" class="node"><title>scalaz.Associative</title>
<a xlink:href="https://github.com/scalaz/scalaz/tree/v7.2.14/core/src/main/scala/scalaz/Associative.scala" xlink:title="scalaz.Associative" target="_blank">
<polygon fill="#799f5a" stroke="black" points="162.5,-132.5 162.5,-161.5 233.5,-161.5 233.5,-132.5 162.5,-132.5"/>
<text text-anchor="middle" x="198" y="-144.5" font-family="Times Roman,serif" font-size="10.00">Associative</text>
</a>
</g>
<!-- scalaz.Band -->
<g id="node3" class="node"><title>scalaz.Band</title>
<a xlink:href="https://github.com/scalaz/scalaz/tree/v7.2.14/core/src/main/scala/scalaz/Band.scala" xlink:title="scalaz.Band" target="_blank">
<polygon fill="#799f5a" stroke="black" points="254.5,-132.5 254.5,-161.5 295.5,-161.5 295.5,-132.5 254.5,-132.5"/>
<text text-anchor="middle" x="275" y="-144.5" font-family="Times Roman,serif" font-size="10.00">Band</text>
</a>
</g>
<!-- scalaz.Semigroup -->
<g id="node16" class="node"><title>scalaz.Semigroup</title>
<a xlink:href="https://github.com/scalaz/scalaz/tree/v7.2.14/core/src/main/scala/scalaz/Semigroup.scala" xlink:title="scalaz.Semigroup" target="_blank">
<polygon fill="#799f5a" stroke="black" points="281.5,-66.5 281.5,-95.5 350.5,-95.5 350.5,-66.5 281.5,-66.5"/>
<text text-anchor="middle" x="316" y="-78.5" font-family="Times Roman,serif" font-size="10.00">Semigroup</text>
</a>
</g>
<!-- scalaz.Band&#45;&gt;scalaz.Semigroup -->
<g id="edge10" class="edge"><title>scalaz.Band&#45;&gt;scalaz.Semigroup</title>
<path fill="none" stroke="black" d="M284.099,-132.352C289.248,-124.064 295.804,-113.511 301.632,-104.13"/>
<polygon fill="black" stroke="black" points="304.622,-105.948 306.926,-95.6066 298.676,-102.254 304.622,-105.948"/>
</g>
<!-- scalaz.Bifoldable -->
<g id="node4" class="node"><title>scalaz.Bifoldable</title>
<a xlink:href="https://github.com/scalaz/scalaz/tree/v7.2.14/core/src/main/scala/scalaz/Bifoldable.scala" xlink:title="scalaz.Bifoldable" target="_blank">
<polygon fill="#799f5a" stroke="black" points="367.5,-66.5 367.5,-95.5 430.5,-95.5 430.5,-66.5 367.5,-66.5"/>
<text text-anchor="middle" x="399" y="-78.5" font-family="Times Roman,serif" font-size="10.00">Bifoldable</text>
</a>
</g>
<!-- scalaz.Bifunctor -->
<g id="node5" class="node"><title>scalaz.Bifunctor</title>
<a xlink:href="https://github.com/scalaz/scalaz/tree/v7.2.14/core/src/main/scala/scalaz/Bifunctor.scala" xlink:title="scalaz.Bifunctor" target="_blank">
<polygon fill="#799f5a" stroke="black" points="447.5,-66.5 447.5,-95.5 506.5,-95.5 506.5,-66.5 447.5,-66.5"/>
<text text-anchor="middle" x="477" y="-78.5" font-family="Times Roman,serif" font-size="10.00">Bifunctor</text>
</a>
</g>
<!-- scalaz.Bitraverse -->
<g id="node6" class="node"><title>scalaz.Bitraverse</title>
<a xlink:href="https://github.com/scalaz/scalaz/tree/v7.2.14/core/src/main/scala/scalaz/Bitraverse.scala" xlink:title="scalaz.Bitraverse" target="_blank">
<polygon fill="#799f5a" stroke="black" points="403.5,-132.5 403.5,-161.5 468.5,-161.5 468.5,-132.5 403.5,-132.5"/>
<text text-anchor="middle" x="436" y="-144.5" font-family="Times Roman,serif" font-size="10.00">Bitraverse</text>
</a>
</g>
<!-- scalaz.Bitraverse&#45;&gt;scalaz.Bifoldable -->
<g id="edge18" class="edge"><title>scalaz.Bitraverse&#45;&gt;scalaz.Bifoldable</title>
<path fill="none" stroke="black" d="M427.789,-132.352C423.19,-124.149 417.348,-113.728 412.129,-104.42"/>
<polygon fill="black" stroke="black" points="415.132,-102.618 407.189,-95.6066 409.026,-106.041 415.132,-102.618"/>
</g>
<!-- scalaz.Bitraverse&#45;&gt;scalaz.Bifunctor -->
<g id="edge16" class="edge"><title>scalaz.Bitraverse&#45;&gt;scalaz.Bifunctor</title>
<path fill="none" stroke="black" d="M445.099,-132.352C450.248,-124.064 456.804,-113.511 462.632,-104.13"/>
<polygon fill="black" stroke="black" points="465.622,-105.948 467.926,-95.6066 459.676,-102.254 465.622,-105.948"/>
</g>
<!-- scalaz.Compose -->
<g id="node9" class="node"><title>scalaz.Compose</title>
<a xlink:href="https://github.com/scalaz/scalaz/tree/v7.2.14/core/src/main/scala/scalaz/Compose.scala" xlink:title="scalaz.Compose" target="_blank">
<polygon fill="#799f5a" stroke="black" points="22,-0.5 22,-29.5 84,-29.5 84,-0.5 22,-0.5"/>
<text text-anchor="middle" x="53" y="-12.5" font-family="Times Roman,serif" font-size="10.00">Compose</text>
</a>
</g>
<!-- scalaz.Category&#45;&gt;scalaz.Compose -->
<g id="edge4" class="edge"><title>scalaz.Category&#45;&gt;scalaz.Compose</title>
<path fill="none" stroke="black" d="M35.1044,-66.3525C37.8737,-58.4058 41.3685,-48.3773 44.5333,-39.2959"/>
<polygon fill="black" stroke="black" points="47.9241,-40.2014 47.9098,-29.6066 41.3139,-37.8978 47.9241,-40.2014"/>
</g>
<!-- scalaz.Choice -->
<g id="node8" class="node"><title>scalaz.Choice</title>
<a xlink:href="https://github.com/scalaz/scalaz/tree/v7.2.14/core/src/main/scala/scalaz/Choice.scala" xlink:title="scalaz.Choice" target="_blank">
<polygon fill="#799f5a" stroke="black" points="5.5,-132.5 5.5,-161.5 54.5,-161.5 54.5,-132.5 5.5,-132.5"/>
<text text-anchor="middle" x="30" y="-144.5" font-family="Times Roman,serif" font-size="10.00">Choice</text>
</a>
</g>
<!-- scalaz.Choice&#45;&gt;scalaz.Category -->
<g id="edge20" class="edge"><title>scalaz.Choice&#45;&gt;scalaz.Category</title>
<path fill="none" stroke="black" d="M30,-132.352C30,-124.577 30,-114.808 30,-105.883"/>
<polygon fill="black" stroke="black" points="33.5001,-105.607 30,-95.6066 26.5001,-105.607 33.5001,-105.607"/>
</g>
<!-- scalaz.Enum -->
<g id="node10" class="node"><title>scalaz.Enum</title>
<a xlink:href="https://github.com/scalaz/scalaz/tree/v7.2.14/core/src/main/scala/scalaz/Enum.scala" xlink:title="scalaz.Enum" target="_blank">
<polygon fill="#799f5a" stroke="black" points="524,-132.5 524,-161.5 568,-161.5 568,-132.5 524,-132.5"/>
<text text-anchor="middle" x="546" y="-144.5" font-family="Times Roman,serif" font-size="10.00">Enum</text>
</a>
</g>
<!-- scalaz.Order -->
<g id="node13" class="node"><title>scalaz.Order</title>
<a xlink:href="https://github.com/scalaz/scalaz/tree/v7.2.14/core/src/main/scala/scalaz/Order.scala" xlink:title="scalaz.Order" target="_blank">
<polygon fill="#799f5a" stroke="black" points="524,-66.5 524,-95.5 568,-95.5 568,-66.5 524,-66.5"/>
<text text-anchor="middle" x="546" y="-78.5" font-family="Times Roman,serif" font-size="10.00">Order</text>
</a>
</g>
<!-- scalaz.Enum&#45;&gt;scalaz.Order -->
<g id="edge14" class="edge"><title>scalaz.Enum&#45;&gt;scalaz.Order</title>
<path fill="none" stroke="black" d="M546,-132.352C546,-124.577 546,-114.808 546,-105.883"/>
<polygon fill="black" stroke="black" points="549.5,-105.607 546,-95.6066 542.5,-105.607 549.5,-105.607"/>
</g>
<!-- scalaz.Equal -->
<g id="node11" class="node"><title>scalaz.Equal</title>
<a xlink:href="https://github.com/scalaz/scalaz/tree/v7.2.14/core/src/main/scala/scalaz/Equal.scala" xlink:title="scalaz.Equal" target="_blank">
<polygon fill="#799f5a" stroke="black" points="524.5,-0.5 524.5,-29.5 567.5,-29.5 567.5,-0.5 524.5,-0.5"/>
<text text-anchor="middle" x="546" y="-12.5" font-family="Times Roman,serif" font-size="10.00">Equal</text>
</a>
</g>
<!-- scalaz.Monoid -->
<g id="node12" class="node"><title>scalaz.Monoid</title>
<a xlink:href="https://github.com/scalaz/scalaz/tree/v7.2.14/core/src/main/scala/scalaz/Monoid.scala" xlink:title="scalaz.Monoid" target="_blank">
<polygon fill="#799f5a" stroke="black" points="312.5,-132.5 312.5,-161.5 363.5,-161.5 363.5,-132.5 312.5,-132.5"/>
<text text-anchor="middle" x="338" y="-144.5" font-family="Times Roman,serif" font-size="10.00">Monoid</text>
</a>
</g>
<!-- scalaz.Monoid&#45;&gt;scalaz.Semigroup -->
<g id="edge12" class="edge"><title>scalaz.Monoid&#45;&gt;scalaz.Semigroup</title>
<path fill="none" stroke="black" d="M333.117,-132.352C330.469,-124.406 327.126,-114.377 324.099,-105.296"/>
<polygon fill="black" stroke="black" points="327.352,-103.987 320.869,-95.6066 320.711,-106.2 327.352,-103.987"/>
</g>
<!-- scalaz.Order&#45;&gt;scalaz.Equal -->
<g id="edge2" class="edge"><title>scalaz.Order&#45;&gt;scalaz.Equal</title>
<path fill="none" stroke="black" d="M546,-66.3525C546,-58.5767 546,-48.8077 546,-39.8831"/>
<polygon fill="black" stroke="black" points="549.5,-39.6066 546,-29.6066 542.5,-39.6066 549.5,-39.6066"/>
</g>
<!-- scalaz.ProChoice -->
<g id="node14" class="node"><title>scalaz.ProChoice</title>
<a xlink:href="https://github.com/scalaz/scalaz/tree/v7.2.14/core/src/main/scala/scalaz/ProChoice.scala" xlink:title="scalaz.ProChoice" target="_blank">
<polygon fill="#799f5a" stroke="black" points="199.5,-66.5 199.5,-95.5 264.5,-95.5 264.5,-66.5 199.5,-66.5"/>
<text text-anchor="middle" x="232" y="-78.5" font-family="Times Roman,serif" font-size="10.00">ProChoice</text>
</a>
</g>
<!-- scalaz.Profunctor -->
<g id="node15" class="node"><title>scalaz.Profunctor</title>
<a xlink:href="https://github.com/scalaz/scalaz/tree/v7.2.14/core/src/main/scala/scalaz/Profunctor.scala" xlink:title="scalaz.Profunctor" target="_blank">
<polygon fill="#799f5a" stroke="black" points="162,-0.5 162,-29.5 228,-29.5 228,-0.5 162,-0.5"/>
<text text-anchor="middle" x="195" y="-12.5" font-family="Times Roman,serif" font-size="10.00">Profunctor</text>
</a>
</g>
<!-- scalaz.ProChoice&#45;&gt;scalaz.Profunctor -->
<g id="edge28" class="edge"><title>scalaz.ProChoice&#45;&gt;scalaz.Profunctor</title>
<path fill="none" stroke="black" d="M223.789,-66.3525C219.19,-58.1495 213.348,-47.7281 208.129,-38.4201"/>
<polygon fill="black" stroke="black" points="211.132,-36.6179 203.189,-29.6066 205.026,-40.0409 211.132,-36.6179"/>
</g>
<!-- scalaz.Split&#45;&gt;scalaz.Compose -->
<g id="edge6" class="edge"><title>scalaz.Split&#45;&gt;scalaz.Compose</title>
<path fill="none" stroke="black" d="M87.235,-66.3525C81.7093,-58.064 74.6738,-47.5108 68.4197,-38.1296"/>
<polygon fill="black" stroke="black" points="71.197,-35.9856 62.7377,-29.6066 65.3726,-39.8686 71.197,-35.9856"/>
</g>
<!-- scalaz.Strong&#45;&gt;scalaz.Profunctor -->
<g id="edge8" class="edge"><title>scalaz.Strong&#45;&gt;scalaz.Profunctor</title>
<path fill="none" stroke="black" d="M166.211,-66.3525C170.81,-58.1495 176.652,-47.7281 181.871,-38.4201"/>
<polygon fill="black" stroke="black" points="184.974,-40.0409 186.811,-29.6066 178.868,-36.6179 184.974,-40.0409"/>
</g>
</g>
</svg>

