<?xml version="1.0" encoding="UTF-8" standalone="no"?>
<!DOCTYPE svg PUBLIC "-//W3C//DTD SVG 1.1//EN"
 "http://www.w3.org/Graphics/SVG/1.1/DTD/svg11.dtd">
<!-- Generated by graphviz version 2.26.3 (20100126.1600)
 -->
<!-- Title: scalaz 7.2.12 diagram Pages: 1 -->
<svg width="683pt" height="170pt"
 viewBox="0.00 0.00 683.00 170.00" xmlns="http://www.w3.org/2000/svg" xmlns:xlink="http://www.w3.org/1999/xlink">
<g id="graph1" class="graph" transform="scale(1 1) rotate(0) translate(4 166)">
<title>scalaz 7.2.12 diagram</title>
<polygon fill="white" stroke="white" points="-4,5 -4,-166 680,-166 680,5 -4,5"/>
<!-- scalaz.Arrow -->
<g id="node1" class="node"><title>scalaz.Arrow</title>
<a xlink:href="https://github.com/scalaz/scalaz/tree/v7.2.12/core/src/main/scala/scalaz/Arrow.scala" xlink:title="scalaz.Arrow" target="_blank">
<polygon fill="#799f5a" stroke="black" points="125,-132.5 125,-161.5 169,-161.5 169,-132.5 125,-132.5"/>
<text text-anchor="middle" x="147" y="-144.5" font-family="Times Roman,serif" font-size="10.00">Arrow</text>
</a>
</g>
<!-- scalaz.ArrowParent -->
<g id="node2" class="node"><title>scalaz.ArrowParent</title>
<a xlink:href="https://github.com/scalaz/scalaz/tree/v7.2.12/core/src/main/scala/scalaz/ArrowParent.scala" xlink:title="scalaz.ArrowParent" target="_blank">
<polygon fill="#799f5a" stroke="black" points="78,-66.5 78,-95.5 152,-95.5 152,-66.5 78,-66.5"/>
<text text-anchor="middle" x="115" y="-78.5" font-family="Times Roman,serif" font-size="10.00">ArrowParent</text>
</a>
</g>
<!-- scalaz.Arrow&#45;&gt;scalaz.ArrowParent -->
<g id="edge28" class="edge"><title>scalaz.Arrow&#45;&gt;scalaz.ArrowParent</title>
<path fill="none" stroke="black" d="M139.898,-132.352C135.962,-124.235 130.973,-113.945 126.496,-104.711"/>
<polygon fill="black" stroke="black" points="129.594,-103.078 122.082,-95.6066 123.295,-106.132 129.594,-103.078"/>
</g>
<!-- scalaz.Category -->
<g id="node8" class="node"><title>scalaz.Category</title>
<a xlink:href="https://github.com/scalaz/scalaz/tree/v7.2.12/core/src/main/scala/scalaz/Category.scala" xlink:title="scalaz.Category" target="_blank">
<polygon fill="#799f5a" stroke="black" points="0,-66.5 0,-95.5 60,-95.5 60,-66.5 0,-66.5"/>
<text text-anchor="middle" x="30" y="-78.5" font-family="Times Roman,serif" font-size="10.00">Category</text>
</a>
</g>
<!-- scalaz.Arrow&#45;&gt;scalaz.Category -->
<g id="edge26" class="edge"><title>scalaz.Arrow&#45;&gt;scalaz.Category</title>
<path fill="none" stroke="black" d="M124.993,-134.586C108.078,-125.044 84.3858,-111.679 64.8943,-100.684"/>
<polygon fill="black" stroke="black" points="66.4228,-97.5277 55.9933,-95.6629 62.9835,-103.625 66.4228,-97.5277"/>
</g>
<!-- scalaz.Split -->
<g id="node18" class="node"><title>scalaz.Split</title>
<a xlink:href="https://github.com/scalaz/scalaz/tree/v7.2.12/core/src/main/scala/scalaz/Split.scala" xlink:title="scalaz.Split" target="_blank">
<polygon fill="#799f5a" stroke="black" points="170,-66.5 170,-95.5 208,-95.5 208,-66.5 170,-66.5"/>
<text text-anchor="middle" x="189" y="-78.5" font-family="Times Roman,serif" font-size="10.00">Split</text>
</a>
</g>
<!-- scalaz.Arrow&#45;&gt;scalaz.Split -->
<g id="edge22" class="edge"><title>scalaz.Arrow&#45;&gt;scalaz.Split</title>
<path fill="none" stroke="black" d="M156.321,-132.352C161.596,-124.064 168.311,-113.511 174.281,-104.13"/>
<polygon fill="black" stroke="black" points="177.289,-105.922 179.705,-95.6066 171.383,-102.164 177.289,-105.922"/>
</g>
<!-- scalaz.Strong -->
<g id="node19" class="node"><title>scalaz.Strong</title>
<a xlink:href="https://github.com/scalaz/scalaz/tree/v7.2.12/core/src/main/scala/scalaz/Strong.scala" xlink:title="scalaz.Strong" target="_blank">
<polygon fill="#799f5a" stroke="black" points="225.5,-66.5 225.5,-95.5 274.5,-95.5 274.5,-66.5 225.5,-66.5"/>
<text text-anchor="middle" x="250" y="-78.5" font-family="Times Roman,serif" font-size="10.00">Strong</text>
</a>
</g>
<!-- scalaz.Arrow&#45;&gt;scalaz.Strong -->
<g id="edge24" class="edge"><title>scalaz.Arrow&#45;&gt;scalaz.Strong</title>
<path fill="none" stroke="black" d="M169.096,-132.841C183.56,-123.573 202.677,-111.324 218.696,-101.059"/>
<polygon fill="black" stroke="black" points="220.696,-103.934 227.228,-95.5919 216.92,-98.0402 220.696,-103.934"/>
</g>
<!-- scalaz.Associative -->
<g id="node3" class="node"><title>scalaz.Associative</title>
<a xlink:href="https://github.com/scalaz/scalaz/tree/v7.2.12/core/src/main/scala/scalaz/Associative.scala" xlink:title="scalaz.Associative" target="_blank">
<polygon fill="#799f5a" stroke="black" points="251.5,-132.5 251.5,-161.5 322.5,-161.5 322.5,-132.5 251.5,-132.5"/>
<text text-anchor="middle" x="287" y="-144.5" font-family="Times Roman,serif" font-size="10.00">Associative</text>
</a>
</g>
<!-- scalaz.Bifoldable -->
<g id="node4" class="node"><title>scalaz.Bifoldable</title>
<a xlink:href="https://github.com/scalaz/scalaz/tree/v7.2.12/core/src/main/scala/scalaz/Bifoldable.scala" xlink:title="scalaz.Bifoldable" target="_blank">
<polygon fill="#799f5a" stroke="black" points="373.5,-66.5 373.5,-95.5 436.5,-95.5 436.5,-66.5 373.5,-66.5"/>
<text text-anchor="middle" x="405" y="-78.5" font-family="Times Roman,serif" font-size="10.00">Bifoldable</text>
</a>
</g>
<!-- scalaz.Bifunctor -->
<g id="node5" class="node"><title>scalaz.Bifunctor</title>
<a xlink:href="https://github.com/scalaz/scalaz/tree/v7.2.12/core/src/main/scala/scalaz/Bifunctor.scala" xlink:title="scalaz.Bifunctor" target="_blank">
<polygon fill="#799f5a" stroke="black" points="453.5,-66.5 453.5,-95.5 512.5,-95.5 512.5,-66.5 453.5,-66.5"/>
<text text-anchor="middle" x="483" y="-78.5" font-family="Times Roman,serif" font-size="10.00">Bifunctor</text>
</a>
</g>
<!-- scalaz.BifunctorParent -->
<g id="node6" class="node"><title>scalaz.BifunctorParent</title>
<a xlink:href="https://github.com/scalaz/scalaz/tree/v7.2.12/core/src/main/scala/scalaz/BifunctorParent.scala" xlink:title="scalaz.BifunctorParent" target="_blank">
<polygon fill="#799f5a" stroke="black" points="438,-0.5 438,-29.5 528,-29.5 528,-0.5 438,-0.5"/>
<text text-anchor="middle" x="483" y="-12.5" font-family="Times Roman,serif" font-size="10.00">BifunctorParent</text>
</a>
</g>
<!-- scalaz.Bifunctor&#45;&gt;scalaz.BifunctorParent -->
<g id="edge4" class="edge"><title>scalaz.Bifunctor&#45;&gt;scalaz.BifunctorParent</title>
<path fill="none" stroke="black" d="M483,-66.3525C483,-58.5767 483,-48.8077 483,-39.8831"/>
<polygon fill="black" stroke="black" points="486.5,-39.6066 483,-29.6066 479.5,-39.6066 486.5,-39.6066"/>
</g>
<!-- scalaz.Bitraverse -->
<g id="node7" class="node"><title>scalaz.Bitraverse</title>
<a xlink:href="https://github.com/scalaz/scalaz/tree/v7.2.12/core/src/main/scala/scalaz/Bitraverse.scala" xlink:title="scalaz.Bitraverse" target="_blank">
<polygon fill="#799f5a" stroke="black" points="411.5,-132.5 411.5,-161.5 476.5,-161.5 476.5,-132.5 411.5,-132.5"/>
<text text-anchor="middle" x="444" y="-144.5" font-family="Times Roman,serif" font-size="10.00">Bitraverse</text>
</a>
</g>
<!-- scalaz.Bitraverse&#45;&gt;scalaz.Bifoldable -->
<g id="edge18" class="edge"><title>scalaz.Bitraverse&#45;&gt;scalaz.Bifoldable</title>
<path fill="none" stroke="black" d="M435.345,-132.352C430.497,-124.149 424.339,-113.728 418.839,-104.42"/>
<polygon fill="black" stroke="black" points="421.732,-102.435 413.631,-95.6066 415.705,-105.996 421.732,-102.435"/>
</g>
<!-- scalaz.Bitraverse&#45;&gt;scalaz.Bifunctor -->
<g id="edge16" class="edge"><title>scalaz.Bitraverse&#45;&gt;scalaz.Bifunctor</title>
<path fill="none" stroke="black" d="M452.655,-132.352C457.503,-124.149 463.661,-113.728 469.161,-104.42"/>
<polygon fill="black" stroke="black" points="472.295,-105.996 474.369,-95.6066 466.268,-102.435 472.295,-105.996"/>
</g>
<!-- scalaz.Compose -->
<g id="node10" class="node"><title>scalaz.Compose</title>
<a xlink:href="https://github.com/scalaz/scalaz/tree/v7.2.12/core/src/main/scala/scalaz/Compose.scala" xlink:title="scalaz.Compose" target="_blank">
<polygon fill="#799f5a" stroke="black" points="105,-0.5 105,-29.5 167,-29.5 167,-0.5 105,-0.5"/>
<text text-anchor="middle" x="136" y="-12.5" font-family="Times Roman,serif" font-size="10.00">Compose</text>
</a>
</g>
<!-- scalaz.Category&#45;&gt;scalaz.Compose -->
<g id="edge6" class="edge"><title>scalaz.Category&#45;&gt;scalaz.Compose</title>
<path fill="none" stroke="black" d="M53.5248,-66.3525C68.3462,-57.1241 87.6767,-45.0881 103.898,-34.9883"/>
<polygon fill="black" stroke="black" points="105.902,-37.8634 112.541,-29.6066 102.202,-31.9211 105.902,-37.8634"/>
</g>
<!-- scalaz.Choice -->
<g id="node9" class="node"><title>scalaz.Choice</title>
<a xlink:href="https://github.com/scalaz/scalaz/tree/v7.2.12/core/src/main/scala/scalaz/Choice.scala" xlink:title="scalaz.Choice" target="_blank">
<polygon fill="#799f5a" stroke="black" points="5.5,-132.5 5.5,-161.5 54.5,-161.5 54.5,-132.5 5.5,-132.5"/>
<text text-anchor="middle" x="30" y="-144.5" font-family="Times Roman,serif" font-size="10.00">Choice</text>
</a>
</g>
<!-- scalaz.Choice&#45;&gt;scalaz.Category -->
<g id="edge20" class="edge"><title>scalaz.Choice&#45;&gt;scalaz.Category</title>
<path fill="none" stroke="black" d="M30,-132.352C30,-124.577 30,-114.808 30,-105.883"/>
<polygon fill="black" stroke="black" points="33.5001,-105.607 30,-95.6066 26.5001,-105.607 33.5001,-105.607"/>
</g>
<!-- scalaz.Enum -->
<g id="node11" class="node"><title>scalaz.Enum</title>
<a xlink:href="https://github.com/scalaz/scalaz/tree/v7.2.12/core/src/main/scala/scalaz/Enum.scala" xlink:title="scalaz.Enum" target="_blank">
<polygon fill="#799f5a" stroke="black" points="545,-132.5 545,-161.5 589,-161.5 589,-132.5 545,-132.5"/>
<text text-anchor="middle" x="567" y="-144.5" font-family="Times Roman,serif" font-size="10.00">Enum</text>
</a>
</g>
<!-- scalaz.Order -->
<g id="node14" class="node"><title>scalaz.Order</title>
<a xlink:href="https://github.com/scalaz/scalaz/tree/v7.2.12/core/src/main/scala/scalaz/Order.scala" xlink:title="scalaz.Order" target="_blank">
<polygon fill="#799f5a" stroke="black" points="545,-66.5 545,-95.5 589,-95.5 589,-66.5 545,-66.5"/>
<text text-anchor="middle" x="567" y="-78.5" font-family="Times Roman,serif" font-size="10.00">Order</text>
</a>
</g>
<!-- scalaz.Enum&#45;&gt;scalaz.Order -->
<g id="edge14" class="edge"><title>scalaz.Enum&#45;&gt;scalaz.Order</title>
<path fill="none" stroke="black" d="M567,-132.352C567,-124.577 567,-114.808 567,-105.883"/>
<polygon fill="black" stroke="black" points="570.5,-105.607 567,-95.6066 563.5,-105.607 570.5,-105.607"/>
</g>
<!-- scalaz.Equal -->
<g id="node12" class="node"><title>scalaz.Equal</title>
<a xlink:href="https://github.com/scalaz/scalaz/tree/v7.2.12/core/src/main/scala/scalaz/Equal.scala" xlink:title="scalaz.Equal" target="_blank">
<polygon fill="#799f5a" stroke="black" points="545.5,-0.5 545.5,-29.5 588.5,-29.5 588.5,-0.5 545.5,-0.5"/>
<text text-anchor="middle" x="567" y="-12.5" font-family="Times Roman,serif" font-size="10.00">Equal</text>
</a>
</g>
<!-- scalaz.Monoid -->
<g id="node13" class="node"><title>scalaz.Monoid</title>
<a xlink:href="https://github.com/scalaz/scalaz/tree/v7.2.12/core/src/main/scala/scalaz/Monoid.scala" xlink:title="scalaz.Monoid" target="_blank">
<polygon fill="#799f5a" stroke="black" points="615.5,-132.5 615.5,-161.5 666.5,-161.5 666.5,-132.5 615.5,-132.5"/>
<text text-anchor="middle" x="641" y="-144.5" font-family="Times Roman,serif" font-size="10.00">Monoid</text>
</a>
</g>
<!-- scalaz.Semigroup -->
<g id="node17" class="node"><title>scalaz.Semigroup</title>
<a xlink:href="https://github.com/scalaz/scalaz/tree/v7.2.12/core/src/main/scala/scalaz/Semigroup.scala" xlink:title="scalaz.Semigroup" target="_blank">
<polygon fill="#799f5a" stroke="black" points="606.5,-66.5 606.5,-95.5 675.5,-95.5 675.5,-66.5 606.5,-66.5"/>
<text text-anchor="middle" x="641" y="-78.5" font-family="Times Roman,serif" font-size="10.00">Semigroup</text>
</a>
</g>
<!-- scalaz.Monoid&#45;&gt;scalaz.Semigroup -->
<g id="edge12" class="edge"><title>scalaz.Monoid&#45;&gt;scalaz.Semigroup</title>
<path fill="none" stroke="black" d="M641,-132.352C641,-124.577 641,-114.808 641,-105.883"/>
<polygon fill="black" stroke="black" points="644.5,-105.607 641,-95.6066 637.5,-105.607 644.5,-105.607"/>
</g>
<!-- scalaz.Order&#45;&gt;scalaz.Equal -->
<g id="edge2" class="edge"><title>scalaz.Order&#45;&gt;scalaz.Equal</title>
<path fill="none" stroke="black" d="M567,-66.3525C567,-58.5767 567,-48.8077 567,-39.8831"/>
<polygon fill="black" stroke="black" points="570.5,-39.6066 567,-29.6066 563.5,-39.6066 570.5,-39.6066"/>
</g>
<!-- scalaz.ProChoice -->
<g id="node15" class="node"><title>scalaz.ProChoice</title>
<a xlink:href="https://github.com/scalaz/scalaz/tree/v7.2.12/core/src/main/scala/scalaz/ProChoice.scala" xlink:title="scalaz.ProChoice" target="_blank">
<polygon fill="#799f5a" stroke="black" points="291.5,-66.5 291.5,-95.5 356.5,-95.5 356.5,-66.5 291.5,-66.5"/>
<text text-anchor="middle" x="324" y="-78.5" font-family="Times Roman,serif" font-size="10.00">ProChoice</text>
</a>
</g>
<!-- scalaz.Profunctor -->
<g id="node16" class="node"><title>scalaz.Profunctor</title>
<a xlink:href="https://github.com/scalaz/scalaz/tree/v7.2.12/core/src/main/scala/scalaz/Profunctor.scala" xlink:title="scalaz.Profunctor" target="_blank">
<polygon fill="#799f5a" stroke="black" points="254,-0.5 254,-29.5 320,-29.5 320,-0.5 254,-0.5"/>
<text text-anchor="middle" x="287" y="-12.5" font-family="Times Roman,serif" font-size="10.00">Profunctor</text>
</a>
</g>
<!-- scalaz.ProChoice&#45;&gt;scalaz.Profunctor -->
<g id="edge30" class="edge"><title>scalaz.ProChoice&#45;&gt;scalaz.Profunctor</title>
<path fill="none" stroke="black" d="M315.789,-66.3525C311.19,-58.1495 305.348,-47.7281 300.129,-38.4201"/>
<polygon fill="black" stroke="black" points="303.132,-36.6179 295.189,-29.6066 297.026,-40.0409 303.132,-36.6179"/>
</g>
<!-- scalaz.Split&#45;&gt;scalaz.Compose -->
<g id="edge8" class="edge"><title>scalaz.Split&#45;&gt;scalaz.Compose</title>
<path fill="none" stroke="black" d="M177.238,-66.3525C170.444,-57.8931 161.757,-47.0746 154.109,-37.5508"/>
<polygon fill="black" stroke="black" points="156.72,-35.2123 147.73,-29.6066 151.262,-39.5952 156.72,-35.2123"/>
</g>
<!-- scalaz.Strong&#45;&gt;scalaz.Profunctor -->
<g id="edge10" class="edge"><title>scalaz.Strong&#45;&gt;scalaz.Profunctor</title>
<path fill="none" stroke="black" d="M258.211,-66.3525C262.81,-58.1495 268.652,-47.7281 273.871,-38.4201"/>
<polygon fill="black" stroke="black" points="276.974,-40.0409 278.811,-29.6066 270.868,-36.6179 276.974,-40.0409"/>
</g>
</g>
</svg>

